<svg xmlns="http://www.w3.org/2000/svg" width="64" height="64" viewBox="0 0 64 64">
    <style>
        .st1{fill:#dabdff}
    </style>
    <path d="M23.8 5.1L1 50.7c-1.5 2.8-1.3 6.2.3 8.9S6 64 9.2 64h45.7c5.1 0 9.2-4.1 9.2-9.2 0-1.4-.4-2.8-1-4.1L40.3 5.1C38.7 2 35.5 0 32 0s-6.7 2-8.2 5.1z" fill="#7542e4"/>
    <path class="st1" d="M29.5 14.9c-1.2.9-1.9 2.4-1.8 4V37c.1 1.5 1 2.9 2.3 3.6 1.4.7 3.1.6 4.4-.3 1.3-.9 2-2.4 1.9-4V18.2c-.1-1.6-1-3-2.4-3.7-.6-.3-1.3-.5-1.9-.5-.9.1-1.8.4-2.5.9zM26.6 49.4c0 2.2 1.3 4.2 3.3 5.1 2 .9 4.4.4 6-1.1s2.1-3.9 1.2-6c-.8-2.1-2.9-3.4-5.1-3.4-3 0-5.4 2.4-5.4 5.4z"/>
</svg>
