<svg xmlns="http://www.w3.org/2000/svg" width="64" height="64" viewBox="0 0 64 64">
    <style>
        .st0{fill:#dabdff}.st1{fill:#7542e4}
    </style>
    <path class="st0" d="M64 45.1v2.8H6.4v-2.8l7.4-1.9h41.8z"/>
    <path class="st0" d="M9.1 42.4V8.7c0-1.5 1.2-2.7 2.7-2.7h46.7c1.5 0 2.7 1.2 2.7 2.7v33.7c0 1.5-1.2 2.7-2.7 2.7H11.8c-1.5 0-2.7-1.2-2.7-2.7z"/>
    <path class="st1" d="M57.5 8.8H12.9c-.2 0-.5.1-.7.3s-.3.4-.3.7v30.7c0 .2.1.5.3.7s.4.3.7.3h44.6c.5 0 .9-.4.9-.9V9.8c0-.2-.1-.5-.3-.7-.1-.2-.4-.3-.6-.3z"/>
    <path class="st1" d="M58 44.2H12.4c-.2 0-.4-.2-.4-.5s.2-.4.4-.5H58c.2 0 .4.2.4.5s-.2.4-.4.5z"/>
    <path class="st1" d="M38.3 46.4h-6.5c-.2 0-.4-.1-.4-.2-.1-.2-.1-.3 0-.5s.3-.2.4-.2h6.5c.2 0 .4.2.4.5s-.2.4-.4.4z"/>
    <g>
        <path class="st0" d="M22.1 17.3H2.8c-1.5 0-2.8 1.2-2.8 2.8v35.1C0 56.7 1.2 58 2.8 58h19.4c1.5 0 2.8-1.2 2.8-2.8V20.1c-.1-1.5-1.3-2.8-2.9-2.8z"/>
        <path class="st1" d="M21.2 20.1H3.7c-.2 0-.5.1-.7.3-.2.2-.3.4-.3.7v32.3c0 .2.1.5.3.7s.4.3.7.3h17.5c.5 0 .9-.4.9-.9V21c0-.2-.1-.5-.3-.7-.1-.1-.3-.2-.6-.2z"/>
        <path class="st1" d="M13.8 56.6h-2.6c-.3 0-.5-.2-.5-.5s.2-.5.5-.5h2.6c.3 0 .5.2.5.5s-.2.5-.5.5z"/>
        <circle class="st0" cx="7.8" cy="50.1" r="1.4"/>
        <circle class="st0" cx="12.5" cy="50.1" r="1.4"/>
        <circle class="st0" cx="17.1" cy="50.1" r="1.4"/>
    </g>
</svg>
