<svg xmlns="http://www.w3.org/2000/svg" width="136" height="208" viewBox="0 0 136 208"><defs><linearGradient id="a" x1="114.179" y1="18.59" x2="17.67" y2="111.703" gradientUnits="userSpaceOnUse"><stop offset=".048" stop-color="#fff44f"/><stop offset=".111" stop-color="#ffe847"/><stop offset=".225" stop-color="#ffc830"/><stop offset=".368" stop-color="#ff980e"/><stop offset=".401" stop-color="#ff8b16"/><stop offset=".462" stop-color="#ff672a"/><stop offset=".534" stop-color="#ff3647"/><stop offset=".705" stop-color="#e31587"/></linearGradient><radialGradient id="b" cx="-7907.187" cy="-8615.121" r="80.797" gradientTransform="matrix(1.5 0 0 1.5 11970.455 12936)" gradientUnits="userSpaceOnUse"><stop offset=".129" stop-color="#ffbd4f"/><stop offset=".186" stop-color="#ffac31"/><stop offset=".247" stop-color="#ff9d17"/><stop offset=".283" stop-color="#ff980e"/><stop offset=".403" stop-color="#ff563b"/><stop offset=".467" stop-color="#ff3750"/><stop offset=".71" stop-color="#f5156c"/><stop offset=".782" stop-color="#eb0878"/><stop offset=".86" stop-color="#e50080"/></radialGradient><radialGradient id="c" cx="-7936.711" cy="-8582.089" r="80.797" gradientTransform="matrix(1.5 0 0 1.5 11970.455 12936)" gradientUnits="userSpaceOnUse"><stop offset=".3" stop-color="#960e18"/><stop offset=".351" stop-color="#b11927" stop-opacity=".74"/><stop offset=".435" stop-color="#db293d" stop-opacity=".343"/><stop offset=".497" stop-color="#f5334b" stop-opacity=".094"/><stop offset=".53" stop-color="#ff3750" stop-opacity="0"/></radialGradient><radialGradient id="d" cx="-7926.97" cy="-8633.457" r="58.534" gradientTransform="matrix(1.5 0 0 1.5 11970.455 12936)" gradientUnits="userSpaceOnUse"><stop offset=".132" stop-color="#fff44f"/><stop offset=".252" stop-color="#ffdc3e"/><stop offset=".506" stop-color="#ff9d12"/><stop offset=".526" stop-color="#ff980e"/></radialGradient><radialGradient id="e" cx="-7945.648" cy="-8560.984" r="38.471" gradientTransform="matrix(1.5 0 0 1.5 11970.455 12936)" gradientUnits="userSpaceOnUse"><stop offset=".353" stop-color="#3a8ee6"/><stop offset=".472" stop-color="#5c79f0"/><stop offset=".669" stop-color="#9059ff"/><stop offset="1" stop-color="#c139e6"/></radialGradient><radialGradient id="f" cx="-7935.62" cy="-8591.546" r="20.397" gradientTransform="matrix(1.458 -.353 .413 1.708 15186.211 11921.467)" gradientUnits="userSpaceOnUse"><stop offset=".206" stop-color="#9059ff" stop-opacity="0"/><stop offset=".278" stop-color="#8c4ff3" stop-opacity=".064"/><stop offset=".747" stop-color="#7716a8" stop-opacity=".45"/><stop offset=".975" stop-color="#6e008b" stop-opacity=".6"/></radialGradient><radialGradient id="g" cx="-7937.731" cy="-8618.427" r="27.676" gradientTransform="matrix(1.5 0 0 1.5 11970.455 12936)" gradientUnits="userSpaceOnUse"><stop offset="0" stop-color="#ffe226"/><stop offset=".121" stop-color="#ffdb27"/><stop offset=".295" stop-color="#ffc82a"/><stop offset=".502" stop-color="#ffa930"/><stop offset=".732" stop-color="#ff7e37"/><stop offset=".792" stop-color="#ff7139"/></radialGradient><radialGradient id="h" cx="-7915.977" cy="-8635.981" r="118.081" gradientTransform="matrix(1.5 0 0 1.5 11970.455 12936)" gradientUnits="userSpaceOnUse"><stop offset=".113" stop-color="#fff44f"/><stop offset=".456" stop-color="#ff980e"/><stop offset=".622" stop-color="#ff5634"/><stop offset=".716" stop-color="#ff3647"/><stop offset=".904" stop-color="#e31587"/></radialGradient><radialGradient id="i" cx="-7927.165" cy="-8622.859" r="86.499" gradientTransform="matrix(.157 1.492 -.979 .103 -7115.863 12715.589)" gradientUnits="userSpaceOnUse"><stop offset="0" stop-color="#fff44f"/><stop offset=".06" stop-color="#ffe847"/><stop offset=".168" stop-color="#ffc830"/><stop offset=".304" stop-color="#ff980e"/><stop offset=".356" stop-color="#ff8b16"/><stop offset=".455" stop-color="#ff672a"/><stop offset=".57" stop-color="#ff3647"/><stop offset=".737" stop-color="#e31587"/></radialGradient><radialGradient id="j" cx="-7938.383" cy="-8608.176" r="73.72" gradientTransform="matrix(1.5 0 0 1.5 11970.455 12936)" gradientUnits="userSpaceOnUse"><stop offset=".137" stop-color="#fff44f"/><stop offset=".48" stop-color="#ff980e"/><stop offset=".592" stop-color="#ff5634"/><stop offset=".655" stop-color="#ff3647"/><stop offset=".904" stop-color="#e31587"/></radialGradient><radialGradient id="k" cx="-7918.923" cy="-8603.861" r="80.686" gradientTransform="matrix(1.5 0 0 1.5 11970.455 12936)" gradientUnits="userSpaceOnUse"><stop offset=".094" stop-color="#fff44f"/><stop offset=".231" stop-color="#ffe141"/><stop offset=".509" stop-color="#ffaf1e"/><stop offset=".626" stop-color="#ff980e"/></radialGradient><linearGradient id="l" x1="113.019" y1="18.091" x2="30.901" y2="100.209" gradientUnits="userSpaceOnUse"><stop offset=".167" stop-color="#fff44f" stop-opacity=".8"/><stop offset=".266" stop-color="#fff44f" stop-opacity=".634"/><stop offset=".489" stop-color="#fff44f" stop-opacity=".217"/><stop offset=".6" stop-color="#fff44f" stop-opacity="0"/></linearGradient></defs><path d="M121.874 40.247c-2.527-6.079-7.644-12.641-11.663-14.715a60.307 60.307 0 0 1 5.889 17.646l.012.1c-6.576-16.39-17.723-22.998-26.826-37.386a71.37 71.37 0 0 1-1.369-2.226 18.564 18.564 0 0 1-.64-1.2 10.582 10.582 0 0 1-.867-2.3.152.152 0 0 0-.132-.156.2.2 0 0 0-.11 0c-.008 0-.02.012-.029.016S86.11.04 86.1.047l.024-.033c-14.6 8.554-19.558 24.378-20.013 32.295a29.084 29.084 0 0 0-16 6.166 17.51 17.51 0 0 0-1.511-1.137 26.939 26.939 0 0 1-.163-14.209 43.074 43.074 0 0 0-13.992 10.815h-.027c-2.3-2.919-2.142-12.55-2.01-14.56a10.4 10.4 0 0 0-1.941 1.029 42.342 42.342 0 0 0-5.682 4.868 50.907 50.907 0 0 0-5.429 6.511v.009-.009a49.067 49.067 0 0 0-7.8 17.614c-.028.126-.052.257-.079.384-.109.512-.5 3.073-.572 3.63 0 .043-.008.084-.013.127a55.33 55.33 0 0 0-.942 8.021c0 .1-.006.2-.006.3A58.137 58.137 0 0 0 125.38 71.7c.1-.744.178-1.492.265-2.242a59.784 59.784 0 0 0-3.771-29.211zm-67 45.506c.272.13.527.272.806.4l.04.025a29.325 29.325 0 0 1-.851-.425zM68.186 50.69zm47.928-7.4l-.007-.057.01.063z" fill="url(#a)"/><path d="M121.874 40.247c-2.527-6.079-7.644-12.641-11.663-14.715a60.307 60.307 0 0 1 5.889 17.646c0-.014 0 .011.009.054l.01.063c5.485 14.872 2.5 30-1.81 39.236-6.661 14.3-22.79 28.952-48.035 28.238C38.995 110 14.967 89.755 10.481 63.244c-.817-4.18 0-6.3.411-9.7a43.268 43.268 0 0 0-.942 8.021c0 .1-.006.2-.006.3A58.137 58.137 0 0 0 125.38 71.7c.1-.744.178-1.492.265-2.242a59.784 59.784 0 0 0-3.771-29.211z" fill="url(#b)"/><path d="M121.874 40.247c-2.527-6.079-7.644-12.641-11.663-14.715a60.307 60.307 0 0 1 5.889 17.646c0-.014 0 .011.009.054l.01.063c5.485 14.872 2.5 30-1.81 39.236-6.661 14.3-22.79 28.952-48.035 28.238C38.995 110 14.967 89.755 10.481 63.244c-.817-4.18 0-6.3.411-9.7a43.268 43.268 0 0 0-.942 8.021c0 .1-.006.2-.006.3A58.137 58.137 0 0 0 125.38 71.7c.1-.744.178-1.492.265-2.242a59.784 59.784 0 0 0-3.771-29.211z" fill="url(#c)"/><path d="M93.623 47.08c.126.089.242.178.361.267a31.612 31.612 0 0 0-5.4-7.044C70.516 22.232 83.848 1.119 86.1.047l.024-.033c-14.6 8.554-19.558 24.378-20.013 32.295.677-.047 1.352-.1 2.042-.1a29.34 29.34 0 0 1 25.47 14.871z" fill="url(#d)"/><path d="M68.187 50.689c-.095 1.446-5.2 6.434-6.991 6.434-16.532 0-19.215 10-19.215 10 .732 8.422 6.594 15.357 13.694 19.027.324.167.652.318.98.468a33.52 33.52 0 0 0 1.707.7 25.793 25.793 0 0 0 7.565 1.459c28.975 1.36 34.588-34.643 13.678-45.1 5.355-.932 10.914 1.222 14.018 3.4A29.34 29.34 0 0 0 68.15 32.205c-.69 0-1.365.057-2.042.1a29.084 29.084 0 0 0-16 6.166c.886.751 1.887 1.753 4 3.829 3.939 3.891 14.057 7.917 14.079 8.389z" fill="url(#e)"/><path d="M68.187 50.689c-.095 1.446-5.2 6.434-6.991 6.434-16.532 0-19.215 10-19.215 10 .732 8.422 6.594 15.357 13.694 19.027.324.167.652.318.98.468a33.52 33.52 0 0 0 1.707.7 25.793 25.793 0 0 0 7.565 1.459c28.975 1.36 34.588-34.643 13.678-45.1 5.355-.932 10.914 1.222 14.018 3.4A29.34 29.34 0 0 0 68.15 32.205c-.69 0-1.365.057-2.042.1a29.084 29.084 0 0 0-16 6.166c.886.751 1.887 1.753 4 3.829 3.939 3.891 14.057 7.917 14.079 8.389z" fill="url(#f)"/><path d="M47.4 36.541c.471.306.86.562 1.2.8a26.939 26.939 0 0 1-.163-14.209 43.074 43.074 0 0 0-13.992 10.812c.279-.007 8.712-.159 12.955 2.597z" fill="url(#g)"/><path d="M10.481 63.244C14.967 89.755 38.995 110 66.272 110.769c25.245.714 41.374-13.941 48.035-28.238 4.306-9.241 7.3-24.364 1.81-39.236v-.006l-.007-.057c-.006-.043-.01-.068-.009-.054l.012.1c2.061 13.467-4.788 26.513-15.5 35.333l-.032.076c-20.862 16.99-40.826 10.251-44.868 7.492a33.295 33.295 0 0 1-.846-.422c-12.164-5.813-17.188-16.9-16.111-26.4a14.933 14.933 0 0 1-13.773-8.663s9.222-6.576 21.374-.857a28.947 28.947 0 0 0 21.828.857c-.022-.472-10.14-4.5-14.084-8.385-2.108-2.076-3.109-3.078-4-3.829a17.51 17.51 0 0 0-1.501-1.142c-.345-.235-.734-.491-1.2-.8-4.24-2.756-12.673-2.6-12.952-2.6h-.027c-2.3-2.919-2.142-12.55-2.01-14.56a10.4 10.4 0 0 0-1.941 1.029 42.342 42.342 0 0 0-5.682 4.868 50.907 50.907 0 0 0-5.429 6.511v.009-.009a49.067 49.067 0 0 0-7.8 17.614c-.031.132-2.096 9.161-1.078 13.844z" fill="url(#h)"/><path d="M88.587 40.3a31.612 31.612 0 0 1 5.4 7.044c.32.24.619.48.873.714 13.179 12.145 6.274 29.323 5.758 30.546 10.707-8.82 17.556-21.866 15.5-35.333-6.582-16.383-17.729-22.991-26.832-37.379a71.37 71.37 0 0 1-1.369-2.226 18.564 18.564 0 0 1-.64-1.2 10.582 10.582 0 0 1-.867-2.3.152.152 0 0 0-.132-.156.2.2 0 0 0-.11 0c-.008 0-.02.012-.029.016S86.11.04 86.1.047C83.848 1.119 70.516 22.232 88.587 40.3z" fill="url(#i)"/><path d="M94.857 48.061a11.407 11.407 0 0 0-.873-.714c-.119-.089-.235-.178-.361-.267-3.1-2.181-8.663-4.335-14.018-3.4 20.91 10.455 15.3 46.458-13.678 45.1a25.793 25.793 0 0 1-7.565-1.459 30.218 30.218 0 0 1-1.707-.7c-.328-.15-.656-.3-.98-.468l.04.025c4.042 2.759 24.006 9.5 44.868-7.492l.032-.076c.516-1.226 7.421-18.404-5.758-30.549z" fill="url(#j)"/><path d="M41.981 67.123s2.683-10 19.215-10c1.787 0 6.9-4.988 6.991-6.434a28.947 28.947 0 0 1-21.828-.857c-12.152-5.719-21.374.857-21.374.857a14.933 14.933 0 0 0 13.773 8.663c-1.077 9.505 3.947 20.588 16.111 26.4.272.13.527.272.806.4-7.1-3.672-12.962-10.607-13.694-19.029z" fill="url(#k)"/><path d="M121.874 40.247c-2.527-6.079-7.644-12.641-11.663-14.715a60.307 60.307 0 0 1 5.889 17.646l.012.1c-6.576-16.39-17.723-22.998-26.826-37.386a71.37 71.37 0 0 1-1.369-2.226 18.564 18.564 0 0 1-.64-1.2 10.582 10.582 0 0 1-.867-2.3.152.152 0 0 0-.132-.156.2.2 0 0 0-.11 0c-.008 0-.02.012-.029.016S86.11.04 86.1.047l.024-.033c-14.6 8.554-19.558 24.378-20.013 32.295.677-.047 1.352-.1 2.042-.1a29.34 29.34 0 0 1 25.47 14.871c-3.1-2.181-8.663-4.335-14.018-3.4 20.91 10.455 15.3 46.458-13.678 45.1a25.793 25.793 0 0 1-7.565-1.459 30.218 30.218 0 0 1-1.707-.7c-.328-.15-.656-.3-.98-.468l.04.025a33.295 33.295 0 0 1-.846-.422c.272.13.527.272.806.4-7.1-3.67-12.962-10.605-13.694-19.027 0 0 2.683-10 19.215-10 1.787 0 6.9-4.988 6.991-6.434-.022-.472-10.14-4.5-14.084-8.385-2.108-2.076-3.109-3.078-4-3.829a17.51 17.51 0 0 0-1.503-1.143 26.939 26.939 0 0 1-.163-14.209 43.074 43.074 0 0 0-13.992 10.815h-.027c-2.3-2.919-2.142-12.55-2.01-14.56a10.4 10.4 0 0 0-1.941 1.029 42.342 42.342 0 0 0-5.682 4.868 50.907 50.907 0 0 0-5.429 6.511v.009-.009a49.067 49.067 0 0 0-7.8 17.614c-.028.126-.052.257-.079.384-.109.512-.6 3.109-.67 3.666a67.673 67.673 0 0 0-.857 8.112c0 .1-.006.2-.006.3A58.137 58.137 0 0 0 125.38 71.7c.1-.744.178-1.492.265-2.242a59.784 59.784 0 0 0-3.771-29.211zm-5.767 2.985l.01.063v-.006z" fill="url(#l)"/><path d="M14.308 143.978H30.4v4.35H18.924v5.9H30.4v4.316H18.924v9.49h-4.616zM35.87 142.3a2.7 2.7 0 0 1-.033 5.4 2.553 2.553 0 0 1-2.67-2.636 2.669 2.669 0 0 1 2.703-2.764zm-2.27 7.939h4.55v17.792H33.6zm17.738 4.942a3.677 3.677 0 0 0-2.209-.791c-1.846 0-2.9 1.186-2.9 3.789v9.852h-4.523v-17.792h4.319v2.57a4.242 4.242 0 0 1 4.253-2.735 5.4 5.4 0 0 1 3.034.922zm1.88 4.052a9.1 9.1 0 0 1 9.166-9.357 8.758 8.758 0 0 1 9.132 9.061v1.878H57.664a4.66 4.66 0 0 0 4.912 3.723 4.771 4.771 0 0 0 4.418-2.636l3.792 2.274a9.354 9.354 0 0 1-8.342 4.217c-5.769 0-9.231-3.855-9.231-9.16zm4.517-2.009h9.363a4.485 4.485 0 0 0-4.747-3.526 4.573 4.573 0 0 0-4.621 3.526zm14.9-6.985h3.2v-.89c0-4.843 2.045-6.853 6.529-6.853h1.582v3.921h-1.291c-2.11 0-2.571.724-2.571 2.932v.89h3.857v4.085h-3.758v13.707H75.83v-13.707h-3.2zm12.166 8.9a9.113 9.113 0 0 1 9.3-9.259 9.259 9.259 0 1 1 0 18.517 8.978 8.978 0 0 1-9.301-9.262zm14.178 0a4.883 4.883 0 1 0-4.88 5.041 4.885 4.885 0 0 0 4.877-5.045zm10.55-.2l-6.429-8.7h5.341l3.792 5.469 3.89-5.469h5.243l-6.529 8.665 6.858 9.127h-5.308l-4.253-5.8-4.121 5.8H102.7zm-92.901 32.617a5.555 5.555 0 0 0 3.245-5.214c0-3.893-3.011-6.4-7.561-6.4H1.874v24.09h10.773c4.616 0 7.727-2.573 7.727-6.8a5.785 5.785 0 0 0-3.746-5.676zm-11.977-9.107h7.628c2.977 0 4.817 1.583 4.817 3.893s-1.606 4.026-4.583 4.026H4.651zm7.962 19.041H4.651v-8.581h7.828c3.346 0 5.086 1.749 5.086 4.291 0 2.507-1.941 4.29-4.952 4.29zm13.718-11.914v-3.366h-2.643v17.82H26.4v-9.768c0-3.927 1.739-5.643 4.75-5.643a4.009 4.009 0 0 1 2.208.561l1.137-2.573a5.957 5.957 0 0 0-3.01-.661 5 5 0 0 0-5.154 3.63zM44 185.847a9.274 9.274 0 1 0 9.4 9.274 9.213 9.213 0 0 0-9.4-9.274zm0 15.972a6.717 6.717 0 0 1 0-13.431 6.716 6.716 0 0 1 0 13.431zm31.415-1.584l-5.392-14.025h-2.542l-5.519 14.124-4.55-14.124h-2.877l5.921 17.82h2.676l5.554-14.123 5.553 14.123h2.476l6.256-17.82h-2.844zm17.23-6.5c-2.81-.561-4.985-.924-4.985-2.771 0-1.651 1.138-2.839 3.915-2.839a5.856 5.856 0 0 1 4.951 2.376l2.275-1.518a8.783 8.783 0 0 0-7.226-3.168c-4.282-.033-6.724 2.409-6.724 5.182 0 3.563 3.312 4.388 6.423 4.982 2.642.528 5.118.924 5.118 2.9 0 1.782-1.472 3.1-4.282 3.1a6.7 6.7 0 0 1-5.821-2.9l-2.375 1.584c1.6 2.277 4.182 3.729 8.129 3.729 4.717.033 7.126-2.739 7.126-5.544-.005-3.661-3.418-4.52-6.529-5.114zm18.2-7.887a9.2 9.2 0 0 0-9.433 9.34c0 5.214 3.747 9.206 9.534 9.206a9.311 9.311 0 0 0 8.4-4.521L117 198.519a6.995 6.995 0 0 1-12.913-2.375h15.953v-1.222a8.852 8.852 0 0 0-9.2-9.075zm-6.69 7.92a6.685 6.685 0 0 1 6.69-5.511 6.06 6.06 0 0 1 6.39 5.511zm26.966-7.821a5 5 0 0 0-5.152 3.63v-3.367h-2.649v17.82h2.71v-9.768c0-3.927 1.74-5.643 4.751-5.643a4 4 0 0 1 2.207.561l1.138-2.573a5.957 5.957 0 0 0-3.01-.661z" fill="#20123a"/></svg>