<svg xmlns="http://www.w3.org/2000/svg" viewBox="0 0 300 96">
  <style>
    .st0{fill:#ffffff;}
  </style>
  <path class="st0" d="M261.1 60.7c0 2.5 1.2 4.6 4.7 4.6 4 0 8.3-2.9 8.6-9.5-1.9-.3-3.8-.5-5.7-.5-4.1-.1-7.6 1.1-7.6 5.4z"/>
  <path class="st0" d="M0 0v96h300V0H0zm84.9 72.5H68.3V50.2c0-6.8-2.3-9.5-6.8-9.5-5.4 0-7.7 3.9-7.7 9.4v13.8H59v8.7H42.5V50.2c0-6.8-2.3-9.5-6.8-9.5-5.4 0-7.7 3.9-7.7 9.4v13.8h7.5v8.7h-24V64h5.3V41.4h-5.7v-8.6h17.1v6c2.4-4.2 6.5-6.7 12-6.7 5.7 0 11 2.7 12.9 8.6 2.2-5.3 6.7-8.6 12.9-8.6 7.1 0 13.6 4.3 13.6 13.7v18.1h5.3v8.6zm25.2.8c-12.2 0-20.6-7.5-20.6-20.1 0-11.6 7.1-21.2 21.3-21.2S132 41.6 132 52.6c0 12.7-9.2 20.7-21.9 20.7zm63.2-.8h-34.6l-1.1-6 21.8-25H147l-1.8 6.2-8.2-.9 1.4-13.9h34.9l.9 6-22 25H165l1.9-6.2 9 .9-2.6 13.9zm21.4 0h-11.9V58.2h11.9v14.3zm0-25.5h-11.9V32.8h11.9V47zm6.3 25.5L218.1 12h11.1L212 72.5h-11zm23 0L241.1 12h11.1l-17.1 60.5H224zm59 .8c-5.3 0-8.2-3.1-8.7-7.9-2.3 4-6.3 7.9-12.8 7.9-5.7 0-12.2-3.1-12.2-11.4 0-9.7 9.4-12 18.5-12 2.2 0 4.4.1 6.5.4V49c0-4-.1-8.9-6.5-8.9-2.4 0-4.2.2-6.1 1.1l-1.4 5.6-9.1-1 1.8-10.3c6.9-2.8 10.5-3.6 17-3.6 8.6 0 15.7 4.4 15.7 13.4v17.2c0 2.3.9 3.1 2.7 3.1.6 0 1.1-.1 1.7-.3l.1 6c-2.2 1.4-4.6 2-7.2 2z"/>
  <path class="st0" d="M110.6 40.7c-5.8 0-9.4 4.3-9.4 11.8 0 6.8 3.2 12.1 9.3 12.1 5.9 0 9.7-4.8 9.7-12.3.1-8-4.2-11.6-9.6-11.6z"/>
</svg>
