<svg height="208" width="154" xmlns="http://www.w3.org/2000/svg" viewBox="0 0 154 208"><linearGradient id="a" gradientUnits="userSpaceOnUse" x1="113.767" x2="38.059" y1="23.046" y2="99.318"><stop offset="0" stop-color="#ff9640"/><stop offset=".6" stop-color="#fc4055"/><stop offset="1" stop-color="#e31587"/></linearGradient><linearGradient id="b" gradientUnits="userSpaceOnUse" x1="114.838" x2="55.662" y1="11.012" y2="87.659"><stop offset="0" stop-color="#fff36e" stop-opacity=".8"/><stop offset=".094" stop-color="#fff36e" stop-opacity=".699"/><stop offset=".752" stop-color="#fff36e" stop-opacity="0"/></linearGradient><linearGradient id="c" gradientUnits="userSpaceOnUse" x1="36.741" x2="100.221" y1="109.342" y2="45.862"><stop offset="0" stop-color="#0090ed"/><stop offset=".325" stop-color="#5b6df8"/><stop offset=".529" stop-color="#9059ff"/><stop offset="1" stop-color="#b833e1"/></linearGradient><linearGradient id="d" gradientUnits="userSpaceOnUse" x1="16.853" x2="53.749" y1="60.511" y2="87.593"><stop offset="0" stop-color="#054096" stop-opacity=".6"/><stop offset=".127" stop-color="#1b3aa4" stop-opacity=".441"/><stop offset=".315" stop-color="#3633b5" stop-opacity=".249"/><stop offset=".502" stop-color="#4a2ec1" stop-opacity=".111"/><stop offset=".686" stop-color="#552bc9" stop-opacity=".028"/><stop offset=".864" stop-color="#592acb" stop-opacity="0"/></linearGradient><linearGradient id="e" gradientUnits="userSpaceOnUse" x1="130.248" x2="117.573" y1="58.56" y2="80.512"><stop offset="0" stop-color="#722291" stop-opacity=".5"/><stop offset=".5" stop-color="#722291" stop-opacity="0"/></linearGradient><path d="M76.994 120.005a21.835 21.835 0 0 1-14.26-5.093 419.973 419.973 0 0 1-40.6-40.62c-6.814-7.891-6.814-20.693-.02-28.56a419.517 419.517 0 0 1 40.6-40.6C70.6-1.688 83.4-1.686 91.272 5.108a420.054 420.054 0 0 1 40.6 40.643c6.814 7.892 6.814 20.693.02 28.561a237.115 237.115 0 0 1-4.152 4.612l-1.371 1.5a6.1 6.1 0 0 1-7.568 1.249 6.008 6.008 0 0 1-1.4-9.225l1.494-1.633c1.322-1.44 2.5-2.72 3.936-4.369 2.882-3.339 2.882-9.463-.022-12.826A407.709 407.709 0 0 0 83.4 14.169c-3.34-2.885-9.467-2.882-12.827.021A407.747 407.747 0 0 0 31.171 53.6c-2.883 3.339-2.883 9.463.021 12.827A407.73 407.73 0 0 0 70.6 105.851c3.336 2.882 9.464 2.881 12.827-.021 6.182-5.4 11.58-10.323 16.376-14.945L83.265 75.777c-.044-.04-.086-.081-.13-.123A10.358 10.358 0 0 1 80 67.957a10.671 10.671 0 0 1 3.671-7.729C87.009 57.322 89 53.873 89 51a12 12 0 0 0-23.944-1.192c-.443 4.731 4.021 9.1 5.4 10.332a10.5 10.5 0 0 1-.045 15.753l-7.3 6.487a6.1 6.1 0 0 1-7.665.456 6.005 6.005 0 0 1-.425-9.321l5.071-4.5a1.509 1.509 0 0 0 .076-2.165c-5.09-5.472-7.638-11.952-7.058-18.156A24 24 0 0 1 101 51c0 5.522-2.576 11.249-7.156 16.077a1.508 1.508 0 0 0 .05 2.159l17.535 16.02a7.62 7.62 0 0 1 2.422 5.442 7.53 7.53 0 0 1-2.209 5.391c-5.794 5.755-12.448 11.9-20.348 18.8a21.905 21.905 0 0 1-14.3 5.116z" fill="url(#a)"/><path d="M76.994 120.005a21.835 21.835 0 0 1-14.26-5.093 419.973 419.973 0 0 1-40.6-40.62c-6.814-7.891-6.814-20.693-.02-28.56a419.517 419.517 0 0 1 40.6-40.6C70.6-1.688 83.4-1.686 91.272 5.108a420.054 420.054 0 0 1 40.6 40.643c6.814 7.892 6.814 20.693.02 28.561a237.115 237.115 0 0 1-4.152 4.612l-1.371 1.5a6.1 6.1 0 0 1-7.568 1.249 6.008 6.008 0 0 1-1.4-9.225l1.494-1.633c1.322-1.44 2.5-2.72 3.936-4.369 2.882-3.339 2.882-9.463-.022-12.826A407.709 407.709 0 0 0 83.4 14.169c-3.34-2.885-9.467-2.882-12.827.021A407.747 407.747 0 0 0 31.171 53.6c-2.883 3.339-2.883 9.463.021 12.827A407.73 407.73 0 0 0 70.6 105.851c3.336 2.882 9.464 2.881 12.827-.021 6.182-5.4 11.58-10.323 16.376-14.945L83.265 75.777c-.044-.04-.086-.081-.13-.123A10.358 10.358 0 0 1 80 67.957a10.671 10.671 0 0 1 3.671-7.729C87.009 57.322 89 53.873 89 51a12 12 0 0 0-23.944-1.192c-.443 4.731 4.021 9.1 5.4 10.332a10.5 10.5 0 0 1-.045 15.753l-7.3 6.487a6.1 6.1 0 0 1-7.665.456 6.005 6.005 0 0 1-.425-9.321l5.071-4.5a1.509 1.509 0 0 0 .076-2.165c-5.09-5.472-7.638-11.952-7.058-18.156A24 24 0 0 1 101 51c0 5.522-2.576 11.249-7.156 16.077a1.508 1.508 0 0 0 .05 2.159l17.535 16.02a7.62 7.62 0 0 1 2.422 5.442 7.53 7.53 0 0 1-2.209 5.391c-5.794 5.755-12.448 11.9-20.348 18.8a21.905 21.905 0 0 1-14.3 5.116z" fill="url(#b)"/><path d="M130.056 62.484a56.01 56.01 0 0 0-7.248-8.866c2.9 3.363 2.9 9.487.022 12.826a220.545 220.545 0 0 1-3.936 4.369l-1.259 1.376a6.228 6.228 0 0 0-.077 8.51 6 6 0 0 0 8.71-.168l1.47-1.607a371.315 371.315 0 0 0 2.36-2.59l.091-.112c2.311-2.891 3.9-7.541-.133-13.738zM102.618 93.7l-2.813-2.814c-4.8 4.622-10.194 9.548-16.376 14.945-3.363 2.9-9.491 2.9-12.827.021a407.73 407.73 0 0 1-39.41-39.425c-2.9-3.364-2.9-9.488-.021-12.827 0 0-5.7 6.5-6.847 8.4-5.379 8.922 1.2 16.139 1.277 16.222a418.983 418.983 0 0 0 37.133 36.691 22.534 22.534 0 0 0 28.563-.021c4.3-3.754 8.23-7.286 11.854-10.654l.037-.035a6.621 6.621 0 0 0 .792-8.818 19.868 19.868 0 0 0-1.362-1.685z" fill="url(#c)"/><path d="M31.192 66.426c-2.9-3.364-2.9-9.488-.021-12.827 0 0-5.7 6.5-6.847 8.4-5.379 8.922 1.2 16.139 1.277 16.222 6.405 7.163 12.958 14 19.739 20.621l8.486-8.485a410.518 410.518 0 0 1-22.634-23.931z" fill="url(#d)" opacity=".9"/><path d="M130.056 62.484a56.01 56.01 0 0 0-7.248-8.866c2.9 3.363 2.9 9.487.022 12.826a220.545 220.545 0 0 1-3.936 4.369l-1.259 1.376a6.226 6.226 0 0 0-.076 8.51 6 6 0 0 0 8.709-.168l1.47-1.607a371.315 371.315 0 0 0 2.36-2.59l.091-.112c2.311-2.891 3.9-7.541-.133-13.738z" fill="url(#e)"/><path d="M23.308 143.978H39.4v4.35H27.924v5.9H39.4v4.316H27.924v9.49h-4.616zM44.87 142.3a2.7 2.7 0 0 1-.033 5.4 2.553 2.553 0 0 1-2.67-2.636 2.669 2.669 0 0 1 2.703-2.764zm-2.27 7.939h4.55v17.792H42.6zm17.738 4.942a3.677 3.677 0 0 0-2.209-.791c-1.846 0-2.9 1.186-2.9 3.789v9.852h-4.523v-17.792h4.319v2.57a4.242 4.242 0 0 1 4.253-2.735 5.4 5.4 0 0 1 3.034.922zm1.88 4.052a9.1 9.1 0 0 1 9.166-9.357 8.758 8.758 0 0 1 9.132 9.061v1.878H66.664a4.66 4.66 0 0 0 4.912 3.723 4.771 4.771 0 0 0 4.418-2.636l3.792 2.274a9.354 9.354 0 0 1-8.342 4.217c-5.769 0-9.231-3.855-9.231-9.16zm4.517-2.009h9.363a4.485 4.485 0 0 0-4.747-3.526 4.573 4.573 0 0 0-4.621 3.526zm14.9-6.985h3.2v-.89c0-4.843 2.045-6.853 6.529-6.853h1.582v3.921h-1.291c-2.11 0-2.571.724-2.571 2.932v.89h3.857v4.085h-3.758v13.707H84.83v-13.707h-3.2zm12.166 8.9a9.113 9.113 0 0 1 9.3-9.259 9.259 9.259 0 1 1 0 18.517 8.978 8.978 0 0 1-9.301-9.262zm14.178 0a4.883 4.883 0 1 0-4.88 5.041 4.885 4.885 0 0 0 4.877-5.045zm10.55-.2l-6.429-8.7h5.341l3.792 5.469 3.89-5.469h5.243l-6.529 8.665 6.858 9.127h-5.308l-4.253-5.8-4.121 5.8H111.7zM5.354 179.94h-2.81v24.09h15.389v-2.673H5.354zm23.554 5.907a9.273 9.273 0 1 0 0 18.546 9.274 9.274 0 1 0 0-18.546zm0 15.972a6.717 6.717 0 0 1 0-13.431 6.716 6.716 0 0 1 0 13.431zm21.545.033a6.707 6.707 0 0 1-6.757-6.731 6.623 6.623 0 0 1 6.657-6.733 6.386 6.386 0 0 1 6.055 3.96l2.509-1.089a9.089 9.089 0 0 0-8.531-5.412 9.275 9.275 0 1 0 .034 18.546 9.031 9.031 0 0 0 8.6-5.61l-2.542-1.056a6.46 6.46 0 0 1-6.025 4.125zm27.333-15.642H74.34l-9.568 10.066v-18.25h-2.71v26h2.71v-4.652l3.847-4.027 6.29 8.679h3.311l-7.593-10.362zm22.081 14.025l-5.386-14.025h-2.543l-5.52 14.124-4.549-14.124h-2.877l5.921 17.82h2.676l5.553-14.123L98.7 204.03h2.476l6.256-17.82h-2.843zm11.644-21.648a2.145 2.145 0 1 0 2.175 2.145 2.106 2.106 0 0 0-2.175-2.145zm-1.372 25.443h2.777v-17.82h-2.777zm13.917-10.3c-2.81-.561-4.984-.924-4.984-2.771 0-1.651 1.137-2.839 3.914-2.839a5.856 5.856 0 0 1 4.951 2.376l2.275-1.518a8.783 8.783 0 0 0-7.226-3.168c-4.282-.033-6.724 2.409-6.724 5.182 0 3.563 3.312 4.388 6.423 4.982 2.642.528 5.118.924 5.118 2.9 0 1.782-1.472 3.1-4.282 3.1a6.7 6.7 0 0 1-5.821-2.9l-2.375 1.584c1.605 2.277 4.182 3.729 8.129 3.729 4.717.033 7.126-2.739 7.126-5.544 0-3.656-3.412-4.515-6.524-5.109zm27.4 1.188a8.852 8.852 0 0 0-9.2-9.075 9.2 9.2 0 0 0-9.433 9.34c0 5.214 3.746 9.206 9.533 9.206a9.309 9.309 0 0 0 8.4-4.521l-2.342-1.353a6.995 6.995 0 0 1-12.913-2.375h15.958zm-15.891-1.155a6.686 6.686 0 0 1 6.691-5.511 6.059 6.059 0 0 1 6.389 5.511z" fill="#fff"/></svg>
