<svg height="172" width="270" xmlns="http://www.w3.org/2000/svg" viewBox="0 0 270 172"><linearGradient id="a" gradientUnits="userSpaceOnUse" x1="171.767" x2="96.059" y1="23.046" y2="99.318"><stop offset="0" stop-color="#ff9640"/><stop offset=".6" stop-color="#fc4055"/><stop offset="1" stop-color="#e31587"/></linearGradient><linearGradient id="b" gradientUnits="userSpaceOnUse" x1="172.838" x2="113.662" y1="11.012" y2="87.659"><stop offset="0" stop-color="#fff36e" stop-opacity=".8"/><stop offset=".094" stop-color="#fff36e" stop-opacity=".699"/><stop offset=".752" stop-color="#fff36e" stop-opacity="0"/></linearGradient><linearGradient id="c" gradientUnits="userSpaceOnUse" x1="94.741" x2="158.221" y1="109.342" y2="45.862"><stop offset="0" stop-color="#0090ed"/><stop offset=".325" stop-color="#5b6df8"/><stop offset=".529" stop-color="#9059ff"/><stop offset="1" stop-color="#b833e1"/></linearGradient><linearGradient id="d" gradientUnits="userSpaceOnUse" x1="74.853" x2="111.749" y1="60.511" y2="87.593"><stop offset="0" stop-color="#054096" stop-opacity=".6"/><stop offset=".127" stop-color="#1b3aa4" stop-opacity=".441"/><stop offset=".315" stop-color="#3633b5" stop-opacity=".249"/><stop offset=".502" stop-color="#4a2ec1" stop-opacity=".111"/><stop offset=".686" stop-color="#552bc9" stop-opacity=".028"/><stop offset=".864" stop-color="#592acb" stop-opacity="0"/></linearGradient><linearGradient id="e" gradientUnits="userSpaceOnUse" x1="188.248" x2="175.573" y1="58.56" y2="80.512"><stop offset="0" stop-color="#722291" stop-opacity=".5"/><stop offset=".5" stop-color="#722291" stop-opacity="0"/></linearGradient><path d="M134.994 120.005a21.835 21.835 0 0 1-14.26-5.093 419.973 419.973 0 0 1-40.6-40.62c-6.814-7.891-6.814-20.693-.02-28.56a419.517 419.517 0 0 1 40.6-40.6c7.893-6.817 20.694-6.815 28.563-.021a420.054 420.054 0 0 1 40.6 40.643c6.814 7.892 6.814 20.693.02 28.561a237.115 237.115 0 0 1-4.152 4.612l-1.371 1.5a6.1 6.1 0 0 1-7.568 1.249 6.008 6.008 0 0 1-1.4-9.225l1.494-1.633c1.322-1.44 2.5-2.72 3.936-4.369 2.882-3.339 2.882-9.463-.022-12.826a407.709 407.709 0 0 0-39.4-39.449c-3.34-2.885-9.467-2.882-12.827.021A407.747 407.747 0 0 0 89.171 53.6c-2.883 3.339-2.883 9.463.021 12.827a407.73 407.73 0 0 0 39.41 39.425c3.336 2.882 9.464 2.881 12.827-.021 6.182-5.4 11.58-10.323 16.376-14.945l-16.54-15.108c-.044-.04-.086-.081-.13-.123a10.358 10.358 0 0 1-3.138-7.7 10.671 10.671 0 0 1 3.671-7.729C145.009 57.322 147 53.873 147 51a12 12 0 0 0-23.944-1.192c-.443 4.731 4.021 9.1 5.4 10.332a10.5 10.5 0 0 1-.045 15.753l-7.3 6.487a6.1 6.1 0 0 1-7.665.456 6.005 6.005 0 0 1-.425-9.321l5.071-4.5a1.509 1.509 0 0 0 .076-2.165c-5.09-5.472-7.638-11.952-7.058-18.156A24 24 0 0 1 159 51c0 5.522-2.576 11.249-7.156 16.077a1.508 1.508 0 0 0 .05 2.159l17.535 16.02a7.62 7.62 0 0 1 2.422 5.442 7.53 7.53 0 0 1-2.209 5.391c-5.794 5.755-12.448 11.9-20.348 18.8a21.905 21.905 0 0 1-14.3 5.116z" fill="url(#a)"/><path d="M134.994 120.005a21.835 21.835 0 0 1-14.26-5.093 419.973 419.973 0 0 1-40.6-40.62c-6.814-7.891-6.814-20.693-.02-28.56a419.517 419.517 0 0 1 40.6-40.6c7.893-6.817 20.694-6.815 28.563-.021a420.054 420.054 0 0 1 40.6 40.643c6.814 7.892 6.814 20.693.02 28.561a237.115 237.115 0 0 1-4.152 4.612l-1.371 1.5a6.1 6.1 0 0 1-7.568 1.249 6.008 6.008 0 0 1-1.4-9.225l1.494-1.633c1.322-1.44 2.5-2.72 3.936-4.369 2.882-3.339 2.882-9.463-.022-12.826a407.709 407.709 0 0 0-39.4-39.449c-3.34-2.885-9.467-2.882-12.827.021A407.747 407.747 0 0 0 89.171 53.6c-2.883 3.339-2.883 9.463.021 12.827a407.73 407.73 0 0 0 39.41 39.425c3.336 2.882 9.464 2.881 12.827-.021 6.182-5.4 11.58-10.323 16.376-14.945l-16.54-15.108c-.044-.04-.086-.081-.13-.123a10.358 10.358 0 0 1-3.138-7.7 10.671 10.671 0 0 1 3.671-7.729C145.009 57.322 147 53.873 147 51a12 12 0 0 0-23.944-1.192c-.443 4.731 4.021 9.1 5.4 10.332a10.5 10.5 0 0 1-.045 15.753l-7.3 6.487a6.1 6.1 0 0 1-7.665.456 6.005 6.005 0 0 1-.425-9.321l5.071-4.5a1.509 1.509 0 0 0 .076-2.165c-5.09-5.472-7.638-11.952-7.058-18.156A24 24 0 0 1 159 51c0 5.522-2.576 11.249-7.156 16.077a1.508 1.508 0 0 0 .05 2.159l17.535 16.02a7.62 7.62 0 0 1 2.422 5.442 7.53 7.53 0 0 1-2.209 5.391c-5.794 5.755-12.448 11.9-20.348 18.8a21.905 21.905 0 0 1-14.3 5.116z" fill="url(#b)"/><path d="M188.056 62.484a56.01 56.01 0 0 0-7.248-8.866c2.9 3.363 2.9 9.487.022 12.826a220.545 220.545 0 0 1-3.936 4.369l-1.259 1.376a6.228 6.228 0 0 0-.077 8.51 6 6 0 0 0 8.71-.168l1.47-1.607a371.315 371.315 0 0 0 2.36-2.59l.091-.112c2.311-2.891 3.9-7.541-.133-13.738zM160.618 93.7l-2.813-2.814c-4.8 4.622-10.194 9.548-16.376 14.945-3.363 2.9-9.491 2.9-12.827.021a407.73 407.73 0 0 1-39.41-39.425c-2.9-3.364-2.9-9.488-.021-12.827 0 0-5.7 6.5-6.847 8.4-5.379 8.922 1.2 16.139 1.277 16.222a418.983 418.983 0 0 0 37.133 36.691 22.534 22.534 0 0 0 28.563-.021c4.3-3.754 8.23-7.286 11.854-10.654l.037-.035a6.621 6.621 0 0 0 .792-8.818 19.868 19.868 0 0 0-1.362-1.685z" fill="url(#c)"/><path d="M89.192 66.426c-2.9-3.364-2.9-9.488-.021-12.827 0 0-5.7 6.5-6.847 8.4-5.379 8.922 1.2 16.139 1.277 16.222 6.405 7.163 12.958 14 19.739 20.621l8.486-8.485a410.518 410.518 0 0 1-22.634-23.931z" fill="url(#d)" opacity=".9"/><path d="M188.056 62.484a56.01 56.01 0 0 0-7.248-8.866c2.9 3.363 2.9 9.487.022 12.826a220.545 220.545 0 0 1-3.936 4.369l-1.259 1.376a6.226 6.226 0 0 0-.076 8.51 6 6 0 0 0 8.709-.168l1.47-1.607a371.315 371.315 0 0 0 2.36-2.59l.091-.112c2.311-2.891 3.9-7.541-.133-13.738z" fill="url(#e)"/><path d="M1.228 144.59h16.086v4.349H5.843v5.9h11.471v4.315H5.843v9.488H1.228zm21.558-1.68a2.7 2.7 0 0 1-.033 5.4 2.553 2.553 0 0 1-2.67-2.636 2.669 2.669 0 0 1 2.703-2.764zm-2.274 7.939h4.549v17.789h-4.549zm17.734 4.941a3.676 3.676 0 0 0-2.208-.79c-1.846 0-2.9 1.186-2.9 3.788v9.85h-4.517v-17.789h4.318v2.57a4.242 4.242 0 0 1 4.252-2.735 5.4 5.4 0 0 1 3.033.923zm1.879 4.052a9.1 9.1 0 0 1 9.164-9.355 8.757 8.757 0 0 1 9.131 9.059v1.877H44.575a4.661 4.661 0 0 0 4.912 3.723 4.77 4.77 0 0 0 4.413-2.636l3.791 2.273A9.35 9.35 0 0 1 49.355 169c-5.769 0-9.23-3.854-9.23-9.158zm4.516-2.009H54a4.484 4.484 0 0 0-4.747-3.525 4.573 4.573 0 0 0-4.612 3.525zm14.9-6.984h3.2v-.889c0-4.843 2.044-6.852 6.527-6.852h1.583v3.92h-1.289c-2.11 0-2.571.725-2.571 2.932v.889h3.857v4.085H67.09v13.7h-4.352v-13.7h-3.2zm12.164 8.894a9.11 9.11 0 0 1 9.3-9.256A9.257 9.257 0 1 1 81 169a8.975 8.975 0 0 1-9.295-9.257zm14.174 0a4.881 4.881 0 1 0-4.879 5.04 4.884 4.884 0 0 0 4.879-5.04zm10.548-.2L90 150.849h5.34l3.791 5.468 3.889-5.468h5.241l-6.526 8.664 6.856 9.125h-5.307l-4.252-5.8-4.121 5.8H89.6zm26.903-14.891h-2.8v23.982h15.319v-2.662H123.33zm23.447 5.881a9.232 9.232 0 1 0 9.358 9.231 9.172 9.172 0 0 0-9.358-9.231zm0 15.9a6.687 6.687 0 0 1 0-13.371 6.686 6.686 0 0 1 0 13.371zm21.448.033a6.677 6.677 0 0 1-6.726-6.7 6.593 6.593 0 0 1 6.627-6.7 6.359 6.359 0 0 1 6.028 3.934l2.5-1.084a9.048 9.048 0 0 0-8.492-5.387 9.233 9.233 0 1 0 .03 18.471 8.991 8.991 0 0 0 8.559-5.585l-2.531-1.051a6.432 6.432 0 0 1-5.995 4.102zm27.21-15.572h-3.43l-9.525 10.02v-18.167h-2.7v25.887h2.7V164l3.829-4.008 6.261 8.64h3.3l-7.559-10.316zm21.981 13.962l-5.362-13.962h-2.531l-5.5 14.06-4.529-14.06h-2.864l5.9 17.74h2.664l5.528-14.06 5.528 14.06h2.465l6.227-17.74h-2.831zm11.592-21.55a2.135 2.135 0 1 0 2.164 2.135 2.1 2.1 0 0 0-2.164-2.135zm-1.366 25.328h2.764v-17.74h-2.764zm13.854-10.25c-2.8-.558-4.962-.92-4.962-2.759 0-1.643 1.132-2.825 3.9-2.825a5.831 5.831 0 0 1 4.929 2.365l2.264-1.511a8.741 8.741 0 0 0-7.193-3.154c-4.263-.033-6.694 2.4-6.694 5.158 0 3.547 3.3 4.369 6.394 4.96 2.631.526 5.095.92 5.095 2.891 0 1.774-1.465 3.088-4.263 3.088a6.671 6.671 0 0 1-5.794-2.891l-2.365 1.577c1.6 2.267 4.163 3.712 8.093 3.712 4.7.033 7.093-2.726 7.093-5.519-.003-3.646-3.4-4.5-6.493-5.092zm27.276 1.183a8.811 8.811 0 0 0-9.158-9.034 9.161 9.161 0 0 0-9.391 9.3c0 5.19 3.729 9.165 9.49 9.165a9.266 9.266 0 0 0 8.359-4.5l-2.331-1.346a6.963 6.963 0 0 1-12.854-2.365h15.885zm-15.819-1.15a6.656 6.656 0 0 1 6.661-5.486 6.031 6.031 0 0 1 6.36 5.486z" fill="#fff"/></svg>
