<svg height="80" width="246" xmlns="http://www.w3.org/2000/svg" viewBox="0 0 246 80"><linearGradient id="a" gradientUnits="userSpaceOnUse" x1="64.51" x2="14.037" y1="15.364" y2="66.212"><stop offset="0" stop-color="#ff9640"/><stop offset=".6" stop-color="#fc4055"/><stop offset="1" stop-color="#e31587"/></linearGradient><linearGradient id="b" gradientUnits="userSpaceOnUse" x1="65.224" x2="25.773" y1="7.341" y2="58.44"><stop offset="0" stop-color="#fff36e" stop-opacity=".8"/><stop offset=".094" stop-color="#fff36e" stop-opacity=".699"/><stop offset=".752" stop-color="#fff36e" stop-opacity="0"/></linearGradient><linearGradient id="c" gradientUnits="userSpaceOnUse" x1="13.158" x2="55.479" y1="72.895" y2="30.575"><stop offset="0" stop-color="#0090ed"/><stop offset=".325" stop-color="#5b6df8"/><stop offset=".529" stop-color="#9059ff"/><stop offset="1" stop-color="#b833e1"/></linearGradient><linearGradient id="d" gradientUnits="userSpaceOnUse" x1="-.1" x2="24.498" y1="40.341" y2="58.395"><stop offset="0" stop-color="#054096" stop-opacity=".6"/><stop offset=".127" stop-color="#1b3aa4" stop-opacity=".441"/><stop offset=".315" stop-color="#3633b5" stop-opacity=".249"/><stop offset=".502" stop-color="#4a2ec1" stop-opacity=".111"/><stop offset=".686" stop-color="#552bc9" stop-opacity=".028"/><stop offset=".864" stop-color="#592acb" stop-opacity="0"/></linearGradient><linearGradient id="e" gradientUnits="userSpaceOnUse" x1="75.497" x2="67.047" y1="39.04" y2="53.675"><stop offset="0" stop-color="#722291" stop-opacity=".5"/><stop offset=".5" stop-color="#722291" stop-opacity="0"/></linearGradient><path d="M39.994 80a14.559 14.559 0 0 1-9.507-3.395A279.9 279.9 0 0 1 3.418 49.528a15.021 15.021 0 0 1-.018-19.04A279.767 279.767 0 0 1 30.471 3.419a15.023 15.023 0 0 1 19.042-.014A280.029 280.029 0 0 1 76.578 30.5a15.023 15.023 0 0 1 .014 19.041 160.244 160.244 0 0 1-2.769 3.075l-.913 1a4.065 4.065 0 0 1-5.046.832 4.005 4.005 0 0 1-.932-6.15l1-1.088a149.103 149.103 0 0 0 2.624-2.913 7.042 7.042 0 0 0-.015-8.551 271.95 271.95 0 0 0-26.269-26.3 7.041 7.041 0 0 0-8.552.014A271.79 271.79 0 0 0 9.445 35.732a7.042 7.042 0 0 0 .014 8.552 271.813 271.813 0 0 0 26.273 26.283 7.044 7.044 0 0 0 8.552-.014c4.121-3.6 7.72-6.882 10.917-9.963L44.175 50.518l-.087-.082A6.906 6.906 0 0 1 42 45.305a7.114 7.114 0 0 1 2.447-5.153C46.671 38.214 48 35.915 48 34a8 8 0 0 0-15.963-.8c-.295 3.154 2.681 6.07 3.6 6.888a7 7 0 0 1-.031 10.5l-4.867 4.332a4.065 4.065 0 0 1-5.109.3 4 4 0 0 1-.284-6.214l3.381-3a1.007 1.007 0 0 0 .051-1.443c-3.394-3.649-5.093-7.968-4.706-12.1A16 16 0 0 1 56 34a15.925 15.925 0 0 1-4.77 10.718 1 1 0 0 0 .033 1.439l11.69 10.68a5.079 5.079 0 0 1 1.614 3.628 5.016 5.016 0 0 1-1.467 3.594C59.232 67.9 54.8 72 49.529 76.594A14.606 14.606 0 0 1 39.994 80z" fill="url(#a)"/><path d="M39.994 80a14.559 14.559 0 0 1-9.507-3.395A279.9 279.9 0 0 1 3.418 49.528a15.021 15.021 0 0 1-.018-19.04A279.767 279.767 0 0 1 30.471 3.419a15.023 15.023 0 0 1 19.042-.014A280.029 280.029 0 0 1 76.578 30.5a15.023 15.023 0 0 1 .014 19.041 160.244 160.244 0 0 1-2.769 3.075l-.913 1a4.065 4.065 0 0 1-5.046.832 4.005 4.005 0 0 1-.932-6.15l1-1.088a149.103 149.103 0 0 0 2.624-2.913 7.042 7.042 0 0 0-.015-8.551 271.95 271.95 0 0 0-26.269-26.3 7.041 7.041 0 0 0-8.552.014A271.79 271.79 0 0 0 9.445 35.732a7.042 7.042 0 0 0 .014 8.552 271.813 271.813 0 0 0 26.273 26.283 7.044 7.044 0 0 0 8.552-.014c4.121-3.6 7.72-6.882 10.917-9.963L44.175 50.518l-.087-.082A6.906 6.906 0 0 1 42 45.305a7.114 7.114 0 0 1 2.447-5.153C46.671 38.214 48 35.915 48 34a8 8 0 0 0-15.963-.8c-.295 3.154 2.681 6.07 3.6 6.888a7 7 0 0 1-.031 10.5l-4.867 4.332a4.065 4.065 0 0 1-5.109.3 4 4 0 0 1-.284-6.214l3.381-3a1.007 1.007 0 0 0 .051-1.443c-3.394-3.649-5.093-7.968-4.706-12.1A16 16 0 0 1 56 34a15.925 15.925 0 0 1-4.77 10.718 1 1 0 0 0 .033 1.439l11.69 10.68a5.079 5.079 0 0 1 1.614 3.628 5.016 5.016 0 0 1-1.467 3.594C59.232 67.9 54.8 72 49.529 76.594A14.606 14.606 0 0 1 39.994 80z" fill="url(#b)"/><path d="M75.369 41.656a37.313 37.313 0 0 0-4.832-5.911 7.042 7.042 0 0 1 .015 8.551c-.96 1.1-1.743 1.953-2.624 2.913l-.84.917a4.151 4.151 0 0 0-.051 5.673 4 4 0 0 0 5.807-.112l.979-1.071a225.682 225.682 0 0 0 1.574-1.727l.06-.074c1.543-1.928 2.6-5.027-.088-9.159zm-18.292 20.81L55.2 60.59c-3.2 3.081-6.8 6.365-10.917 9.963a7.044 7.044 0 0 1-8.552.014A271.813 271.813 0 0 1 9.459 44.284a7.042 7.042 0 0 1-.014-8.552s-3.8 4.331-4.565 5.6a9.176 9.176 0 0 0 .852 10.815 279.447 279.447 0 0 0 24.755 24.46 15.024 15.024 0 0 0 19.042-.014c2.867-2.5 5.487-4.858 7.9-7.1l.025-.023a4.415 4.415 0 0 0 .528-5.879 13.488 13.488 0 0 0-.905-1.125z" fill="url(#c)"/><path d="M9.459 44.284a7.042 7.042 0 0 1-.014-8.552s-3.8 4.331-4.565 5.6a9.176 9.176 0 0 0 .852 10.815A282.118 282.118 0 0 0 18.891 65.9l5.657-5.657A275.396 275.396 0 0 1 9.459 44.284z" fill="url(#d)" opacity=".9"/><path d="M75.369 41.656a37.313 37.313 0 0 0-4.832-5.911 7.042 7.042 0 0 1 .015 8.551c-.96 1.1-1.743 1.953-2.624 2.913l-.84.917a4.151 4.151 0 0 0-.051 5.673 4 4 0 0 0 5.807-.112l.979-1.071a225.682 225.682 0 0 0 1.574-1.727l.06-.074c1.543-1.928 2.6-5.027-.088-9.159z" fill="url(#e)"/><path d="M96 11.978h16.09v4.35h-11.474v5.9h11.474v4.316h-11.474v9.49H96zm21.563-1.68a2.588 2.588 0 0 1 2.67 2.7 2.687 2.687 0 0 1-5.374.066 2.669 2.669 0 0 1 2.704-2.764zm-2.275 7.941h4.55v17.792h-4.55zm17.738 4.942a3.682 3.682 0 0 0-2.209-.791c-1.847 0-2.9 1.186-2.9 3.789v9.852H123.4V18.239h4.319v2.57a4.244 4.244 0 0 1 4.254-2.735A5.4 5.4 0 0 1 135 19zm1.879 4.052a9.1 9.1 0 0 1 9.166-9.357 8.759 8.759 0 0 1 9.133 9.061v1.878h-13.848a4.661 4.661 0 0 0 4.913 3.723 4.772 4.772 0 0 0 4.418-2.636l3.791 2.274a9.354 9.354 0 0 1-8.341 4.217c-5.77 0-9.232-3.855-9.232-9.16zm4.517-2.009h9.364a4.486 4.486 0 0 0-4.748-3.526 4.573 4.573 0 0 0-4.616 3.526zm14.9-6.985h3.2v-.89c0-4.843 2.044-6.853 6.528-6.853h1.582v3.921h-1.285c-2.111 0-2.572.724-2.572 2.932v.89h3.857v4.085h-3.758v13.707h-4.352V22.324h-3.2zm12.166 8.9a9.113 9.113 0 0 1 9.3-9.259 9.259 9.259 0 1 1 0 18.517 8.977 8.977 0 0 1-9.297-9.262zm14.177 0a4.882 4.882 0 1 0-9.759 0 4.882 4.882 0 1 0 9.759 0zm10.55-.2l-6.429-8.7h5.341l3.792 5.469 3.89-5.469h5.243l-6.525 8.661 6.857 9.127h-5.308l-4.253-5.8-4.121 5.8h-5.308zM98.7 43.94h-2.81v24.09h15.39v-2.673H98.7zm23.553 5.907a9.274 9.274 0 1 0 9.4 9.274 9.214 9.214 0 0 0-9.399-9.274zm0 15.972a6.717 6.717 0 0 1 0-13.431 6.716 6.716 0 0 1 0 13.431zm21.546.033a6.708 6.708 0 0 1-6.758-6.731 6.624 6.624 0 0 1 6.658-6.733 6.387 6.387 0 0 1 6.055 3.96l2.509-1.089a9.09 9.09 0 0 0-8.531-5.412 9.275 9.275 0 1 0 .033 18.546 9.031 9.031 0 0 0 8.6-5.61l-2.542-1.056a6.461 6.461 0 0 1-6.023 4.125zm27.333-15.642h-3.445l-9.568 10.066v-18.25h-2.71v26h2.71v-4.648l3.847-4.027 6.289 8.679h3.312l-7.594-10.362zm22.082 14.025l-5.386-14.025h-2.543l-5.52 14.124-4.55-14.124h-2.877l5.922 17.82h2.676l5.553-14.123 5.553 14.123h2.476l6.256-17.82h-2.844zm11.644-21.648a2.145 2.145 0 1 0 2.174 2.145 2.106 2.106 0 0 0-2.174-2.145zm-1.372 25.443h2.777V50.21h-2.777zm13.917-10.3c-2.81-.561-4.985-.924-4.985-2.771 0-1.651 1.138-2.839 3.915-2.839a5.857 5.857 0 0 1 4.951 2.376l2.275-1.518a8.783 8.783 0 0 0-7.226-3.168c-4.283-.033-6.724 2.409-6.724 5.182 0 3.563 3.311 4.388 6.423 4.982 2.642.528 5.117.924 5.117 2.9 0 1.782-1.471 3.1-4.282 3.1a6.7 6.7 0 0 1-5.82-2.9l-2.375 1.584c1.6 2.277 4.182 3.729 8.129 3.729 4.717.033 7.125-2.739 7.125-5.544 0-3.656-3.412-4.515-6.526-5.109zm27.4 1.188a8.852 8.852 0 0 0-9.2-9.075 9.2 9.2 0 0 0-9.433 9.34c0 5.214 3.747 9.206 9.534 9.206a9.31 9.31 0 0 0 8.4-4.521l-2.342-1.353a6.995 6.995 0 0 1-12.913-2.375H244.8zm-15.891-1.155a6.685 6.685 0 0 1 6.69-5.511 6.059 6.059 0 0 1 6.39 5.511z" fill="#fff"/></svg>
