<svg xmlns="http://www.w3.org/2000/svg" width="64" height="64" viewBox="0 0 64 64">
    <style>
        .st1{fill:#ffa266}
    </style>
    <path d="M40.3 30.9l-8.3 8-7.4-7-.6-.7-1 1L1.3 54.3c.9.9 2 1.3 3.2 1.3h54.9c1.2 0 2.4-.5 3.2-1.3L41.3 31.9l-1-1z" fill="#ff7139"/>
    <path class="st1" d="M24 31.2L1.3 9.9c-.5.6-.9 1.2-1.1 2-.1.3-.2.8-.2 1.2v38c0 1.2.5 2.4 1.3 3.2l21.7-22 1-1.1z"/>
    <path class="st1" d="M63.8 11.5c-.2-.7-.7-1.4-1.2-2L40.3 30.9l1 1 21.3 22.4c.9-.9 1.3-2 1.3-3.2V12.9c.1-.4 0-.9-.1-1.4z"/>
    <path d="M24 31.2l.6.6 7.4 7.1 8.3-8L62.5 9.6c-.8-.8-1.9-1.2-3-1.2H4.6c-1.2 0-2.4.5-3.2 1.4L24 31.2z" fill="#ffd5b2"/>
</svg>
