<svg xmlns="http://www.w3.org/2000/svg" width="64" height="64" viewBox="0 0 64 64">
    <style>
        .st1{fill:#ffd5b2}
    </style>
    <path d="M1.7 12.1h60.6v47.7c0 1.1-.4 2.1-1.2 2.9-.8.8-1.8 1.2-2.9 1.2H5.8c-2.3 0-4.1-1.8-4.1-4.1V12.1z" fill="#ff7139"/>
    <path class="st1" d="M6.2 17h14.2v40.3H6.2z"/>
    <path class="st1" d="M56.5 20.7H26.1c-.6 0-1 .5-1 1 0 .6.5 1 1 1h30.4c.6 0 1-.5 1-1s-.4-1-1-1zM56.5 26.8H26.1c-.6 0-1 .5-1 1 0 .6.5 1 1 1h30.4c.6 0 1-.5 1-1 0-.6-.4-1-1-1zM41.3 39.2H26.1c-.6 0-1 .5-1 1 0 .6.5 1 1 1h15.2c.6 0 1-.5 1-1 .1-.5-.4-1-1-1zM56.5 33.1H26.1c-.6 0-1 .5-1 1s.5 1 1 1h30.4c.6 0 1-.5 1-1s-.4-1-1-1z"/>
    <path class="st1" d="M58.2 0H5.8c-2.2 0-4 1.8-4 4.1v8h60.6v-8c0-1.1-.4-2.1-1.2-2.9-.8-.8-1.9-1.2-3-1.2z"/>
</svg>
