<svg width="254" height="172" fill="none" viewBox="0 0 254 172" xmlns="http://www.w3.org/2000/svg"><g fill="#fff"><path d="M26.354 168.559h5.055v-14.722l7.327 13.346 7.29-13.346v14.722h5.091v-23.63h-5.09l-7.29 13.345-7.328-13.344h-5.055v23.629zm38.217.412c5.263 0 9.664-4.264 9.664-9.321 0-5.056-4.4-9.286-9.664-9.286-5.296 0-9.733 4.23-9.733 9.286 0 5.057 4.437 9.32 9.733 9.32zm0-4.23c-2.683 0-4.919-2.34-4.919-5.091 0-2.751 2.236-5.056 4.919-5.056 2.648 0 4.884 2.305 4.884 5.056 0 2.752-2.236 5.091-4.884 5.091zm12.274 3.818H92.39v-4.266h-9.011l8.943-9.974v-3.543H77.085v4.265h8.702l-8.942 9.974v3.544zm21.607-20.225a2.723 2.723 0 0 0 2.683-2.75 2.733 2.733 0 0 0-2.683-2.684c-1.547 0-2.751 1.273-2.751 2.684a2.737 2.737 0 0 0 2.751 2.75zm-2.546 20.225h5.022v-17.783h-5.022v17.783zm9.404 0h5.022v-24.043h-5.022v24.043zm9.405 0h5.022v-24.043h-5.022v24.043zm17.349-18.195c-2.474 0-4.917.687-7.427 1.959l1.685 3.337c1.41-.722 2.958-1.272 4.609-1.272 2.923 0 4.095 1.65 4.095 3.543v.343a12.881 12.881 0 0 0-4.542-.895c-4.128 0-7.394 2.409-7.394 5.917 0 3.404 2.923 5.675 6.707 5.675 1.925 0 3.955-.758 5.229-2.202v1.79h4.848V157.93c0-4.644-3.163-7.567-7.807-7.567h-.003zm-1.133 15.133c-1.72 0-2.992-.895-2.992-2.339s1.444-2.51 3.269-2.51c1.373 0 2.68.24 3.818.653v1.65c-.346 1.651-2.168 2.546-4.095 2.546zM174.832 145.382l-6.762 16.619-6.764-16.619h-5.7l9.613 23.589h5.666l9.615-23.589h-5.668zm8.449 23.589h5.047v-7.658h5.562c5.116 0 8.892-3.296 8.892-7.964 0-4.672-3.776-7.967-8.892-7.967h-10.61v23.589zm5.047-12.292v-6.661h5.012c2.507 0 4.224 1.305 4.224 3.33 0 2.026-1.717 3.331-4.224 3.331h-5.012zm17.824 12.292h5.047v-15.245l11.365 15.245h5.082v-23.589h-5.082v15.245L211.2 145.382h-5.047v23.589z"/></g><path fill-rule="evenodd" clip-rule="evenodd" d="M127 13.332c-7.104 0-11.544 7.691-7.992 13.844A9.227 9.227 0 0 0 127 31.789c7.103 0 11.543-7.69 7.993-13.842A9.234 9.234 0 0 0 127 13.332zm-21.533 9.229c.003-16.576 17.95-26.932 32.304-18.642 14.353 8.292 14.349 29.013-.009 37.298a21.53 21.53 0 0 1-21.005.289l-9.267 9.267a21.171 21.171 0 0 1 1.698 4.088h35.623c4.738-15.885 24.893-20.685 36.282-8.64 11.388 12.045 5.466 31.901-10.659 35.742a21.537 21.537 0 0 1-15.226-2.004l-9.267 9.267c7.883 14.582-2.975 32.229-19.544 31.766-16.57-.464-26.425-18.692-17.738-32.811 5.988-9.729 18.53-13.091 28.58-7.657l9.267-9.267a21.376 21.376 0 0 1-1.695-4.091h-35.623c-4.736 15.884-24.893 20.685-36.281 8.64-11.389-12.045-5.467-31.901 10.659-35.742a21.529 21.529 0 0 1 15.225 2.004l9.264-9.259a21.436 21.436 0 0 1-2.588-10.248zm12.305 76.905c0-7.104 7.689-11.544 13.842-7.992a9.23 9.23 0 0 1 4.615 7.992c0 7.103-7.691 11.543-13.844 7.991a9.227 9.227 0 0 1-4.613-7.991zM88.548 51.785c-7.105 0-11.545 7.689-7.993 13.842a9.23 9.23 0 0 0 7.993 4.615c7.104 0 11.544-7.691 7.992-13.844a9.227 9.227 0 0 0-7.992-4.613zm67.675 9.228c0-7.104 7.691-11.544 13.844-7.992a9.227 9.227 0 0 1 4.613 7.992c0 7.105-7.69 11.545-13.842 7.992a9.227 9.227 0 0 1-4.615-7.992z" fill="#fff"/></svg>