<svg width="512" height="512" fill="none" viewBox="0 0 512 512" xmlns="http://www.w3.org/2000/svg"><path fill-rule="evenodd" clip-rule="evenodd" d="M257.283 50.33c-28.421 0-46.181 30.768-31.972 55.379a36.914 36.914 0 0 0 31.972 18.455c28.414 0 46.175-30.76 31.971-55.371a36.932 36.932 0 0 0-31.971-18.463zm-86.14 36.917c.013-66.307 71.806-107.734 129.224-74.57 57.419 33.169 57.401 116.058-.036 149.203-25.908 14.947-57.719 15.39-84.026 1.155l-37.07 37.07a84.671 84.671 0 0 1 6.794 16.355H328.53c18.953-63.544 99.581-82.748 145.143-34.564 45.555 48.184 21.864 127.615-42.643 142.979a86.145 86.145 0 0 1-60.908-8.016l-37.07 37.069c31.535 58.334-11.9 128.93-78.183 127.075-66.284-1.856-105.707-74.773-70.96-131.252 23.954-38.919 74.129-52.368 114.333-30.632l37.071-37.071a85.542 85.542 0 0 1-6.783-16.366H186.029c-18.947 63.543-99.581 82.748-145.136 34.564-45.561-48.184-21.871-127.615 42.636-142.98a86.131 86.131 0 0 1 60.908 8.018l37.058-37.04a85.77 85.77 0 0 1-10.352-40.997zm49.223 307.647c0-28.42 30.761-46.181 55.372-31.971a36.918 36.918 0 0 1 18.462 31.971c0 28.414-30.767 46.176-55.378 31.965a36.907 36.907 0 0 1-18.456-31.965zM103.46 204.154c-28.421 0-46.182 30.761-31.972 55.372a36.914 36.914 0 0 0 31.972 18.462c28.42 0 46.181-30.768 31.97-55.379a36.91 36.91 0 0 0-31.97-18.455zm270.723 36.917c0-28.42 30.767-46.181 55.378-31.971a36.913 36.913 0 0 1 18.456 31.971c0 28.421-30.761 46.181-55.372 31.971a36.911 36.911 0 0 1-18.462-31.971z" fill="#000"/></svg>