<svg width="136" height="208" fill="none" viewBox="0 0 136 208" xmlns="http://www.w3.org/2000/svg"><path d="M23.504 153.888h3.963v-11.541l5.744 10.462 5.715-10.462v11.541h3.991v-18.524h-3.991l-5.715 10.461-5.744-10.461h-3.963v18.524zm29.96.323c4.126 0 7.576-3.343 7.576-7.307 0-3.964-3.45-7.28-7.576-7.28-4.152 0-7.63 3.316-7.63 7.28 0 3.964 3.478 7.307 7.63 7.307zm0-3.316c-2.103 0-3.856-1.834-3.856-3.991s1.753-3.964 3.856-3.964c2.076 0 3.829 1.807 3.829 3.964s-1.753 3.991-3.829 3.991zm9.622 2.993h12.186v-3.344h-7.064l7.011-7.819v-2.778H63.274v3.344h6.822l-7.01 7.819v2.778zm16.939-15.855a2.135 2.135 0 0 0 2.103-2.156 2.143 2.143 0 0 0-2.103-2.104c-1.213 0-2.157.998-2.157 2.104 0 1.186.944 2.156 2.157 2.156zm-1.996 15.855h3.937v-13.941h-3.937v13.941zm7.372 0h3.937V135.04h-3.937v18.848zm7.373 0h3.937V135.04h-3.937v18.848zm13.6-14.264c-1.939 0-3.854.539-5.822 1.536l1.321 2.616c1.106-.566 2.319-.997 3.613-.997 2.292 0 3.21 1.294 3.21 2.777v.269a10.098 10.098 0 0 0-3.56-.701c-3.236 0-5.797 1.888-5.797 4.638 0 2.669 2.292 4.449 5.258 4.449 1.509 0 3.101-.594 4.099-1.726v1.403h3.801v-8.332c0-3.64-2.48-5.932-6.12-5.932h-.003zm-.888 11.864c-1.348 0-2.345-.702-2.345-1.834 0-1.132 1.132-1.968 2.562-1.968 1.077 0 2.102.189 2.993.512v1.294c-.271 1.294-1.699 1.996-3.21 1.996z" fill="#000"/><path fill-rule="evenodd" clip-rule="evenodd" d="M68 13.332c-7.104 0-11.544 7.691-7.992 13.844A9.227 9.227 0 0 0 68 31.789c7.103 0 11.543-7.69 7.993-13.842A9.234 9.234 0 0 0 68 13.332zm-21.533 9.229C46.47 5.985 64.417-4.371 78.771 3.919c14.353 8.292 14.349 29.013-.009 37.298a21.53 21.53 0 0 1-21.005.289l-9.267 9.267a21.171 21.171 0 0 1 1.698 4.088h35.623c4.738-15.885 24.893-20.685 36.282-8.64 11.388 12.045 5.466 31.901-10.659 35.742a21.537 21.537 0 0 1-15.226-2.004l-9.267 9.267c7.883 14.582-2.975 32.229-19.544 31.766-16.57-.464-26.425-18.692-17.738-32.811 5.988-9.729 18.53-13.091 28.58-7.657l9.267-9.267a21.376 21.376 0 0 1-1.695-4.091H50.188c-4.736 15.884-24.893 20.685-36.281 8.64C2.518 63.761 8.44 43.905 24.566 40.064a21.529 21.529 0 0 1 15.225 2.004l9.264-9.259a21.436 21.436 0 0 1-2.588-10.248zm12.305 76.905c0-7.104 7.689-11.544 13.842-7.992a9.23 9.23 0 0 1 4.615 7.992c0 7.103-7.691 11.543-13.844 7.991a9.227 9.227 0 0 1-4.613-7.991zM29.548 51.785c-7.105 0-11.545 7.689-7.993 13.842a9.23 9.23 0 0 0 7.993 4.615c7.104 0 11.544-7.691 7.992-13.844a9.227 9.227 0 0 0-7.992-4.613zm67.675 9.228c0-7.104 7.691-11.544 13.844-7.992a9.227 9.227 0 0 1 4.613 7.992c0 7.105-7.69 11.545-13.842 7.992a9.227 9.227 0 0 1-4.615-7.992z" fill="#000"/><path d="M37.231 162.357l-12.394 30.45-12.394-30.45H2l17.615 43.221h10.381l17.616-43.221H37.231zm15.476 43.221h9.249v-14.029h10.192c9.374 0 16.294-6.041 16.294-14.597s-6.92-14.595-16.294-14.595H52.707v43.221zm9.249-22.523V170.85h9.185c4.593 0 7.738 2.391 7.738 6.102 0 3.712-3.145 6.103-7.738 6.103h-9.185zm32.661 22.523h9.248v-27.934l20.824 27.934H134v-43.221h-9.311v27.933l-20.824-27.933h-9.248v43.221z" fill="#000"/></svg>