<svg width="434" height="80" fill="none" viewBox="0 0 434 80" xmlns="http://www.w3.org/2000/svg"><g fill="#000"><path d="M96.98 56.898h6.767V37.191l9.809 17.865 9.759-17.865v19.707h6.815V25.267h-6.815l-9.76 17.863-9.808-17.863H96.98v31.631zm51.16.552c7.045 0 12.937-5.709 12.937-12.477 0-6.77-5.892-12.432-12.937-12.432-7.09 0-13.03 5.663-13.03 12.432 0 6.768 5.94 12.477 13.03 12.477zm0-5.662c-3.591 0-6.585-3.132-6.585-6.815 0-3.684 2.994-6.77 6.585-6.77 3.545 0 6.538 3.086 6.538 6.77 0 3.683-2.993 6.815-6.538 6.815zm16.43 5.11h20.81v-5.71h-12.063l11.972-13.352v-4.743H164.89v5.71h11.65l-11.97 13.352v4.743zm28.925-27.074a3.646 3.646 0 0 0 3.591-3.681 3.659 3.659 0 0 0-3.59-3.593c-2.072 0-3.684 1.704-3.684 3.593a3.664 3.664 0 0 0 3.683 3.681zm-3.408 27.074h6.723V33.093h-6.723v23.805zm12.588 0h6.723V24.714h-6.723v32.184zm12.59 0h6.723V24.714h-6.722v32.184zm23.224-24.357c-3.311 0-6.581.92-9.942 2.623l2.256 4.467c1.889-.966 3.96-1.702 6.17-1.702 3.913 0 5.481 2.21 5.481 4.742v.459a17.244 17.244 0 0 0-6.079-1.197c-5.526 0-9.899 3.224-9.899 7.92 0 4.557 3.914 7.597 8.979 7.597 2.576 0 5.295-1.014 7-2.947v2.395h6.49V42.671c0-6.216-4.235-10.13-10.45-10.13h-.006zm-1.516 20.26c-2.302 0-4.005-1.2-4.005-3.133s1.933-3.36 4.375-3.36c1.84 0 3.59.323 5.111.874v2.21c-.463 2.21-2.901 3.408-5.481 3.408zM295.742 25.873L286.69 48.12l-9.056-22.247h-7.63l12.869 31.577h7.585l12.87-31.577h-7.586zM307.05 57.45h6.757V47.2h7.445c6.85 0 11.904-4.413 11.904-10.663 0-6.253-5.055-10.664-11.904-10.664h-14.202V57.45zm6.757-16.454v-8.918h6.71c3.355 0 5.653 1.747 5.653 4.459 0 2.712-2.298 4.459-5.654 4.459h-6.709zm23.86 16.454h6.756V37.042l15.214 20.408h6.803V25.873h-6.803v20.408l-15.214-20.408h-6.756V57.45z"/></g><path fill-rule="evenodd" clip-rule="evenodd" d="M40.996 8.221c-4.736 0-7.696 5.128-5.328 9.23a6.152 6.152 0 0 0 5.328 3.075c4.736 0 7.696-5.127 5.329-9.228a6.157 6.157 0 0 0-5.329-3.077zm-14.355 6.153C26.643 3.323 38.608-3.581 48.177 1.946c9.569 5.528 9.566 19.342-.006 24.865a14.351 14.351 0 0 1-14.003.193l-6.178 6.178c.468.859.847 1.772 1.132 2.725H52.87c3.159-10.59 16.596-13.79 24.188-5.76 7.592 8.03 3.644 21.267-7.106 23.828a14.355 14.355 0 0 1-10.15-1.336l-6.178 6.178c5.255 9.721-1.984 21.486-13.03 21.177-11.046-.309-17.616-12.461-11.825-21.874 3.992-6.486 12.353-8.727 19.053-5.104L54 46.838a14.281 14.281 0 0 1-1.13-2.727H29.122C25.964 54.7 12.526 57.9 4.935 49.871c-7.593-8.03-3.645-21.268 7.105-23.828a14.349 14.349 0 0 1 10.15 1.336l6.176-6.173a14.3 14.3 0 0 1-1.725-6.832zm8.203 51.27c0-4.736 5.126-7.696 9.228-5.328a6.15 6.15 0 0 1 3.077 5.328c0 4.735-5.127 7.695-9.229 5.327a6.15 6.15 0 0 1-3.076-5.327zM15.362 33.857c-4.737 0-7.697 5.126-5.329 9.228a6.153 6.153 0 0 0 5.329 3.076c4.736 0 7.696-5.127 5.328-9.229a6.152 6.152 0 0 0-5.328-3.075zm45.116 6.152c0-4.736 5.128-7.696 9.23-5.328a6.151 6.151 0 0 1 3.075 5.328c0 4.736-5.127 7.696-9.228 5.328a6.153 6.153 0 0 1-3.077-5.328z" fill="#000"/></svg>