<svg xmlns="http://www.w3.org/2000/svg" width="64" height="64" viewBox="0 0 64 64">
    <style>
        .st1{fill:#ff68bb}
    </style>
    <path d="M33 58.6V45.3c0 .4-.2.7-.5.9s-.7.1-1-.1L16.5 33v8.8h-6.1c-2.8 0-5.4-1.1-7.4-3.1s-3-4.6-3-7.4v4.4c0 2.8 1.1 5.4 3 7.4s4.6 3.1 7.4 3.1h6.1v.1l15 13.1c.3.2.7.3 1 .1s.6-.5.5-.9z" fill="#e31587"/>
    <path class="st1" d="M33 45.3V5.6c0-.5-.3-.9-.7-1.1-.3-.2-.8-.1-1.2.2L16.5 17.5h-6.1C4.6 17.5 0 22.2 0 28v3.4c0 5.8 4.6 10.5 10.4 10.5h6.1V33l15 13.1c.3.2.7.3 1 .1s.6-.5.5-.9zM52.4 8.5c-.4-.3-.9-.4-1.3-.2s-.7.6-.8 1.1c0 .5.2.9.6 1.2 6.7 4.7 10.6 12.3 10.6 20.5S57.6 46.8 51 51.5c-.6.4-.7 1.2-.3 1.8.2.3.6.5 1 .5.3 0 .5-.1.7-.2 7.2-5.2 11.5-13.6 11.5-22.5S59.7 13.7 52.4 8.5z"/>
    <path class="st1" d="M45.6 16c-.6-.4-1.4-.2-1.8.4-.4.6-.2 1.4.4 1.7 4.4 2.8 7.1 7.6 7.1 12.8S48.6 41 44.2 43.7c-.3.2-.5.5-.6.8s0 .7.2 1c.2.4.6.6 1.1.6.2 0 .5-.1.7-.2 5.2-3.2 8.3-8.9 8.3-15S50.7 19.3 45.6 16z"/>
    <path class="st1" d="M40.6 25c-.3-.2-.6-.3-.9-.2-.3 0-.6.2-.8.5s-.3.6-.2.9c0 .3.2.6.5.8 1.3.9 2.1 2.4 2.1 4s-.8 3.1-2.1 4c-.4.3-.6.9-.4 1.4.2.5.7.9 1.2.9.3 0 .5-.1.8-.2 1.9-1.4 3.1-3.7 3.1-6.1s-1.3-4.6-3.3-6z"/>
</svg>
