<svg xmlns="http://www.w3.org/2000/svg" width="64" height="64" viewBox="0 0 64 64">
    <style>
        .st0{fill:#ff68bb}.st1{fill:#e31587}
    </style>
    <path class="st0" d="M63.8 4.1v20.7c0 .7-.2 1.4-.6 1.9-.6.9-1.6 1.4-2.7 1.4H40.3c-.9 0-1.7-.3-2.4-.9-.6-.6-1-1.5-1-2.3v-3.3c0-.9.4-1.7 1-2.3.6-.6 1.5-1 2.3-.9h9.4c-4.5-5-11-7.8-17.7-7.6-10.9 0-20 6.7-21.8 16l-.3 1.6c-.4 1.8-2.1 3-3.9 2.6l-2.1-.4-1.1-.2c-.9-.1-1.6-.6-2.2-1.3s-.7-1.6-.5-2.5L.3 25C3 11 16.3.8 32 .8c7.9 0 15.6 2.7 21.7 7.6V4.1c0-.9.4-1.7 1-2.3s1.5-1 2.4-.9h3.3c.9 0 1.7.3 2.4.9.6.6 1 1.4 1 2.3z"/>
    <path class="st1" d="M63.1 26.8c-.6.9-1.6 1.4-2.7 1.4H40.3c-.9 0-1.7-.3-2.4-.9-.6-.6-1-1.5-1-2.3v-3.3c0-.9.4-1.7 1-2.3.6-.6 1.5-1 2.3-.9h9.4c-4.5-5-11-7.8-17.7-7.6-10.9 0-20 6.7-21.8 16l-.3 1.6c-.4 1.8-2.1 3-3.9 2.6l-2.1-.4-1.1-.2c-.9-.1-1.6-.6-2.2-1.3s-.7-1.6-.5-2.5l.3-1.6C7.7 4.5 32.2 5.7 32.2 5.7c20.5 0 30.9 21.1 30.9 21.1z"/>
    <path class="st1" d="M.3 59.8V39.1c0-.7.2-1.4.6-1.9.6-.9 1.6-1.4 2.7-1.4h20.1c.9 0 1.7.3 2.4 1 .6.6 1 1.5 1 2.4v3.2c0 .9-.4 1.7-1 2.3s-1.5 1-2.3.9h-9.4c4.5 5 11 7.8 17.7 7.6 10.9 0 20.1-6.7 21.8-16l.3-1.6c.4-1.8 2.1-3 3.9-2.6l2.1.4 1.1.2c.9.1 1.6.6 2.1 1.4.5.7.7 1.6.5 2.5l-.3 1.7C61 53 47.7 63.2 32 63.2c-7.9 0-15.6-2.7-21.7-7.7v4.3c0 .9-.4 1.7-1 2.3s-1.5 1-2.4.9H3.6c-1.8.1-3.3-1.4-3.3-3.2z"/>
    <path class="st0" d="M.9 37.1c.6-.9 1.6-1.4 2.7-1.4h20.1c.9 0 1.7.3 2.4 1 .6.6 1 1.5 1 2.4v3.2c0 .9-.4 1.7-1 2.3s-1.5 1-2.3.9h-9.4c4.5 5 11 7.8 17.7 7.6 10.9 0 20.1-6.7 21.8-16l.3-1.6c.4-1.8 2.1-3 3.9-2.6l2.1.4 1.1.2c.9.1 1.6.6 2.1 1.4.5.7.7 1.6.5 2.5l-.3 1.7c-7.4 20.4-31.8 19.1-31.8 19.1C11.3 58.3.9 37.1.9 37.1z"/>
</svg>
