<svg xmlns="http://www.w3.org/2000/svg" width="64" height="64" viewBox="0 0 64 64">
    <style>
        .st0{fill:#7638e9}
    </style>
    <path class="st0" d="M58.4 16c0-2.7-.1-5.7-.1-9.1 0-1.4-1-2.6-2.4-2.9L32.8 0h-1L8.7 4c-1.4.3-2.5 1.5-2.4 2.9 0 3.4 0 6.4-.1 9.1-.1 4.8-.1 8.3.1 10.4 1.3 13.8 4.2 20.2 9.2 27 4 5.4 9.8 9.1 16.3 10.5.2 0 .4.1.6.1.2 0 .4 0 .6-.1 6.5-1.4 12.3-5.1 16.3-10.5 5-6.8 7.9-13.1 9.1-27 .1-2.2.1-5.6 0-10.4z"/>
    <path class="st0" d="M31.8.1l-23.1 4c-1.4.2-2.4 1.4-2.4 2.8 0 3.4-.1 6.4-.1 9.1-.1 4.8-.1 8.3.1 10.4 1.3 13.9 4.2 20.2 9.1 27 4 5.4 9.8 9.1 16.3 10.5.2 0 .4.1.6.1V0c-.2 0-.3 0-.5.1z"/>
    <path class="st0" d="M31.9 4.5L12.5 7.8c-1.2.2-2 1.2-2 2.4 0 2.9 0 5.4-.1 7.6-.1 4-.1 7 .1 8.7 1 11.6 3.5 17 7.6 22.7 3.3 4.5 8.2 7.7 13.7 8.8h.5V4.4c-.1 0-.3 0-.4.1z"/>
    <path d="M54.2 17.8c0-2.2-.1-4.8-.1-7.6 0-1.2-.8-2.2-2-2.4L32.7 4.5h-.4v53.6h.5c5.5-1.2 10.4-4.3 13.7-8.9 4.2-5.7 6.6-11 7.7-22.7.1-1.7.1-4.6 0-8.7z" fill="#dabdff"/>
    <path d="M58.4 16c0-2.7-.1-5.7-.1-9.1 0-1.4-1-2.6-2.4-2.9L32.8 0h-1L8.7 4c-1.4.3-2.5 1.5-2.4 2.9 0 3.4 0 6.4-.1 9.1-.1 4.8-.1 8.3.1 10.4 1.3 13.8 4.2 20.2 9.2 27 4 5.4 9.8 9.1 16.3 10.5.2 0 .4.1.6.1.2 0 .4 0 .6-.1 6.5-1.4 12.3-5.1 16.3-10.5 5-6.8 7.9-13.1 9.1-27 .1-2.2.1-5.6 0-10.4z" fill="#ff68bb"/>
    <path d="M31.8.1l-23.1 4c-1.4.2-2.4 1.4-2.4 2.8 0 3.4-.1 6.4-.1 9.1-.1 4.8-.1 8.3.1 10.4 1.3 13.9 4.2 20.2 9.1 27 4 5.4 9.8 9.1 16.3 10.5.2 0 .4.1.6.1V0c-.2 0-.3 0-.5.1z" fill="#c40083"/>
    <path d="M31.9 4.5L12.5 7.8c-1.2.2-2 1.2-2 2.4 0 2.9 0 5.4-.1 7.6-.1 4-.1 7 .1 8.7 1 11.6 3.5 17 7.6 22.7 3.3 4.5 8.2 7.7 13.7 8.8h.5V4.4c-.1 0-.3 0-.4.1z" fill="#e31587"/>
    <path d="M54.2 17.8c0-2.2-.1-4.8-.1-7.6 0-1.2-.8-2.2-2-2.4L32.7 4.5h-.4v53.6h.5c5.5-1.2 10.4-4.3 13.7-8.9 4.2-5.7 6.6-11 7.7-22.7.1-1.7.1-4.6 0-8.7z" fill="#ffb2db"/>
</svg>
