<svg xmlns="http://www.w3.org/2000/svg" width="64" height="64" viewBox="0 0 64 64">
    <path d="M63.6 39.9c0-4.3-2.5-7.9-5.9-7.9-3.1 0-4.2 3.7-6.7 3.7-1.6 0-2.9-1.3-3-3V20.3c0-2-1.4-4-4-4H31.2c-1.6 0-2.9-1.3-2.9-3 0-3 3.9-3.1 3.9-6.9 0-3.4-3.6-5.9-8-5.9s-8 2.5-8 5.9c0 3.8 3.9 3.9 3.9 6.9 0 1.6-1.3 2.9-3 3H4.3c-2.2 0-3.9 1.8-3.9 3.9V29c0 1.6 1.3 2.9 3 2.9 3 0 3.1-3.9 7-3.9 3.4 0 6 3.5 6 7.9s-2.4 7.8-6.2 7.8c-.8 0-1.6-.2-2.3-.6-1.7-1.1-2.3-3.3-4.5-3.3-1.6 0-2.9 1.3-3 3v16.7c.1 2.2 1.9 4 4.1 4h12.8c1.6 0 2.9-1.3 3-3 0-3-3.9-3.1-3.9-6.9 0-3.4 3.5-5.9 7.9-5.9s7.9 2.5 7.9 5.9c0 3.8-3.9 3.9-3.9 6.9 0 1.6 1.3 2.9 3 3h12.8c2.2 0 3.9-1.8 3.9-3.9V46.7c0-1.6 1.3-2.9 3-3 3 0 3.1 3.9 6.9 3.9 3.5 0 5.7-3.3 5.7-7.7z" fill="#ff68bb"/>
    <path d="M4.5 63.5h12.8c1.6 0 2.9-1.3 3-3 0-3-3.9-3.1-3.9-6.9 0-3.4 3.5-5.9 7.9-5.9s7.9 2.5 7.9 5.9c0 3.8-3.9 3.9-3.9 6.9 0 1.6 1.3 2.9 3 3h12.8c2.2 0 3.9-1.8 3.9-3.9V46.7c0-1.6 1.3-2.9 3-3 3 0 3.1 3.9 6.9 3.9 2.1 0 3.8-1.2 4.7-3.1l-.6-.6-8.5-9.4c-.7.7-1.5 1.2-2.5 1.2-1.6 0-2.9-1.3-3-3v-3.4c-.3-.1-.6-.1-.9-.1-1 0-1.7.3-2.6 1L32.6 44c-1 1-2.4 1.5-3.7.9l-12-4.3c-.5-.2-1.1-.2-1.6-.2-1 1.9-2.7 3.2-4.9 3.2L.4 51v8.4c.1 2.3 1.9 4.1 4.1 4.1z" fill="#e31587"/>
</svg>
