<svg xmlns="http://www.w3.org/2000/svg" width="64" height="64" viewBox="0 0 64 64">
    <path d="M50.9 19.1c-5.7 0-10.7 3.6-12.5 9H4.6c-1.2 0-2.4.5-3.2 1.3S0 31.4 0 32.6h41.5V32c0-5.2 4.2-9.4 9.4-9.4s9.4 4.2 9.4 9.4v.6H64V32c0-3.5-1.4-6.8-3.9-9.2s-5.8-3.8-9.2-3.7z" fill="#ff68bb"/>
    <path d="M60.4 32.6v-.5c0-5.2-4.2-9.5-9.5-9.5-5.2 0-9.5 4.2-9.5 9.5v.5H0c.1 2.3 1.7 4.1 3.9 4.4v5.5c0 .7.6 1.2 1.2 1.2.7 0 1.2-.6 1.2-1.2V40h5v2.5c0 .7.6 1.2 1.2 1.2.7 0 1.2-.6 1.2-1.2v-5.4h24.8c2.1 4.8 6.9 7.9 12.1 7.9 7 .1 12.8-5.3 13.1-12.3h-3.3v-.1zm-2.6 2.2c-1.1 2.8-3.9 4.6-6.9 4.6-4.1 0-7.4-3.3-7.5-7.4 0-3 1.8-5.8 4.5-6.9 2.8-1.2 6-.6 8.2 1.6s2.9 5.3 1.7 8.1z" fill="#e31587"/>
</svg>
