<svg width="80" height="80" viewBox="0 0 80 80" xmlns="http://www.w3.org/2000/svg"><path d="M40 71C17.909 71 0 53.091 0 31V11C0 5.477 4.477 1 10 1h60c5.523 0 10 4.477 10 10v20c0 22.091-17.909 40-40 40zm19.925-50.16a4.95 4.95 0 0 0-3.625 1.595L39.89 38.85 23.775 22.68A4.92 4.92 0 0 0 20 20.84c-3.849.001-6.254 4.168-4.329 7.501.21.363.465.699.759.999l-.08.055 16.465 16.53 3.535 3.535a5 5 0 0 0 7.07 0l3.535-3.535L63.5 29.395c2.737-2.706 1.518-7.361-2.194-8.378a4.995 4.995 0 0 0-1.381-.177z"/></svg>