<svg viewBox="0 0 64 64" xmlns="http://www.w3.org/2000/svg" style="background:#fff"><g transform="translate(12 12)" fill="none" fill-rule="evenodd"><path fill="#000D41" d="M16 0h24v18H16z"/><path fill="#0080FF" d="M0 12h32v24H0z"/><path d="M1 13v22h30V13H1zm-1-1h32v24H0V12zM3.125 10.527l1.561-1.25-.624-.78L2.5 9.745l.625.78zm3.123-2.5L7.81 6.779l-.625-.78-1.562 1.249.625.78zM9.372 5.53l1.561-1.25-.624-.78-1.562 1.25.625.78zm3.123-2.499l1.562-1.25-.625-.78-1.562 1.25.625.78z" fill="#000D41" fill-rule="nonzero"/><path d="M30.437 36.243l.971-1.748-.874-.486-.971 1.748.874.486zm3.885-6.993l.972-1.749-.875-.485-.97 1.748.873.486zm1.943-3.497l.971-1.748-.874-.486-.971 1.748.874.486zm1.942-3.497l.972-1.748-.875-.486-.97 1.749.873.485z" fill="#000D41" fill-rule="nonzero"/><circle fill="#FF95E1" cx="3" cy="15" r="1"/><circle fill="#FF95E1" cx="6" cy="15" r="1"/><circle fill="#FF95E1" cx="9" cy="15" r="1"/><path fill="#FFF" d="M0 17h32v19H0z"/><path d="M1 35h30V18H1v17zM0 17h32v19H0V17z" fill="#000D41" fill-rule="nonzero"/><path fill="#000D41" d="M29.28 36.316l-3.36 2.842L24 24l12 9.474-3.84 1.894 3.36 5.21L33.12 42z"/><rect fill="#000D41" x="4" y="22" width="16" height="1" rx=".5"/><rect fill="#000D41" x="4" y="26" width="16" height="1" rx=".5"/><rect fill="#000D41" x="4" y="30" width="8" height="1" rx=".5"/></g></svg>
