<svg viewBox="0 0 64 64" xmlns="http://www.w3.org/2000/svg" style="background:#fff"><g transform="translate(12 8)" fill="none" fill-rule="evenodd"><path d="M16.5 38.5c4.667 3 9.333 4.5 14 4.5-2-.333-4-1.833-6-4.5h-8z" fill="#000D41"/><path d="M.854 46.854C3.424 44.282 6.63 43 10.5 43c4.313 0 6.5-2.917 6.5-8.5a.5.5 0 1 0-1 0c0 5.083-1.813 7.5-5.5 7.5-4.13 0-7.592 1.384-10.354 4.146a.5.5 0 0 0 .708.708zM40.146 46.854C37.576 44.282 34.37 43 30.5 43c-4.312 0-6.5-2.917-6.5-8.5a.5.5 0 1 1 1 0c0 5.083 1.813 7.5 5.5 7.5 4.13 0 7.592 1.384 10.354 4.146a.5.5 0 0 1-.708.708z" fill="#000D41" fill-rule="nonzero"/><circle fill="#0080FF" cx="20.5" cy="6.5" r="6"/><path d="M20.5 13a6.5 6.5 0 1 1 0-13 6.5 6.5 0 0 1 0 13zm0-1a5.5 5.5 0 1 0 0-11 5.5 5.5 0 0 0 0 11z" fill="#000D41" fill-rule="nonzero"/><circle fill="#0080FF" cx="20.5" cy="18.5" r="14"/><path d="M20.5 33C12.492 33 6 26.508 6 18.5S12.492 4 20.5 4 35 10.492 35 18.5 28.508 33 20.5 33zm0-1C27.956 32 34 25.956 34 18.5S27.956 5 20.5 5 7 11.044 7 18.5 13.044 32 20.5 32z" fill="#000D41" fill-rule="nonzero"/><path d="M10.12 28.476a3 3 0 0 1-.496-5.846c.268-.781.876-1.01.876-4.13 0-4 5.869-8 10-8 4.13 0 10 2 10 6 0 3.355.702 4.708.929 6.147a3.001 3.001 0 0 1-.55 5.83C29.374 34.314 25.295 38.5 20.499 38.5c-4.795 0-8.874-4.185-10.38-10.024z" fill="#FFF"/><path d="M20.5 38.5c4.795 0 8.874-4.185 10.379-10.024a3 3 0 0 0 .55-5.83c-.227-1.438-.929-2.79-.929-6.146 0-4-5.87-6-10-6-4.131 0-10 4-10 8 0 3.12-.608 3.349-.876 4.13a3.001 3.001 0 0 0 .496 5.846C11.625 34.315 15.704 38.5 20.5 38.5zm-14-13c0-1.606.955-3.026 2.377-3.657-.006.012.175-.335.218-.426.264-.561.405-1.34.405-2.917 0-4.404 6.078-9 11-9 5.562 0 11 2.741 11 7 0 1.627.154 2.777.47 4.07.05.2.22.86.22.862.047.187.086.35.12.5a4.001 4.001 0 0 1-.627 7.39C29.923 35.36 25.552 39.5 20.5 39.5c-5.052 0-9.424-4.14-11.184-10.178A4.002 4.002 0 0 1 6.5 25.5z" fill="#000D41" fill-rule="nonzero"/><circle fill="#FF95E1" cx="8.5" cy="30.5" r="2"/><circle fill="#FF95E1" cx="32.5" cy="30.5" r="2"/><path d="M8.5 33a2.5 2.5 0 1 1 0-5 2.5 2.5 0 0 1 0 5zm0-1a1.5 1.5 0 1 0 0-3 1.5 1.5 0 0 0 0 3zM32.5 33a2.5 2.5 0 1 1 0-5 2.5 2.5 0 0 1 0 5zm0-1a1.5 1.5 0 1 0 0-3 1.5 1.5 0 0 0 0 3z" fill="#000D41" fill-rule="nonzero"/></g></svg>
