<svg viewBox="0 0 64 64" xmlns="http://www.w3.org/2000/svg" style="background:#fff"><g transform="translate(10 16)" fill="none" fill-rule="evenodd"><path fill="#FF95E1" d="M0 10h32v24H0z"/><path d="M1 11v22h30V11H1zm-1-1h32v24H0V10z" fill="#000D41" fill-rule="nonzero"/><circle fill="#005BE4" cx="3" cy="13" r="1"/><circle fill="#005BE4" cx="6" cy="13" r="1"/><circle fill="#005BE4" cx="9" cy="13" r="1"/><path fill="#FFF" d="M0 15h32v19H0z"/><path d="M1 33h30V16H1v17zM0 15h32v19H0V15z" fill="#000D41" fill-rule="nonzero"/><path d="M34 2a8 8 0 1 0 8 8h-8V2z" fill="#0080FF"/><path d="M27 10a7 7 0 0 0 13.93 1H33V3.07A7.002 7.002 0 0 0 27 10zm7-8v8h8a8 8 0 1 1-8-8z" fill="#000D41" fill-rule="nonzero"/><path d="M36 0a8 8 0 0 1 8 8h-8V0z" fill="#FF95E1"/><path d="M37 1.07V7h5.93A7.005 7.005 0 0 0 37 1.07zM36 0a8 8 0 0 1 8 8h-8V0zM4.354 28.354c.637-.638 3.305-2.639 7.937-5.947 1.552-1.109 2.584-1.41 3.274-1.141.516.2.85.639 1.45 1.769l.056.104c.65 1.226 1.02 1.734 1.708 2.07.918.45 2.044.207 3.5-.77 1.33-.892 2.07-1.151 2.313-1.021.144.077.23.413.302 1.34.032.412.042.537.066.744.22 1.944 1.03 2.998 3.04 2.998a.5.5 0 1 0 0-1c-1.405 0-1.877-.615-2.047-2.11-.021-.192-.031-.31-.062-.709-.104-1.34-.228-1.823-.827-2.145-.7-.376-1.709-.023-3.343 1.073-1.19.798-1.965.965-2.502.702-.425-.207-.718-.61-1.265-1.64l-.055-.105c-.715-1.347-1.147-1.912-1.972-2.232-1.073-.417-2.42-.025-4.218 1.26-4.701 3.357-7.366 5.356-8.063 6.052a.5.5 0 0 0 .708.708z" fill="#000D41" fill-rule="nonzero"/></g></svg>
