<svg viewBox="0 0 64 64" xmlns="http://www.w3.org/2000/svg" style="background:#fff"><g transform="translate(10 8)" fill="none" fill-rule="evenodd"><path d="M18 38C9.163 38 2 30.837 2 22v-8a4 4 0 0 1 4-4h24a4 4 0 0 1 4 4v8c0 8.837-7.163 16-16 16zm7.97-20.064a1.98 1.98 0 0 0-1.45.638l-6.564 6.566-6.446-6.468a1.968 1.968 0 0 0-1.51-.736 2 2 0 0 0-1.428 3.4l-.032.022 6.586 6.612 1.414 1.414a2 2 0 0 0 2.828 0l1.414-1.414 6.618-6.612a2 2 0 0 0-1.43-3.422z" fill="#FF95E1" fill-rule="nonzero"/><path d="M18 37.5c8.56 0 15.5-6.94 15.5-15.5v-8a3.5 3.5 0 0 0-3.5-3.5H6A3.5 3.5 0 0 0 2.5 14v8c0 8.56 6.94 15.5 15.5 15.5zm0 1C8.887 38.5 1.5 31.113 1.5 22v-8A4.5 4.5 0 0 1 6 9.5h24a4.5 4.5 0 0 1 4.5 4.5v8c0 9.113-7.387 16.5-16.5 16.5zm6.152-20.265a2.48 2.48 0 0 1 1.817-.799 2.498 2.498 0 0 1 1.784 4.276l-6.617 6.612-1.415 1.414a2.5 2.5 0 0 1-3.535 0l-1.414-1.415-7.01-7.037.094-.064a2.5 2.5 0 0 1 2.15-3.786c.738.01 1.432.348 1.858.883l6.093 6.113 6.195-6.197zm-8.672 9.381l1.413 1.414a1.5 1.5 0 0 0 2.121 0l1.415-1.414 6.62-6.614a1.5 1.5 0 0 0-1.073-2.566c-.416.001-.81.174-1.102.491l-6.919 6.92-.353-.354-6.482-6.508a1.465 1.465 0 0 0-1.12-.549 1.5 1.5 0 0 0-1.07 2.55l.416.425 6.134 6.205z" fill="#000D41" fill-rule="nonzero"/><ellipse fill="#000D41" cx="18" cy="46" rx="16" ry="2"/><path d="M39.646 3.646l-4 4a.5.5 0 0 0 .708.708l4-4a.5.5 0 0 0-.708-.708zM38 12.5h4a.5.5 0 1 0 0-1h-4a.5.5 0 1 0 0 1zM31.5 2v4a.5.5 0 1 0 1 0V2a.5.5 0 1 0-1 0z" fill="#001043" fill-rule="nonzero"/></g></svg>
