<svg viewBox="0 0 64 64" xmlns="http://www.w3.org/2000/svg" style="background:#fff"><g transform="translate(12 12)" fill="none" fill-rule="evenodd"><path d="M32 10h4a4 4 0 0 1 4 4v20a4 4 0 0 1-4 4h-4V10z" fill="#FF95E1"/><path d="M4 11a3 3 0 0 0-3 3v20a3 3 0 0 0 3 3h32a3 3 0 0 0 3-3V14a3 3 0 0 0-3-3H4zm0-1h32a4 4 0 0 1 4 4v20a4 4 0 0 1-4 4H4a4 4 0 0 1-4-4V14a4 4 0 0 1 4-4z" fill="#000D41" fill-rule="nonzero"/><path d="M14.416 9.723l-4-6a.5.5 0 1 0-.832.554l4 6a.5.5 0 1 0 .832-.554zM18.4 10.3l6-8a.5.5 0 0 0-.8-.6l-6 8a.5.5 0 0 0 .8.6z" fill="#000D41" fill-rule="nonzero"/><path fill="#000D41" d="M32 10h1v28h-1z"/><circle fill="#000D41" cx="36" cy="16" r="2"/><circle fill="#000D41" cx="36" cy="22" r="2"/><rect fill="#0080FF" x="3" y="13" width="27" height="22" rx="2"/><path d="M5 14a1 1 0 0 0-1 1v18a1 1 0 0 0 1 1h23a1 1 0 0 0 1-1V15a1 1 0 0 0-1-1H5zm0-1h23a2 2 0 0 1 2 2v18a2 2 0 0 1-2 2H5a2 2 0 0 1-2-2V15a2 2 0 0 1 2-2z" fill="#000D41" fill-rule="nonzero"/><path d="M18.3 30.4l8-6a.5.5 0 0 0-.6-.8l-8 6a.5.5 0 0 0 .6.8zM8.3 24.4l8-6a.5.5 0 0 0-.6-.8l-8 6a.5.5 0 0 0 .6.8z" fill="#FFF" fill-rule="nonzero"/><rect stroke="#000D41" x="3.5" y="13.5" width="26" height="21" rx="2"/><path d="M6 38h6l-4 2.004c-.833.501-1.5.501-2 0-.5-.5-.5-1.169 0-2.004zM34 38h-6l4 2.004c.833.501 1.5.501 2 0 .5-.5.5-1.169 0-2.004z" fill="#000D41"/></g></svg>
