<svg viewBox="0 0 64 64" xmlns="http://www.w3.org/2000/svg" style="background:#fff"><g transform="translate(20 12)" fill="none" fill-rule="evenodd"><path d="M6 1a3 3 0 0 0-3 3v32a3 3 0 0 0 3 3h16a3 3 0 0 0 3-3V4a3 3 0 0 0-3-3H6zm0-1h16a4 4 0 0 1 4 4v32c0 2.21-3.79 6-6 6H4a4 4 0 0 1-4-4V6c0-2.21 3.79-6 6-6z" fill="#000D41" fill-rule="nonzero"/><circle fill="#FF95E1" cx="14" cy="36" r="2"/><circle fill="#FF95E1" cx="9" cy="4" r="1"/><rect fill="#FF95E1" x="12" y="3" width="8" height="2" rx="1"/><path fill="#0080FF" d="M4 7h20v26H4z"/><path d="M5 8v24h18V8H5zM4 7h20v26H4V7z" fill="#000D41" fill-rule="nonzero"/></g></svg>
