<svg xmlns="http://www.w3.org/2000/svg" xmlns:xlink="http://www.w3.org/1999/xlink" xml:space="preserve" viewBox="0 0 254 172" width="254" height="172"><path fill="#FFF" d="M20.53 144.59h16.09v4.35H25.14v5.89h11.48v4.32H25.14v9.49h-4.61v-24.05zm21.56-1.68c1.49 0 2.7 1.21 2.7 2.7 0 1.49-1.21 2.69-2.7 2.7-1.41.07-2.6-1.02-2.67-2.43v-.2c-.06-1.47 1.09-2.71 2.57-2.77h.14m-2.28 7.94h4.55v17.79h-4.59l.04-17.79zm17.74 4.94c-.63-.5-1.41-.77-2.21-.79-1.85 0-2.9 1.19-2.9 3.79v9.85h-4.56v-17.79h4.32v2.57c.66-1.75 2.38-2.86 4.25-2.74 1.07 0 2.12.33 3 .93l-1.9 4.18zm1.88 4.05c-.14-5.02 3.82-9.21 8.85-9.35h.31c4.83-.21 8.91 3.53 9.13 8.36.01.23.01.47 0 .7v1.87H63.88c.46 2.3 2.57 3.9 4.91 3.73 1.86.05 3.59-.98 4.42-2.64l3.79 2.27c-1.83 2.79-5.01 4.4-8.34 4.22-5.77 0-9.23-3.85-9.23-9.16m4.51-2h9.36c-.47-2.2-2.5-3.7-4.74-3.52-2.18-.08-4.12 1.4-4.62 3.52m14.9-7H82V150c0-4.84 2-6.85 6.53-6.85h1.58V147h-1.25c-2.11 0-2.57.72-2.57 2.93v.89h3.86v4.08h-3.76v13.71H82v-13.68h-3.2l.04-4.09zm12.16 8.9c-.08-5.03 3.94-9.17 8.97-9.25h.32c5.11-.17 9.39 3.84 9.56 8.95.17 5.11-3.84 9.39-8.95 9.56-.2.01-.41.01-.61 0-4.97.16-9.13-3.73-9.29-8.7-.01-.19-.01-.37 0-.56m14.17 0c-.07-2.69-2.3-4.82-5-4.76-2.69.07-4.82 2.3-4.76 5 .07 2.65 2.23 4.76 4.88 4.76 2.7 0 4.89-2.2 4.88-4.9v-.1m10.55-.19-6.43-8.7h5.34l3.79 5.47 3.89-5.47h5.24l-6.55 8.66 6.85 9.13h-5.31l-4.25-5.8-4.12 5.8h-5.3l6.85-9.09zm24.03 9.08h2.79v-10.38H155v-2.63h-12.46v-8.37H155v-2.6h-15.25v23.98zm27.39-18.1c-5.1.06-9.18 4.24-9.12 9.34.06 5.1 4.24 9.18 9.34 9.12 5.05-.06 9.12-4.17 9.12-9.23.04-5.06-4.03-9.19-9.09-9.23h-.25m0 15.9c-3.69-.14-6.57-3.25-6.43-6.94.14-3.49 2.93-6.29 6.43-6.43 3.69.14 6.57 3.25 6.43 6.94-.14 3.5-2.94 6.29-6.43 6.43m21.41 0c-3.68.02-6.69-2.95-6.71-6.63v-.08c-.06-3.64 2.84-6.64 6.48-6.7h.13c2.62-.05 5.01 1.51 6 3.94l2.5-1.08c-1.47-3.35-4.82-5.49-8.48-5.39-5.1 0-9.23 4.12-9.24 9.22 0 5.1 4.12 9.23 9.22 9.24h.02c3.73.09 7.12-2.13 8.54-5.58l-2.52-1c-.96 2.48-3.34 4.11-6 4.11m24.57-5.75c.18 3.02-2.12 5.62-5.14 5.8-.12.01-.25.01-.37.01-3.46 0-5.26-2.23-5.26-5.68v-10h-2.76V161c0 5 2.66 8 7.55 8 2.46.07 4.77-1.18 6.05-3.28v2.92h2.66v-17.75h-2.73v9.84zm13.94-2.35c-2.79-.55-5-.92-5-2.76 0-1.64 1.13-2.82 3.89-2.82 1.93-.08 3.77.81 4.92 2.36l2.26-1.51c-1.76-2.12-4.42-3.29-7.18-3.15-4.26 0-6.69 2.4-6.69 5.16 0 3.54 3.29 4.37 6.39 5 2.62.52 5.08.92 5.08 2.89 0 1.77-1.46 3.09-4.25 3.09-2.3.1-4.49-.99-5.79-2.89l-2.36 1.57c1.6 2.27 4.16 3.71 8.08 3.71 4.69 0 7.08-2.72 7.08-5.51 0-3.65-3.39-4.5-6.48-5.1"/><linearGradient id="a" x1="173.0487" x2="76.8314" y1="155.4478" y2="62.6167" gradientTransform="matrix(1 0 0 -1 0 174)" gradientUnits="userSpaceOnUse"><stop offset="0" stop-color="#c60084"/><stop offset=".76" stop-color="#c60084"/><stop offset="1" stop-color="#4e1a69"/></linearGradient><path fill="url(#a)" d="M180.73 40.15c-2.52-6.06-7.62-12.6-11.63-14.67 3.26 6.39 5.15 12.81 5.87 17.59 0 0 0 .03.01.1-6.55-16.34-17.67-22.92-26.74-37.27-.46-.72-.92-1.45-1.37-2.22-.25-.44-.46-.83-.64-1.21-.38-.73-.67-1.49-.87-2.28 0-.08-.05-.15-.13-.16-.04-.01-.07-.01-.11 0-.01 0-.02.01-.03.02-.01 0-.03.02-.04.02l.02-.03c-14.56 8.53-19.5 24.3-19.95 32.19-5.82.4-11.38 2.54-15.96 6.14-.48-.41-.98-.78-1.5-1.13-1.32-4.62-1.38-9.51-.16-14.16-5.95 2.71-10.59 6.99-13.95 10.78h-.03c-2.3-2.91-2.14-12.51-2.01-14.51-.03-.13-1.71.88-1.93 1.03-2.03 1.45-3.92 3.07-5.67 4.85-1.98 2.01-3.79 4.18-5.41 6.49-3.73 5.28-6.37 11.25-7.78 17.56-.03.13-.05.26-.08.38-.11.51-.5 3.06-.57 3.62v.13c-.51 2.64-.83 5.32-.96 8v.3c0 32.01 25.95 57.95 57.96 57.95 28.67 0 52.47-20.81 57.13-48.15.1-.74.18-1.49.26-2.24 1.18-9.94-.1-20.38-3.73-29.12zm-66.81 45.37c.27.13.53.27.8.4l.04.02-.84-.42zm13.26-34.96zm47.8-7.38v-.06.06z"/><defs><path id="b" d="M180.73 40.15c-2.52-6.06-7.62-12.6-11.63-14.67 3.26 6.39 5.15 12.81 5.87 17.59v.11c5.47 14.83 2.49 29.91-1.8 39.11-6.64 14.25-22.72 28.86-47.89 28.15-27.17-.77-51.13-20.94-55.6-47.38-.82-4.17 0-6.28.41-9.67-.5 2.61-.69 3.36-.94 8v.3c-.01 32.01 25.94 57.95 57.95 57.95 28.67 0 52.47-20.81 57.13-48.15.1-.74.18-1.49.26-2.24 1.15-9.92-.13-20.36-3.76-29.1z"/></defs><clipPath id="c"><use xlink:href="#b" overflow="visible"/></clipPath><g fill="#FFF" clip-path="url(#c)"><path d="M68.85 25.48h116.79v94.17H68.85z"/><path d="M92.34 107.03C85.99 101.87 80.18 96.08 75 89.75c-2.54-3.1-4.91-6.31-7.1-9.61h.71v-54.9h117.27v94.66h-73.1v.6c-7.25-3.79-14.1-8.3-20.44-13.47z"/><path d="M125.55 66.22c-10.56-8.56-18.3-20.1-22.22-33.11-.63-2.09-1.16-4.21-1.59-6.36-.11-.54-.21-1.07-.3-1.61v.1h84.45v53.81h.95c-.53.14-1.05.28-1.58.42-1.06.27-2.13.51-3.2.72-2.14.43-4.3.76-6.47.98-18.02 1.87-36.02-3.51-50.04-14.95z"/></g><radialGradient id="d" cx="-9505.1426" cy="10250.5703" r="19.4875" gradientTransform="matrix(6.2 0 0 -6.2 59059.3867 63615.1992)" gradientUnits="userSpaceOnUse"><stop offset=".3" stop-color="#4e1a69"/><stop offset=".38" stop-color="#830e75" stop-opacity=".6"/><stop offset=".46" stop-color="#b40480" stop-opacity=".24"/><stop offset=".5" stop-color="#c60084" stop-opacity=".1"/></radialGradient><path fill="url(#d)" d="M180.73 40.15c-2.52-6.06-7.62-12.6-11.63-14.67 3.26 6.39 5.15 12.81 5.87 17.59v.11c5.47 14.83 2.49 29.91-1.8 39.11-6.64 14.25-22.72 28.86-47.89 28.15-27.17-.77-51.13-20.94-55.6-47.38-.82-4.17 0-6.28.41-9.67-.5 2.61-.69 3.36-.94 8v.3c-.01 32.01 25.94 57.95 57.95 57.95 28.67 0 52.47-20.81 57.13-48.15.1-.74.18-1.49.26-2.24 1.15-9.92-.13-20.36-3.76-29.1z"/><radialGradient id="e" cx="-9502.9746" cy="10262.793" r="14.1164" gradientTransform="matrix(6.2 0 0 -6.2 59059.3867 63615.1992)" gradientUnits="userSpaceOnUse"><stop offset=".17" stop-color="#fff"/><stop offset=".25" stop-color="#fefbfd"/><stop offset=".32" stop-color="#fcf0f8"/><stop offset=".39" stop-color="#f7ddee"/><stop offset=".45" stop-color="#f1c2e1"/><stop offset=".52" stop-color="#e99fd1"/><stop offset=".59" stop-color="#e074bc"/><stop offset=".65" stop-color="#d543a4"/><stop offset=".71" stop-color="#ca138d"/><stop offset=".86" stop-color="#4e1a69"/></radialGradient><path fill="url(#e)" d="M152.56 46.96c.13.09.24.18.36.27-1.46-2.58-3.27-4.95-5.38-7.02-18.02-18.02-4.72-39.07-2.48-40.13l.02-.03c-14.56 8.53-19.5 24.3-19.95 32.19.68-.05 1.35-.1 2.04-.1 10.86-.01 20.32 5.97 25.39 14.82z"/><radialGradient id="f" cx="-9507.4795" cy="10245.3125" r="9.2783" gradientTransform="matrix(6.2 0 0 -6.2 59059.3867 63615.1992)" gradientUnits="userSpaceOnUse"><stop offset=".35" stop-color="#c60084"/><stop offset=".4" stop-color="#cb0384"/><stop offset="1" stop-color="#ff298a"/></radialGradient><path fill="url(#f)" d="M127.2 50.56c-.09 1.45-5.19 6.42-6.97 6.42-16.48 0-19.16 9.97-19.16 9.97.72 8.4 6.57 15.31 13.65 18.97.32.17.65.32.96.47.57.24 1.14.48 1.7.7 2.43.86 4.97 1.34 7.54 1.45 28.89 1.36 34.49-34.54 13.64-44.96 5.34-.93 10.88 1.22 13.97 3.39-5.06-8.86-14.53-14.83-25.4-14.83-.69 0-1.36.06-2.04.1-5.81.4-11.37 2.54-15.95 6.15.89.75 1.88 1.75 3.98 3.82 3.97 3.87 14.06 7.88 14.08 8.35z"/><radialGradient id="g" cx="-9504.9453" cy="10251.668" r="5.5911" gradientTransform="matrix(6.03 -1.46 -1.71 -7.06 74959.5781 58549.2812)" gradientUnits="userSpaceOnUse"><stop offset=".21" stop-color="#592acb" stop-opacity="0"/><stop offset=".28" stop-color="#5828c0" stop-opacity=".09"/><stop offset=".75" stop-color="#511e81" stop-opacity=".6"/><stop offset=".97" stop-color="#4e1a69" stop-opacity=".8"/></radialGradient><path fill="url(#g)" d="M127.2 50.56c-.09 1.45-5.19 6.42-6.97 6.42-16.48 0-19.16 9.97-19.16 9.97.72 8.4 6.57 15.31 13.65 18.97.32.17.65.32.96.47.57.24 1.14.48 1.7.7 2.43.86 4.97 1.34 7.54 1.45 28.89 1.36 34.49-34.54 13.64-44.96 5.34-.93 10.88 1.22 13.97 3.39-5.06-8.86-14.53-14.83-25.4-14.83-.69 0-1.36.06-2.04.1-5.81.4-11.37 2.54-15.95 6.15.89.75 1.88 1.75 3.98 3.82 3.97 3.87 14.06 7.88 14.08 8.35z"/><radialGradient id="h" cx="-9505.5693" cy="10259.168" r="6.6759" gradientTransform="matrix(6.2 0 0 -6.2 59059.3867 63615.1992)" gradientUnits="userSpaceOnUse"><stop offset=".43" stop-color="#fff"/><stop offset=".52" stop-color="#fff" stop-opacity=".97"/><stop offset=".66" stop-color="#fff" stop-opacity=".9"/><stop offset=".82" stop-color="#fff" stop-opacity=".78"/><stop offset=".99" stop-color="#fff" stop-opacity=".61"/><stop offset="1" stop-color="#fff" stop-opacity=".6"/></radialGradient><path fill="url(#h)" d="M106.47 36.45c.47.3.86.56 1.21.79-1.32-4.62-1.38-9.51-.16-14.16-5.95 2.71-10.59 6.99-13.95 10.78.27 0 8.67-.15 12.9 2.59z"/><radialGradient id="i" cx="-9500.3242" cy="10263.4014" r="28.4788" gradientTransform="matrix(6.2 0 0 -6.2 59059.3867 63615.1992)" gradientUnits="userSpaceOnUse"><stop offset=".41" stop-color="#fff"/><stop offset="1" stop-color="#fff" stop-opacity=".7"/></radialGradient><path fill="url(#i)" d="M69.67 63.08c4.47 26.43 28.43 46.61 55.62 47.38 25.17.72 41.24-13.9 47.89-28.15 4.29-9.21 7.27-24.29 1.8-39.11v-.11c0 .01 0 .03.01.1 2.05 13.42-4.77 26.43-15.45 35.21l-.03.07c-20.8 16.94-40.71 10.22-44.74 7.48-.28-.14-.56-.27-.84-.42-12.12-5.8-17.13-16.86-16.05-26.33-10.24 0-13.73-8.64-13.73-8.64s9.19-6.56 21.31-.85c11.22 5.28 21.76.86 21.76.85-.02-.47-10.11-4.48-14.04-8.36-2.12-2.07-3.12-3.07-4.01-3.83-.48-.41-.98-.78-1.5-1.13-.34-.24-.72-.48-1.21-.79-4.23-2.75-12.64-2.6-12.91-2.59h-.03c-2.3-2.91-2.14-12.51-2.01-14.51-.03-.13-1.71.88-1.93 1.03-2.03 1.45-3.92 3.07-5.67 4.85-1.98 2.01-3.79 4.18-5.41 6.49-3.73 5.28-6.37 11.25-7.78 17.56-.01.13-2.07 9.13-1.05 13.8z"/><radialGradient id="j" cx="-9458.8994" cy="10321.3545" r="22.0489" gradientTransform="matrix(.65 6.17 4.05 -.43 -35507.9805 62782.5078)" gradientUnits="userSpaceOnUse"><stop offset="0" stop-color="#fff"/><stop offset=".12" stop-color="#fefcfe"/><stop offset=".21" stop-color="#fcf2f9"/><stop offset=".29" stop-color="#f9e2f1"/><stop offset=".37" stop-color="#f3cbe6"/><stop offset=".44" stop-color="#edaed8"/><stop offset=".51" stop-color="#e58ac6"/><stop offset=".58" stop-color="#db5fb2"/><stop offset=".64" stop-color="#d02e9a"/><stop offset=".69" stop-color="#c60084"/></radialGradient><path fill="url(#j)" d="M147.54 40.21c2.12 2.08 3.93 4.44 5.38 7.02.3.23.59.47.87.72 13.14 12.11 6.26 29.23 5.74 30.45 10.67-8.79 17.5-21.8 15.45-35.21-6.55-16.36-17.67-22.95-26.74-37.29-.46-.72-.92-1.45-1.37-2.22-.25-.44-.46-.83-.64-1.21-.38-.73-.67-1.49-.87-2.28 0-.08-.05-.15-.13-.16-.04-.01-.07-.01-.11 0-.01 0-.02.01-.03.02-.01 0-.03.02-.04.02-2.23 1.08-15.53 22.12 2.49 40.14z"/><radialGradient id="k" cx="-9505.7266" cy="10256.6963" r="22.9051" gradientTransform="matrix(6.2 0 0 -6.2 59059.3867 63615.1992)" gradientUnits="userSpaceOnUse"><stop offset=".36" stop-color="#fff"/><stop offset=".74" stop-color="#c60084"/><stop offset=".83" stop-color="#4e1a69"/></radialGradient><path fill="url(#k)" d="M153.78 47.94c-.28-.26-.57-.5-.87-.72l-.36-.27c-3.09-2.17-8.64-4.32-13.97-3.39 20.85 10.42 15.25 46.31-13.64 44.96-2.57-.1-5.11-.59-7.54-1.45-.57-.21-1.14-.45-1.7-.7-.33-.15-.65-.3-.96-.47l.04.02c4.03 2.75 23.93 9.47 44.74-7.48l.03-.07c.51-1.2 7.38-18.32-5.77-30.43z"/><radialGradient id="l" cx="-9501.5586" cy="10255.2441" r="19.461" gradientTransform="matrix(6.2 0 0 -6.2 59059.3867 63615.1992)" gradientUnits="userSpaceOnUse"><stop offset=".09" stop-color="#fff"/><stop offset=".62" stop-color="#fff"/></radialGradient><path fill="url(#l)" d="M101.07 66.94s2.67-9.97 19.16-9.97c1.78 0 6.88-4.97 6.97-6.42 0 0-10.54 4.43-21.76-.85-12.12-5.7-21.31.85-21.31.85s3.49 8.64 13.73 8.64c-1.07 9.48 3.94 20.52 16.07 26.32.27.13.53.27.8.4-7.08-3.66-12.93-10.57-13.66-18.97z"/><linearGradient id="m" x1="171.8893" x2="90.0247" y1="155.9415" y2="74.0745" gradientTransform="matrix(1 0 0 -1 0 174)" gradientUnits="userSpaceOnUse"><stop offset=".3" stop-color="#fff" stop-opacity=".8"/><stop offset=".38" stop-color="#fff" stop-opacity=".63"/><stop offset=".57" stop-color="#fff" stop-opacity=".22"/><stop offset=".66" stop-color="#fff" stop-opacity="0"/></linearGradient><path fill="url(#m)" d="M180.73 40.15c-2.52-6.06-7.62-12.6-11.63-14.67 3.26 6.39 5.15 12.81 5.87 17.59 0 0 0 .03.01.1-6.55-16.34-17.67-22.92-26.74-37.27-.46-.72-.92-1.45-1.37-2.22-.25-.44-.46-.83-.64-1.21-.38-.73-.67-1.49-.87-2.28 0-.08-.05-.15-.13-.16-.04-.01-.07-.01-.11 0-.01 0-.02.01-.03.02-.01 0-.03.02-.04.02l.02-.03c-14.56 8.53-19.5 24.3-19.95 32.19.68-.05 1.35-.1 2.04-.1 10.87 0 20.33 5.97 25.4 14.83-3.09-2.17-8.64-4.32-13.97-3.39 20.85 10.42 15.25 46.31-13.64 44.96-2.57-.1-5.11-.59-7.54-1.45-.57-.21-1.14-.45-1.7-.7-.33-.15-.65-.3-.96-.47l.04.02c-.28-.14-.56-.27-.84-.42.27.13.53.27.8.4-7.08-3.66-12.92-10.57-13.65-18.97 0 0 2.67-9.97 19.16-9.97 1.78 0 6.88-4.97 6.97-6.42-.02-.47-10.11-4.48-14.04-8.36-2.12-2.08-3.11-3.08-4.01-3.83-.48-.41-.98-.78-1.5-1.13-1.32-4.62-1.38-9.51-.16-14.16-5.95 2.71-10.59 6.99-13.95 10.78h-.03c-2.3-2.91-2.14-12.51-2.01-14.51-.03-.13-1.71.88-1.93 1.03-2.03 1.45-3.92 3.07-5.67 4.85-1.98 2.01-3.79 4.18-5.41 6.49-3.73 5.28-6.37 11.25-7.78 17.56-.03.13-.05.26-.08.38-.11.51-.6 3.1-.67 3.65 0 .04 0-.04 0 0-.45 2.68-.74 5.38-.86 8.09v.3c0 32.01 25.95 57.95 57.96 57.95 28.67 0 52.47-20.81 57.13-48.15.1-.74.18-1.49.26-2.24 1.16-9.92-.12-20.36-3.75-29.1zm-5.75 2.98v.06-.06z"/></svg>
