<svg xmlns="http://www.w3.org/2000/svg" xmlns:xlink="http://www.w3.org/1999/xlink" xml:space="preserve" viewBox="0 0 380.48 80" width="381" height="80"><path fill="#FFF" d="M96.99 23.72h21.42v5.79h-15.28v7.85h15.28v5.75h-15.28v12.61h-6.14v-32zm28.7-2.23c1.9-.07 3.49 1.42 3.56 3.31v.28c.1 1.89-1.36 3.5-3.25 3.6-.12.01-.23.01-.35 0-1.87.09-3.46-1.35-3.55-3.22 0-.1-.01-.19 0-.29-.07-1.96 1.46-3.61 3.42-3.68h.17m-3 10.57h6v23.66h-6V32.06zm23.61 6.58c-.84-.67-1.87-1.04-2.94-1.06-2.46 0-3.86 1.58-3.86 5v13.14h-6V32.06h5.75v3.42c.88-2.33 3.18-3.81 5.67-3.64 1.43 0 2.82.43 4 1.23l-2.62 5.57zm2.5 5.39c-.19-6.69 5.08-12.27 11.77-12.46.14 0 .28-.01.42 0 7.11 0 12.16 5 12.16 12.07v2.5h-18.44c.66 3 3 4.95 6.54 4.95 2.48.08 4.77-1.29 5.88-3.51l5.05 3c-2.51 3.68-6.06 5.61-11.11 5.61-7.68 0-12.29-5.13-12.29-12.19m6-2.68h12.47c-.66-3-3.12-4.69-6.32-4.69-2.9-.11-5.48 1.86-6.15 4.69m19.84-9.29h4.26v-1.16c0-6.45 2.72-9.12 8.69-9.12h2.11v5.22h-1.69c-2.81 0-3.43 1-3.43 3.9v1.19h5.14v5.43h-5v18.23h-5.8V37.49h-4.26l-.02-5.46zm16.2 11.84c-.11-6.7 5.24-12.22 11.95-12.33h.43c6.81-.19 12.48 5.17 12.68 11.97.19 6.81-5.17 12.48-11.97 12.68-.23.01-.47.01-.7 0-6.62.21-12.17-4.99-12.38-11.61-.01-.24-.01-.47-.01-.71m18.87 0c-.12-3.59-3.12-6.4-6.71-6.29-3.59.12-6.4 3.12-6.29 6.71.11 3.51 2.99 6.29 6.5 6.29 3.59 0 6.5-2.92 6.49-6.51.02-.06.02-.13.01-.2m14-.26-8.5-11.55h7.11l5.05 7.28 5.18-7.28h7l-8.7 11.53 9.16 12.13h-7.06L227.27 48l-5.54 7.72h-7.07l9.03-12.11zm32.04 12.11h3.72V41.91h16.54v-3.5h-16.54V27.26h16.54V23.8h-20.26v31.92zm36.48-24.11c-6.79.08-12.24 5.65-12.16 12.44.08 6.79 5.65 12.24 12.44 12.16 6.74-.08 12.16-5.56 12.16-12.3.05-6.74-5.37-12.25-12.12-12.3h-.32m0 21.18c-4.75.06-8.66-3.74-8.72-8.49v-.39c0-4.83 3.91-8.74 8.74-8.74s8.74 3.91 8.74 8.74c.13 4.77-3.63 8.74-8.4 8.88h-.36m28.51 0c-4.9.03-8.91-3.92-8.94-8.82v-.1c-.09-4.84 3.77-8.84 8.61-8.93h.19c3.49-.07 6.67 2.02 8 5.25l3.32-1.44c-1.96-4.46-6.42-7.3-11.29-7.18-6.79-.19-12.45 5.15-12.65 11.94-.19 6.79 5.15 12.45 11.94 12.65.23.01.47.01.7 0 4.97.12 9.49-2.84 11.38-7.44l-3.36-1.4c-1.28 3.3-4.46 5.48-8 5.47m32.72-7.66c0 4.55-3.14 7.75-7.35 7.75-4.6 0-7-3-7-7.57V32.12h-3.67v13.42c0 6.65 3.54 10.68 10 10.68 3.28.09 6.35-1.58 8.06-4.38v3.88h3.54v-23.6h-3.63l.05 13.01zm18.46-3.1c-3.71-.74-6.59-1.23-6.59-3.68 0-2.18 1.5-3.76 5.18-3.76 2.6-.1 5.08 1.1 6.6 3.21l3-2c-2.34-2.83-5.89-4.39-9.56-4.2-5.67 0-8.9 3.19-8.9 6.87 0 4.72 4.38 5.82 8.5 6.6 3.5.7 6.77 1.23 6.77 3.85 0 2.37-1.95 4.11-5.66 4.11-3.06.13-5.98-1.32-7.71-3.85l-3.14 2.11c2.12 3 5.53 4.94 10.76 4.94 6.24 0 9.43-3.63 9.43-7.35 0-4.86-4.52-6-8.64-6.78"/><linearGradient id="a" x1="69.8838" x2="5.9408" y1="68.7026" y2="7.01" gradientTransform="matrix(1 0 0 -1 0 81.4403)" gradientUnits="userSpaceOnUse"><stop offset="0" stop-color="#c60084"/><stop offset=".76" stop-color="#c60084"/><stop offset="1" stop-color="#4e1a69"/></linearGradient><path fill="url(#a)" d="M74.99 27.09c-1.67-4.03-5.06-8.37-7.73-9.75 2.17 4.25 3.42 8.51 3.9 11.69 0 0 0 .02.01.06C66.81 18.24 59.43 13.86 53.4 4.33c-.31-.48-.61-.96-.91-1.48-.17-.29-.3-.55-.42-.8-.25-.48-.44-.99-.58-1.52 0-.05-.04-.1-.09-.1-.02-.01-.05-.01-.07 0-.01 0-.01.01-.02.01s-.02.01-.03.01l.02-.02c-9.68 5.67-12.96 16.16-13.26 21.4-3.87.26-7.56 1.69-10.61 4.08-.32-.27-.65-.52-1-.75-.88-3.07-.91-6.32-.11-9.41-3.96 1.8-7.03 4.65-9.27 7.16h-.02c-1.53-1.93-1.42-8.31-1.33-9.65-.02-.08-1.14.58-1.28.68-1.35.96-2.61 2.04-3.77 3.22-1.32 1.34-2.52 2.78-3.6 4.31C4.58 25 2.82 28.96 1.89 33.15c-.02.08-.03.17-.05.25-.07.34-.33 2.04-.38 2.4v.08c-.34 1.75-.55 3.53-.63 5.32v.2c0 21.27 17.25 38.51 38.52 38.51 19.05 0 34.87-13.83 37.97-32 .06-.49.12-.99.17-1.49.76-6.58-.09-13.52-2.5-19.33zm-44.4 30.15c.18.08.35.18.53.26l.03.02c-.19-.09-.37-.18-.56-.28zm8.81-23.23zm31.77-4.9v-.04.04z"/><defs><path id="b" d="M74.99 27.09c-1.67-4.03-5.06-8.37-7.73-9.75 2.17 4.25 3.42 8.51 3.9 11.69v.08c3.64 9.85 1.65 19.88-1.2 25.99-4.41 9.47-15.1 19.18-31.83 18.71C20.07 73.3 4.15 59.89 1.18 42.33c-.54-2.77 0-4.18.27-6.42-.33 1.73-.46 2.23-.62 5.31v.2c0 21.27 17.24 38.51 38.51 38.51 19.05 0 34.87-13.83 37.97-32 .06-.49.12-.99.17-1.49.77-6.6-.08-13.54-2.49-19.35z"/></defs><clipPath id="c"><use xlink:href="#b" overflow="visible"/></clipPath><g fill="#FFF" clip-path="url(#c)"><path d="M.64 17.34h77.61v62.59H.64z"/><path d="M16.25 71.54c-4.22-3.43-8.08-7.28-11.52-11.48C3.04 58 1.47 55.87.01 53.67h.47V17.18h77.94v62.91H29.83v.4c-4.82-2.52-9.37-5.52-13.58-8.95z"/><path d="M38.32 44.41c-7.01-5.69-12.16-13.35-14.77-22-.42-1.39-.77-2.8-1.06-4.23-.07-.36-.14-.71-.2-1.07v.07h56.12v35.76h.63c-.35.1-.7.19-1.05.28-.71.18-1.41.34-2.13.48-1.42.29-2.86.5-4.3.65-11.96 1.24-23.92-2.33-33.24-9.94z"/></g><radialGradient id="d" cx="-9443.8389" cy="10200.0967" r="12.9508" gradientTransform="matrix(6.2 0 0 -6.2 58591.4141 63281.9844)" gradientUnits="userSpaceOnUse"><stop offset=".3" stop-color="#4e1a69"/><stop offset=".38" stop-color="#830e75" stop-opacity=".6"/><stop offset=".46" stop-color="#b40480" stop-opacity=".24"/><stop offset=".5" stop-color="#c60084" stop-opacity=".1"/></radialGradient><path fill="url(#d)" d="M74.99 27.09c-1.67-4.03-5.06-8.37-7.73-9.75 2.17 4.25 3.42 8.51 3.9 11.69v.08c3.64 9.85 1.65 19.88-1.2 25.99-4.41 9.47-15.1 19.18-31.83 18.71C20.07 73.3 4.15 59.89 1.18 42.33c-.54-2.77 0-4.18.27-6.42-.33 1.73-.46 2.23-.62 5.31v.2c0 21.27 17.24 38.51 38.51 38.51 19.05 0 34.87-13.83 37.97-32 .06-.49.12-.99.17-1.49.77-6.6-.08-13.54-2.49-19.35z"/><radialGradient id="e" cx="-9442.3975" cy="10208.2197" r="9.3813" gradientTransform="matrix(6.2 0 0 -6.2 58591.4141 63281.9844)" gradientUnits="userSpaceOnUse"><stop offset=".17" stop-color="#fff"/><stop offset=".25" stop-color="#fefbfd"/><stop offset=".32" stop-color="#fcf0f8"/><stop offset=".39" stop-color="#f7ddee"/><stop offset=".45" stop-color="#f1c2e1"/><stop offset=".52" stop-color="#e99fd1"/><stop offset=".59" stop-color="#e074bc"/><stop offset=".65" stop-color="#d543a4"/><stop offset=".71" stop-color="#ca138d"/><stop offset=".86" stop-color="#4e1a69"/></radialGradient><path fill="url(#e)" d="m56.27 31.62.24.18c-.97-1.72-2.17-3.29-3.58-4.67C40.96 15.16 49.79 1.16 51.28.46l.02-.02C41.62 6.1 38.34 16.59 38.04 21.83c.45-.03.9-.07 1.35-.07 7.22 0 13.51 3.97 16.88 9.86z"/><radialGradient id="f" cx="-9445.3916" cy="10196.6025" r="6.1661" gradientTransform="matrix(6.2 0 0 -6.2 58591.4141 63281.9844)" gradientUnits="userSpaceOnUse"><stop offset=".35" stop-color="#c60084"/><stop offset=".4" stop-color="#cb0384"/><stop offset="1" stop-color="#ff298a"/></radialGradient><path fill="url(#f)" d="M39.41 34.01c-.06.96-3.45 4.26-4.63 4.26-10.95 0-12.73 6.62-12.73 6.62.48 5.58 4.37 10.17 9.07 12.61.21.11.43.21.64.31.38.16.75.32 1.13.46 1.61.57 3.3.89 5.01.96 19.2.9 22.92-22.95 9.06-29.88 3.55-.62 7.23.81 9.29 2.26-3.37-5.89-9.66-9.86-16.88-9.86-.46 0-.9.04-1.35.07-3.86.27-7.56 1.69-10.6 4.09.59.5 1.25 1.16 2.65 2.54 2.63 2.58 9.33 5.25 9.34 5.56z"/><radialGradient id="g" cx="-9443.2666" cy="10206.9932" r="3.7157" gradientTransform="matrix(6.03 -1.46 -1.71 -7.06 74427.7656 58307.6562)" gradientUnits="userSpaceOnUse"><stop offset=".21" stop-color="#592acb" stop-opacity="0"/><stop offset=".28" stop-color="#5828c0" stop-opacity=".09"/><stop offset=".75" stop-color="#511e81" stop-opacity=".6"/><stop offset=".97" stop-color="#4e1a69" stop-opacity=".8"/></radialGradient><path fill="url(#g)" d="M39.41 34.01c-.06.96-3.45 4.26-4.63 4.26-10.95 0-12.73 6.62-12.73 6.62.48 5.58 4.37 10.17 9.07 12.61.21.11.43.21.64.31.38.16.75.32 1.13.46 1.61.57 3.3.89 5.01.96 19.2.9 22.92-22.95 9.06-29.88 3.55-.62 7.23.81 9.29 2.26-3.37-5.89-9.66-9.86-16.88-9.86-.46 0-.9.04-1.35.07-3.86.27-7.56 1.69-10.6 4.09.59.5 1.25 1.16 2.65 2.54 2.63 2.58 9.33 5.25 9.34 5.56z"/><radialGradient id="h" cx="-9444.1221" cy="10205.8105" r="4.4366" gradientTransform="matrix(6.2 0 0 -6.2 58591.4141 63281.9844)" gradientUnits="userSpaceOnUse"><stop offset=".43" stop-color="#fff"/><stop offset=".52" stop-color="#fff" stop-opacity=".97"/><stop offset=".66" stop-color="#fff" stop-opacity=".9"/><stop offset=".82" stop-color="#fff" stop-opacity=".78"/><stop offset=".99" stop-color="#fff" stop-opacity=".61"/><stop offset="1" stop-color="#fff" stop-opacity=".6"/></radialGradient><path fill="url(#h)" d="M25.64 24.63c.31.2.57.37.8.53-.88-3.07-.91-6.32-.11-9.41-3.96 1.8-7.03 4.65-9.27 7.16.18 0 5.77-.1 8.58 1.72z"/><radialGradient id="i" cx="-9440.6367" cy="10208.623" r="18.9261" gradientTransform="matrix(6.2 0 0 -6.2 58591.4141 63281.9844)" gradientUnits="userSpaceOnUse"><stop offset=".41" stop-color="#fff"/><stop offset="1" stop-color="#fff" stop-opacity=".7"/></radialGradient><path fill="url(#i)" d="M1.18 42.33C4.15 59.89 20.07 73.3 38.14 73.81c16.73.48 27.41-9.24 31.83-18.71 2.85-6.12 4.83-16.14 1.2-25.99v-.08c0 .01 0 .02.01.06 1.37 8.92-3.17 17.56-10.27 23.4l-.02.05c-13.82 11.26-27.05 6.79-29.73 4.97-.19-.09-.37-.18-.56-.28-8.06-3.85-11.39-11.19-10.68-17.49-6.8 0-9.12-5.74-9.12-5.74s6.11-4.36 14.16-.57c7.46 3.51 14.46.57 14.46.57-.01-.31-6.72-2.98-9.33-5.55-1.41-1.38-2.07-2.04-2.67-2.54-.32-.27-.65-.52-1-.75-.23-.16-.48-.32-.8-.53-2.81-1.83-8.4-1.73-8.58-1.72h-.02c-1.53-1.93-1.42-8.31-1.33-9.65-.02-.08-1.14.58-1.28.68-1.35.96-2.61 2.04-3.77 3.22-1.32 1.34-2.52 2.78-3.6 4.31C4.58 25 2.82 28.96 1.89 33.15c-.02.09-1.39 6.07-.71 9.18z"/><radialGradient id="j" cx="-9363.6309" cy="10228.8389" r="14.653" gradientTransform="matrix(.65 6.17 4.05 -.43 -35289.0469 62161.0625)" gradientUnits="userSpaceOnUse"><stop offset="0" stop-color="#fff"/><stop offset=".12" stop-color="#fefcfe"/><stop offset=".21" stop-color="#fcf2f9"/><stop offset=".29" stop-color="#f9e2f1"/><stop offset=".37" stop-color="#f3cbe6"/><stop offset=".44" stop-color="#edaed8"/><stop offset=".51" stop-color="#e58ac6"/><stop offset=".58" stop-color="#db5fb2"/><stop offset=".64" stop-color="#d02e9a"/><stop offset=".69" stop-color="#c60084"/></radialGradient><path fill="url(#j)" d="M52.93 27.13c1.41 1.38 2.61 2.95 3.58 4.67.2.15.39.31.58.48 8.73 8.05 4.16 19.43 3.82 20.24 7.09-5.84 11.63-14.49 10.27-23.4C66.81 18.24 59.43 13.86 53.4 4.33c-.31-.48-.61-.96-.91-1.48-.17-.29-.3-.55-.42-.8-.25-.48-.44-.99-.58-1.52 0-.05-.04-.1-.09-.1-.02-.01-.05-.01-.07 0-.01 0-.01.01-.02.01s-.02.01-.03.01c-1.49.72-10.32 14.71 1.65 26.68z"/><radialGradient id="k" cx="-9444.2266" cy="10204.167" r="15.222" gradientTransform="matrix(6.2 0 0 -6.2 58591.4141 63281.9844)" gradientUnits="userSpaceOnUse"><stop offset=".36" stop-color="#fff"/><stop offset=".74" stop-color="#c60084"/><stop offset=".83" stop-color="#4e1a69"/></radialGradient><path fill="url(#k)" d="M57.08 32.27c-.18-.17-.38-.33-.58-.48l-.24-.18c-2.06-1.44-5.74-2.87-9.29-2.26 13.85 6.93 10.13 30.77-9.06 29.88-1.71-.07-3.4-.39-5.01-.96-.38-.14-.75-.3-1.13-.46-.22-.1-.43-.2-.64-.31l.03.02c2.68 1.83 15.91 6.29 29.73-4.97l.02-.05c.34-.81 4.91-12.19-3.83-20.23z"/><radialGradient id="l" cx="-9441.457" cy="10203.2021" r="12.9332" gradientTransform="matrix(6.2 0 0 -6.2 58591.4141 63281.9844)" gradientUnits="userSpaceOnUse"><stop offset=".09" stop-color="#fff"/><stop offset=".62" stop-color="#fff"/></radialGradient><path fill="url(#l)" d="M22.05 44.9s1.78-6.62 12.73-6.62c1.18 0 4.57-3.31 4.63-4.26 0 0-7 2.94-14.46-.57-8.05-3.79-14.16.57-14.16.57s2.32 5.74 9.12 5.74c-.71 6.3 2.62 13.64 10.68 17.49.18.08.35.18.53.26-4.7-2.44-8.58-7.03-9.07-12.61z"/><linearGradient id="m" x1="69.1132" x2="14.7086" y1="69.0307" y2="14.6245" gradientTransform="matrix(1 0 0 -1 0 81.4403)" gradientUnits="userSpaceOnUse"><stop offset=".3" stop-color="#fff" stop-opacity=".8"/><stop offset=".38" stop-color="#fff" stop-opacity=".63"/><stop offset=".57" stop-color="#fff" stop-opacity=".22"/><stop offset=".66" stop-color="#fff" stop-opacity="0"/></linearGradient><path fill="url(#m)" d="M74.99 27.09c-1.67-4.03-5.06-8.37-7.73-9.75 2.17 4.25 3.42 8.51 3.9 11.69 0 0 0 .02.01.06C66.81 18.24 59.43 13.86 53.4 4.33c-.31-.48-.61-.96-.91-1.48-.17-.29-.3-.55-.42-.8-.25-.48-.44-.99-.58-1.52 0-.05-.04-.1-.09-.1-.02-.01-.05-.01-.07 0-.01 0-.01.01-.02.01s-.02.01-.03.01l.02-.02c-9.68 5.67-12.96 16.16-13.26 21.4.45-.03.9-.07 1.35-.07 7.22 0 13.51 3.97 16.88 9.86-2.06-1.44-5.74-2.87-9.29-2.26 13.85 6.93 10.13 30.77-9.06 29.88-1.71-.07-3.4-.39-5.01-.96-.38-.14-.75-.3-1.13-.46-.22-.1-.43-.2-.64-.31l.03.02c-.19-.09-.37-.18-.56-.28.18.08.35.18.53.26-4.7-2.43-8.59-7.03-9.07-12.61 0 0 1.78-6.62 12.73-6.62 1.18 0 4.57-3.31 4.63-4.26-.01-.31-6.72-2.98-9.33-5.55-1.41-1.38-2.07-2.04-2.66-2.55-.32-.27-.65-.52-1-.75-.88-3.07-.91-6.32-.11-9.41-3.96 1.8-7.03 4.65-9.27 7.16h-.02c-1.53-1.93-1.42-8.31-1.33-9.65-.02-.08-1.14.58-1.28.68-1.35.96-2.61 2.04-3.77 3.22-1.32 1.34-2.52 2.78-3.6 4.31C4.58 25 2.82 28.96 1.89 33.15c-.02.08-.03.17-.05.25-.07.34-.4 2.06-.44 2.43 0 .03 0-.03 0 0-.3 1.78-.49 3.58-.57 5.38v.2c0 21.27 17.25 38.51 38.52 38.51 19.05 0 34.87-13.83 37.97-32 .06-.49.12-.99.17-1.49.76-6.59-.09-13.53-2.5-19.34zm-3.82 1.98v.04-.04z"/></svg>
