<svg xmlns="http://www.w3.org/2000/svg" xmlns:xlink="http://www.w3.org/1999/xlink" xml:space="preserve" viewBox="0 0 202.7 80" width="203" height="80"><path fill="#20123A" d="M95.32 11.72h16.09v4.35H99.94v5.9h11.47v4.31H99.94v9.44h-4.62v-24zm21.56-1.68c1.42-.05 2.62 1.06 2.67 2.49v.21c-.07 1.48-1.33 2.63-2.81 2.56-1.36-.06-2.46-1.13-2.56-2.49-.06-1.47 1.09-2.71 2.57-2.77h.13m-2.27 7.94h4.55v17.74h-4.55V17.98zm17.71 4.92c-.63-.5-1.41-.77-2.21-.79-1.85 0-2.91 1.19-2.91 3.79v9.82h-4.48V17.96h4.32v2.57c.66-1.76 2.4-2.88 4.28-2.74 1.07 0 2.12.33 3 .93l-2 4.18zm1.88 4.05c-.14-5.02 3.82-9.21 8.85-9.35h.31c4.83-.21 8.92 3.54 9.13 8.38.01.23.01.46 0 .68v1.87h-13.81c.46 2.31 2.57 3.91 4.91 3.73 1.86.06 3.59-.97 4.42-2.64l3.79 2.28c-1.83 2.79-5.01 4.39-8.34 4.21-5.77 0-9.23-3.85-9.23-9.16m4.51-2h9.36c-.47-2.22-2.52-3.73-4.78-3.53-2.18-.08-4.12 1.4-4.62 3.52m14.9-7h3.2v-.89c0-4.84 2-6.85 6.53-6.85h1.58v3.92h-1.28c-2.11 0-2.57.72-2.57 2.93v.89h3.85v4.08h-3.76v13.7h-4.35V22.04h-3.2v-4.1zm12.17 8.89c-.08-5.03 3.94-9.17 8.97-9.25h.33c5.11-.17 9.39 3.84 9.56 8.95s-3.84 9.39-8.95 9.56c-.2.01-.41.01-.61 0-4.97.17-9.13-3.72-9.3-8.69-.01-.19-.01-.38 0-.57m14.18 0c0-2.7-2.18-4.88-4.87-4.89s-4.88 2.18-4.89 4.87v.01c0 2.7 2.18 4.88 4.87 4.89s4.88-2.18 4.89-4.87v-.01m10.55-.19-6.43-8.7h5.34l3.79 5.47 3.89-5.47h5.24l-6.52 8.66 6.89 9.12h-5.3l-4.26-5.8-4.12 5.8h-5.31l6.79-9.08zM95.32 67.72h2.81v-10.4h12.51v-2.6H98.16v-8.45h12.51v-2.61H95.32v24.06zm27.6-18.15c-5.12.07-9.21 4.28-9.14 9.4.07 5.12 4.28 9.21 9.4 9.14 5.07-.07 9.14-4.2 9.14-9.27.03-5.09-4.06-9.24-9.15-9.27h-.25m0 16c-3.71-.14-6.6-3.27-6.46-6.97.14-3.51 2.95-6.32 6.46-6.46 3.71.14 6.6 3.27 6.46 6.97-.14 3.51-2.96 6.32-6.46 6.46m21.54 0c-3.71.03-6.73-2.95-6.76-6.66v-.07c-.06-3.66 2.85-6.67 6.51-6.73h.11c2.65-.06 5.07 1.54 6.06 4l2.51-1.09c-1.49-3.36-4.86-5.49-8.53-5.41-5.12 0-9.27 4.15-9.27 9.27s4.15 9.27 9.27 9.27c3.76.11 7.19-2.13 8.6-5.61l-2.55-1.05c-.96 2.48-3.34 4.11-6 4.12m24.73-5.77c.18 3.04-2.15 5.65-5.19 5.83-.12.01-.25.01-.37.01-3.48 0-5.28-2.25-5.28-5.71v-10h-2.78v10.09c0 5 2.68 8 7.59 8 2.48.07 4.8-1.19 6.09-3.3v2.96h2.68V49.93h-2.74v9.91zm13.95-2.35c-2.81-.56-5-.92-5-2.77 0-1.65 1.14-2.84 3.92-2.84 1.94-.08 3.8.81 4.95 2.38l2.36-1.54c-1.77-2.14-4.45-3.31-7.22-3.17-4.29 0-6.73 2.41-6.73 5.19 0 3.56 3.32 4.38 6.43 5 2.64.53 5.11.92 5.11 2.9 0 1.78-1.47 3.1-4.28 3.1-2.31.1-4.51-.99-5.82-2.9l-2.37 1.58c1.6 2.28 4.18 3.73 8.12 3.73 4.72 0 7.13-2.74 7.13-5.54 0-3.66-3.41-4.52-6.52-5.12"/><linearGradient id="a" x1="69.8838" x2="5.9408" y1="84.8804" y2="23.1877" gradientTransform="matrix(1 0 0 -1 0 97.4403)" gradientUnits="userSpaceOnUse"><stop offset="0" stop-color="#c60084"/><stop offset=".76" stop-color="#c60084"/><stop offset="1" stop-color="#4e1a69"/></linearGradient><path fill="url(#a)" d="M74.99 26.91c-1.67-4.03-5.06-8.37-7.73-9.75 2.17 4.25 3.42 8.51 3.9 11.69 0 0 0 .02.01.06C66.81 18.06 59.43 13.68 53.4 4.15c-.31-.48-.61-.96-.91-1.48-.17-.29-.3-.55-.42-.8-.25-.48-.44-.99-.58-1.52 0-.05-.04-.1-.09-.1-.02-.01-.05-.01-.07 0-.01 0-.01.01-.02.01s-.02.01-.03.01l.02-.02C41.62 5.92 38.34 16.4 38.04 21.64c-3.87.26-7.56 1.69-10.61 4.08-.32-.27-.65-.52-1-.75-.88-3.07-.91-6.32-.11-9.41-3.96 1.8-7.03 4.65-9.27 7.16h-.02c-1.53-1.93-1.42-8.31-1.33-9.65-.02-.08-1.14.58-1.28.68-1.35.96-2.61 2.04-3.77 3.22-1.32 1.34-2.52 2.78-3.6 4.31-2.48 3.51-4.23 7.48-5.17 11.67-.02.08-.03.17-.05.25-.07.34-.33 2.04-.38 2.4v.08C1.11 37.43.9 39.21.82 41v.2c0 21.27 17.25 38.51 38.52 38.51 19.05 0 34.87-13.83 37.97-32 .06-.49.12-.99.17-1.49.77-6.56-.08-13.5-2.49-19.31zm-44.4 30.15c.18.08.35.18.53.26l.03.02c-.19-.09-.37-.18-.56-.28zm8.81-23.23zm31.77-4.9v-.04.04z"/><defs><path id="b" d="M74.99 26.91c-1.67-4.03-5.06-8.37-7.73-9.75 2.17 4.25 3.42 8.51 3.9 11.69v.08c3.64 9.85 1.65 19.88-1.2 25.99-4.41 9.47-15.1 19.18-31.83 18.71-18.06-.51-33.98-13.92-36.95-31.48-.54-2.77 0-4.18.27-6.42-.33 1.73-.46 2.23-.62 5.31v.2c0 21.27 17.24 38.51 38.51 38.51 19.05 0 34.87-13.83 37.97-32 .06-.49.12-.99.17-1.49.77-6.6-.08-13.54-2.49-19.35z"/></defs><clipPath id="c"><use xlink:href="#b" overflow="visible"/></clipPath><g fill="#FFF" clip-path="url(#c)"><path d="M.64 17.16h77.61v62.59H.64z"/><path d="M16.25 71.36c-4.22-3.43-8.08-7.28-11.52-11.48-1.69-2.06-3.26-4.19-4.72-6.39h.47V17h77.94v62.91H29.83v.4c-4.82-2.52-9.37-5.52-13.58-8.95z"/><path d="M38.32 44.24c-7.01-5.69-12.16-13.35-14.77-22-.42-1.39-.77-2.8-1.06-4.23-.07-.36-.14-.71-.2-1.07V17h56.12v35.76h.63c-.35.1-.7.19-1.05.28-.71.18-1.41.34-2.13.48-1.42.29-2.86.5-4.3.65-11.96 1.25-23.92-2.33-33.24-9.93z"/></g><radialGradient id="d" cx="-9529.957" cy="10209.415" r="12.9508" gradientTransform="matrix(6.2 0 0 -6.2 59125.3477 63339.5859)" gradientUnits="userSpaceOnUse"><stop offset=".3" stop-color="#4e1a69"/><stop offset=".38" stop-color="#830e75" stop-opacity=".6"/><stop offset=".46" stop-color="#b40480" stop-opacity=".24"/><stop offset=".5" stop-color="#c60084" stop-opacity=".1"/></radialGradient><path fill="url(#d)" d="M74.99 26.91c-1.67-4.03-5.06-8.37-7.73-9.75 2.17 4.25 3.42 8.51 3.9 11.69v.08c3.64 9.85 1.65 19.88-1.2 25.99-4.41 9.47-15.1 19.18-31.83 18.71-18.06-.51-33.98-13.92-36.95-31.48-.54-2.77 0-4.18.27-6.42-.33 1.73-.46 2.23-.62 5.31v.2c0 21.27 17.24 38.51 38.51 38.51 19.05 0 34.87-13.83 37.97-32 .06-.49.12-.99.17-1.49.77-6.6-.08-13.54-2.49-19.35z"/><radialGradient id="e" cx="-9528.5156" cy="10217.5381" r="9.3813" gradientTransform="matrix(6.2 0 0 -6.2 59125.3477 63339.5859)" gradientUnits="userSpaceOnUse"><stop offset=".17" stop-color="#fff"/><stop offset=".25" stop-color="#fefbfd"/><stop offset=".32" stop-color="#fcf0f8"/><stop offset=".39" stop-color="#f7ddee"/><stop offset=".45" stop-color="#f1c2e1"/><stop offset=".52" stop-color="#e99fd1"/><stop offset=".59" stop-color="#e074bc"/><stop offset=".65" stop-color="#d543a4"/><stop offset=".71" stop-color="#ca138d"/><stop offset=".86" stop-color="#4e1a69"/></radialGradient><path fill="url(#e)" d="m56.27 31.44.24.18c-.97-1.72-2.17-3.29-3.58-4.67C40.96 14.98 49.79.99 51.28.28l.02-.02c-9.68 5.67-12.96 16.15-13.26 21.39.45-.03.9-.07 1.35-.07 7.22.01 13.51 3.98 16.88 9.86z"/><radialGradient id="f" cx="-9531.5098" cy="10205.9209" r="6.1661" gradientTransform="matrix(6.2 0 0 -6.2 59125.3477 63339.5859)" gradientUnits="userSpaceOnUse"><stop offset=".35" stop-color="#c60084"/><stop offset=".4" stop-color="#cb0384"/><stop offset="1" stop-color="#ff298a"/></radialGradient><path fill="url(#f)" d="M39.41 33.83c-.06.96-3.45 4.26-4.63 4.26-10.95 0-12.73 6.62-12.73 6.62.48 5.58 4.37 10.17 9.07 12.61.21.11.43.21.64.31.38.16.75.32 1.13.46 1.61.57 3.3.89 5.01.96 19.2.9 22.92-22.95 9.06-29.88 3.55-.62 7.23.81 9.29 2.26-3.37-5.89-9.66-9.86-16.88-9.86-.46 0-.9.04-1.35.07-3.86.27-7.56 1.69-10.6 4.09.59.5 1.25 1.16 2.65 2.54 2.63 2.58 9.33 5.25 9.34 5.56z"/><radialGradient id="g" cx="-9529.5508" cy="10212.7617" r="3.7157" gradientTransform="matrix(6.03 -1.46 -1.71 -7.06 74957.9219 58222.2266)" gradientUnits="userSpaceOnUse"><stop offset=".21" stop-color="#592acb" stop-opacity="0"/><stop offset=".28" stop-color="#5828c0" stop-opacity=".09"/><stop offset=".75" stop-color="#511e81" stop-opacity=".6"/><stop offset=".97" stop-color="#4e1a69" stop-opacity=".8"/></radialGradient><path fill="url(#g)" d="M39.41 33.83c-.06.96-3.45 4.26-4.63 4.26-10.95 0-12.73 6.62-12.73 6.62.48 5.58 4.37 10.17 9.07 12.61.21.11.43.21.64.31.38.16.75.32 1.13.46 1.61.57 3.3.89 5.01.96 19.2.9 22.92-22.95 9.06-29.88 3.55-.62 7.23.81 9.29 2.26-3.37-5.89-9.66-9.86-16.88-9.86-.46 0-.9.04-1.35.07-3.86.27-7.56 1.69-10.6 4.09.59.5 1.25 1.16 2.65 2.54 2.63 2.58 9.33 5.25 9.34 5.56z"/><radialGradient id="h" cx="-9530.2402" cy="10215.1289" r="4.4366" gradientTransform="matrix(6.2 0 0 -6.2 59125.3477 63339.5859)" gradientUnits="userSpaceOnUse"><stop offset=".43" stop-color="#fff"/><stop offset=".52" stop-color="#fff" stop-opacity=".97"/><stop offset=".66" stop-color="#fff" stop-opacity=".9"/><stop offset=".82" stop-color="#fff" stop-opacity=".78"/><stop offset=".99" stop-color="#fff" stop-opacity=".61"/><stop offset="1" stop-color="#fff" stop-opacity=".6"/></radialGradient><path fill="url(#h)" d="M25.64 24.45c.31.2.57.37.8.53-.88-3.07-.91-6.32-.11-9.41-3.96 1.8-7.03 4.65-9.27 7.16.18 0 5.77-.1 8.58 1.72z"/><radialGradient id="i" cx="-9526.7549" cy="10217.9424" r="18.9261" gradientTransform="matrix(6.2 0 0 -6.2 59125.3477 63339.5859)" gradientUnits="userSpaceOnUse"><stop offset=".41" stop-color="#fff"/><stop offset="1" stop-color="#fff" stop-opacity=".7"/></radialGradient><path fill="url(#i)" d="M1.18 42.15c2.97 17.57 18.89 30.97 36.97 31.48 16.73.48 27.41-9.24 31.83-18.71 2.85-6.12 4.83-16.14 1.2-25.99v-.08s0 .02.01.06c1.37 8.92-3.17 17.56-10.27 23.4l-.02.05c-13.82 11.26-27.05 6.79-29.73 4.97-.19-.09-.37-.18-.56-.28-8.06-3.85-11.39-11.19-10.68-17.49-6.8 0-9.12-5.74-9.12-5.74s6.11-4.36 14.16-.57c7.46 3.51 14.46.57 14.46.57-.01-.31-6.72-2.98-9.33-5.55-1.41-1.38-2.07-2.04-2.67-2.54-.32-.27-.65-.52-1-.75-.23-.16-.48-.32-.8-.53-2.81-1.83-8.4-1.73-8.58-1.72h-.02c-1.53-1.93-1.42-8.31-1.33-9.65-.02-.08-1.14.58-1.28.68-1.35.96-2.61 2.04-3.77 3.22-1.32 1.34-2.52 2.78-3.6 4.31-2.48 3.51-4.23 7.48-5.17 11.67-.01.1-1.38 6.09-.7 9.19z"/><radialGradient id="j" cx="-9465.874" cy="10262.1221" r="14.653" gradientTransform="matrix(.65 6.17 4.05 -.43 -35357.3867 62806.0312)" gradientUnits="userSpaceOnUse"><stop offset="0" stop-color="#fff"/><stop offset=".12" stop-color="#fefcfe"/><stop offset=".21" stop-color="#fcf2f9"/><stop offset=".29" stop-color="#f9e2f1"/><stop offset=".37" stop-color="#f3cbe6"/><stop offset=".44" stop-color="#edaed8"/><stop offset=".51" stop-color="#e58ac6"/><stop offset=".58" stop-color="#db5fb2"/><stop offset=".64" stop-color="#d02e9a"/><stop offset=".69" stop-color="#c60084"/></radialGradient><path fill="url(#j)" d="M52.93 26.95c1.41 1.38 2.61 2.95 3.58 4.67.2.15.39.31.58.48 8.73 8.05 4.16 19.43 3.82 20.24C68 46.5 72.54 37.85 71.18 28.94 66.81 18.06 59.43 13.68 53.4 4.15c-.31-.48-.61-.96-.91-1.48-.17-.29-.3-.55-.42-.8-.25-.48-.44-.99-.58-1.52 0-.05-.04-.1-.09-.1-.02-.01-.05-.01-.07 0-.01 0-.01.01-.02.01s-.02.01-.03.01c-1.49.72-10.32 14.71 1.65 26.68z"/><radialGradient id="k" cx="-9530.3447" cy="10213.4863" r="15.222" gradientTransform="matrix(6.2 0 0 -6.2 59125.3477 63339.5859)" gradientUnits="userSpaceOnUse"><stop offset=".36" stop-color="#fff"/><stop offset=".74" stop-color="#c60084"/><stop offset=".83" stop-color="#4e1a69"/></radialGradient><path fill="url(#k)" d="M57.08 32.09c-.18-.17-.38-.33-.58-.48l-.24-.18c-2.06-1.44-5.74-2.87-9.29-2.26 13.85 6.93 10.13 30.77-9.06 29.88-1.71-.07-3.4-.39-5.01-.96-.38-.14-.75-.3-1.13-.46-.22-.1-.43-.2-.64-.31l.03.02c2.68 1.83 15.91 6.29 29.73-4.97l.02-.05c.34-.8 4.91-12.18-3.83-20.23z"/><radialGradient id="l" cx="-9527.5752" cy="10212.5215" r="12.9332" gradientTransform="matrix(6.2 0 0 -6.2 59125.3477 63339.5859)" gradientUnits="userSpaceOnUse"><stop offset=".09" stop-color="#fff"/><stop offset=".62" stop-color="#fff"/></radialGradient><path fill="url(#l)" d="M22.05 44.72s1.78-6.62 12.73-6.62c1.18 0 4.57-3.31 4.63-4.26 0 0-7 2.94-14.46-.57-8.05-3.79-14.16.57-14.16.57s2.32 5.74 9.12 5.74c-.71 6.3 2.62 13.64 10.68 17.49.18.08.35.18.53.26-4.7-2.44-8.58-7.03-9.07-12.61z"/><linearGradient id="m" x1="69.1132" x2="14.7086" y1="85.2084" y2="30.8022" gradientTransform="matrix(1 0 0 -1 0 97.4403)" gradientUnits="userSpaceOnUse"><stop offset=".3" stop-color="#fff" stop-opacity=".8"/><stop offset=".38" stop-color="#fff" stop-opacity=".63"/><stop offset=".57" stop-color="#fff" stop-opacity=".22"/><stop offset=".66" stop-color="#fff" stop-opacity="0"/></linearGradient><path fill="url(#m)" d="M74.99 26.91c-1.67-4.03-5.06-8.37-7.73-9.75 2.17 4.25 3.42 8.51 3.9 11.69 0 0 0 .02.01.06C66.81 18.06 59.43 13.68 53.4 4.15c-.31-.48-.61-.96-.91-1.48-.17-.29-.3-.55-.42-.8-.25-.48-.44-.99-.58-1.52 0-.05-.04-.1-.09-.1-.02-.01-.05-.01-.07 0-.01 0-.01.01-.02.01s-.02.01-.03.01l.02-.02C41.62 5.92 38.34 16.4 38.04 21.64c.45-.03.9-.07 1.35-.07 7.22 0 13.51 3.97 16.88 9.86-2.06-1.44-5.74-2.87-9.29-2.26 13.85 6.93 10.13 30.77-9.06 29.88-1.71-.07-3.4-.39-5.01-.96-.38-.14-.75-.3-1.13-.46-.22-.1-.43-.2-.64-.31l.03.02c-.19-.09-.37-.18-.56-.28.18.08.35.18.53.26-4.7-2.43-8.59-7.03-9.07-12.61 0 0 1.78-6.62 12.73-6.62 1.18 0 4.57-3.31 4.63-4.26-.01-.31-6.72-2.98-9.33-5.55-1.41-1.38-2.07-2.04-2.66-2.55-.32-.27-.65-.52-1-.75-.88-3.07-.91-6.32-.11-9.41-3.96 1.8-7.03 4.65-9.27 7.16h-.02c-1.53-1.93-1.42-8.31-1.33-9.65-.02-.08-1.14.58-1.28.68-1.35.96-2.61 2.04-3.77 3.22-1.32 1.34-2.52 2.78-3.6 4.31-2.48 3.51-4.23 7.48-5.17 11.67-.02.08-.03.17-.05.25-.07.34-.4 2.06-.44 2.43 0 .03 0-.03 0 0-.3 1.78-.49 3.58-.57 5.38v.2c0 21.27 17.25 38.51 38.52 38.51 19.05 0 34.87-13.83 37.97-32 .06-.49.12-.99.17-1.49.76-6.58-.09-13.52-2.5-19.33zm-3.82 1.98v.04-.04z"/></svg>
