<svg xmlns="http://www.w3.org/2000/svg" xmlns:xlink="http://www.w3.org/1999/xlink" xml:space="preserve" viewBox="0 0 136 236" width="136" height="236"><path fill="#FFF" d="M14.31 144H30.4v4.35H18.92v5.9H30.4v4.31H18.92V168h-4.61v-24zm21.56-1.68c1.49 0 2.7 1.21 2.7 2.7 0 1.49-1.21 2.69-2.7 2.7-1.41.07-2.6-1.02-2.67-2.43v-.2c-.06-1.47 1.09-2.71 2.57-2.77h.13m-2.27 7.94h4.55V168H33.6l.03-17.74zm17.73 4.94c-.63-.5-1.41-.78-2.21-.79-1.84 0-2.9 1.19-2.9 3.79v9.8h-4.54v-17.76H46v2.57c.66-1.75 2.38-2.86 4.25-2.74 1.07 0 2.12.33 3 .93l-1.89 4.2zm1.88 4c-.14-5.02 3.82-9.21 8.85-9.35h.32c4.83-.21 8.92 3.54 9.13 8.38.01.23.01.46 0 .68v1.87H57.66c.47 2.3 2.57 3.9 4.92 3.73 1.86.07 3.58-.95 4.42-2.61l3.8 2.28c-1.83 2.79-5.02 4.4-8.35 4.21-5.77 0-9.23-3.85-9.23-9.16m4.52-2h9.36c-.47-2.2-2.5-3.7-4.74-3.52-2.18-.08-4.12 1.4-4.62 3.52m14.9-7h3.2v-.89c0-4.84 2-6.85 6.53-6.85h1.58v3.92h-1.29c-2.11 0-2.58.72-2.58 2.93v.89h3.86v4.08h-3.76V168h-4.35v-13.68h-3.2l.01-4.09zm12.17 8.89c-.08-5.03 3.94-9.17 8.97-9.25h.33c5.11-.17 9.39 3.84 9.56 8.95.17 5.11-3.84 9.39-8.95 9.56-.2.01-.41.01-.61 0-4.97.17-9.13-3.72-9.3-8.69-.01-.19-.01-.38 0-.57m14.18 0c-.09-2.69-2.35-4.8-5.05-4.71s-4.8 2.35-4.71 5.05c.09 2.63 2.25 4.71 4.87 4.71 2.7 0 4.89-2.19 4.89-4.89v-.15m10.56-.19-6.43-8.7h5.34l3.79 5.47 3.89-5.47h5.24l-6.53 8.66 6.86 9.13h-5.31l-4.25-5.8L108 168h-5.3l6.85-9.06zM20.84 204h2.81v-10.4h12.52V191H23.65v-8.41h12.52v-2.61H20.84V204zm27.57-18.18c-5.12.07-9.21 4.28-9.14 9.4.07 5.12 4.28 9.21 9.4 9.14 5.07-.07 9.14-4.2 9.14-9.27.03-5.09-4.08-9.24-9.17-9.27h-.23m0 16c-3.71-.14-6.6-3.27-6.46-6.97.14-3.51 2.95-6.32 6.46-6.46 3.71.14 6.6 3.27 6.46 6.97-.14 3.51-2.95 6.32-6.46 6.46m21.55 0c-3.7.03-6.73-2.94-6.76-6.64v-.09c-.06-3.66 2.85-6.67 6.51-6.73h.15c2.63-.03 5.02 1.56 6 4l2.51-1.09c-1.49-3.36-4.85-5.5-8.53-5.41-5.12 0-9.27 4.15-9.27 9.27s4.15 9.27 9.27 9.27c3.76.11 7.19-2.13 8.6-5.61L76 197.73c-.96 2.48-3.34 4.11-6 4.12m24.72-5.77c.18 3.04-2.13 5.65-5.17 5.83-.13.01-.25.01-.38.01-3.48 0-5.29-2.25-5.29-5.71v-10h-2.81v10.13c0 5 2.67 8 7.59 8 2.47.07 4.79-1.19 6.09-3.3V204h2.67v-17.79h-2.74l.04 9.87zm13.95-2.35c-2.81-.56-5-.92-5-2.77 0-1.65 1.14-2.84 3.91-2.84 1.96-.1 3.84.8 5 2.38l2.28-1.52c-1.78-2.14-4.45-3.31-7.23-3.17-4.28 0-6.72 2.41-6.72 5.19 0 3.56 3.31 4.38 6.42 5 2.64.53 5.12.92 5.12 2.9 0 1.78-1.47 3.1-4.28 3.1-2.31.11-4.51-.99-5.82-2.9l-2.38 1.58c1.61 2.28 4.18 3.73 8.13 3.73 4.72 0 7.13-2.74 7.13-5.54 0-3.66-3.42-4.52-6.53-5.12"/><linearGradient id="a" x1="114.1525" x2="17.9503" y1="218.8549" y2="126.0385" gradientTransform="matrix(1 0 0 -1 0 238)" gradientUnits="userSpaceOnUse"><stop offset="0" stop-color="#c60084"/><stop offset=".76" stop-color="#c60084"/><stop offset="1" stop-color="#4e1a69"/></linearGradient><path fill="url(#a)" d="M121.83 40.74c-2.52-6.06-7.62-12.6-11.63-14.67 3.26 6.39 5.15 12.8 5.87 17.59 0 0 0 .03.01.1-6.55-16.33-17.66-22.92-26.73-37.26-.46-.72-.92-1.45-1.37-2.22-.25-.44-.46-.83-.64-1.21-.38-.73-.67-1.49-.87-2.28 0-.08-.05-.15-.13-.16-.04-.01-.07-.01-.11 0-.01 0-.02.01-.03.02-.01 0-.03.02-.04.02l.02-.03c-14.56 8.52-19.5 24.3-19.95 32.19-5.82.4-11.38 2.54-15.96 6.14-.48-.4-.98-.78-1.5-1.13-1.32-4.62-1.38-9.51-.16-14.16-5.95 2.71-10.58 6.99-13.95 10.78h-.03c-2.3-2.91-2.14-12.51-2.01-14.51-.03-.13-1.71.88-1.93 1.02-2.03 1.45-3.92 3.07-5.66 4.85-1.98 2.01-3.79 4.18-5.41 6.49-3.73 5.28-6.37 11.25-7.78 17.56-.03.13-.05.26-.08.38-.11.51-.5 3.06-.57 3.62V54c-.51 2.64-.83 5.31-.95 8v.3c0 32 25.95 57.94 57.95 57.94 28.66 0 52.46-20.81 57.12-48.14.1-.74.18-1.49.26-2.24 1.17-9.94-.11-20.39-3.74-29.12zM55.03 86.1c.27.13.53.27.8.4l.04.02c-.27-.14-.55-.28-.84-.42zM68.3 51.15zm47.79-7.38v-.06.06z"/><defs><path id="b" d="M121.83 40.74c-2.52-6.06-7.62-12.6-11.63-14.67 3.26 6.39 5.15 12.8 5.87 17.59v.11c5.47 14.82 2.49 29.9-1.8 39.11-6.64 14.25-22.72 28.86-47.89 28.14-27.17-.77-51.12-20.94-55.6-47.37-.82-4.17 0-6.28.41-9.67-.5 2.61-.69 3.36-.94 7.99v.3c-.01 32 25.94 57.94 57.94 57.94 28.66 0 52.46-20.81 57.12-48.14.1-.74.18-1.49.26-2.24 1.17-9.91-.11-20.36-3.74-29.09z"/></defs><clipPath id="c"><use xlink:href="#b" overflow="visible"/></clipPath><g fill="#FFF" clip-path="url(#c)"><path d="M9.97 26.07h116.77v94.16H9.97z"/><path d="M33.46 107.61c-6.35-5.16-12.15-10.95-17.33-17.28-2.54-3.1-4.91-6.3-7.1-9.61h.71V25.83h117.25v94.64H53.9v.6c-7.25-3.79-14.1-8.3-20.44-13.46z"/><path d="M66.66 66.8c-10.55-8.56-18.3-20.09-22.22-33.1-.63-2.09-1.16-4.21-1.59-6.36-.11-.54-.21-1.07-.3-1.61v.1h84.44v53.8h.95c-.53.14-1.05.28-1.58.42-1.06.27-2.13.51-3.2.72-2.14.43-4.3.76-6.47.98-18.01 1.87-36.01-3.51-50.03-14.95z"/></g><radialGradient id="d" cx="-9564.125" cy="10287.6367" r="19.4845" gradientTransform="matrix(6.2 0 0 -6.2 59366.1875 63845.6016)" gradientUnits="userSpaceOnUse"><stop offset=".3" stop-color="#4e1a69"/><stop offset=".38" stop-color="#830e75" stop-opacity=".6"/><stop offset=".46" stop-color="#b40480" stop-opacity=".24"/><stop offset=".5" stop-color="#c60084" stop-opacity=".1"/></radialGradient><path fill="url(#d)" d="M121.83 40.74c-2.52-6.06-7.62-12.6-11.63-14.67 3.26 6.39 5.15 12.8 5.87 17.59v.11c5.47 14.82 2.49 29.9-1.8 39.11-6.64 14.25-22.72 28.86-47.89 28.14-27.17-.77-51.12-20.94-55.6-47.37-.82-4.17 0-6.28.41-9.67-.5 2.61-.69 3.36-.94 7.99v.3c-.01 32 25.94 57.94 57.94 57.94 28.66 0 52.46-20.81 57.12-48.14.1-.74.18-1.49.26-2.24 1.17-9.91-.11-20.36-3.74-29.09z"/><radialGradient id="e" cx="-9561.957" cy="10299.8584" r="14.1142" gradientTransform="matrix(6.2 0 0 -6.2 59366.1875 63845.6016)" gradientUnits="userSpaceOnUse"><stop offset=".17" stop-color="#fff"/><stop offset=".25" stop-color="#fefbfd"/><stop offset=".32" stop-color="#fcf0f8"/><stop offset=".39" stop-color="#f7ddee"/><stop offset=".45" stop-color="#f1c2e1"/><stop offset=".52" stop-color="#e99fd1"/><stop offset=".59" stop-color="#e074bc"/><stop offset=".65" stop-color="#d543a4"/><stop offset=".71" stop-color="#ca138d"/><stop offset=".86" stop-color="#4e1a69"/></radialGradient><path fill="url(#e)" d="M93.67 47.55c.13.09.24.18.36.27-1.46-2.58-3.27-4.94-5.38-7.02C70.63 22.78 83.92 1.73 86.16.67l.02-.03c-14.56 8.52-19.5 24.3-19.95 32.19.68-.05 1.35-.1 2.04-.1 10.87-.01 20.33 5.97 25.4 14.82z"/><radialGradient id="f" cx="-9566.4619" cy="10282.3799" r="9.2768" gradientTransform="matrix(6.2 0 0 -6.2 59366.1875 63845.6016)" gradientUnits="userSpaceOnUse"><stop offset=".35" stop-color="#c60084"/><stop offset=".4" stop-color="#cb0384"/><stop offset="1" stop-color="#ff298a"/></radialGradient><path fill="url(#f)" d="M68.31 51.15c-.09 1.45-5.19 6.41-6.97 6.41-16.48 0-19.15 9.97-19.15 9.97.72 8.39 6.57 15.31 13.65 18.97.32.17.65.32.96.47.57.24 1.14.48 1.7.7 2.43.86 4.97 1.34 7.54 1.45 28.88 1.36 34.48-34.53 13.64-44.95 5.34-.93 10.88 1.22 13.97 3.39-5.06-8.85-14.53-14.83-25.39-14.83-.69 0-1.36.06-2.04.1-5.81.4-11.37 2.54-15.95 6.15.88.75 1.88 1.75 3.98 3.82 3.95 3.86 14.04 7.88 14.06 8.35z"/><radialGradient id="g" cx="-9562.7363" cy="10287.8672" r="5.5903" gradientTransform="matrix(6.03 -1.46 -1.71 -7.06 75311.0703 58721.0586)" gradientUnits="userSpaceOnUse"><stop offset=".21" stop-color="#592acb" stop-opacity="0"/><stop offset=".28" stop-color="#5828c0" stop-opacity=".09"/><stop offset=".75" stop-color="#511e81" stop-opacity=".6"/><stop offset=".97" stop-color="#4e1a69" stop-opacity=".8"/></radialGradient><path fill="url(#g)" d="M68.31 51.15c-.09 1.45-5.19 6.41-6.97 6.41-16.48 0-19.15 9.97-19.15 9.97.72 8.39 6.57 15.31 13.65 18.97.32.17.65.32.96.47.57.24 1.14.48 1.7.7 2.43.86 4.97 1.34 7.54 1.45 28.88 1.36 34.48-34.53 13.64-44.95 5.34-.93 10.88 1.22 13.97 3.39-5.06-8.85-14.53-14.83-25.39-14.83-.69 0-1.36.06-2.04.1-5.81.4-11.37 2.54-15.95 6.15.88.75 1.88 1.75 3.98 3.82 3.95 3.86 14.04 7.88 14.06 8.35z"/><radialGradient id="h" cx="-9564.5518" cy="10296.2334" r="6.6749" gradientTransform="matrix(6.2 0 0 -6.2 59366.1875 63845.6016)" gradientUnits="userSpaceOnUse"><stop offset=".43" stop-color="#fff"/><stop offset=".52" stop-color="#fff" stop-opacity=".97"/><stop offset=".66" stop-color="#fff" stop-opacity=".9"/><stop offset=".82" stop-color="#fff" stop-opacity=".78"/><stop offset=".99" stop-color="#fff" stop-opacity=".61"/><stop offset="1" stop-color="#fff" stop-opacity=".6"/></radialGradient><path fill="url(#h)" d="M47.59 37.04c.47.3.86.56 1.21.79-1.32-4.62-1.38-9.51-.16-14.16-5.95 2.71-10.58 6.99-13.95 10.78.26 0 8.67-.15 12.9 2.59z"/><radialGradient id="i" cx="-9559.3066" cy="10300.4658" r="28.4743" gradientTransform="matrix(6.2 0 0 -6.2 59366.1875 63845.6016)" gradientUnits="userSpaceOnUse"><stop offset=".41" stop-color="#fff"/><stop offset="1" stop-color="#fff" stop-opacity=".7"/></radialGradient><path fill="url(#i)" d="M10.79 63.66c4.47 26.43 28.43 46.6 55.62 47.37 25.17.72 41.24-13.89 47.89-28.14 4.29-9.21 7.27-24.29 1.8-39.11v-.11c0 .01 0 .03.01.1 2.05 13.42-4.77 26.42-15.45 35.21l-.03.07c-20.8 16.94-40.7 10.22-44.73 7.48-.28-.14-.56-.27-.84-.42C42.93 80.32 37.92 69.27 39 59.79c-10.24 0-13.73-8.64-13.73-8.64s9.19-6.55 21.31-.85c11.22 5.28 21.76.86 21.76.85-.02-.47-10.11-4.48-14.04-8.36-2.12-2.07-3.12-3.07-4.01-3.83-.48-.4-.98-.78-1.5-1.13-.34-.24-.72-.48-1.21-.79-4.23-2.75-12.63-2.6-12.91-2.59h-.03c-2.3-2.91-2.14-12.51-2.01-14.51-.03-.13-1.71.88-1.93 1.02-2.03 1.45-3.92 3.07-5.66 4.85-1.98 2.01-3.79 4.18-5.41 6.49-3.73 5.28-6.37 11.25-7.78 17.56-.02.13-2.08 9.13-1.06 13.8z"/><radialGradient id="j" cx="-9522.9307" cy="10354.1885" r="22.0454" gradientTransform="matrix(.65 6.17 4.05 -.43 -35658.2305 63192.3008)" gradientUnits="userSpaceOnUse"><stop offset="0" stop-color="#fff"/><stop offset=".12" stop-color="#fefcfe"/><stop offset=".21" stop-color="#fcf2f9"/><stop offset=".29" stop-color="#f9e2f1"/><stop offset=".37" stop-color="#f3cbe6"/><stop offset=".44" stop-color="#edaed8"/><stop offset=".51" stop-color="#e58ac6"/><stop offset=".58" stop-color="#db5fb2"/><stop offset=".64" stop-color="#d02e9a"/><stop offset=".69" stop-color="#c60084"/></radialGradient><path fill="url(#j)" d="M88.65 40.8c2.12 2.08 3.93 4.44 5.38 7.02.3.23.59.47.87.72 13.14 12.11 6.26 29.23 5.74 30.45 10.67-8.79 17.5-21.79 15.45-35.21-6.56-16.35-17.67-22.94-26.74-37.28-.46-.72-.92-1.45-1.37-2.22-.25-.44-.46-.83-.64-1.21-.38-.73-.67-1.49-.87-2.28 0-.08-.05-.15-.13-.16-.04-.01-.07-.01-.11 0-.01 0-.02.01-.03.02-.01 0-.03.02-.04.02-2.24 1.07-15.53 22.11 2.49 40.13z"/><radialGradient id="k" cx="-9564.708" cy="10293.7617" r="22.9015" gradientTransform="matrix(6.2 0 0 -6.2 59366.1875 63845.6016)" gradientUnits="userSpaceOnUse"><stop offset=".36" stop-color="#fff"/><stop offset=".74" stop-color="#c60084"/><stop offset=".83" stop-color="#4e1a69"/></radialGradient><path fill="url(#k)" d="M94.89 48.53c-.28-.26-.57-.5-.87-.72l-.36-.27c-3.09-2.17-8.64-4.32-13.97-3.39 20.84 10.42 15.25 46.3-13.64 44.95-2.57-.1-5.11-.59-7.54-1.45-.57-.21-1.14-.45-1.7-.7-.33-.15-.65-.3-.96-.47l.04.02c4.03 2.75 23.93 9.47 44.73-7.48l.03-.07c.51-1.2 7.38-18.32-5.76-30.42z"/><radialGradient id="l" cx="-9560.541" cy="10292.3105" r="19.4579" gradientTransform="matrix(6.2 0 0 -6.2 59366.1875 63845.6016)" gradientUnits="userSpaceOnUse"><stop offset=".09" stop-color="#fff"/><stop offset=".62" stop-color="#fff"/></radialGradient><path fill="url(#l)" d="M42.19 67.53s2.67-9.97 19.15-9.97c1.78 0 6.88-4.97 6.97-6.41 0 0-10.54 4.43-21.76-.85-12.12-5.7-21.31.85-21.31.85s3.49 8.64 13.73 8.64C37.9 69.26 42.91 80.3 55.04 86.1c.27.13.53.27.8.4-7.08-3.66-12.92-10.58-13.65-18.97z"/><linearGradient id="m" x1="112.9932" x2="31.1415" y1="219.3485" y2="137.4945" gradientTransform="matrix(1 0 0 -1 0 238)" gradientUnits="userSpaceOnUse"><stop offset=".3" stop-color="#fff" stop-opacity=".8"/><stop offset=".38" stop-color="#fff" stop-opacity=".63"/><stop offset=".57" stop-color="#fff" stop-opacity=".22"/><stop offset=".66" stop-color="#fff" stop-opacity="0"/></linearGradient><path fill="url(#m)" d="M121.83 40.74c-2.52-6.06-7.62-12.6-11.63-14.67 3.26 6.39 5.15 12.8 5.87 17.59 0 0 0 .03.01.1-6.55-16.33-17.66-22.92-26.73-37.26-.46-.72-.92-1.45-1.37-2.22-.25-.44-.46-.83-.64-1.21-.38-.73-.67-1.49-.87-2.28 0-.08-.05-.15-.13-.16-.04-.01-.07-.01-.11 0-.01 0-.02.01-.03.02-.01 0-.03.02-.04.02l.02-.03c-14.56 8.52-19.5 24.3-19.95 32.19.68-.05 1.35-.1 2.04-.1 10.86 0 20.33 5.97 25.39 14.83-3.09-2.17-8.64-4.32-13.97-3.39 20.84 10.42 15.25 46.3-13.64 44.95-2.57-.1-5.11-.59-7.54-1.45-.57-.21-1.14-.45-1.7-.7-.33-.15-.65-.3-.96-.47l.04.02c-.28-.14-.56-.27-.84-.42.27.13.53.27.8.4-7.08-3.66-12.92-10.57-13.65-18.97 0 0 2.67-9.97 19.15-9.97 1.78 0 6.88-4.97 6.97-6.41-.02-.47-10.11-4.48-14.04-8.36-2.11-2.08-3.11-3.07-4.01-3.83-.48-.4-.98-.78-1.5-1.13-1.32-4.62-1.38-9.51-.16-14.16-5.95 2.71-10.58 6.99-13.95 10.78h-.03c-2.3-2.91-2.14-12.51-2.01-14.51-.03-.13-1.71.88-1.93 1.02-2.03 1.45-3.92 3.07-5.66 4.85-1.98 2.01-3.79 4.18-5.41 6.49-3.73 5.28-6.37 11.25-7.78 17.56-.03.13-.05.26-.08.38-.11.51-.6 3.1-.67 3.65 0 .04 0-.04 0 0-.45 2.68-.74 5.38-.86 8.09v.3c0 32 25.95 57.94 57.95 57.94 28.66 0 52.46-20.81 57.12-48.14.1-.74.18-1.49.26-2.24 1.18-9.92-.1-20.37-3.73-29.1zm-5.75 2.97v.06-.06z"/></svg>
