<svg xmlns="http://www.w3.org/2000/svg" xmlns:xlink="http://www.w3.org/1999/xlink" xml:space="preserve" viewBox="0 0 80 80" width="80" height="80"><linearGradient id="a" x1="70.7856" x2="6.4405" y1="489.6125" y2="427.5319" gradientTransform="matrix(1 0 0 -1 0 501.9999)" gradientUnits="userSpaceOnUse"><stop offset="0" stop-color="#c60084"/><stop offset=".76" stop-color="#c60084"/><stop offset="1" stop-color="#4e1a69"/></linearGradient><path fill="url(#a)" d="M75.92 26.83c-1.68-4.05-5.1-8.43-7.78-9.81 2.18 4.28 3.44 8.56 3.92 11.76 0 0 0 .02.01.06-4.38-10.91-11.81-15.32-17.88-24.91-.31-.48-.61-.97-.91-1.49-.17-.29-.31-.56-.43-.81-.25-.48-.45-1-.58-1.53 0-.05-.04-.1-.09-.1h-.07c-.01 0-.01.01-.02.01s-.02.01-.03.01l.02-.02c-9.74 5.7-13.04 16.25-13.34 21.53-3.89.26-7.61 1.7-10.68 4.11-.32-.27-.66-.52-1-.76-.88-3.09-.92-6.36-.11-9.47-3.98 1.81-7.08 4.68-9.33 7.21h-.02c-1.54-1.95-1.43-8.37-1.34-9.71-.02-.08-1.15.59-1.29.69-1.36.97-2.62 2.05-3.79 3.25-1.32 1.34-2.54 2.8-3.62 4.34-2.49 3.53-4.26 7.52-5.2 11.74-.02.08-.03.17-.05.26-.07.34-.34 2.05-.38 2.42v.09c-.34 1.77-.56 3.55-.64 5.35v.2C1.29 62.65 18.64 80 40.05 80c19.17 0 35.09-13.92 38.21-32.2l.18-1.5c.77-6.64-.09-13.63-2.52-19.47zM31.24 57.17c.18.09.35.18.54.26l.03.02c-.19-.09-.38-.18-.57-.28zm8.87-23.38zm31.97-4.93v-.04.04z"/><defs><path id="b" d="M75.92 26.83c-1.68-4.05-5.1-8.43-7.78-9.81 2.18 4.28 3.44 8.56 3.92 11.76v.08c3.66 9.91 1.66 20-1.21 26.16-4.44 9.53-15.2 19.3-32.03 18.82-18.16-.51-34.18-14-37.17-31.68-.55-2.79 0-4.2.27-6.46-.33 1.74-.46 2.25-.63 5.35v.2C1.29 62.65 18.64 80 40.05 80c19.17 0 35.09-13.92 38.21-32.2l.18-1.5c.77-6.64-.09-13.63-2.52-19.47z"/></defs><clipPath id="c"><use xlink:href="#b" overflow="visible"/></clipPath><g fill="#fff" clip-path="url(#c)"><path d="M1.1 17.02h78.1V80H1.1z"/><path d="M16.81 71.56C12.57 68.11 8.68 64.23 5.22 60c-1.7-2.07-3.28-4.22-4.75-6.43h.47V16.86h78.43v63.3H30.48v.4c-4.85-2.53-9.43-5.55-13.67-9z"/><path d="M39.02 44.26c-7.06-5.73-12.24-13.44-14.86-22.14-.42-1.4-.78-2.82-1.06-4.25-.07-.36-.14-.72-.2-1.08v.07h56.48v35.98H80c-.35.1-.7.19-1.06.28-.71.18-1.42.34-2.14.48-1.43.29-2.87.51-4.33.65-12.03 1.26-24.07-2.34-33.45-9.99z"/></g><radialGradient id="d" cx="-9422.5088" cy="10444.3193" r="13.0323" gradientTransform="matrix(6.2 0 0 -6.2 58459.8789 64796)" gradientUnits="userSpaceOnUse"><stop offset=".3" stop-color="#4e1a69"/><stop offset=".38" stop-color="#830e75" stop-opacity=".6"/><stop offset=".46" stop-color="#b40480" stop-opacity=".24"/><stop offset=".5" stop-color="#c60084" stop-opacity=".1"/></radialGradient><path fill="url(#d)" d="M75.92 26.83c-1.68-4.05-5.1-8.43-7.78-9.81 2.18 4.28 3.44 8.56 3.92 11.76v.08c3.66 9.91 1.66 20-1.21 26.16-4.44 9.53-15.2 19.3-32.03 18.82-18.16-.51-34.18-14-37.17-31.68-.55-2.79 0-4.2.27-6.46-.33 1.74-.46 2.25-.63 5.35v.2C1.29 62.65 18.64 80 40.05 80c19.17 0 35.09-13.92 38.21-32.2l.18-1.5c.77-6.64-.09-13.63-2.52-19.47z"/><radialGradient id="e" cx="-9421.0586" cy="10452.4941" r="9.4403" gradientTransform="matrix(6.2 0 0 -6.2 58459.8789 64796)" gradientUnits="userSpaceOnUse"><stop offset=".17" stop-color="#fff"/><stop offset=".25" stop-color="#fefbfd"/><stop offset=".32" stop-color="#fcf0f8"/><stop offset=".39" stop-color="#f7ddee"/><stop offset=".45" stop-color="#f1c2e1"/><stop offset=".52" stop-color="#e99fd1"/><stop offset=".59" stop-color="#e074bc"/><stop offset=".65" stop-color="#d543a4"/><stop offset=".71" stop-color="#ca138d"/><stop offset=".86" stop-color="#4e1a69"/></radialGradient><path fill="url(#e)" d="M57.08 31.39c.09.06.16.12.24.18-.97-1.73-2.19-3.31-3.6-4.7C41.68 14.82 50.57.74 52.07.03l.02-.02c-9.74 5.7-13.04 16.25-13.34 21.53.45-.03.9-.07 1.36-.07 7.26 0 13.58 3.99 16.97 9.92z"/><radialGradient id="f" cx="-9424.0713" cy="10440.8037" r="6.2048" gradientTransform="matrix(6.2 0 0 -6.2 58459.8789 64796)" gradientUnits="userSpaceOnUse"><stop offset=".35" stop-color="#c60084"/><stop offset=".4" stop-color="#cb0384"/><stop offset="1" stop-color="#ff298a"/></radialGradient><path fill="url(#f)" d="M40.12 33.79c-.06.97-3.47 4.29-4.66 4.29-11.02 0-12.81 6.67-12.81 6.67.48 5.61 4.4 10.24 9.13 12.69.22.11.43.21.65.31.38.16.76.32 1.14.47 1.62.57 3.32.9 5.04.97 19.32.91 23.06-23.1 9.12-30.07 3.57-.62 7.28.81 9.35 2.27-3.39-5.92-9.72-9.92-16.98-9.92-.46 0-.91.04-1.36.07-3.89.27-7.6 1.7-10.67 4.11.59.5 1.26 1.17 2.66 2.55 2.63 2.59 9.38 5.28 9.39 5.59z"/><radialGradient id="g" cx="-9413.8438" cy="10446.2354" r="3.7391" gradientTransform="matrix(6.03 -1.46 -1.71 -7.06 74660.1094 60039.4414)" gradientUnits="userSpaceOnUse"><stop offset=".21" stop-color="#592acb" stop-opacity="0"/><stop offset=".28" stop-color="#5828c0" stop-opacity=".09"/><stop offset=".75" stop-color="#511e81" stop-opacity=".6"/><stop offset=".97" stop-color="#4e1a69" stop-opacity=".8"/></radialGradient><path fill="url(#g)" d="M40.12 33.79c-.06.97-3.47 4.29-4.66 4.29-11.02 0-12.81 6.67-12.81 6.67.48 5.61 4.4 10.24 9.13 12.69.22.11.43.21.65.31.38.16.76.32 1.14.47 1.62.57 3.32.9 5.04.97 19.32.91 23.06-23.1 9.12-30.07 3.57-.62 7.28.81 9.35 2.27-3.39-5.92-9.72-9.92-16.98-9.92-.46 0-.91.04-1.36.07-3.89.27-7.6 1.7-10.67 4.11.59.5 1.26 1.17 2.66 2.55 2.63 2.59 9.38 5.28 9.39 5.59z"/><radialGradient id="h" cx="-9422.7939" cy="10450.0693" r="4.4645" gradientTransform="matrix(6.2 0 0 -6.2 58459.8789 64796)" gradientUnits="userSpaceOnUse"><stop offset=".43" stop-color="#fff"/><stop offset=".52" stop-color="#fff" stop-opacity=".97"/><stop offset=".66" stop-color="#fff" stop-opacity=".9"/><stop offset=".82" stop-color="#fff" stop-opacity=".78"/><stop offset=".99" stop-color="#fff" stop-opacity=".61"/><stop offset="1" stop-color="#fff" stop-opacity=".6"/></radialGradient><path fill="url(#h)" d="M26.26 24.35c.31.2.57.37.81.53-.88-3.09-.92-6.36-.11-9.47-3.98 1.81-7.08 4.68-9.33 7.21.18 0 5.81-.1 8.63 1.73z"/><radialGradient id="i" cx="-9419.2861" cy="10452.9004" r="19.0452" gradientTransform="matrix(6.2 0 0 -6.2 58459.8789 64796)" gradientUnits="userSpaceOnUse"><stop offset=".41" stop-color="#fff"/><stop offset="1" stop-color="#fff" stop-opacity=".7"/></radialGradient><path fill="url(#i)" d="M1.65 42.16c2.99 17.68 19.01 31.17 37.2 31.68 16.83.48 27.58-9.29 32.03-18.82 2.87-6.16 4.86-16.24 1.21-26.16v-.08c0 .01 0 .02.01.06 1.37 8.98-3.19 17.67-10.33 23.55l-.02.05c-13.91 11.33-27.22 6.83-29.92 5-.19-.09-.38-.18-.56-.28-8.11-3.87-11.46-11.26-10.74-17.6-6.85 0-9.18-5.78-9.18-5.78s6.15-4.38 14.25-.57c7.5 3.53 14.55.57 14.55.57-.01-.31-6.76-3-9.39-5.59-1.42-1.39-2.09-2.05-2.68-2.56-.32-.27-.66-.52-1-.76-.23-.16-.48-.32-.81-.53-2.83-1.84-8.45-1.74-8.64-1.73h-.03c-1.54-1.95-1.43-8.37-1.34-9.71-.02-.08-1.15.59-1.29.69-1.36.97-2.62 2.05-3.79 3.25-1.32 1.34-2.54 2.8-3.62 4.34-2.49 3.53-4.26 7.52-5.2 11.74-.01.1-1.39 6.12-.71 9.24z"/><radialGradient id="j" cx="-9372.5371" cy="10438.5566" r="14.7452" gradientTransform="matrix(.65 6.17 4.05 -.43 -36131.8281 62305.6914)" gradientUnits="userSpaceOnUse"><stop offset="0" stop-color="#fff"/><stop offset=".12" stop-color="#fefcfe"/><stop offset=".21" stop-color="#fcf2f9"/><stop offset=".29" stop-color="#f9e2f1"/><stop offset=".37" stop-color="#f3cbe6"/><stop offset=".44" stop-color="#edaed8"/><stop offset=".51" stop-color="#e58ac6"/><stop offset=".58" stop-color="#db5fb2"/><stop offset=".64" stop-color="#d02e9a"/><stop offset=".69" stop-color="#c60084"/></radialGradient><path fill="url(#j)" d="M53.73 26.87c1.41 1.39 2.63 2.97 3.6 4.7.2.15.4.31.58.48 8.79 8.1 4.18 19.55 3.84 20.36 7.14-5.88 11.7-14.58 10.33-23.55-4.39-10.93-11.82-15.34-17.89-24.93-.31-.48-.61-.97-.91-1.49-.17-.29-.31-.56-.43-.81-.25-.48-.45-1-.58-1.53 0-.05-.04-.1-.09-.1h-.07c-.01 0-.01.01-.02.01s-.02.01-.03.01c-1.49.73-10.38 14.8 1.67 26.85z"/><radialGradient id="k" cx="-9422.8984" cy="10448.416" r="15.3177" gradientTransform="matrix(6.2 0 0 -6.2 58459.8789 64796)" gradientUnits="userSpaceOnUse"><stop offset=".36" stop-color="#fff"/><stop offset=".74" stop-color="#c60084"/><stop offset=".83" stop-color="#4e1a69"/></radialGradient><path fill="url(#k)" d="M57.9 32.04c-.19-.17-.38-.33-.58-.48l-.24-.18c-2.07-1.45-5.78-2.89-9.35-2.27 13.94 6.97 10.2 30.97-9.12 30.07-1.72-.07-3.42-.4-5.04-.97-.38-.14-.76-.3-1.14-.47-.22-.1-.44-.2-.65-.31l.03.02c2.7 1.84 16.01 6.33 29.92-5l.02-.05c.35-.81 4.94-12.26-3.85-20.36z"/><radialGradient id="l" cx="-9420.1113" cy="10447.4453" r="13.0145" gradientTransform="matrix(6.2 0 0 -6.2 58459.8789 64796)" gradientUnits="userSpaceOnUse"><stop offset=".09" stop-color="#fff"/><stop offset=".62" stop-color="#fff"/></radialGradient><path fill="url(#l)" d="M22.65 44.75s1.79-6.67 12.81-6.67c1.19 0 4.6-3.33 4.66-4.29 0 0-7.05 2.96-14.55-.57-8.1-3.81-14.25.57-14.25.57s2.34 5.78 9.18 5.78c-.72 6.34 2.63 13.73 10.74 17.6.18.09.35.18.54.26-4.73-2.44-8.64-7.07-9.13-12.68z"/><linearGradient id="m" x1="70.0102" x2="15.2635" y1="489.9427" y2="435.1943" gradientTransform="matrix(1 0 0 -1 0 501.9999)" gradientUnits="userSpaceOnUse"><stop offset=".3" stop-color="#fff" stop-opacity=".8"/><stop offset=".38" stop-color="#fff" stop-opacity=".63"/><stop offset=".57" stop-color="#fff" stop-opacity=".22"/><stop offset=".66" stop-color="#fff" stop-opacity="0"/></linearGradient><path fill="url(#m)" d="M75.92 26.83c-1.68-4.05-5.1-8.43-7.78-9.81 2.18 4.28 3.44 8.56 3.92 11.76 0 0 0 .02.01.06-4.38-10.91-11.81-15.32-17.88-24.91-.31-.48-.61-.97-.91-1.49-.17-.29-.31-.56-.43-.81-.25-.48-.45-1-.58-1.53 0-.05-.04-.1-.09-.1h-.07c-.01 0-.01.01-.02.01s-.02.01-.03.01l.02-.02c-9.74 5.7-13.04 16.25-13.34 21.53.45-.03.9-.07 1.36-.07 7.27 0 13.6 4 16.98 9.92-2.07-1.45-5.78-2.89-9.35-2.27 13.94 6.97 10.2 30.97-9.12 30.07-1.72-.07-3.42-.4-5.04-.97-.38-.14-.76-.3-1.14-.47-.22-.1-.44-.2-.65-.31l.03.02c-.19-.09-.38-.18-.56-.28.18.09.35.18.54.26-4.73-2.45-8.64-7.07-9.13-12.69 0 0 1.79-6.67 12.81-6.67 1.19 0 4.6-3.33 4.66-4.29-.01-.31-6.76-3-9.39-5.59-1.41-1.39-2.08-2.06-2.68-2.56-.32-.27-.66-.52-1-.76-.88-3.09-.92-6.36-.11-9.47-3.98 1.81-7.08 4.68-9.33 7.21h-.02c-1.54-1.95-1.43-8.37-1.34-9.71-.02-.08-1.15.59-1.29.69-1.36.97-2.62 2.05-3.79 3.25-1.32 1.34-2.54 2.8-3.62 4.34-2.49 3.53-4.26 7.52-5.2 11.74-.02.08-.03.17-.05.26-.07.34-.4 2.07-.45 2.44 0 .03 0-.03 0 0-.3 1.79-.49 3.6-.57 5.41v.2C1.29 62.65 18.64 80 40.05 80c19.17 0 35.09-13.92 38.21-32.2l.18-1.5c.77-6.64-.09-13.63-2.52-19.47zm-3.84 1.99v.04-.04z"/></svg>
