<svg width="24px" height="24px" viewBox="0 0 24 24" xmlns="http://www.w3.org/2000/svg">
    <g stroke="none" stroke-width="1" fill="none" fill-rule="evenodd">
        <g transform="translate(4.000000, 1.000000)">
            <path d="M0.4,14.7 L4,12 L4,19 L1.6,20.8 C1.1581722,21.1313708 0.53137085,21.0418278 0.2,20.6 C0.0701778719,20.4269038 4.70586919e-16,20.2163702 4.4408921e-16,20 L-1.11022302e-16,15.5 C-9.78863273e-18,15.1852427 0.148194157,14.8888544 0.4,14.7 Z" stroke="#000000" stroke-width="2"></path>
            <path d="M12.4,14.7 L16,12 L16,19 L13.6,20.8 C13.1581722,21.1313708 12.5313708,21.0418278 12.2,20.6 C12.0701779,20.4269038 12,20.2163702 12,20 L12,15.5 C12,15.1852427 12.1481942,14.8888544 12.4,14.7 Z" stroke="#000000" stroke-width="2" transform="translate(14.000000, 17.000000) scale(-1, 1) translate(-14.000000, -17.000000) "></path>
            <path d="M5.13728377,4.13987686 L7.12636486,0.568572177 C7.39509646,0.0860768139 8.00408623,-0.0872129592 8.48658159,0.181518635 C8.64908634,0.272027609 8.78312616,0.406067428 8.87363514,0.568572177 L10.8627162,4.13987686 C11.6085354,5.47896125 12,6.98633818 12,8.51911122 L12,16.9400968 L12,19.0202637 L4,19.0202637 L4,11.0795898 L4,8.51911122 C4,6.98633818 4.39146462,5.47896125 5.13728377,4.13987686 Z" stroke="#000000" stroke-width="2"></path>
            <circle fill="#000000" cx="8" cy="8" r="1.5"></circle>
            <path d="M7.95043945,16 L7.95043945,22" stroke="#000000" stroke-width="2" stroke-linecap="round"></path>
        </g>
    </g>
</svg>