<svg width="24px" height="24px" viewBox="0 0 24 24" xmlns="http://www.w3.org/2000/svg">
    <g stroke="none" stroke-width="1" fill="none" fill-rule="evenodd">
        <path d="M5.089,17.4192035 C5.33522075,16.5678691 6.11377721,15.9812018 7,15.9792035 C7.82923974,15.9741349 8.57496958,16.4830701 8.87249095,17.2571149 C9.17001231,18.0311596 8.95714834,18.9085518 8.338,19.4602035 C8.332,19.4662035 8.331,19.4732035 8.325,19.4792035 C6.96070475,20.5647411 5.23928916,21.0998962 3.5,20.9792035 C3.22385763,20.9792035 3,20.7553459 3,20.4792035 C3.0014234,20.2954104 3.10356905,20.1272157 3.266,20.0412035 L3.29,20.0292035 L3.313,20.0172035 C4.367,19.5542035 4.71,18.5792035 5.072,17.4442035 C5.075,17.4342035 5.089,17.4292035 5.089,17.4192035 Z M18.5,4.5 C19.1666667,3.83333333 19.8333333,3.83333333 20.5,4.5 C21.1666667,5.16666667 21.1666667,5.83333333 20.5,6.5 L13,15 C12,15.3333333 11.1666667,15.1666667 10.5,14.5 C9.83333333,13.8333333 9.66666667,13 10,12 L18.5,4.5 Z" stroke="#000000" stroke-width="2" fill-rule="nonzero"></path>
    </g>
</svg>