<svg width="24px" height="24px" viewBox="0 0 24 24" xmlns="http://www.w3.org/2000/svg">
    <g stroke="none" stroke-width="1" fill="none" fill-rule="evenodd">
        <g transform="translate(3.000000, 2.000000)" stroke="#000000" stroke-width="2">
            <path d="M9,9 L9,15" stroke-linecap="round"></path>
            <path d="M3,21 L15,21 C16.1045695,21 17,20.1045695 17,19 L17,3 L1,3 L1,19 C1,20.1045695 1.8954305,21 3,21 Z" stroke-linecap="round" stroke-linejoin="round"></path>
            <path d="M5,9 L5,15" stroke-linecap="round"></path>
            <path d="M13,9 L13,15" stroke-linecap="round"></path>
            <path d="M0,3 L18,3" stroke-linecap="round"></path>
            <path d="M5,4 L5,2 C5,0.8954305 5.8954305,2.02906125e-16 7,0 L11,0 C12.1045695,-2.02906125e-16 13,0.8954305 13,2 L13,4"></path>
        </g>
    </g>
</svg>