<svg width="24px" height="24px" viewBox="0 0 24 24" xmlns="http://www.w3.org/2000/svg">
    <g stroke="none" stroke-width="1" fill="none" fill-rule="evenodd" stroke-linecap="round">
        <g transform="translate(1.770000, 3.000000)" stroke="#000000" stroke-width="2">
            <rect stroke-linejoin="round" x="1.22514823" y="0" width="18" height="12" rx="2"></rect>
            <path d="M2.66666667,12 L17.7836298,12 C18.6444906,12 19.4087683,12.5508602 19.6809964,13.3675445 L20.347663,15.3675445 C20.6969586,16.4154311 20.1306386,17.5480711 19.082752,17.8973666 C18.878819,17.9653442 18.6652606,18 18.4502965,18 L2,18 C0.8954305,18 -3.35596172e-13,17.1045695 -3.35731443e-13,16 C-3.35757768e-13,15.7850358 0.034655758,15.5714774 0.102633404,15.3675445 L0.769300071,13.3675445 C1.04152816,12.5508602 1.80580585,12 2.66666667,12 Z" stroke-linejoin="round"></path>
            <path d="M6.22514823,15 L14.2251482,15"></path>
        </g>
    </g>
</svg>