<svg width="24px" height="24px" viewBox="0 0 24 24" xmlns="http://www.w3.org/2000/svg">
    <g stroke="none" stroke-width="1" fill="none" fill-rule="evenodd" stroke-linecap="round" stroke-linejoin="round">
        <g transform="translate(2.000000, 3.000000)" stroke="#000000" stroke-width="2">
            <path d="M2,-5.16253706e-15 L5,-4.91273688e-15 C7.209139,-4.91273688e-15 9,1.790861 9,4 L9,15 L9,15 C9,13.8954305 8.1045695,13 7,13 L2,13 C0.8954305,13 4.03919727e-15,12.1045695 4.88498131e-15,11 L-1.77635684e-15,2 C-1.91162759e-15,0.8954305 0.8954305,-5.12616439e-15 2,-5.32907052e-15 Z"></path>
            <polyline points="19 15 16 18 13 15"></polyline>
            <path d="M16,18 L16,11"></path>
            <path d="M9,15 L9,4 C9,1.790861 10.790861,5.73488277e-15 13,5.32907052e-15 L16,4.88498131e-15 C17.1045695,4.68207518e-15 18,0.8954305 18,2 L18,7.5"></path>
        </g>
    </g>
</svg>