<svg width="24px" height="24px" viewBox="0 0 24 24" xmlns="http://www.w3.org/2000/svg">
    <g stroke="none" stroke-width="1" fill="none" fill-rule="evenodd" stroke-linecap="round" stroke-linejoin="round">
        <g transform="translate(2.000000, 2.000000)" stroke="#000000" stroke-width="2">
            <path d="M3,7 L2,7 C0.8954305,7 -1.02344917e-15,7.8954305 -8.8817842e-16,9 L-8.8817842e-16,18 C-7.52907669e-16,19.1045695 0.8954305,20 2,20 L11,20 C12.1045695,20 13,19.1045695 13,18 L13,17"></path>
            <path d="M9,13 L18,13 C19.1045695,13 20,12.1045695 20,11 L20,2 C20,0.8954305 19.1045695,-2.02906125e-16 18,0 L9,0 C7.8954305,2.02906125e-16 7,0.8954305 7,2 L7,11 C7,12.1045695 7.8954305,13 9,13 Z"></path>
        </g>
    </g>
</svg>