<svg width="24px" height="24px" viewBox="0 0 24 24" xmlns="http://www.w3.org/2000/svg">
    <g stroke="none" stroke-width="1" fill="none" fill-rule="evenodd">
        <g transform="translate(1.000000, 2.000000)" stroke="#000000" stroke-width="2">
            <path d="M21,16.5 L21,19 L18.5,19 C17.1192881,19 16,17.8807119 16,16.5 C16,15.1192881 17.1192881,14 18.5,14 C19.8807119,14 21,15.1192881 21,16.5 Z" stroke-linecap="round" stroke-linejoin="round" transform="translate(18.500000, 16.500000) rotate(-135.000000) translate(-18.500000, -16.500000) "></path>
            <path d="M7.86372673,7.29509101 L14.9644661,1.5 L18,5 L11.5278856,10.6631001 C11.8318839,11.3813118 12,12.1710231 12,13 C12,16.3137085 9.3137085,19 6,19 C2.6862915,19 5.32907052e-15,16.3137085 5.32907052e-15,13 C5.32907052e-15,9.6862915 2.6862915,7 6,7 C6.65062424,7 7.27706113,7.10355832 7.86372673,7.29509101 Z"></path>
            <path d="M1.52655666e-14,14 L12,14"></path>
            <path d="M19,6 L14,-2.22044605e-15" stroke-linecap="round"></path>
        </g>
    </g>
</svg>