<svg width="24px" height="24px" viewBox="0 0 24 24" xmlns="http://www.w3.org/2000/svg">
    <g stroke="none" stroke-width="1" fill="none" fill-rule="evenodd">
        <g transform="translate(3.000000, 2.000000)">
            <path d="M10.3536612,19 L17.6567884,19 C18.7613579,19 19.6567884,18.1045695 19.6567884,17 C19.6567884,16.6699432 19.5751039,16.3450167 19.4190198,16.0541985 L15.7793563,9.27272328 C15.2570045,8.29946975 14.0445769,7.93394163 13.0713234,8.45629337 C12.726468,8.64137959 12.443497,8.92358169 12.2574732,9.26793224 L8.5940096,16.0494075 C8.06901184,17.0212362 8.43123993,18.2346539 9.40306869,18.7596516 C9.69508158,18.9174018 10.0217627,19 10.3536612,19 Z" stroke="#000000" stroke-width="2" stroke-linecap="round" stroke-linejoin="round"></path>
            <path d="M4.00005134,19 L2,19.0000685 C0.895430501,19.0000817 -1.07268862e-05,18.1046619 -2.39598289e-05,17.0000924 C-2.39600066e-05,17.0000776 -2.39600193e-05,17.0000628 -2.3959867e-05,17.0000479 L5.134433e-05,14 C2.00005134,14 3.00005134,13.1666667 3.00005134,11.5 C3.00005134,9.83333333 2.00005134,9 5.134433e-05,9 L5.134433e-05,6 C5.134433e-05,4.8954305 0.895481845,4 2.00005134,4 L5.50005134,4 C5.16671801,3.33333333 5.00005134,2.66666667 5.00005134,2 C5.00005134,1 6.00005134,4.64179606e-14 7.50005134,4.61852778e-14 C9.00005134,4.61852778e-14 10.0000513,1 10.0000513,2 C10.0000513,2.66666667 9.83338468,3.33333333 9.50005134,4 L15.0000513,4" stroke="#000000" stroke-width="2" stroke-linecap="round" stroke-linejoin="round"></path>
            <circle fill="#000000" cx="14.0000513" cy="16" r="1"></circle>
            <path d="M14.0000513,13 L14.0000513,12" stroke="#000000" stroke-width="2" stroke-linecap="round"></path>
        </g>
    </g>
</svg>