<svg width="24px" height="24px" viewBox="0 0 24 24" xmlns="http://www.w3.org/2000/svg">
    <g stroke="none" stroke-width="1" fill="none" fill-rule="evenodd" stroke-linecap="round" stroke-linejoin="round">
        <path d="M8.05000906,21 L5,21 C3.8954305,21 3,20.1045695 3,19 L3,15.9499909 C3.16155497,15.9827849 3.32876708,16 3.5,16 C4.88071187,16 6,14.8807119 6,13.5 C6,12.1192881 4.88071187,11 3.5,11 C3.32876708,11 3.16155497,11.0172151 3,11.0500091 L3,8 C3,6.8954305 3.8954305,6 5,6 L8.49981691,6 C8.18597241,5.58216973 8,5.06280296 8,4.5 C8,3.11928813 9.11928813,2 10.5,2 C11.8807119,2 13,3.11928813 13,4.5 C13,5.06280296 12.8140276,5.58216973 12.5001831,6 L16,6 C17.1045695,6 18,6.8954305 18,8 L18,11.4998169 C18.4178303,11.1859724 18.937197,11 19.5,11 C20.8807119,11 22,12.1192881 22,13.5 C22,14.8807119 20.8807119,16 19.5,16 C18.937197,16 18.4178303,15.8140276 18,15.5001831 L18,19 C18,20.1045695 17.1045695,21 16,21 L12.9499909,21 C12.9827849,20.838445 13,20.6712329 13,20.5 C13,19.1192881 11.8807119,18 10.5,18 C9.11928813,18 8,19.1192881 8,20.5 C8,20.6712329 8.01721513,20.838445 8.05000906,21 Z" stroke="#000000" stroke-width="2"></path>
    </g>
</svg>