<svg width="24px" height="24px" viewBox="0 0 24 24" xmlns="http://www.w3.org/2000/svg">
    <g stroke="none" stroke-width="1" fill="none" fill-rule="evenodd">
        <g transform="translate(3.000000, 3.000000)">
            <path d="M18,8.5 C18.0034413,9.81986781 17.6950689,11.1218846 17.1,12.3 C15.6609591,15.1793278 12.7189075,16.9987544 9.5,17 C8.18013219,17.0034413 6.87811542,16.6950689 5.7,16.1 L0,18 L1.9,12.3 C1.30493114,11.1218846 0.996558748,9.81986781 1,8.5 C1.00124556,5.28109249 2.82067222,2.33904087 5.7,0.9 C6.87811542,0.30493114 8.18013219,-0.00344125221 9.5,3.99680966e-15 L10,3.99680966e-15 C14.3158094,0.238099691 17.7619003,3.68419058 18,8 L18,8.5 L18,8.5 Z" stroke="#000000" stroke-width="2" stroke-linecap="round" stroke-linejoin="round"></path>
            <circle fill="#000000" cx="5.5" cy="8.5" r="1.5"></circle>
            <circle fill="#000000" cx="9.5" cy="8.5" r="1.5"></circle>
            <circle fill="#000000" cx="13.5" cy="8.5" r="1.5"></circle>
        </g>
    </g>
</svg>