<svg width="24px" height="24px" viewBox="0 0 24 24" xmlns="http://www.w3.org/2000/svg">
    <g stroke="none" stroke-width="1" fill="none" fill-rule="evenodd" stroke-linecap="round">
        <g transform="translate(1.000000, 3.000000)" stroke="#000000" stroke-width="2">
            <path d="M8,18 C4,18 0,16 0,14 L0,4 C0,5.62640489 4,8 8,8 L8,18 Z" stroke-linejoin="round"></path>
            <path d="M22,18 C18,18 14,16 14,14 L14,4 C14,5.62640489 18,8 22,8 L22,18 Z" stroke-linejoin="round" transform="translate(18.000000, 11.000000) scale(-1, 1) translate(-18.000000, -11.000000) "></path>
            <path d="M0,4 C0,2 5,0 11,0 C17,0 22,2 22,4 L22,14 C22,12 17,11 11,11 C5,11 0,12 0,14 L0,4 Z"></path>
        </g>
    </g>
</svg>