<svg width="24px" height="24px" viewBox="0 0 24 24" xmlns="http://www.w3.org/2000/svg">
    <g stroke="none" stroke-width="1" fill="none" fill-rule="evenodd">
        <g transform="translate(1.000000, 2.000000)" stroke="#000000" stroke-width="2">
            <path d="M7,3 L2,3 C0.8954305,3 -1.3527075e-16,3.8954305 0,5 L-4.4408921e-16,15 C-3.0881846e-16,16.1045695 0.8954305,17 2,17 L20,17 C21.1045695,17 22,16.1045695 22,15 L22,5 C22,3.8954305 21.1045695,3 20,3 L15,3" stroke-linecap="round"></path>
            <path d="M11,4 L11,0" stroke-linecap="round"></path>
            <path d="M13,8 L18,8" stroke-linecap="round"></path>
            <path d="M13,12 L17,12" stroke-linecap="round"></path>
            <rect x="4" y="8" width="5" height="5" rx="1"></rect>
        </g>
    </g>
</svg>