<svg width="24px" height="24px" viewBox="0 0 24 24" xmlns="http://www.w3.org/2000/svg">
    <g stroke="none" stroke-width="1" fill="none" fill-rule="evenodd" stroke-linecap="round">
        <g transform="translate(1.000000, 3.000000)" stroke="#000000" stroke-width="2">
            <g fill-rule="nonzero" stroke-linejoin="round">
                <path d="M13.9848406,2.82653836 C14.0077416,2.95656049 14.0556273,3.19592254 14.1277878,3.50702129 C14.2480956,4.02569254 14.3913202,4.54347537 14.5552498,5.02057272 C14.8206315,5.79293381 15.1142444,6.3693642 15.3724401,6.62755989 C15.6306358,6.88575557 16.2070662,7.17936854 16.9794273,7.44475016 C17.4565246,7.60867979 17.9743075,7.75190442 18.4929787,7.87221216 C18.8040775,7.94437268 19.0434395,7.99225836 19.1734616,8.01515937 L24.996519,9.0407843 L19.1600498,9.98710895 C19.0304332,10.008125 18.7914961,10.0526796 18.4808698,10.1206787 C17.9630114,10.2340431 17.4460743,10.3706831 16.9699496,10.5289708 C16.2009111,10.7846378 15.6277244,11.0718225 15.3724401,11.3271068 C15.1144932,11.5850537 14.8194538,12.1703216 14.5532378,12.9558962 C14.3899894,13.4376246 14.2473907,13.96033 14.1276136,14.4839205 C14.0557674,14.7979872 14.0080792,15.0396934 13.985247,15.1711387 L12.9592002,21.0780995 L12.0125444,15.1578967 C11.9915887,15.0268441 11.9472161,14.7855494 11.8795137,14.4719405 C11.7666502,13.9491384 11.630613,13.4272535 11.4729928,12.9464701 C11.2165332,12.1642 10.9279354,11.582149 10.6728932,11.3271068 C10.417851,11.0720646 9.83580004,10.7834668 9.05352991,10.5270072 C8.57274646,10.369387 8.05086156,10.2333498 7.5280595,10.1204863 C7.2144506,10.0527839 6.97315585,10.0084113 6.84210328,9.98745563 L0.921900456,9.04079982 L6.82886133,8.01475305 C6.96030663,7.99192083 7.20201285,7.94423259 7.51607955,7.87238637 C8.03966996,7.75260927 8.56237541,7.6100106 9.04410383,7.4467622 C9.82967843,7.18054624 10.4149463,6.88550677 10.6728932,6.62755989 C10.9281775,6.37227561 11.2153622,5.7990889 11.4710292,5.0300504 C11.6293169,4.55392569 11.7659569,4.03698862 11.8793213,3.51913015 C11.9473204,3.20850395 11.991875,2.96956679 12.0128911,2.83995024 L12.9592157,-2.99651904 L13.9848406,2.82653836 Z"></path>
            </g>
            <path d="M3,2 C4,2 5,1 5,0"></path>
            <path d="M5,2 C6,2 7,1 7,0" transform="translate(6.000000, 1.000000) scale(-1, 1) translate(-6.000000, -1.000000) "></path>
            <path d="M5,4 C6,4 7,3 7,2" transform="translate(6.000000, 3.000000) scale(-1, -1) translate(-6.000000, -3.000000) "></path>
            <path d="M3,4 C4,4 5,3 5,2" transform="translate(4.000000, 3.000000) scale(1, -1) translate(-4.000000, -3.000000) "></path>
            <path d="M3,16 C4,16 5,15 5,14"></path>
            <path d="M5,16 C6,16 7,15 7,14" transform="translate(6.000000, 15.000000) scale(-1, 1) translate(-6.000000, -15.000000) "></path>
            <path d="M5,18 C6,18 7,17 7,16" transform="translate(6.000000, 17.000000) scale(-1, -1) translate(-6.000000, -17.000000) "></path>
            <path d="M3,18 C4,18 5,17 5,16" transform="translate(4.000000, 17.000000) scale(1, -1) translate(-4.000000, -17.000000) "></path>
        </g>
    </g>
</svg>