<svg width="24px" height="24px" viewBox="0 0 24 24" xmlns="http://www.w3.org/2000/svg">
    <g stroke="none" stroke-width="1" fill="none" fill-rule="evenodd" stroke-linecap="round">
        <g transform="translate(2.000000, 4.000000)" stroke="#000000" stroke-width="2">
            <path d="M4,13 L4,14 C4,15.1045695 4.8954305,16 6,16 L18,16 C19.1045695,16 20,15.1045695 20,14 L20,2 C20,0.8954305 19.1045695,2.76908761e-13 18,2.77111667e-13 L6,2.77111667e-13 C4.8954305,2.77314573e-13 4,0.8954305 4,2 L4,5"></path>
            <path d="M-7.46069873e-13,4 L-7.46069873e-13,7 C-7.45934602e-13,8.1045695 0.8954305,9 2,9 L11,9" stroke-linejoin="round"></path>
            <polyline stroke-linejoin="round" points="8 6 11 9 8 12"></polyline>
        </g>
    </g>
</svg>