<svg width="24px" height="24px" viewBox="0 0 24 24" xmlns="http://www.w3.org/2000/svg">
    <g stroke="none" stroke-width="1" fill="none" fill-rule="evenodd">
        <g transform="translate(3.312500, 2.680870)" stroke="#000000" stroke-width="2">
            <circle cx="7.6875" cy="10.3191296" r="6"></circle>
            <path d="M0.6875,3.31912962 C2.6875,1.31912962 5.6875,4.31912962 7.6875,4.31912962 C8.69751265,4.31912962 9.1875,2.81912962 10.6875,1.31912962 C12.1875,-0.18087038 14.6875,-0.68087038 16.6875,1.31912962 C18.6875,3.31912962 18.1875,5.81912962 16.6875,7.31912962 C15.1875,8.81912962 13.6875,9.2807689 13.6875,10.3191296 C13.6875,12.3191296 16.6875,15.3191296 14.6875,17.3191296 C12.6875,19.3191296 9.6875,16.3191296 7.6875,16.3191296 C5.6875,16.3191296 2.6875,19.3191296 0.6875,17.3191296 C-1.3125,15.3191296 1.6875,12.3191296 1.6875,10.3191296 C1.6875,8.31912962 -1.3125,5.31912962 0.6875,3.31912962 Z"></path>
        </g>
    </g>
</svg>