<svg width="24px" height="24px" viewBox="0 0 24 24" xmlns="http://www.w3.org/2000/svg">
    <g stroke="none" stroke-width="1" fill="none" fill-rule="evenodd" stroke-linecap="round" stroke-linejoin="round">
        <g transform="translate(12.000000, 12.000000) scale(-1, 1) translate(-12.000000, -12.000000) translate(2.000000, 2.000000)" stroke="#000000" stroke-width="2">
            <path d="M8,11 C8.86895549,12.1616929 10.1996273,12.8887004 11.6466499,12.9923333 C13.0936724,13.0959663 14.5143658,12.5660061 15.54,11.54 L18.54,8.54 C20.434861,6.57810557 20.4077619,3.45957611 18.4790929,1.53090712 C16.5504239,-0.397761869 13.4318944,-0.424861048 11.47,1.47 L9.75,3.18"></path>
            <path d="M12,9 C11.1310445,7.83830708 9.8003727,7.11129957 8.35335013,7.00766666 C6.90632757,6.90403374 5.4856342,7.43399387 4.46,8.46 L1.46,11.46 C-0.434861048,13.4218944 -0.407761869,16.5404239 1.52090712,18.4690929 C3.44957611,20.3977619 6.56810557,20.424861 8.53,18.53 L10.24,16.82"></path>
        </g>
    </g>
</svg>