<svg width="24px" height="24px" viewBox="0 0 24 24" xmlns="http://www.w3.org/2000/svg">
    <g stroke="none" stroke-width="1" fill="none" fill-rule="evenodd" stroke-linecap="round">
        <g transform="translate(3.000000, 2.000000)" stroke="#000000" stroke-width="2">
            <path d="M7,4 C5.5,4 4,5.25 4,7 C4,8.75 5.5,10 7,10"></path>
            <path d="M7,-4.4408921e-15 C3,-3.45510313e-15 1.2246468e-16,3 0,7 C0,11 3,14 7,14"></path>
            <path d="M10,9 C11.5,9 13,10.25 13,12 C13,13.75 11.5,15 10,15"></path>
            <path d="M10,5 C14,5 17,8 17,12 C17,16 14,19 10,19"></path>
        </g>
    </g>
</svg>