<svg width="24px" height="24px" viewBox="0 0 24 24" xmlns="http://www.w3.org/2000/svg">
    <g stroke="none" stroke-width="1" fill="none" fill-rule="evenodd">
        <g transform="translate(3.000000, 2.000000)">
            <rect stroke="#000000" stroke-width="2" stroke-linecap="round" stroke-linejoin="round" x="0" y="7" width="18" height="13" rx="2"></rect>
            <path d="M4,7 L4,5 C4,2.23857625 6.23857625,1.33226763e-15 9,8.8817842e-16 C11.7614237,9.86076132e-32 14,2.23857625 14,5 L14,7" stroke="#000000" stroke-width="2" stroke-linecap="round" stroke-linejoin="round"></path>
            <circle fill="#000000" cx="9" cy="12" r="2"></circle>
            <path d="M7.54888068,15.6277983 L9,12 L10.4514708,15.6270837 C10.6566619,16.1398362 10.4073341,16.7218444 9.8945817,16.9270355 C9.77659269,16.9742518 9.650685,16.9985451 9.52359926,16.9986149 L8.47790623,16.9991888 C7.92562157,16.999492 7.47766065,16.5520225 7.47735752,15.9997378 C7.47728759,15.8723338 7.501564,15.74609 7.54888068,15.6277983 Z" fill="#000000"></path>
        </g>
    </g>
</svg>