<svg width="24px" height="24px" viewBox="0 0 24 24" xmlns="http://www.w3.org/2000/svg">
    <g stroke="none" stroke-width="1" fill="none" fill-rule="evenodd" stroke-linecap="round">
        <g transform="translate(1.000000, 0.999996)" stroke="#000000" stroke-width="2">
            <path d="M0,22.0000041 L22,4.05130743e-06"></path>
            <path d="M7,22.0000041 L15,22.0000041"></path>
            <path d="M7.99999846,8.00000405 L7.99999846,2.50000405 C8.33333282,0.831213019 9.33333333,-0.00212031402 11,4.05130746e-06 C12.6666667,0.00212841663 13.6666667,0.83546175 14,2.50000405"></path>
            <path d="M4,9.00000405 L4,12.0000041"></path>
            <path d="M14,8.00000405 L14,11.0000041 C13.6666667,12.9983031 12.6666667,13.9974526 11,13.9974526 C10.1200133,13.9974526 9.42587682,13.7189141 8.9175906,13.1618372"></path>
            <path d="M11,18.0000041 L11,22.0000041"></path>
            <path d="M6,15.9500041 C7.33333333,17.3166707 9,18.0000041 11,18.0000041 C16,18.0000041 18.0001887,13.5000041 18.0001887,12.0000041 C18.0001887,11.0000041 18.0001258,10.0000041 18,9.00000405"></path>
        </g>
    </g>
</svg>