<svg xmlns="http://www.w3.org/2000/svg" viewBox="0 0 24 24" width="24" height="24">
  <style>
    .st1{fill:none;stroke:#000;stroke-width:2;stroke-linejoin:round}
  </style>
  <path fill="none" stroke="#000" stroke-width="2" d="M11.5 6.3L1.9 22.1c-.2.4.1.9.6.9h19c.5 0 .8-.5.5-.9L12.5 6.3c-.2-.4-.8-.4-1 0z"/>
  <path d="M15 10.4l-2.5-4.2c-.2-.4-.8-.4-1.1 0L9 10.4l-.2.4 1.3 2.7c.1.1.3.1.4 0l1.6-2.2 1.6 2.2c.1.1.3.1.4 0l1.3-2.7-.4-.4z" class="st1"/>
  <path d="M12 1.3v4.3c0 .2.2.4.3.4h7.9c.1 0 .3-.1.3-.2.1-.1 0-.3-.1-.4l-1.9-1.9 1.9-1.9c.1-.1.1-.2.1-.4 0 0 0-.1-.1-.1.1-.1 0-.1-.1-.1h-7.9c-.1 0-.2 0-.2.1-.2.1-.2.1-.2.2z" class="st1"/>
</svg>
