<svg width="24px" height="24px" viewBox="0 0 24 24" xmlns="http://www.w3.org/2000/svg">
    <g stroke="none" stroke-width="1" fill="none" fill-rule="evenodd">
        <g transform="translate(1.000000, 5.000000)" fill-rule="nonzero" stroke="#000000" stroke-width="2">
            <path d="M2,4 L1,4 C0.44771525,4 3.12899073e-16,3.55228475 0,3 L0,1 C-6.76353751e-17,0.44771525 0.44771525,1.01453063e-16 1,0 L5,0 L5,0.5 C5.66666667,0.166666667 6.5,0 7.5,0 C8.83333333,0 10,0.333333333 11,1 C12,0.333333333 13.1666667,1.2952602e-16 14.5,0 C17.5,0 19.3333333,1.33333333 20,4 L20,10 L21,10 C21.5522847,10 22,10.4477153 22,11 L22,13 C22,13.5522847 21.5522847,14 21,14 L1,14 C0.44771525,14 6.76353751e-17,13.5522847 0,13 L0,11 C-6.76353751e-17,10.4477153 0.44771525,10 1,10 L2,10 L2,4 Z" stroke-linecap="round"></path>
            <path d="M9,14 L9,6 C9,4.66666667 8.5,4 7.5,4 C6.5,4 6,4.66666667 6,6 L6,10 L9,10 L9,14 Z"></path>
            <path d="M16,14 L16,6 C16,4.66666667 15.5,4 14.5,4 C13.5,4 13,4.66666667 13,6 L13,10 L16,10 L16,14 Z"></path>
        </g>
    </g>
</svg>