<svg width="24px" height="24px" viewBox="0 0 24 24" xmlns="http://www.w3.org/2000/svg">
    <g stroke="none" stroke-width="1" fill="none" fill-rule="evenodd" stroke-linecap="round">
        <g transform="translate(1.000000, 1.000000)" stroke="#000000" stroke-width="2">
            <path d="M22,-4.97379915e-14 L3.55271368e-15,22" stroke-linejoin="round"></path>
            <path d="M6,16 L4,16 C2.8954305,16 2,15.1045695 2,14 L2,4 C2,2.8954305 2.8954305,2 4,2 L20,2"></path>
            <path d="M11,16 L12,16 L13.0513167,19.1539501 C13.2259645,19.6778934 13.7922844,19.9610534 14.3162278,19.7864056 C14.6148328,19.6868706 14.8491483,19.4525551 14.9486833,19.1539501 L16,16 L18,16 C19.1045695,16 20,15.1045695 20,14 L20,7" stroke-linejoin="round"></path>
            <path d="M11,11 L6,11"></path>
            <path d="M16,11 L15,11"></path>
            <path d="M15,7 L6,7"></path>
        </g>
    </g>
</svg>