<svg width="24px" height="24px" viewBox="0 0 24 24" xmlns="http://www.w3.org/2000/svg">
    <g stroke="none" stroke-width="1" fill="none" fill-rule="evenodd" stroke-linecap="round" stroke-linejoin="round">
        <g transform="translate(3.000000, 3.000000)" stroke="#000000" stroke-width="2">
            <path d="M14,14 L12.9486833,17.1539501 C12.7740355,17.6778934 12.2077156,17.9610534 11.6837722,17.7864056 C11.3851672,17.6868706 11.1508517,17.4525551 11.0513167,17.1539501 L10,14 L2,14 C0.8954305,14 -7.50712219e-15,13.1045695 -6.66133815e-15,12 L-1.95399252e-14,2 C-1.95399252e-14,0.8954305 0.8954305,-5.5067062e-14 2,-5.5067062e-14 L16,-5.5067062e-14 C17.1045695,-5.5067062e-14 18,0.8954305 18,2 L18,12 C18,13.1045695 17.1045695,14 16,14 L14,14 Z"></path>
            <path d="M4,5 L14,5"></path>
            <path d="M4,9 L14,9"></path>
        </g>
    </g>
</svg>