<svg width="24px" height="24px" viewBox="0 0 24 24" xmlns="http://www.w3.org/2000/svg">
    <g stroke="none" stroke-width="1" fill="none" fill-rule="evenodd">
        <g transform="translate(3.000000, 2.000000)" stroke="#000000" stroke-width="2">
            <path d="M11,10 L17,10 C18.1045695,10 19,10.8954305 19,12 L19,18 C19,19.1045695 18.1045695,20 17,20 L11,20 C9.8954305,20 9,19.1045695 9,18 L9,12 C9,10.8954305 9.8954305,10 11,10 Z" stroke-linecap="round" stroke-linejoin="round"></path>
            <path d="M11,2 L12,2 C13.1045695,2 14,2.8954305 14,4 L14,6" stroke-linecap="round" stroke-linejoin="round"></path>
            <path d="M3,2 L2,2 C0.8954305,2 -1.3527075e-16,2.8954305 0,4 L0,16 C1.3527075e-16,17.1045695 0.8954305,18 2,18 L5,18" stroke-linecap="round" stroke-linejoin="round"></path>
            <rect x="3" y="0" width="8" height="4" rx="2"></rect>
        </g>
    </g>
</svg>