<svg width="24px" height="24px" viewBox="0 0 24 24" xmlns="http://www.w3.org/2000/svg">
    <g stroke="none" stroke-width="1" fill="none" fill-rule="evenodd" stroke-linecap="round">
        <g transform="translate(1.000000, 1.000000)" stroke="#000000" stroke-width="2">
            <path d="M22,-4.97379915e-14 L0,22" stroke-linejoin="round"></path>
            <path d="M2,20 L1.58578644,19.5857864 C1.21071368,19.2107137 1,18.7020059 1,18.1715729 L1,8 C1,6.8954305 1.8954305,6 3,6 L16,6"></path>
            <path d="M13,6 L13,3 C13,2.44771525 13.4477153,2 14,2 L18,2 C18.5522847,2 19,2.44771525 19,3 L19,3" stroke-linejoin="round"></path>
            <path d="M3,6 L3,3 C3,2.44771525 3.44771525,2 4,2 L8,2 C8.55228475,2 9,2.44771525 9,3 L9,6" stroke-linejoin="round"></path>
            <path d="M8,20 L19,20 C20.1045695,20 21,19.1045695 21,18 L21,7" stroke-linejoin="round"></path>
        </g>
    </g>
</svg>