<svg width="24px" height="24px" viewBox="0 0 24 24" xmlns="http://www.w3.org/2000/svg">
    <g stroke="none" stroke-width="1" fill="none" fill-rule="evenodd">
        <g transform="translate(1.000000, 6.041399)" stroke="#000000" stroke-width="2">
            <path d="M8,0.45860052 C9.21516442,0.792303519 10.2297729,1.45860052 11,1.45860052 C11.7649329,1.45860052 12.7962253,0.787731838 14,0.45860052 C14.8944916,0.214032163 22,-1.54139948 22,3.95860052 C22,10.9586005 18.5,11.9586005 16.5,11.9586005 C14.5,11.9586005 12.5,9.45860052 11,9.45860052 C9.5,9.45860052 7.5,11.9586005 5.5,11.9586005 C3.5,11.9586005 -1.77635684e-15,10.9586005 -1.77635684e-15,3.95860052 C-1.77635684e-15,-1.54139948 7.111604,0.214633199 8,0.45860052 Z"></path>
            <path d="M13.5,5.45860052 C13.8333333,5.12526719 14.3333333,4.95860052 15,4.95860052 C15.6666667,4.95860052 16.3333333,5.12526719 17,5.45860052 C16.3333333,5.79193385 15.6666667,5.95860052 15,5.95860052 C14.3333333,5.95860052 13.8333333,5.79193385 13.5,5.45860052 Z" stroke-linecap="round" stroke-linejoin="round"></path>
            <path d="M5,5.5060542 C5.66666667,5.14108508 6.33333333,4.95860052 7,4.95860052 C7.66666667,4.95860052 8.16666667,5.14108508 8.5,5.5060542 C8.16666667,5.80775175 7.66666667,5.95860052 7,5.95860052 C6.33333333,5.95860052 5.66666667,5.80775175 5,5.5060542 Z" stroke-linecap="round" stroke-linejoin="round"></path>
        </g>
    </g>
</svg>