<svg width="24px" height="24px" viewBox="0 0 24 24" xmlns="http://www.w3.org/2000/svg">
    <g stroke="none" stroke-width="1" fill="none" fill-rule="evenodd">
        <path d="M11.9735054,19.7284414 C8.07580227,22.6137611 5.44589883,23.4594437 3.37026865,21.776813 C1.02461502,19.875285 1.64872278,15.9427947 4.24994057,11.9938768 C1.76017518,8.23026542 0.98405639,4.6311673 2.80761184,2.80761184 C4.62997244,0.985251247 8.22554967,1.75915921 11.9864789,4.24504863 C13.1424739,3.44173404 14.2065079,2.87707149 15.1837722,2.5513167 C15.7077156,2.37666893 16.2740355,2.65982892 16.4486833,3.18377223 C16.6233311,3.70771555 16.3401711,4.27403553 15.8162278,4.4486833 C15.1828493,4.65980944 14.4806658,5.00953799 13.7121026,5.49798839 C14.5659017,6.17380213 15.4156202,6.9303388 16.2426407,7.75735931 C17.0996306,8.61434925 17.8809358,9.49571202 18.5751632,10.3807321 C18.9477651,9.79080835 19.2912059,9.18152022 19.6055728,8.5527864 C19.8525621,8.05880791 20.4532351,7.85858356 20.9472136,8.10557281 C21.4411921,8.35256206 21.6414164,8.9532351 21.3944272,9.4472136 C20.9295052,10.3770576 20.406352,11.268196 19.8251826,12.1204282 C22.2552797,15.8424582 22.997474,19.3873023 21.1923882,21.1923882 C19.3635653,23.021211 15.7489277,22.2353195 11.9735054,19.7284414 Z M10.2515538,18.4731935 C9.4099879,17.8047132 8.57264442,17.0579258 7.75735931,16.2426407 C6.93939999,15.4246814 6.19038847,14.5845187 5.52023096,13.7401649 C3.79117158,16.6310054 3.39771003,19.2244364 4.62973135,20.223187 C5.62639972,21.0311464 7.50683788,20.3893273 10.2515538,18.4731935 Z M13.6577799,18.4216458 C16.440685,20.1392204 18.8627778,20.6935714 19.7781746,19.7781746 C20.6737324,18.8826168 20.1625584,16.5449631 18.5316762,13.8381976 C17.6695015,14.8783451 16.709048,15.8521795 15.6507914,16.7592566 C14.9547006,17.3559059 14.2911449,17.9105708 13.6577799,18.4216458 Z M11.9249741,17.2321376 C12.6811245,16.642476 13.4892993,15.9778085 14.3492086,15.2407434 C15.4768425,14.2742001 16.4813675,13.2276818 17.3635287,12.1004927 C16.6414088,11.1266819 15.792411,10.1355568 14.8284271,9.17157288 C13.9012967,8.24444249 12.9490606,7.42367431 12.0112683,6.71984781 C10.9983427,7.52289197 9.89563371,8.51857985 8.70710678,9.70710678 C7.9575704,10.4566432 7.28887601,11.2261077 6.70607426,11.9928981 C7.41295918,12.9366229 8.23838809,13.8952423 9.17157288,14.8284271 C10.0776995,15.7345538 11.0078073,16.5390828 11.9249741,17.2321376 Z M5.52460651,10.2546315 C6.06265244,9.58929607 6.65371156,8.93207488 7.29289322,8.29289322 C8.3462009,7.23958554 9.34304447,6.32311382 10.2856824,5.54358927 C7.52655015,3.85333234 5.13101763,3.31263319 4.22182541,4.22182541 C3.31604552,5.12760529 3.84929412,7.5085895 5.52460651,10.2546315 Z M20,6 C18.8954305,6 18,5.1045695 18,4 C18,2.8954305 18.8954305,2 20,2 C21.1045695,2 22,2.8954305 22,4 C22,5.1045695 21.1045695,6 20,6 Z" fill="#000000" fill-rule="nonzero"></path>
        <g transform="translate(-0.082594, -1.000000)" stroke="#000000" stroke-width="2">
            <ellipse transform="translate(12.082594, 13.000000) rotate(-45.000000) translate(-12.082594, -13.000000) " cx="12.0825945" cy="13" rx="5" ry="12"></ellipse>
            <path d="M15.5825945,4.5 C13.5825945,5.16666667 11.0825945,7 8.08259445,10 C3.58259445,14.5 1.59731308,19.9852814 4.08259445,22 C6.56787583,24.0147186 11.5825945,20 15.0825945,17 C17.4159278,15 19.2492611,12.6666667 20.5825945,10" stroke-linecap="round" stroke-linejoin="round"></path>
            <circle fill="#D8D8D8" cx="20.0825945" cy="5" r="1"></circle>
        </g>
    </g>
</svg>