<svg width="24px" height="24px" viewBox="0 0 24 24" xmlns="http://www.w3.org/2000/svg">
    <g stroke="none" stroke-width="1" fill="none" fill-rule="evenodd" stroke-linecap="round" stroke-linejoin="round">
        <g transform="translate(4.845299, 4.845299)" stroke="#000000" stroke-width="2">
            <path d="M1.15470054,7.15470054 C2.15470054,8.15470054 2.65470054,9.15470054 2.65470054,10.6547005 C2.65470054,12.1547005 3.65470054,14.1554736 5.15470054,14.1550871 C6.65470054,14.1547005 14.1550871,6.65470054 14.1550871,5.15470054 C14.1550871,3.65470054 12.1547005,2.65470054 10.6547005,2.65470054 C9.15470054,2.65470054 8.15470054,2.15470054 7.15470054,1.15470054 C6.15470054,0.154700538 3.15470054,-0.845299462 1.15470054,1.15470054 C-0.845299462,3.15470054 0.154700538,6.15470054 1.15470054,7.15470054 Z"></path>
            <path d="M11.6547005,13.6547005 L13.6547005,11.6547005 C13.743905,12.3213672 13.5772384,12.8213672 13.1547005,13.1547005 C12.7321627,13.4880339 12.2321627,13.6547005 11.6547005,13.6547005 Z"></path>
        </g>
    </g>
</svg>