<svg width="24px" height="24px" viewBox="0 0 24 24" xmlns="http://www.w3.org/2000/svg">
    <g stroke="none" stroke-width="1" fill="none" fill-rule="evenodd">
        <g transform="translate(5.000000, 1.000000)" stroke="#000000" stroke-width="2">
            <path d="M4.003515,19 C4.003515,21 5.00234333,22 7,22 C8.99765667,22 9.99970786,21 10.0061536,19 L10.0025467,13.1958328 C11.7945463,12.1580426 14,9.3137085 14,6 C14,2.6862915 11.5,-3.90798505e-14 7,-3.90798505e-14 C2.5,-3.82925775e-14 5.32907052e-15,2.6862915 5.32907052e-15,6 C5.32907052e-15,9.3137085 2.20707652,12.1606509 4.00107153,13.1979265 L4.003515,19 Z"></path>
            <path d="M3.5,13 C4.5,13.6666667 5.66666667,14 7,14 C8.33333333,14 9.5,13.6666667 10.5,13"></path>
            <path d="M3.5,17 C4.5,17.6666667 5.66666667,18 7,18 C8.33333333,18 9.5,17.6666667 10.5,17"></path>
        </g>
    </g>
</svg>