<svg width="24px" height="24px" viewBox="0 0 24 24" xmlns="http://www.w3.org/2000/svg">
    <g stroke="none" stroke-width="1" fill="none" fill-rule="evenodd" stroke-linecap="round" stroke-linejoin="round">
        <g transform="translate(1.000000, 1.000000)" stroke="#000000" stroke-width="2">
            <path d="M8,19 L8,19 C8,19.5522847 8.44771525,20 9,20 L19,20 C20.1045695,20 21,19.1045695 21,18 L21,11 C21,9.8954305 20.1045695,9 19,9 L18,9"></path>
            <path d="M14,4 L14,4 C14,2.8954305 13.1045695,2 12,2 L3,2 C1.8954305,2 1,2.8954305 1,4 L1,11 C1,12.1045695 1.8954305,13 3,13 L4,13"></path>
            <path d="M22,-4.97379915e-14 L3.55271368e-15,22"></path>
        </g>
    </g>
</svg>