<svg width="24px" height="24px" viewBox="0 0 24 24" xmlns="http://www.w3.org/2000/svg">
    <g stroke="none" stroke-width="1" fill="none" fill-rule="evenodd">
        <g transform="translate(3.000000, 2.000000)">
            <path d="M9.35366123,21 L16.6567884,21 C17.7613579,21 18.6567884,20.1045695 18.6567884,19 C18.6567884,18.6699432 18.5751039,18.3450167 18.4190198,18.0541985 L14.7793563,11.2727233 C14.2570045,10.2994698 13.0445769,9.93394163 12.0713234,10.4562934 C11.726468,10.6413796 11.443497,10.9235817 11.2574732,11.2679322 L7.5940096,18.0494075 C7.06901184,19.0212362 7.43123993,20.2346539 8.40306869,20.7596516 C8.69508158,20.9174018 9.0217627,21 9.35366123,21 Z" stroke="#000000" stroke-width="2" fill="#FFFFFF" stroke-linecap="round" stroke-linejoin="round"></path>
            <circle fill="#000000" cx="13.0000513" cy="18" r="1"></circle>
            <path d="M13.0000513,15 L13.0000513,14" stroke="#000000" stroke-width="2" stroke-linecap="round"></path>
            <path d="M4,20 L2,20 C0.8954305,20 1.3527075e-16,19.1045695 0,18 L0,9 C-1.3527075e-16,7.8954305 0.8954305,7 2,7 L16,7 C17.1045695,7 18,7.8954305 18,9 L18,11" stroke="#000000" stroke-width="2" stroke-linecap="round" stroke-linejoin="round"></path>
            <path d="M4,7 L4,5 C4,2.23857625 6.23857625,1.28785871e-14 9,1.24344979e-14 C11.7614237,1.15463195e-14 14,2.23857625 14,5 L14,7" stroke="#000000" stroke-width="2" stroke-linecap="round" stroke-linejoin="round"></path>
        </g>
    </g>
</svg>