<svg width="24px" height="24px" viewBox="0 0 24 24" xmlns="http://www.w3.org/2000/svg">
    <g stroke="none" stroke-width="1" fill="none" fill-rule="evenodd">
        <g transform="translate(4.000000, 1.774852)">
            <path d="M10.7022469,0.238490808 L14.7022469,1.73849081 C15.4828543,2.0312186 16,2.77746004 16,3.61114916 L16,16.8391473 C16,17.6728364 15.4828543,18.4190779 14.7022469,18.7118056 L10.7022469,20.2118056 C9.66800623,20.5996459 8.51518189,20.0756348 8.12734164,19.0413942 C8.04313385,18.8168401 8,18.5789712 8,18.3391473 L8,2.11114916 C8,1.00657966 8.8954305,0.111149163 10,0.111149163 C10.2398239,0.111149163 10.4776928,0.154283014 10.7022469,0.238490808 Z" stroke="#000000" stroke-width="2" stroke-linecap="round" stroke-linejoin="round"></path>
            <circle fill="#000000" cx="11.5" cy="10.7251482" r="1.5"></circle>
            <path d="M2,2.22514823 L8,2.22514823 L8,18.2251482 L2,18.2251482 C0.8954305,18.2251482 1.3527075e-16,17.3297177 0,16.2251482 L0,4.22514823 C-1.3527075e-16,3.12057873 0.8954305,2.22514823 2,2.22514823 Z" stroke="#000000" stroke-width="2"></path>
        </g>
    </g>
</svg>