<svg width="24px" height="24px" viewBox="0 0 24 24" xmlns="http://www.w3.org/2000/svg">
    <g stroke="none" stroke-width="1" fill="none" fill-rule="evenodd" stroke-linecap="round" stroke-linejoin="round">
        <g transform="translate(1.000000, 1.000000)" stroke="#000000" stroke-width="2">
            <path d="M4,18 L2,18 C0.8954305,18 -2.61199455e-15,17.1045695 -4.21884749e-15,16 L-1.77635684e-15,6 C-1.91162759e-15,4.8954305 0.8954305,4 2,4 L13,4 C14.1045695,4 15,4.8954305 15,6 L15,7"></path>
            <path d="M22,4.06785716e-13 L1.08535403e-12,22"></path>
            <path d="M9,18 L13,18 C14.1045695,18 15,17.1045695 15,16 L15,12 L16,12 L22,16 L22,6 L18.5,8.5"></path>
        </g>
    </g>
</svg>