<svg width="24px" height="24px" viewBox="0 0 24 24" xmlns="http://www.w3.org/2000/svg">
    <g stroke="none" stroke-width="1" fill="none" fill-rule="evenodd" stroke-linecap="round">
        <g transform="translate(2.000019, 5.000000)" stroke="#000000" stroke-width="2">
            <path d="M2,-1.98063788e-13 L18.000191,-1.98063788e-13 C19.1047605,-1.98266694e-13 20.000191,0.8954305 20.000191,2 L20.0001918,12.0000028 C20.0001918,13.1045723 19.1047613,14.0000028 18.0001918,14.0000028 C18.0001915,14.0000028 18.0001913,14.0000028 18.000191,14.0000028 L13.0000858,14 C13.0000858,12.5 12.0001903,11 10.0000858,11 C7.9999812,11 7.00008577,12.5 7.00008577,14 L2,14.0000028 C0.8954305,14.0000032 -3.58321481e-07,13.1045731 -8.00333796e-07,12.0000036 C-8.00333903e-07,12.0000033 -8.00333956e-07,12.0000031 -8.00333956e-07,12.0000028 L-2.13162821e-14,2 C-2.14515528e-14,0.8954305 0.8954305,-1.97860881e-13 2,-1.98063788e-13 Z" stroke-linejoin="round"></path>
            <path d="M4.00008577,4 L16.0000858,4"></path>
        </g>
    </g>
</svg>