<svg xmlns="http://www.w3.org/2000/svg" width="64" height="64" viewBox="0 0 64 64">
    <style>
        .st1{fill:#7bebff}
    </style>
    <path d="M62.8 32.1c.1-.2.2-.5.3-.7-.8.5-1.8.8-2.9.8-2.7 0-5-1.9-5.5-4.5-.3.2-1 .9-3.2.9-4.8 0-6.4-4.7-6.4-6.2 0-.3 0-.6.1-.8-3.6-.1-6.5-3-6.5-6.6 0-.7.1-1.4.3-2-.1-.5-.2-1.1-.2-1.7 0-.7.1-1.4.3-2-1.4-1-2.3-2.7-2.3-4.5 0-1.2.4-2.2 1-3.1-2.9-2.2-6.1-2.3-9-.1-3.5-1.5-6.7-.6-9 2.4-3.8-.4-6.6 1.4-7.9 5-3.8.7-6 3.3-6.1 7.2-3.4 1.9-4.7 5.1-3.6 8.8-2.6 2.8-2.9 6.2-.7 9.3-1.7 3.5-.9 6.7 2.1 9.1-.5 3.8 1.2 6.8 4.8 8.2.7 3.8 3.3 6.1 7.1 6.3 1.8 3.4 4.9 4.7 8.5 3.8 2.7 2.7 6 3.1 9.3 1.1 3.4 1.8 6.7 1.1 9.3-1.8 3.8.6 6.8-1 8.2-4.6 3.8-.5 6-2.9 6.4-6.7 3.4-1.6 4.9-4.6 4.1-8.3 2.8-2.6 3.4-5.9 1.5-9.3z" fill="#008ef0"/>
    <circle class="st1" cx="24.9" cy="14.9" r="4.6"/>
    <circle class="st1" cx="12.3" cy="31.5" r="4.6"/>
    <circle class="st1" cx="32.8" cy="32.2" r="4.6"/>
    <circle class="st1" cx="22.8" cy="47.9" r="4.6"/>
    <circle class="st1" cx="43.4" cy="48.6" r="4.6"/>
    <path class="st1" d="M46.6 26.3c-.9.8-1.5 2-1.5 3.4 0 2.5 2 4.6 4.6 4.6 2.5 0 4.6-2 4.6-4.6 0-.6-.1-1.1-.3-1.6-.8.3-1.6.5-2.5.5-2 0-3.7-.9-4.9-2.3z"/>
    <path d="M61.8 28.2c-.5.2-1.1.3-1.7.3-2.7 0-5-1.9-5.5-4.5-1 .7-2.2 1.1-3.5 1.1-3.3 0-6-2.7-6-6 0-.4.1-.9.1-1.3-3-.1-5.4-2.1-6.2-4.8-.2.6-.3 1.3-.3 2 0 3.6 2.9 6.5 6.5 6.6 0 .3-.1.6-.1.8 0 1.5.5 2.8 1.4 3.9 1.1 1.4 2.9 2.3 4.8 2.3 2.6 0 3.3-.7 3.4-.9.5 2.6 2.7 4.5 5.4 4.5 1.3 0 2.2-.3 3-.8.2-.5.3-.7.4-1.4-.9-.4-1.5-1-1.7-1.8z" fill="#00b3f4"/>
</svg>
