<svg xmlns="http://www.w3.org/2000/svg" viewBox="0 0 64 64" width="64" height="64">
    <style>
        .st1{fill:#7bebff}
    </style>
    <path d="M32 64C14.3 64 0 49.7 0 32S14.3 0 32 0s32 14.3 32 32-14.3 32-32 32z" fill="#008ef0"/>
    <path class="st1" d="M32 35.9c-.4 0-.8-.3-.8-.8V14.8c0-.4.3-.8.8-.8.4 0 .8.3.8.8v20.3c0 .5-.4.8-.8.8z"/>
    <path class="st1" d="M45.3 34.3h-14c-.9 0-1.6-.7-1.6-1.6 0-.9.7-1.6 1.6-1.6h14c.9 0 1.6.7 1.6 1.6-.1.9-.8 1.6-1.6 1.6z"/>
    <path class="st1" d="M57 30.9h-3.2c-.6 0-1 .5-1 1.1 0 .6.5 1 1 1H57c.6 0 1-.5 1-1.1.1-.5-.4-1-1-1zM11.2 32c0-.6-.5-1-1-1H7c-.6 0-1 .5-1 1.1s.5 1 1 1h3.2c.6 0 1-.5 1-1.1zM32 52.8c-.6 0-1 .5-1 1V57c0 .6.5 1 1.1 1s1-.5 1-1v-3.2c0-.6-.5-1-1.1-1zM43.7 50.6c-.3-.5-1-.6-1.5-.3-.2.2-.4.4-.5.7s0 .6.1.8l1.7 2.7c.2.3.5.5.9.5.2 0 .4-.1.6-.2.2-.1.4-.4.5-.7s0-.6-.1-.8l-1.7-2.7zM54.4 43.6L51.7 42c-.5-.3-1.1-.1-1.5.4-.1.2-.2.5-.1.8.1.3.2.5.5.6l2.8 1.6c.2.1.3.1.5.1h.3c.3-.1.5-.2.6-.5v-.1c.3-.4.1-1-.4-1.3zM12.2 41.8l-2.7 1.7c-.5.3-.7 1-.3 1.6.2.3.4.4.7.5h.2c.2 0 .4-.1.6-.2l2.7-1.7c.5-.3.7-1 .3-1.6-.3-.5-1-.6-1.5-.3zM21.7 50.2c-.6-.3-1.2-.2-1.5.3l-1.6 2.8c-.1.2-.2.5-.1.8s.2.5.5.6h.1c.2.1.3.1.5.1.4 0 .7-.2.9-.5l1.6-2.8c.1-.2.2-.5.1-.8l-.5-.5zM32 5.9c-.6 0-1 .5-1 1v3.2c0 .6.5 1 1.1 1s1-.5 1-1V7c0-.6-.5-1.1-1.1-1.1zM20.2 13.4c.1.2.4.4.7.5h.2c.2 0 .4-.1.6-.2.2-.1.4-.4.5-.7s0-.6-.1-.8l-1.7-2.7c-.3-.5-1-.6-1.5-.3-.2.2-.4.4-.5.7s0 .6.1.8l1.7 2.7zM13.4 20.1l-2.8-1.6c-.5-.3-1.1-.1-1.5.4-.1.2-.2.5-.1.8.1.3.2.5.5.6l2.8 1.6c.2.1.3.1.5.1h.3c.3-.1.5-.2.7-.5.1-.2.2-.5.1-.8-.1-.2-.2-.4-.5-.6zM51 22.3h.2c.2 0 .4-.1.6-.2l2.7-1.7c.2-.1.4-.4.5-.7.1-.3 0-.6-.2-.8-.3-.5-1-.6-1.4-.3l-2.7 1.7c-.2.2-.4.4-.5.7-.1.3 0 .6.2.8.1.2.3.4.6.5zM45 9.2c-.2-.1-.5-.2-.8-.1-.3.1-.5.2-.6.5L42 12.4c-.1.2-.2.5-.1.8.1.3.2.5.5.7.2.1.3.1.5.1.4 0 .7-.2.9-.5l1.6-2.8c.1-.2.2-.5.1-.8 0-.3-.2-.5-.5-.7z"/>
</svg>
