<svg xmlns="http://www.w3.org/2000/svg" width="64" height="64" viewBox="0 0 64 64">
    <style>
        .st0{fill:#008ef0}
    </style>
    <path class="st0" d="M49.1 10.5h-17c-.4 0-.8-.4-.8-.8V.8c0-.4.3-.8.8-.8H49c.3 0 .6.2.7.4.1.3.1.6-.1.8l-4.5 4 4.5 4c.2.2.2.6.1.8-.1.3-.3.5-.6.5z"/>
    <path class="st0" d="M62 64H2c-.7 0-1.4-.3-1.7-.9s-.4-1.3 0-2l21.5-35.4 4.1 5.6c.1.2.4.3.6.3s.5-.1.6-.3l4.9-6.8 4.9 6.8c.1.2.4.3.6.3.2 0 .5-.1.6-.3l4.1-5.6 21.5 35.5c.3.6.3 1.3 0 1.9-.3.6-1 .9-1.7.9z"/>
    <path d="M42.3 25.7l-4.1 5.6c-.1.2-.4.3-.6.3-.2 0-.5-.1-.6-.3l-5-6.8-4.9 6.8c-.1.2-.4.3-.6.3s-.5-.1-.6-.3l-4.1-5.6.7-1.2 7.9-13.1c.1-.2.2-.3.4-.4.4-.4 1-.6 1.6-.5s1.1.4 1.4.9l7.9 13.1.6 1.2z" fill="#7bebff"/>
</svg>
