<svg xmlns="http://www.w3.org/2000/svg" width="64" height="64" viewBox="0 0 64 64">
    <style>
        .st0{fill:#00b3f4}.st1{fill:#008ef0}
    </style>
    <path class="st0" d="M21.7 47.3L60 6.6c.8-.8 2.5-2.5 2.1-4.4-2.2-1.5-4.4.8-5.3 1.6L16 42.2c-1.2 1.3-1.4 3.2-.6 4.8 1 .9 2.2 1.4 3.5 1.4 1 0 2-.4 2.8-1.1z"/>
    <path class="st1" d="M62.6 2.7c-.2-.2-.4-.3-.6-.5.4 1.9-1.3 3.6-2.1 4.4L21.7 47.3c-.5.5-1.1.8-1.7 1l-.3-.6c-.3-.5-.6-.9-1-1.3-1.3-1.3-2.9-1.8-3.6-1.2-.7.7-.1 2.2 1.2 3.5.8.8 1.7 1.3 2.4 1.4.5.2 1 .3 1.5.3 1 0 2.1-.4 2.8-1.1L61.4 8.6c1-1 3.6-3.6 1.2-5.9z"/>
    <path class="st0" d="M18 47.2c-1.3-1.4-2.7-2.1-3.1-1.7L8 52.2c.4-.4 1.8.3 3.1 1.7s2 2.8 1.5 3.2l6.9-6.7c.5-.4-.2-1.8-1.5-3.2z"/>
    <path class="st1" d="M16 49.2c-1.3-1.4-2.7-2.1-3.1-1.7l-2.2 2.1c.4-.4 1.8.3 3.1 1.7s2 2.8 1.5 3.2l2.2-2.1c.5-.4-.2-1.9-1.5-3.2z"/>
    <path class="st1" d="M9.1 51.5c-1.9 0-3.6 1.3-4.2 3.1 0 .1 0 .2-.1.2 2.1.4 3.5 2.2 3.5 4.3 0 .8-.2 1.6-.7 2.3 1.6-.4 3-1.3 4.2-2.4 1.3-1.2 1.8-3.1 1.1-4.8-.4-1.6-2-2.7-3.8-2.7z"/>
    <path d="M4.8 54.9c-.8 2.4-1.5 4.4-3.7 5.4H1c-.4.2-.6.5-.6.9 0 .6.5 1.1 1.1 1.1 2.1 0 4.2-.3 6.2-.9.4-.7.7-1.4.7-2.2 0-2.1-1.5-3.9-3.6-4.3z" fill="#7bebff"/>
</svg>
