<svg xmlns="http://www.w3.org/2000/svg" width="80" height="80" viewBox="0 0 80 80"><path d="M79.939 37.706q-.021-.381-.048-.759v-.016q-.029-.376-.063-.752v-.01a40.07 40.07 0 0 0-1.181-6.635l-.011-.041c-.057-.213-.117-.426-.177-.639l-.03-.1q-.087-.3-.177-.6l-.043-.14c-.059-.19-.12-.38-.181-.57l-.052-.158a51.33 51.33 0 0 0-.188-.553l-.058-.165q-.1-.273-.195-.544l-.061-.163a50.591 50.591 0 0 0-.207-.543l-.057-.142a34.51 34.51 0 0 0-.225-.561l-.025-.06q-.387-.934-.82-1.845l-.055-.117c-.069-.145-.141-.29-.212-.434-.042-.085-.083-.17-.126-.254-.065-.13-.132-.259-.2-.388-.05-.1-.1-.2-.152-.293a25.097 25.097 0 0 0-.193-.362c-.057-.1-.113-.209-.171-.313l-.191-.343-.185-.325-.191-.327a22.658 22.658 0 0 0-.2-.334l-.191-.313c-.07-.114-.141-.228-.213-.341l-.189-.3a26.457 26.457 0 0 0-.229-.352l-.185-.281q-.124-.186-.251-.37l-.175-.255q-.144-.206-.29-.41l-.148-.207q-.222-.307-.45-.61a39.909 39.909 0 0 0-3.788-4.3A31.683 31.683 0 0 0 65.194 8.8q-.971-.841-2.017-1.587a26.026 26.026 0 0 0-3.968-2.434c-.387-.2-.777-.4-1.17-.591A40.481 40.481 0 0 0 49.1 1.021q-.458-.1-.918-.189h-.013c-.147-.032-.294-.057-.44-.084a37.458 37.458 0 0 0-6.141-.637Q41.14.1 40.7.1h-.01c-.274 0-.547 0-.817.008a38.976 38.976 0 0 0-7.341.814 29.289 29.289 0 0 0-13.377 6.3c-.176.156-.3.276-.38.351l-.084.078.014-.008-.013.013.023-.019.019-.011-.013.011.032-.022a32.285 32.285 0 0 1 7.969-3.163c.317-.08.635-.153.953-.224l.194-.041c.274-.059.548-.115.823-.166l.143-.027A33.571 33.571 0 0 1 57.9 12.539a26.938 26.938 0 0 1 4.329 5.3c4.895 7.948 4.432 17.941.615 23.835-5.547 8.565-17.948 11.513-25.636 4a13.607 13.607 0 0 1-4.118-9.522 12.139 12.139 0 0 1 1.01-5.009c.274-.619 2.1-4.146 2.949-3.964-2.106-.453-6.064.434-8.82 4.549-2.473 3.692-2.333 9.4-.807 13.443a21.627 21.627 0 0 1-1.964-6.325c-1.976-13.333 6.989-24.7 15.21-27.518-4.44-3.869-15.552-3.607-23.823 2.472A27.81 27.81 0 0 0 6.756 28.38a38.456 38.456 0 0 1 4.16-13.539c-2.768 1.431-6.294 5.959-8.035 10.15A41.265 41.265 0 0 0 .283 45.14c.06.518.114 1.034.182 1.547A40.053 40.053 0 0 0 80 39.9c0-.735-.022-1.467-.061-2.194z" fill="#20123a"/></svg>