<svg height="172" width="122" xmlns="http://www.w3.org/2000/svg" viewBox="0 0 122 172"><radialGradient id="a" cx="96%" cy="15%" r="90%"><stop offset="0" stop-color="#fff36e"/><stop offset=".5" stop-color="#fc4055"/><stop offset="1" stop-color="#e31587"/></radialGradient><radialGradient id="b" cx="10%" cy="18%" r="70%"><stop offset="0" stop-color="#c60084"/><stop offset="1" stop-color="#fc4055" stop-opacity="0"/></radialGradient><radialGradient id="c" cx="110%" cy="8%" r="133%"><stop offset="0" stop-color="#ffde67" stop-opacity=".6"/><stop offset=".66" stop-color="#fc4055" stop-opacity="0"/></radialGradient><radialGradient id="d" cx="44%" cy="51%" r="175%"><stop offset=".15" stop-color="#810220"/><stop offset=".27" stop-color="#fc4055" stop-opacity="0"/></radialGradient><radialGradient id="e" cx="53%" cy="55%" r="160%"><stop offset=".12" stop-color="#810220"/><stop offset=".3" stop-color="#fc4055" stop-opacity="0"/></radialGradient><radialGradient id="f" cx="90%" cy="11%" r="111%"><stop offset="0" stop-color="#ff9640"/><stop offset=".8" stop-color="#fc4055"/></radialGradient><radialGradient id="g" cx="91%" cy="18%" r="113%"><stop offset=".09" stop-color="#ffde67"/><stop offset=".82" stop-color="#ff9640" stop-opacity="0"/></radialGradient><radialGradient id="h" cx="63%" cy="49%" r="54%"><stop offset=".36" stop-color="#fc4055"/><stop offset=".59" stop-color="#ff9640" stop-opacity="0"/></radialGradient><radialGradient id="i" cx="53%" cy="52%" r="54%"><stop offset=".22" stop-color="#fc4055" stop-opacity=".8"/><stop offset=".47" stop-color="#ff9640" stop-opacity="0"/></radialGradient><radialGradient id="j" cx="109%" cy="2%" r="170%"><stop offset=".05" stop-color="#fff36e"/><stop offset=".55" stop-color="#ff9640"/><stop offset=".7" stop-color="#ff9640"/></radialGradient><linearGradient id="k" x1="50%" y1="-3%" x2="79%" y2="79%"><stop offset="0" stop-color="#b833e1"/><stop offset=".37" stop-color="#9059ff"/><stop offset="1" stop-color="#0090ed"/></linearGradient><linearGradient id="l" x1="85%" y1="51%" x2="32%" y2="-10%"><stop offset="0" stop-color="#592acb" stop-opacity=".5"/><stop offset=".24" stop-color="#722291" stop-opacity="0"/></linearGradient><linearGradient id="m" x1="75%" y1="9%" x2="21%" y2="99%"><stop offset="0" stop-color="#fff36e" stop-opacity=".8"/><stop offset=".09" stop-color="#fff36e" stop-opacity=".7"/><stop offset=".75" stop-color="#fff36e" stop-opacity="0"/></linearGradient><path d="M108.916 23.578A59.212 59.212 0 0 0 63.382.041c-13.93-.278-23.555 3.908-29 7.273C41.667 3.089 52.209.692 61.44.81c23.747.3 49.249 16.473 53.036 45.621 4.348 33.459-18.955 61.384-51.739 61.469-36.068.092-58-31.844-52.271-60.528.286-1.433.143-2.826.621-4.18.273-5.043 2.178-12.949 6.288-21.027-4.152 2.149-9.441 8.947-12.052 15.244a62.038 62.038 0 0 0-3.9 30.262c.09.778.171 1.553.273 2.324a60.093 60.093 0 1 0 107.22-46.417z" fill="url(#a)"/><path d="M108.916 23.578A59.212 59.212 0 0 0 63.382.041c-13.93-.278-23.555 3.908-29 7.273C41.667 3.089 52.209.692 61.44.81c23.747.3 49.249 16.473 53.036 45.621 4.348 33.459-18.955 61.384-51.739 61.469-36.068.092-58-31.844-52.271-60.528.286-1.433.143-2.826.621-4.18.273-5.043 2.178-12.949 6.288-21.027-4.152 2.149-9.441 8.947-12.052 15.244a62.038 62.038 0 0 0-3.9 30.262c.09.778.171 1.553.273 2.324a60.093 60.093 0 1 0 107.22-46.417z" fill="url(#b)" opacity=".67"/><path d="M108.916 23.578A59.212 59.212 0 0 0 63.382.041c-13.93-.278-23.555 3.908-29 7.273C41.667 3.089 52.209.692 61.44.81c23.747.3 49.249 16.473 53.036 45.621 4.348 33.459-18.955 61.384-51.739 61.469-36.068.092-58-31.844-52.271-60.528.286-1.433.143-2.826.621-4.18.273-5.043 2.178-12.949 6.288-21.027-4.152 2.149-9.441 8.947-12.052 15.244a62.038 62.038 0 0 0-3.9 30.262c.09.778.171 1.553.273 2.324a60.093 60.093 0 1 0 107.22-46.417z" fill="url(#c)"/><path d="M108.916 23.578A59.212 59.212 0 0 0 63.382.041c-13.93-.278-23.555 3.908-29 7.273C41.667 3.089 52.209.692 61.44.81c23.747.3 49.249 16.473 53.036 45.621 4.348 33.459-18.955 61.384-51.739 61.469-36.068.092-58-31.844-52.271-60.528.286-1.433.143-2.826.621-4.18.273-5.043 2.178-12.949 6.288-21.027-4.152 2.149-9.441 8.947-12.052 15.244a62.038 62.038 0 0 0-3.9 30.262c.09.778.171 1.553.273 2.324a60.093 60.093 0 1 0 107.22-46.417z" fill="url(#d)"/><path d="M108.916 23.578A59.212 59.212 0 0 0 63.382.041c-13.93-.278-23.555 3.908-29 7.273C41.667 3.089 52.209.692 61.44.81c23.747.3 49.249 16.473 53.036 45.621 4.348 33.459-18.955 61.384-51.739 61.469-36.068.092-58-31.844-52.271-60.528.286-1.433.143-2.826.621-4.18.273-5.043 2.178-12.949 6.288-21.027-4.152 2.149-9.441 8.947-12.052 15.244a62.038 62.038 0 0 0-3.9 30.262c.09.778.171 1.553.273 2.324a60.093 60.093 0 1 0 107.22-46.417z" fill="url(#e)"/><path d="M115.937 44.767C112.56 14.305 85.394.613 61.44.81c-9.231.076-19.773 2.279-27.059 6.5a29.586 29.586 0 0 0-5.339 4.055c.193-.16.77-.635 1.727-1.293l.1-.065.083-.056A39.952 39.952 0 0 1 42.486 4.6 65.256 65.256 0 0 1 62.26 2.284a49.88 49.88 0 0 1 46.875 47.983c.551 19.809-15.663 35.606-34.353 36.521-13.593.666-26.4-5.912-32.655-19.07a32.507 32.507 0 0 1-2.945-9.5C36.217 38.193 49.665 21.116 62 16.888c-6.653-5.811-23.322-5.417-35.728 3.71C17.333 27.171 11.537 37.172 9.617 49.1a49.424 49.424 0 0 0 3.51 27.005 52.96 52.96 0 0 0 45.135 32.156q2.232.169 4.475.169c39.693.003 56.917-30.13 53.2-63.663z" fill="url(#f)"/><path d="M115.937 44.767C112.56 14.305 85.394.613 61.44.81c-9.231.076-19.773 2.279-27.059 6.5a29.586 29.586 0 0 0-5.339 4.055c.193-.16.77-.635 1.727-1.293l.1-.065.083-.056A39.952 39.952 0 0 1 42.486 4.6 65.256 65.256 0 0 1 62.26 2.284a49.88 49.88 0 0 1 46.875 47.983c.551 19.809-15.663 35.606-34.353 36.521-13.593.666-26.4-5.912-32.655-19.07a32.507 32.507 0 0 1-2.945-9.5C36.217 38.193 49.665 21.116 62 16.888c-6.653-5.811-23.322-5.417-35.728 3.71C17.333 27.171 11.537 37.172 9.617 49.1a49.424 49.424 0 0 0 3.51 27.005 52.96 52.96 0 0 0 45.135 32.156q2.232.169 4.475.169c39.693.003 56.917-30.13 53.2-63.663z" fill="url(#g)"/><path d="M115.937 44.767C112.56 14.305 85.394.613 61.44.81c-9.231.076-19.773 2.279-27.059 6.5a29.586 29.586 0 0 0-5.339 4.055c.193-.16.77-.635 1.727-1.293l.1-.065.083-.056A39.952 39.952 0 0 1 42.486 4.6 65.256 65.256 0 0 1 62.26 2.284a49.88 49.88 0 0 1 46.875 47.983c.551 19.809-15.663 35.606-34.353 36.521-13.593.666-26.4-5.912-32.655-19.07a32.507 32.507 0 0 1-2.945-9.5C36.217 38.193 49.665 21.116 62 16.888c-6.653-5.811-23.322-5.417-35.728 3.71C17.333 27.171 11.537 37.172 9.617 49.1a49.424 49.424 0 0 0 3.51 27.005 52.96 52.96 0 0 0 45.135 32.156q2.232.169 4.475.169c39.693.003 56.917-30.13 53.2-63.663z" fill="url(#h)" opacity=".53"/><path d="M115.937 44.767C112.56 14.305 85.394.613 61.44.81c-9.231.076-19.773 2.279-27.059 6.5a29.586 29.586 0 0 0-5.339 4.055c.193-.16.77-.635 1.727-1.293l.1-.065.083-.056A39.952 39.952 0 0 1 42.486 4.6 65.256 65.256 0 0 1 62.26 2.284a49.88 49.88 0 0 1 46.875 47.983c.551 19.809-15.663 35.606-34.353 36.521-13.593.666-26.4-5.912-32.655-19.07a32.507 32.507 0 0 1-2.945-9.5C36.217 38.193 49.665 21.116 62 16.888c-6.653-5.811-23.322-5.417-35.728 3.71C17.333 27.171 11.537 37.172 9.617 49.1a49.424 49.424 0 0 0 3.51 27.005 52.96 52.96 0 0 0 45.135 32.156q2.232.169 4.475.169c39.693.003 56.917-30.13 53.2-63.663z" fill="url(#i)" opacity=".53"/><path d="M74.782 86.788c25.653-1.56 36.63-22.794 37.318-37.868C113.174 25.382 99.207 0 62.26 2.284A65.256 65.256 0 0 0 42.486 4.6a43.312 43.312 0 0 0-11.539 5.355l-.083.056-.1.065q-.861.6-1.685 1.264c1.028-.7 13.769-8.228 31.471-5.9 21.207 2.783 40.6 19.285 40.6 41.059 0 16.754-12.947 29.543-28.106 28.63-22.523-1.356-28.2-24.451-16.484-34.43-3.159-.681-9.1.652-13.23 6.832-3.709 5.546-3.5 14.115-1.211 20.191C48.385 80.876 61.2 87.614 74.782 86.788z" fill="url(#j)"/><path d="M109.023 28.116A33.672 33.672 0 0 0 101.7 15.9a45.32 45.32 0 0 0-13.642-9.74 60.7 60.7 0 0 0-13.41-4.753A59.728 59.728 0 0 0 49.8 1.263c-8.524 1.8-16.02 5.487-20.761 10.1a48.154 48.154 0 0 1 12.046-4.8 50.351 50.351 0 0 1 46.76 12.149 40.507 40.507 0 0 1 6.493 7.955c7.343 11.938 6.648 26.946.923 35.8C91.009 69.035 81.9 75.2 73.4 75.136c13.037.685 25.195-4.813 32.567-16.312 5.986-9.332 6.19-21.213 3.056-30.708z" fill="url(#k)"/><path d="M109.023 28.116A33.672 33.672 0 0 0 101.7 15.9a45.32 45.32 0 0 0-13.642-9.74 60.7 60.7 0 0 0-13.41-4.753A59.728 59.728 0 0 0 49.8 1.263c-8.524 1.8-16.02 5.487-20.761 10.1a48.154 48.154 0 0 1 12.046-4.8 50.351 50.351 0 0 1 46.76 12.149 40.507 40.507 0 0 1 6.493 7.955c7.343 11.938 6.648 26.946.923 35.8C91.009 69.035 81.9 75.2 73.4 75.136c13.037.685 25.195-4.813 32.567-16.312 5.986-9.332 6.19-21.213 3.056-30.708z" fill="url(#l)"/><path d="M7.318 144.59h16.087v4.349H11.933v5.9h11.472v4.315H11.933v9.488H7.318zm21.559-1.68a2.7 2.7 0 0 1-.033 5.4 2.552 2.552 0 0 1-2.67-2.636 2.668 2.668 0 0 1 2.703-2.764zm-2.277 7.939h4.549v17.789H26.6zm17.735 4.941a3.681 3.681 0 0 0-2.209-.79c-1.846 0-2.9 1.186-2.9 3.788v9.85h-4.515v-17.789h4.319v2.57a4.241 4.241 0 0 1 4.252-2.735 5.4 5.4 0 0 1 3.033.923zm1.879 4.052a9.1 9.1 0 0 1 9.164-9.355 8.757 8.757 0 0 1 9.131 9.059v1.877H50.666a4.659 4.659 0 0 0 4.911 3.723A4.771 4.771 0 0 0 60 162.51l3.79 2.273A9.348 9.348 0 0 1 55.446 169c-5.769 0-9.23-3.854-9.23-9.158zm4.516-2.009h9.361a4.484 4.484 0 0 0-4.746-3.525 4.572 4.572 0 0 0-4.613 3.525zm14.9-6.984h3.2v-.889c0-4.843 2.044-6.852 6.527-6.852h1.582v3.92h-1.287c-2.109 0-2.571.725-2.571 2.932v.889h3.857v4.085H73.18v13.7h-4.351v-13.7h-3.2zm12.17 8.894a9.11 9.11 0 0 1 9.3-9.256 9.257 9.257 0 1 1 0 18.513 8.976 8.976 0 0 1-9.3-9.257zm14.175 0a4.882 4.882 0 1 0-4.879 5.04 4.884 4.884 0 0 0 4.874-5.04zm10.548-.2l-6.428-8.7h5.34l3.791 5.468 3.89-5.468h5.241l-6.527 8.664 6.857 9.125h-5.308l-4.252-5.8-4.12 5.8h-5.313z" fill="#fff"/><path d="M108.916 23.578a59.761 59.761 0 0 0-5.223-5.973 47.222 47.222 0 0 0-4.765-4.389A37.148 37.148 0 0 1 101.7 15.9a33.685 33.685 0 0 1 7.322 12.216c3.134 9.495 2.93 21.376-3.053 30.708-7.129 11.12-18.736 16.609-31.282 16.342a27.19 27.19 0 0 1-1.636-.041c-22.523-1.356-28.2-24.452-16.484-34.43-3.159-.681-9.1.652-13.23 6.832-3.709 5.546-3.5 14.115-1.211 20.191a32.5 32.5 0 0 1-2.945-9.5C36.217 38.193 49.665 21.116 62 16.888c-6.654-5.811-23.323-5.417-35.729 3.71a41.768 41.768 0 0 0-15.131 21.9 57.785 57.785 0 0 1 6.238-20.329c-4.152 2.149-9.441 8.947-12.052 15.244a62.038 62.038 0 0 0-3.9 30.262c.09.777.171 1.553.273 2.324a60.093 60.093 0 1 0 107.217-46.421z" fill="url(#m)"/></svg>
