<svg xmlns="http://www.w3.org/2000/svg" xmlns:xlink="http://www.w3.org/1999/xlink" width="420" height="80" viewBox="0 0 420 80"><defs><linearGradient id="a" x1="54.419" y1="9.758" x2="16.72" y2="75.055" gradientUnits="userSpaceOnUse"><stop offset="0" stop-color="#ff9640"/><stop offset=".6" stop-color="#fc4055"/><stop offset="1" stop-color="#e31587"/></linearGradient><linearGradient id="b" x1="54.419" y1="9.758" x2="16.72" y2="75.055" gradientUnits="userSpaceOnUse"><stop offset="0" stop-color="#fff36e" stop-opacity=".8"/><stop offset=".094" stop-color="#fff36e" stop-opacity=".699"/><stop offset=".752" stop-color="#fff36e" stop-opacity="0"/></linearGradient><linearGradient id="c" x1="35.583" y1="53.055" x2="67.226" y2="21.412" gradientUnits="userSpaceOnUse"><stop offset="0" stop-color="#0090ed"/><stop offset=".325" stop-color="#5b6df8"/><stop offset=".529" stop-color="#9059ff"/><stop offset="1" stop-color="#b833e1"/></linearGradient><linearGradient id="d" x1="46.271" y1="56.809" x2="51.587" y2="63.145" gradientUnits="userSpaceOnUse"><stop offset="0" stop-color="#960e18" stop-opacity=".6"/><stop offset=".192" stop-color="#ac1624" stop-opacity=".476"/><stop offset=".579" stop-color="#e42c41" stop-opacity=".156"/><stop offset=".75" stop-color="#ff3750" stop-opacity="0"/></linearGradient><linearGradient id="e" x1="60.476" y1="70.615" x2="74.703" y2="33.486" gradientUnits="userSpaceOnUse"><stop offset="0" stop-color="#054096" stop-opacity=".5"/><stop offset=".054" stop-color="#0f3d9c" stop-opacity=".441"/><stop offset=".261" stop-color="#2f35b1" stop-opacity=".249"/><stop offset=".466" stop-color="#462fbf" stop-opacity=".111"/><stop offset=".669" stop-color="#542bc8" stop-opacity=".028"/><stop offset=".864" stop-color="#592acb" stop-opacity="0"/></linearGradient><linearGradient id="f" x1="41.912" y1="5.95" x2="74.239" y2="33.449" gradientUnits="userSpaceOnUse"><stop offset="0" stop-color="#722291" stop-opacity=".5"/><stop offset=".5" stop-color="#722291" stop-opacity="0"/></linearGradient><symbol id="g" data-name="Icon 80 (Full Color)" viewBox="0 0 74 79.866"><path d="M69.363 16.646l-28-15.518a9 9 0 0 0-8.726 0l-28 15.518A9 9 0 0 0 0 24.518v30.83a9 9 0 0 0 4.309 7.681l26.606 16.248a4 4 0 0 0 5.617-1.536 4.132 4.132 0 0 0-1.614-5.394L9.436 56.786A3 3 0 0 1 8 54.226V25.7a3 3 0 0 1 1.546-2.624l26-14.41a3 3 0 0 1 2.908 0l26 14.41A3 3 0 0 1 66 25.7v28.513a3 3 0 0 1-1.444 2.565l-9.233 5.6-4.278-6.948a21.106 21.106 0 1 0-6.845 4.135l6.4 10.394a4 4 0 0 0 5.482 1.324l13.594-8.25A9 9 0 0 0 74 55.339V24.518a9 9 0 0 0-4.637-7.872zM24 39.863a13 13 0 1 1 13 13 13.015 13.015 0 0 1-13-13z" fill="url(#a)"/><path d="M69.363 16.646l-28-15.518a9 9 0 0 0-8.726 0l-28 15.518A9 9 0 0 0 0 24.518v30.83a9 9 0 0 0 4.309 7.681l26.606 16.248a4 4 0 0 0 5.617-1.536 4.132 4.132 0 0 0-1.614-5.394L9.436 56.786A3 3 0 0 1 8 54.226V25.7a3 3 0 0 1 1.546-2.624l26-14.41a3 3 0 0 1 2.908 0l26 14.41A3 3 0 0 1 66 25.7v28.513a3 3 0 0 1-1.444 2.565l-9.233 5.6-4.278-6.948a21.106 21.106 0 1 0-6.845 4.135l6.4 10.394a4 4 0 0 0 5.482 1.324l13.594-8.25A9 9 0 0 0 74 55.339V24.518a9 9 0 0 0-4.637-7.872zM24 39.863a13 13 0 1 1 13 13 13.015 13.015 0 0 1-13-13z" fill="url(#b)"/><path d="M40.868 5.673a8.875 8.875 0 0 1 8.651-.024l.8.443 19.044 10.554A9 9 0 0 1 74 24.518v30.821a9 9 0 0 1-4.331 7.694l-5.161 3.132a5.863 5.863 0 0 1-8.018-1.912l-1.167-1.872 9.233-5.6A3 3 0 0 0 66 54.213V25.7a3 3 0 0 0-1.546-2.624l-26-14.41a3 3 0 0 0-2.908 0z" fill="url(#c)"/><path d="M48.447 66.471L44.2 59.565a20.985 20.985 0 0 0 6.848-4.135l4.278 6.951z" opacity=".9" fill="url(#d)"/><path d="M66 54.213a3 3 0 0 1-1.444 2.565l-9.233 5.6 1.167 1.872a5.863 5.863 0 0 0 8.018 1.912l5.161-3.132A9 9 0 0 0 74 55.339v-16.01h-8z" opacity=".9" fill="url(#e)"/><path d="M69.363 16.646L50.32 6.092l-.8-.443a8.875 8.875 0 0 0-8.651.024l-5.322 2.99a3 3 0 0 1 2.908 0l26 14.41A3 3 0 0 1 66 25.7v13.629h8V24.518a9 9 0 0 0-4.637-7.872z" fill="url(#f)"/></symbol></defs><use data-name="Icon 80 (Full Color)" width="74" height="79.866" transform="translate(3 .137)" xlink:href="#g"/><g fill="#fff"><path d="M97 24h21.419v5.79h-15.274v7.851h15.274v5.746h-15.274v12.634H97zm28.705-2.237a3.444 3.444 0 0 1 3.555 3.6 3.577 3.577 0 0 1-7.154.088 3.553 3.553 0 0 1 3.599-3.686zm-3.028 10.571h6.057v23.687h-6.057zm23.613 6.579a4.9 4.9 0 0 0-2.94-1.053c-2.458 0-3.863 1.579-3.863 5.044v13.117h-6.013V32.336h5.75v3.421a5.647 5.647 0 0 1 5.662-3.641 7.194 7.194 0 0 1 4.038 1.228zm2.5 5.4a12.121 12.121 0 0 1 12.2-12.457c7.11 0 12.158 5.044 12.158 12.062v2.5h-18.431c.659 2.983 2.985 4.957 6.54 4.957a6.354 6.354 0 0 0 5.882-3.509l5.047 3.026c-2.5 3.685-6.057 5.614-11.1 5.614-7.686-.006-12.294-5.134-12.294-12.196zm6.013-2.676h12.467c-.658-3.026-3.116-4.693-6.32-4.693a6.088 6.088 0 0 0-6.145 4.69zm19.839-9.3h4.258v-1.186c0-6.448 2.721-9.123 8.69-9.123h2.11v5.22h-1.712c-2.809 0-3.423.964-3.423 3.9v1.185h5.135v5.438h-5v18.25h-5.8V37.774h-4.258zm16.2 11.842a12.131 12.131 0 0 1 12.378-12.325 12.325 12.325 0 1 1 0 24.65 11.951 11.951 0 0 1-12.38-12.326zm18.874 0a6.5 6.5 0 1 0-12.992 0 6.5 6.5 0 1 0 12.992 0zm14.045-.263l-8.561-11.58h7.11l5.048 7.281 5.179-7.281h6.979l-8.691 11.535 9.13 12.15h-7.067l-5.662-7.72-5.486 7.72h-7.067zM273.737 39.787l-11.485-15.7h-3.681v31.929h3.637V30.077l11.484 15.4 11.885-15.747v26.286h3.591V24.084h-3.5zm32.328-7.873a12.293 12.293 0 1 0 12.461 12.292 12.212 12.212 0 0 0-12.461-12.292zm0 21.171a8.617 8.617 0 0 1-8.735-8.879 8.76 8.76 0 1 1 17.516 0 8.652 8.652 0 0 1-8.781 8.879zm28.693-21.171a9.607 9.607 0 0 0-8.337 4.418V32.4h-3.548v23.616h3.637V42.894a7.419 7.419 0 0 1 7.538-7.743c4.655 0 7.227 2.974 7.227 7.567v13.3h3.681V42.543c0-6.604-3.946-10.629-10.198-10.629zm15.433 24.1h3.681V32.4h-3.681zm1.819-33.725a2.844 2.844 0 1 0 2.882 2.843 2.792 2.792 0 0 0-2.882-2.841zM369.791 53c-2.04 0-3.459-1.181-3.459-4.2V35.588h7.006V32.4h-7.006v-7.484l-3.592 2.274v5.21h-4.656v3.193h4.656v13.3c0 5.2 2.395 7.479 6.785 7.479a7.749 7.749 0 0 0 4.921-1.662l-1.906-2.85a3.888 3.888 0 0 1-2.749 1.14zm18.137-21.084a12.293 12.293 0 1 0 12.46 12.292 12.211 12.211 0 0 0-12.46-12.294zm0 21.171a8.616 8.616 0 0 1-8.735-8.879 8.76 8.76 0 1 1 17.516 0 8.653 8.653 0 0 1-8.781 8.877zm27.14-21.039a6.624 6.624 0 0 0-6.829 4.811V32.4h-3.5v23.616h3.592V43.069c0-5.206 2.305-7.481 6.3-7.481a5.305 5.305 0 0 1 2.927.744l1.507-3.411a7.9 7.9 0 0 0-3.997-.875z"/></g></svg>