<svg xmlns="http://www.w3.org/2000/svg" xmlns:xlink="http://www.w3.org/1999/xlink" width="244" height="172" viewBox="0 0 244 172"><defs><linearGradient id="a" x1="54.419" y1="9.758" x2="16.72" y2="75.055" gradientUnits="userSpaceOnUse"><stop offset="0" stop-color="#ff9640"/><stop offset=".6" stop-color="#fc4055"/><stop offset="1" stop-color="#e31587"/></linearGradient><linearGradient id="b" x1="54.419" y1="9.758" x2="16.72" y2="75.055" gradientUnits="userSpaceOnUse"><stop offset="0" stop-color="#fff36e" stop-opacity=".8"/><stop offset=".094" stop-color="#fff36e" stop-opacity=".699"/><stop offset=".752" stop-color="#fff36e" stop-opacity="0"/></linearGradient><linearGradient id="c" x1="35.583" y1="53.055" x2="67.226" y2="21.412" gradientUnits="userSpaceOnUse"><stop offset="0" stop-color="#0090ed"/><stop offset=".325" stop-color="#5b6df8"/><stop offset=".529" stop-color="#9059ff"/><stop offset="1" stop-color="#b833e1"/></linearGradient><linearGradient id="d" x1="46.271" y1="56.809" x2="51.587" y2="63.145" gradientUnits="userSpaceOnUse"><stop offset="0" stop-color="#960e18" stop-opacity=".6"/><stop offset=".192" stop-color="#ac1624" stop-opacity=".476"/><stop offset=".579" stop-color="#e42c41" stop-opacity=".156"/><stop offset=".75" stop-color="#ff3750" stop-opacity="0"/></linearGradient><linearGradient id="e" x1="60.476" y1="70.615" x2="74.703" y2="33.486" gradientUnits="userSpaceOnUse"><stop offset="0" stop-color="#054096" stop-opacity=".5"/><stop offset=".054" stop-color="#0f3d9c" stop-opacity=".441"/><stop offset=".261" stop-color="#2f35b1" stop-opacity=".249"/><stop offset=".466" stop-color="#462fbf" stop-opacity=".111"/><stop offset=".669" stop-color="#542bc8" stop-opacity=".028"/><stop offset=".864" stop-color="#592acb" stop-opacity="0"/></linearGradient><linearGradient id="f" x1="41.912" y1="5.95" x2="74.239" y2="33.449" gradientUnits="userSpaceOnUse"><stop offset="0" stop-color="#722291" stop-opacity=".5"/><stop offset=".5" stop-color="#722291" stop-opacity="0"/></linearGradient><symbol id="g" data-name="Icon 80 (Full Color)" viewBox="0 0 74 79.866"><path d="M69.363 16.646l-28-15.518a9 9 0 0 0-8.726 0l-28 15.518A9 9 0 0 0 0 24.518v30.83a9 9 0 0 0 4.309 7.681l26.606 16.248a4 4 0 0 0 5.617-1.536 4.132 4.132 0 0 0-1.614-5.394L9.436 56.786A3 3 0 0 1 8 54.226V25.7a3 3 0 0 1 1.546-2.624l26-14.41a3 3 0 0 1 2.908 0l26 14.41A3 3 0 0 1 66 25.7v28.513a3 3 0 0 1-1.444 2.565l-9.233 5.6-4.278-6.948a21.106 21.106 0 1 0-6.845 4.135l6.4 10.394a4 4 0 0 0 5.482 1.324l13.594-8.25A9 9 0 0 0 74 55.339V24.518a9 9 0 0 0-4.637-7.872zM24 39.863a13 13 0 1 1 13 13 13.015 13.015 0 0 1-13-13z" fill="url(#a)"/><path d="M69.363 16.646l-28-15.518a9 9 0 0 0-8.726 0l-28 15.518A9 9 0 0 0 0 24.518v30.83a9 9 0 0 0 4.309 7.681l26.606 16.248a4 4 0 0 0 5.617-1.536 4.132 4.132 0 0 0-1.614-5.394L9.436 56.786A3 3 0 0 1 8 54.226V25.7a3 3 0 0 1 1.546-2.624l26-14.41a3 3 0 0 1 2.908 0l26 14.41A3 3 0 0 1 66 25.7v28.513a3 3 0 0 1-1.444 2.565l-9.233 5.6-4.278-6.948a21.106 21.106 0 1 0-6.845 4.135l6.4 10.394a4 4 0 0 0 5.482 1.324l13.594-8.25A9 9 0 0 0 74 55.339V24.518a9 9 0 0 0-4.637-7.872zM24 39.863a13 13 0 1 1 13 13 13.015 13.015 0 0 1-13-13z" fill="url(#b)"/><path d="M40.868 5.673a8.875 8.875 0 0 1 8.651-.024l.8.443 19.044 10.554A9 9 0 0 1 74 24.518v30.821a9 9 0 0 1-4.331 7.694l-5.161 3.132a5.863 5.863 0 0 1-8.018-1.912l-1.167-1.872 9.233-5.6A3 3 0 0 0 66 54.213V25.7a3 3 0 0 0-1.546-2.624l-26-14.41a3 3 0 0 0-2.908 0z" fill="url(#c)"/><path d="M48.447 66.471L44.2 59.565a20.985 20.985 0 0 0 6.848-4.135l4.278 6.951z" opacity=".9" fill="url(#d)"/><path d="M66 54.213a3 3 0 0 1-1.444 2.565l-9.233 5.6 1.167 1.872a5.863 5.863 0 0 0 8.018 1.912l5.161-3.132A9 9 0 0 0 74 55.339v-16.01h-8z" opacity=".9" fill="url(#e)"/><path d="M69.363 16.646L50.32 6.092l-.8-.443a8.875 8.875 0 0 0-8.651.024l-5.322 2.99a3 3 0 0 1 2.908 0l26 14.41A3 3 0 0 1 66 25.7v13.629h8V24.518a9 9 0 0 0-4.637-7.872z" fill="url(#f)"/></symbol></defs><use data-name="Icon 80 (Full Color)" width="74" height="79.866" transform="matrix(1.5 0 0 1.5 66.5 .205)" xlink:href="#g"/><g fill="#fff"><path d="M1.062 144.59h16.087v4.349H5.677v5.9h11.472v4.315H5.677v9.488H1.062zm21.559-1.68a2.7 2.7 0 0 1-.033 5.4 2.553 2.553 0 0 1-2.67-2.636 2.668 2.668 0 0 1 2.703-2.764zm-2.275 7.939H24.9v17.789h-4.554zm17.735 4.941a3.679 3.679 0 0 0-2.209-.79c-1.846 0-2.9 1.186-2.9 3.788v9.85h-4.517v-17.789h4.319v2.57a4.241 4.241 0 0 1 4.252-2.735 5.4 5.4 0 0 1 3.033.923zm1.879 4.052a9.1 9.1 0 0 1 9.164-9.355 8.757 8.757 0 0 1 9.131 9.059v1.877H44.41a4.659 4.659 0 0 0 4.912 3.723 4.771 4.771 0 0 0 4.417-2.636l3.79 2.273A9.347 9.347 0 0 1 49.19 169c-5.769 0-9.23-3.854-9.23-9.158zm4.516-2.009h9.362a4.486 4.486 0 0 0-4.747-3.525 4.572 4.572 0 0 0-4.615 3.525zm14.9-6.984h3.2v-.889c0-4.843 2.044-6.852 6.527-6.852h1.582v3.92H69.4c-2.11 0-2.572.725-2.572 2.932v.889h3.857v4.085h-3.761v13.7h-4.351v-13.7h-3.2zm12.164 8.894a9.11 9.11 0 0 1 9.3-9.256 9.257 9.257 0 1 1 0 18.513 8.976 8.976 0 0 1-9.301-9.257zm14.175 0a4.882 4.882 0 1 0-4.879 5.04 4.884 4.884 0 0 0 4.878-5.04zm10.548-.2l-6.428-8.7h5.34l3.791 5.468 3.89-5.468h5.244l-6.527 8.664 6.857 9.125h-5.307l-4.253-5.8-4.12 5.8h-5.311zM133.8 156.446l-8.626-11.794h-2.764v23.982h2.731v-19.481l8.625 11.563 8.926-11.826v19.744h2.7v-23.982h-2.631zm24.28-5.913a9.232 9.232 0 1 0 9.358 9.231 9.171 9.171 0 0 0-9.361-9.231zm0 15.9a6.687 6.687 0 0 1 0-13.371 6.686 6.686 0 0 1 0 13.371zm21.548-15.9a7.214 7.214 0 0 0-6.261 3.318v-2.957H170.7v17.74h2.731v-9.855a5.572 5.572 0 0 1 5.661-5.815c3.5 0 5.428 2.233 5.428 5.683v9.987h2.765v-10.119c0-4.96-2.964-7.982-7.66-7.982zm11.591 18.1h2.765v-17.74h-2.765zm1.366-25.328a2.135 2.135 0 1 0 2.165 2.135 2.1 2.1 0 0 0-2.168-2.134zm13.354 23.061c-1.532 0-2.6-.887-2.6-3.154v-9.921h5.261v-2.4h-5.261v-5.617l-2.7 1.708v3.909h-3.5v2.4h3.5v9.987c0 3.91 1.8 5.617 5.095 5.617a5.821 5.821 0 0 0 3.7-1.248L208 165.513a2.92 2.92 0 0 1-2.064.854zm13.622-15.834a9.232 9.232 0 1 0 9.358 9.231 9.171 9.171 0 0 0-9.361-9.23zm0 15.9a6.687 6.687 0 0 1 0-13.371 6.686 6.686 0 0 1 0 13.371zm20.383-15.8a4.975 4.975 0 0 0-5.129 3.614v-3.351h-2.631v17.74h2.7v-9.725c0-3.91 1.731-5.618 4.728-5.618a3.984 3.984 0 0 1 2.2.559l1.133-2.562a5.933 5.933 0 0 0-3.004-.658z"/></g></svg>