<svg xmlns="http://www.w3.org/2000/svg" xmlns:xlink="http://www.w3.org/1999/xlink" width="128" height="208" viewBox="0 0 128 208"><defs><linearGradient id="a" x1="54.419" y1="9.758" x2="16.72" y2="75.055" gradientUnits="userSpaceOnUse"><stop offset="0" stop-color="#ff9640"/><stop offset=".6" stop-color="#fc4055"/><stop offset="1" stop-color="#e31587"/></linearGradient><linearGradient id="b" x1="54.419" y1="9.758" x2="16.72" y2="75.055" gradientUnits="userSpaceOnUse"><stop offset="0" stop-color="#fff36e" stop-opacity=".8"/><stop offset=".094" stop-color="#fff36e" stop-opacity=".699"/><stop offset=".752" stop-color="#fff36e" stop-opacity="0"/></linearGradient><linearGradient id="c" x1="35.583" y1="53.055" x2="67.226" y2="21.412" gradientUnits="userSpaceOnUse"><stop offset="0" stop-color="#0090ed"/><stop offset=".325" stop-color="#5b6df8"/><stop offset=".529" stop-color="#9059ff"/><stop offset="1" stop-color="#b833e1"/></linearGradient><linearGradient id="d" x1="46.271" y1="56.809" x2="51.587" y2="63.145" gradientUnits="userSpaceOnUse"><stop offset="0" stop-color="#960e18" stop-opacity=".6"/><stop offset=".192" stop-color="#ac1624" stop-opacity=".476"/><stop offset=".579" stop-color="#e42c41" stop-opacity=".156"/><stop offset=".75" stop-color="#ff3750" stop-opacity="0"/></linearGradient><linearGradient id="e" x1="60.476" y1="70.615" x2="74.703" y2="33.486" gradientUnits="userSpaceOnUse"><stop offset="0" stop-color="#054096" stop-opacity=".5"/><stop offset=".054" stop-color="#0f3d9c" stop-opacity=".441"/><stop offset=".261" stop-color="#2f35b1" stop-opacity=".249"/><stop offset=".466" stop-color="#462fbf" stop-opacity=".111"/><stop offset=".669" stop-color="#542bc8" stop-opacity=".028"/><stop offset=".864" stop-color="#592acb" stop-opacity="0"/></linearGradient><linearGradient id="f" x1="41.912" y1="5.95" x2="74.239" y2="33.449" gradientUnits="userSpaceOnUse"><stop offset="0" stop-color="#722291" stop-opacity=".5"/><stop offset=".5" stop-color="#722291" stop-opacity="0"/></linearGradient><symbol id="g" data-name="Icon 80 (Full Color)" viewBox="0 0 74 79.866"><path d="M69.363 16.646l-28-15.518a9 9 0 0 0-8.726 0l-28 15.518A9 9 0 0 0 0 24.518v30.83a9 9 0 0 0 4.309 7.681l26.606 16.248a4 4 0 0 0 5.617-1.536 4.132 4.132 0 0 0-1.614-5.394L9.436 56.786A3 3 0 0 1 8 54.226V25.7a3 3 0 0 1 1.546-2.624l26-14.41a3 3 0 0 1 2.908 0l26 14.41A3 3 0 0 1 66 25.7v28.513a3 3 0 0 1-1.444 2.565l-9.233 5.6-4.278-6.948a21.106 21.106 0 1 0-6.845 4.135l6.4 10.394a4 4 0 0 0 5.482 1.324l13.594-8.25A9 9 0 0 0 74 55.339V24.518a9 9 0 0 0-4.637-7.872zM24 39.863a13 13 0 1 1 13 13 13.015 13.015 0 0 1-13-13z" fill="url(#a)"/><path d="M69.363 16.646l-28-15.518a9 9 0 0 0-8.726 0l-28 15.518A9 9 0 0 0 0 24.518v30.83a9 9 0 0 0 4.309 7.681l26.606 16.248a4 4 0 0 0 5.617-1.536 4.132 4.132 0 0 0-1.614-5.394L9.436 56.786A3 3 0 0 1 8 54.226V25.7a3 3 0 0 1 1.546-2.624l26-14.41a3 3 0 0 1 2.908 0l26 14.41A3 3 0 0 1 66 25.7v28.513a3 3 0 0 1-1.444 2.565l-9.233 5.6-4.278-6.948a21.106 21.106 0 1 0-6.845 4.135l6.4 10.394a4 4 0 0 0 5.482 1.324l13.594-8.25A9 9 0 0 0 74 55.339V24.518a9 9 0 0 0-4.637-7.872zM24 39.863a13 13 0 1 1 13 13 13.015 13.015 0 0 1-13-13z" fill="url(#b)"/><path d="M40.868 5.673a8.875 8.875 0 0 1 8.651-.024l.8.443 19.044 10.554A9 9 0 0 1 74 24.518v30.821a9 9 0 0 1-4.331 7.694l-5.161 3.132a5.863 5.863 0 0 1-8.018-1.912l-1.167-1.872 9.233-5.6A3 3 0 0 0 66 54.213V25.7a3 3 0 0 0-1.546-2.624l-26-14.41a3 3 0 0 0-2.908 0z" fill="url(#c)"/><path d="M48.447 66.471L44.2 59.565a20.985 20.985 0 0 0 6.848-4.135l4.278 6.951z" opacity=".9" fill="url(#d)"/><path d="M66 54.213a3 3 0 0 1-1.444 2.565l-9.233 5.6 1.167 1.872a5.863 5.863 0 0 0 8.018 1.912l5.161-3.132A9 9 0 0 0 74 55.339v-16.01h-8z" opacity=".9" fill="url(#e)"/><path d="M69.363 16.646L50.32 6.092l-.8-.443a8.875 8.875 0 0 0-8.651.024l-5.322 2.99a3 3 0 0 1 2.908 0l26 14.41A3 3 0 0 1 66 25.7v13.629h8V24.518a9 9 0 0 0-4.637-7.872z" fill="url(#f)"/></symbol></defs><use data-name="Icon 80 (Full Color)" width="74" height="79.866" transform="matrix(1.5 0 0 1.5 8.5 .205)" xlink:href="#g"/><path d="M10.308 143.978H26.4v4.35H14.924v5.9H26.4v4.316H14.924v9.49h-4.616zM31.87 142.3a2.7 2.7 0 0 1-.033 5.4 2.553 2.553 0 0 1-2.67-2.636 2.669 2.669 0 0 1 2.703-2.764zm-2.27 7.939h4.55v17.792H29.6zm17.738 4.942a3.677 3.677 0 0 0-2.209-.791c-1.846 0-2.9 1.186-2.9 3.789v9.852h-4.523v-17.792h4.319v2.57a4.242 4.242 0 0 1 4.253-2.735 5.4 5.4 0 0 1 3.034.922zm1.88 4.052a9.1 9.1 0 0 1 9.166-9.357 8.758 8.758 0 0 1 9.132 9.061v1.878H53.664a4.66 4.66 0 0 0 4.912 3.723 4.771 4.771 0 0 0 4.418-2.636l3.792 2.274a9.354 9.354 0 0 1-8.342 4.217c-5.769 0-9.231-3.855-9.231-9.16zm4.517-2.009h9.363a4.485 4.485 0 0 0-4.747-3.526 4.573 4.573 0 0 0-4.621 3.526zm14.9-6.985h3.2v-.89c0-4.843 2.045-6.853 6.529-6.853h1.582v3.921h-1.291c-2.11 0-2.571.724-2.571 2.932v.89h3.857v4.085h-3.758v13.707H71.83v-13.707h-3.2zm12.166 8.9a9.113 9.113 0 0 1 9.3-9.259 9.259 9.259 0 1 1 0 18.517 8.978 8.978 0 0 1-9.301-9.262zm14.178 0a4.883 4.883 0 1 0-4.88 5.041 4.885 4.885 0 0 0 4.877-5.045zm10.55-.2l-6.429-8.7h5.341l3.792 5.469 3.89-5.469h5.243l-6.529 8.665 6.858 9.127h-5.308l-4.253-5.8-4.121 5.8H98.7zM14.9 191.787L6.238 179.94H3.461v24.09h2.744v-19.569l8.664 11.616 8.966-11.88v19.833h2.71v-24.09H23.9zm24.39-5.94a9.274 9.274 0 1 0 9.4 9.274 9.213 9.213 0 0 0-9.397-9.274zm0 15.972a6.717 6.717 0 0 1 0-13.431 6.716 6.716 0 0 1 0 13.431zm21.646-15.972a7.246 7.246 0 0 0-6.289 3.333v-2.97h-2.674v17.82h2.744v-9.9a5.6 5.6 0 0 1 5.687-5.842c3.512 0 5.452 2.244 5.452 5.709v10.033h2.777v-10.164c0-4.982-2.977-8.019-7.694-8.019zm11.647 18.183h2.777v-17.82h-2.777zm1.372-25.443a2.145 2.145 0 1 0 2.174 2.145 2.106 2.106 0 0 0-2.174-2.145zm13.414 23.166c-1.538 0-2.609-.891-2.609-3.168v-9.966h5.285v-2.409H84.76v-5.643l-2.71 1.716v3.927h-3.512v2.409h3.512v10.032c0 3.928 1.807 5.643 5.119 5.643a5.849 5.849 0 0 0 3.713-1.254l-1.439-2.14a2.928 2.928 0 0 1-2.074.853zm13.684-15.906a9.274 9.274 0 1 0 9.4 9.274 9.213 9.213 0 0 0-9.4-9.274zm0 15.972a6.717 6.717 0 0 1 0-13.431 6.716 6.716 0 0 1 0 13.431zm20.475-15.873a5 5 0 0 0-5.152 3.63v-3.366h-2.643v17.82h2.71v-9.768c0-3.927 1.739-5.643 4.75-5.643a4 4 0 0 1 2.208.561l1.138-2.573a5.959 5.959 0 0 0-3.011-.661z" fill="#fff"/></svg>