<svg xmlns="http://www.w3.org/2000/svg" width="80" height="80" viewBox="0 0 80 80"><path d="M72.363 16.783l-28-15.518a9 9 0 0 0-8.726 0l-28 15.518A9 9 0 0 0 3 24.655v30.83a9 9 0 0 0 4.309 7.681l26.606 16.248a4 4 0 0 0 5.617-1.536 4.132 4.132 0 0 0-1.614-5.394L12.436 56.923A3 3 0 0 1 11 54.363V25.834a3 3 0 0 1 1.546-2.624l26-14.41a3 3 0 0 1 2.908 0l26 14.41A3 3 0 0 1 69 25.834V54.35a3 3 0 0 1-1.444 2.565l-9.233 5.6-4.278-6.951A21.106 21.106 0 1 0 47.2 59.7l6.4 10.394a4 4 0 0 0 5.482 1.323l13.587-8.247A9 9 0 0 0 77 55.476V24.655a9 9 0 0 0-4.637-7.872zM27 40a13 13 0 1 1 13 13 13.015 13.015 0 0 1-13-13z" fill="#fff" data-name="Icon 80 (One Color)"/></svg>