<svg xmlns="http://www.w3.org/2000/svg" xmlns:xlink="http://www.w3.org/1999/xlink" width="220" height="80" viewBox="0 0 220 80"><defs><linearGradient id="a" x1="54.419" y1="9.758" x2="16.72" y2="75.055" gradientUnits="userSpaceOnUse"><stop offset="0" stop-color="#ff9640"/><stop offset=".6" stop-color="#fc4055"/><stop offset="1" stop-color="#e31587"/></linearGradient><linearGradient id="b" x1="54.419" y1="9.758" x2="16.72" y2="75.055" gradientUnits="userSpaceOnUse"><stop offset="0" stop-color="#fff36e" stop-opacity=".8"/><stop offset=".094" stop-color="#fff36e" stop-opacity=".699"/><stop offset=".752" stop-color="#fff36e" stop-opacity="0"/></linearGradient><linearGradient id="c" x1="35.583" y1="53.055" x2="67.226" y2="21.412" gradientUnits="userSpaceOnUse"><stop offset="0" stop-color="#0090ed"/><stop offset=".325" stop-color="#5b6df8"/><stop offset=".529" stop-color="#9059ff"/><stop offset="1" stop-color="#b833e1"/></linearGradient><linearGradient id="d" x1="46.271" y1="56.809" x2="51.587" y2="63.145" gradientUnits="userSpaceOnUse"><stop offset="0" stop-color="#960e18" stop-opacity=".6"/><stop offset=".192" stop-color="#ac1624" stop-opacity=".476"/><stop offset=".579" stop-color="#e42c41" stop-opacity=".156"/><stop offset=".75" stop-color="#ff3750" stop-opacity="0"/></linearGradient><linearGradient id="e" x1="60.476" y1="70.615" x2="74.703" y2="33.486" gradientUnits="userSpaceOnUse"><stop offset="0" stop-color="#054096" stop-opacity=".5"/><stop offset=".054" stop-color="#0f3d9c" stop-opacity=".441"/><stop offset=".261" stop-color="#2f35b1" stop-opacity=".249"/><stop offset=".466" stop-color="#462fbf" stop-opacity=".111"/><stop offset=".669" stop-color="#542bc8" stop-opacity=".028"/><stop offset=".864" stop-color="#592acb" stop-opacity="0"/></linearGradient><linearGradient id="f" x1="41.912" y1="5.95" x2="74.239" y2="33.449" gradientUnits="userSpaceOnUse"><stop offset="0" stop-color="#722291" stop-opacity=".5"/><stop offset=".5" stop-color="#722291" stop-opacity="0"/></linearGradient><symbol id="g" data-name="Icon 80 (Full Color)" viewBox="0 0 74 79.866"><path d="M69.363 16.646l-28-15.518a9 9 0 0 0-8.726 0l-28 15.518A9 9 0 0 0 0 24.518v30.83a9 9 0 0 0 4.309 7.681l26.606 16.248a4 4 0 0 0 5.617-1.536 4.132 4.132 0 0 0-1.614-5.394L9.436 56.786A3 3 0 0 1 8 54.226V25.7a3 3 0 0 1 1.546-2.624l26-14.41a3 3 0 0 1 2.908 0l26 14.41A3 3 0 0 1 66 25.7v28.513a3 3 0 0 1-1.444 2.565l-9.233 5.6-4.278-6.948a21.106 21.106 0 1 0-6.845 4.135l6.4 10.394a4 4 0 0 0 5.482 1.324l13.594-8.25A9 9 0 0 0 74 55.339V24.518a9 9 0 0 0-4.637-7.872zM24 39.863a13 13 0 1 1 13 13 13.015 13.015 0 0 1-13-13z" fill="url(#a)"/><path d="M69.363 16.646l-28-15.518a9 9 0 0 0-8.726 0l-28 15.518A9 9 0 0 0 0 24.518v30.83a9 9 0 0 0 4.309 7.681l26.606 16.248a4 4 0 0 0 5.617-1.536 4.132 4.132 0 0 0-1.614-5.394L9.436 56.786A3 3 0 0 1 8 54.226V25.7a3 3 0 0 1 1.546-2.624l26-14.41a3 3 0 0 1 2.908 0l26 14.41A3 3 0 0 1 66 25.7v28.513a3 3 0 0 1-1.444 2.565l-9.233 5.6-4.278-6.948a21.106 21.106 0 1 0-6.845 4.135l6.4 10.394a4 4 0 0 0 5.482 1.324l13.594-8.25A9 9 0 0 0 74 55.339V24.518a9 9 0 0 0-4.637-7.872zM24 39.863a13 13 0 1 1 13 13 13.015 13.015 0 0 1-13-13z" fill="url(#b)"/><path d="M40.868 5.673a8.875 8.875 0 0 1 8.651-.024l.8.443 19.044 10.554A9 9 0 0 1 74 24.518v30.821a9 9 0 0 1-4.331 7.694l-5.161 3.132a5.863 5.863 0 0 1-8.018-1.912l-1.167-1.872 9.233-5.6A3 3 0 0 0 66 54.213V25.7a3 3 0 0 0-1.546-2.624l-26-14.41a3 3 0 0 0-2.908 0z" fill="url(#c)"/><path d="M48.447 66.471L44.2 59.565a20.985 20.985 0 0 0 6.848-4.135l4.278 6.951z" opacity=".9" fill="url(#d)"/><path d="M66 54.213a3 3 0 0 1-1.444 2.565l-9.233 5.6 1.167 1.872a5.863 5.863 0 0 0 8.018 1.912l5.161-3.132A9 9 0 0 0 74 55.339v-16.01h-8z" opacity=".9" fill="url(#e)"/><path d="M69.363 16.646L50.32 6.092l-.8-.443a8.875 8.875 0 0 0-8.651.024l-5.322 2.99a3 3 0 0 1 2.908 0l26 14.41A3 3 0 0 1 66 25.7v13.629h8V24.518a9 9 0 0 0-4.637-7.872z" fill="url(#f)"/></symbol></defs><use data-name="Icon 80 (Full Color)" width="74" height="79.866" transform="translate(3 .137)" xlink:href="#g"/><path d="M96 11.978h16.09v4.35h-11.474v5.9h11.474v4.316h-11.474v9.49H96zm21.563-1.68a2.588 2.588 0 0 1 2.67 2.7 2.687 2.687 0 0 1-5.374.066 2.669 2.669 0 0 1 2.704-2.764zm-2.275 7.941h4.55v17.792h-4.55zm17.738 4.942a3.682 3.682 0 0 0-2.209-.791c-1.847 0-2.9 1.186-2.9 3.789v9.852H123.4V18.239h4.319v2.57a4.244 4.244 0 0 1 4.254-2.735A5.4 5.4 0 0 1 135 19zm1.879 4.052a9.1 9.1 0 0 1 9.166-9.357 8.759 8.759 0 0 1 9.133 9.061v1.878h-13.848a4.661 4.661 0 0 0 4.913 3.723 4.772 4.772 0 0 0 4.418-2.636l3.791 2.274a9.354 9.354 0 0 1-8.341 4.217c-5.77 0-9.232-3.855-9.232-9.16zm4.517-2.009h9.364a4.486 4.486 0 0 0-4.748-3.526 4.573 4.573 0 0 0-4.616 3.526zm14.9-6.985h3.2v-.89c0-4.843 2.044-6.853 6.528-6.853h1.582v3.921h-1.285c-2.111 0-2.572.724-2.572 2.932v.89h3.857v4.085h-3.758v13.707h-4.352V22.324h-3.2zm12.166 8.9a9.113 9.113 0 0 1 9.3-9.259 9.259 9.259 0 1 1 0 18.517 8.977 8.977 0 0 1-9.297-9.262zm14.177 0a4.882 4.882 0 1 0-9.759 0 4.882 4.882 0 1 0 9.759 0zm10.55-.2l-6.429-8.7h5.341l3.792 5.469 3.89-5.469h5.243l-6.525 8.661 6.857 9.127h-5.308l-4.253-5.8-4.121 5.8h-5.308z" fill="#fff" data-name="Wordmark - Firefox"/><path d="M107.441 55.787L98.777 43.94H96v24.09h2.744V48.461l8.664 11.616 8.966-11.88V68.03h2.709V43.94h-2.642zm24.39-5.94a9.274 9.274 0 1 0 9.4 9.274 9.213 9.213 0 0 0-9.4-9.274zm0 15.972a6.717 6.717 0 0 1 0-13.431 6.716 6.716 0 0 1 0 13.431zm21.647-15.972a7.245 7.245 0 0 0-6.289 3.333v-2.97h-2.677v17.82h2.743v-9.9a5.6 5.6 0 0 1 5.687-5.842c3.513 0 5.453 2.244 5.453 5.709V68.03h2.777V57.866c0-4.982-2.972-8.019-7.694-8.019zm11.643 18.183h2.779V50.21h-2.777zm1.372-25.443a2.145 2.145 0 1 0 2.175 2.145 2.106 2.106 0 0 0-2.175-2.145zm13.415 23.166c-1.539 0-2.609-.891-2.609-3.168v-9.966h5.285V50.21H177.3v-5.643l-2.71 1.716v3.927h-3.513v2.409h3.513v10.032c0 3.928 1.807 5.643 5.118 5.643a5.849 5.849 0 0 0 3.713-1.254l-1.439-2.14a2.928 2.928 0 0 1-2.074.853zm13.683-15.906a9.274 9.274 0 1 0 9.4 9.274 9.213 9.213 0 0 0-9.4-9.274zm0 15.972a6.717 6.717 0 0 1 0-13.431 6.716 6.716 0 0 1 0 13.431zm20.476-15.873a5 5 0 0 0-5.152 3.63V50.21h-2.643v17.82h2.71v-9.768c0-3.927 1.739-5.643 4.75-5.643a4.009 4.009 0 0 1 2.208.561l1.137-2.573a5.955 5.955 0 0 0-3.01-.661z" fill="#fff"/></svg>