<svg width="16" height="16" viewBox="0 0 16 16" xmlns="http://www.w3.org/2000/svg"><path d="M5.864 4.856zm-1.881-.934zm11.25 1.44c-.341-.811-1.027-1.685-1.568-1.961a7.97 7.97 0 0 1 .792 2.351l.001.014c-.883-2.184-2.381-3.064-3.602-4.982a18.186 18.186 0 0 1-.184-.296 2.77 2.77 0 0 1-.087-.16 1.428 1.428 0 0 1-.117-.307c0-.012-.007-.02-.016-.02-.006-.002-.012-.002-.016 0a.008.008 0 0 0-.004.002c-.001 0-.003.003-.005.003l.003-.005C8.693 1.008 7.973 2.778 7.787 3.902a4.118 4.118 0 0 0-1.544.392.198.198 0 0 0-.031.343.197.197 0 0 0 .196.016c.426-.198.88-.316 1.347-.35l.047-.002a3.832 3.832 0 0 1 1.313.149l.063.017c.061.02.121.039.182.061l.127.05c.035.013.07.029.106.043.053.024.107.049.159.075.024.012.048.022.073.036.05.028.101.053.149.082l.097.058a3.956 3.956 0 0 1 1.365 1.401 2.7 2.7 0 0 0-1.881-.452c2.809 1.392 2.055 6.191-1.836 6.009a3.488 3.488 0 0 1-1.017-.193 6.116 6.116 0 0 1-.229-.093c-.043-.021-.089-.04-.131-.062-.955-.491-1.742-1.415-1.84-2.537 0 0 .361-1.333 2.582-1.333.238 0 .925-.665.938-.856-.002-.064-1.361-.602-1.892-1.118a12.124 12.124 0 0 0-.535-.513c-.065-.051-.131-.103-.204-.149a3.605 3.605 0 0 1-.021-1.895 5.755 5.755 0 0 0-1.877 1.442h-.007c-.31-.389-.289-1.675-.269-1.941a1.3 1.3 0 0 0-.261.138c-.272.192-.53.408-.764.648-.267.27-.512.559-.731.869v.001-.001A6.517 6.517 0 0 0 .415 6.584a9.6 9.6 0 0 0-.127.715c-.008.059-.018.12-.025.181a4.2 4.2 0 0 0-.045.444c0 .008 0 .017-.004.024L.2 8.206v.039c.055 6.015 6.6 9.715 11.781 6.661a7.805 7.805 0 0 0 3.72-5.352c.015-.098.026-.198.037-.299a7.928 7.928 0 0 0-.507-3.893zM9.901 7.688z" fill="#fff"/></svg>