<svg xmlns="http://www.w3.org/2000/svg" xmlns:xlink="http://www.w3.org/1999/xlink" width="254" height="192" viewBox="0 0 254 192"><defs><linearGradient id="g" x1="142.94" y1="-8.016" x2="175.45" y2="89.826" gradientUnits="userSpaceOnUse"><stop offset="0" stop-color="#aaf2ff"/><stop offset=".035" stop-color="#9ef1ff"/><stop offset=".098" stop-color="#7eedff"/><stop offset=".183" stop-color="#4be6ff"/><stop offset=".284" stop-color="#04deff"/><stop offset=".29" stop-color="#0df"/><stop offset=".609" stop-color="#0090ed"/><stop offset=".894" stop-color="#0250bb"/></linearGradient><linearGradient id="h" x1="129.71" y1="-.11" x2="149.18" y2="58.484" gradientUnits="userSpaceOnUse"><stop offset="0" stop-color="#aaf2ff"/><stop offset=".035" stop-color="#9ef1ff"/><stop offset=".098" stop-color="#7eedff"/><stop offset=".183" stop-color="#4be6ff"/><stop offset=".284" stop-color="#04deff"/><stop offset=".29" stop-color="#0df"/><stop offset=".74" stop-color="#0090ed"/><stop offset="1" stop-color="#0250bb"/></linearGradient><linearGradient id="l" x1="172.028" y1="18.078" x2="89.876" y2="100.23" gradientUnits="userSpaceOnUse"><stop offset=".239" stop-color="#80ebff" stop-opacity=".5"/><stop offset=".261" stop-color="#76eaff" stop-opacity=".459"/><stop offset=".359" stop-color="#4ce5ff" stop-opacity=".295"/><stop offset=".455" stop-color="#2be2ff" stop-opacity=".167"/><stop offset=".546" stop-color="#13dfff" stop-opacity=".075"/><stop offset=".631" stop-color="#05deff" stop-opacity=".019"/><stop offset=".704" stop-color="#0df" stop-opacity="0"/></linearGradient><linearGradient id="m" x1="116.841" y1="46.232" x2="105.851" y2="91.266" gradientUnits="userSpaceOnUse"><stop offset="0" stop-color="#bff3ff" stop-opacity=".9"/><stop offset="1" stop-color="#80ebff" stop-opacity=".5"/></linearGradient><linearGradient id="a" x1="160.296" y1="-1.542" x2="153.495" y2="133.991" gradientUnits="userSpaceOnUse"><stop offset="0" stop-color="#bff3ff"/><stop offset="1" stop-color="#0df" stop-opacity="0"/></linearGradient><linearGradient id="n" x1="136.069" y1="-1.178" x2="133.884" y2="42.37" gradientUnits="userSpaceOnUse"><stop offset="0" stop-color="#bff3ff"/><stop offset="1" stop-color="#aaf2ff" stop-opacity=".5"/></linearGradient><linearGradient id="o" x1="145.697" y1="42.546" x2="142.413" y2="107.981" xlink:href="#a"/><linearGradient id="p" x1="104.634" y1="41.214" x2="108.427" y2="101.514" gradientUnits="userSpaceOnUse"><stop offset="0" stop-color="#bff3ff" stop-opacity=".8"/><stop offset=".999" stop-color="#80ebff" stop-opacity=".2"/></linearGradient><linearGradient id="q" x1="110.642" y1="19.807" x2="96.979" y2="41.3" gradientUnits="userSpaceOnUse"><stop offset="0" stop-color="#bff3ff" stop-opacity=".8"/><stop offset="1" stop-color="#80ebff" stop-opacity=".2"/></linearGradient><linearGradient id="r" x1="90.108" y1="55.364" x2="85.903" y2="139.166" gradientUnits="userSpaceOnUse"><stop offset="0" stop-color="#0df" stop-opacity=".4"/><stop offset="1" stop-color="#0df" stop-opacity="0"/></linearGradient><linearGradient id="s" x1="97.132" y1="8.292" x2="97.906" y2="107.992" xlink:href="#a"/><linearGradient id="t" x1="154.933" y1="22.489" x2="148.056" y2="159.552" gradientUnits="userSpaceOnUse"><stop offset="0" stop-color="#bff3ff" stop-opacity=".8"/><stop offset="1" stop-color="#0df" stop-opacity="0"/></linearGradient><linearGradient id="u" x1="94.919" y1="172.614" x2="-1.171" y2="191.496" gradientUnits="userSpaceOnUse"><stop offset="0" stop-color="#80ebff"/><stop offset=".034" stop-color="#72e9ff"/><stop offset=".237" stop-color="#20e1ff"/><stop offset=".33" stop-color="#0df"/><stop offset=".402" stop-color="#00d3fc"/><stop offset=".66" stop-color="#00b3f4"/><stop offset="1" stop-color="#00b3f4"/></linearGradient><radialGradient id="b" cx="-8966.644" cy="-8599.623" fy="-8615.089" r="18.928" gradientTransform="matrix(1.5 0 0 1.5 13577.168 12960)" gradientUnits="userSpaceOnUse"><stop offset="0" stop-color="#0df" stop-opacity=".4"/><stop offset="1" stop-color="#7542e5" stop-opacity=".15"/></radialGradient><radialGradient id="c" cx="-8966.931" cy="-8598.621" r="19.233" gradientTransform="matrix(1.5 0 0 1.5 13577.168 12960)" gradientUnits="userSpaceOnUse"><stop offset=".915" stop-color="#7542e5" stop-opacity="0"/><stop offset=".929" stop-color="#6a51e7" stop-opacity=".037"/><stop offset=".953" stop-color="#4c78ee" stop-opacity=".139"/><stop offset=".984" stop-color="#1db7f9" stop-opacity=".302"/><stop offset="1" stop-color="#0df" stop-opacity=".4"/></radialGradient><radialGradient id="d" cx="-8929.326" cy="-8631.119" r="80.795" gradientTransform="matrix(1.502 0 0 1.5 13578.529 12960)" gradientUnits="userSpaceOnUse"><stop offset="0" stop-color="#80ebff"/><stop offset=".082" stop-color="#4de5ff"/><stop offset=".161" stop-color="#23e1ff"/><stop offset=".222" stop-color="#09deff"/><stop offset=".259" stop-color="#0df"/><stop offset=".26" stop-color="#00dcff"/><stop offset=".38" stop-color="#00b3f5"/><stop offset=".473" stop-color="#0099ef"/><stop offset=".53" stop-color="#0090ed"/><stop offset=".86" stop-color="#0060df"/></radialGradient><radialGradient id="e" cx="-8958.85" cy="-8598.088" r="80.795" gradientTransform="matrix(1.502 0 0 1.5 13578.529 12960)" gradientUnits="userSpaceOnUse"><stop offset=".3" stop-color="#321c64" stop-opacity=".8"/><stop offset=".371" stop-color="#212f83" stop-opacity=".511"/><stop offset=".475" stop-color="#0a47ac" stop-opacity=".141"/><stop offset=".53" stop-color="#0250bb" stop-opacity="0"/></radialGradient><radialGradient id="f" cx="-8938.116" cy="-8651.979" r="118.079" gradientTransform="matrix(1.502 0 0 1.5 13578.529 12960)" gradientUnits="userSpaceOnUse"><stop offset="0" stop-color="#80ebff"/><stop offset=".008" stop-color="#76e7fe"/><stop offset=".035" stop-color="#57d9fb"/><stop offset=".067" stop-color="#3bcdf9"/><stop offset=".103" stop-color="#25c3f7"/><stop offset=".144" stop-color="#14bcf6"/><stop offset=".196" stop-color="#09b7f5"/><stop offset=".268" stop-color="#02b4f4"/><stop offset=".469" stop-color="#00b3f4"/><stop offset=".687" stop-color="#0080e7"/><stop offset=".844" stop-color="#0060df"/><stop offset=".995" stop-color="#592acb"/></radialGradient><radialGradient id="i" cx="-8959.87" cy="-8634.425" r="27.676" gradientTransform="matrix(1.502 0 0 1.5 13578.529 12960)" gradientUnits="userSpaceOnUse"><stop offset="0" stop-color="#0df"/><stop offset=".156" stop-color="#00d6fd"/><stop offset=".382" stop-color="#00c3f9"/><stop offset=".648" stop-color="#00a4f2"/><stop offset=".792" stop-color="#0090ed"/></radialGradient><radialGradient id="j" cx="-8941.062" cy="-8619.86" r="80.684" gradientTransform="matrix(1.502 0 0 1.5 13578.529 12960)" gradientUnits="userSpaceOnUse"><stop offset=".286" stop-color="#80ebff"/><stop offset="1" stop-color="#00b3f4"/></radialGradient><radialGradient id="k" cx="-8960.522" cy="-8624.175" r="73.718" gradientTransform="matrix(1.502 0 0 1.5 13578.529 12960)" gradientUnits="userSpaceOnUse"><stop offset=".181" stop-color="#aaf2ff"/><stop offset=".427" stop-color="#0df"/><stop offset=".448" stop-color="#00d2fc"/><stop offset=".613" stop-color="#0080e7"/><stop offset=".689" stop-color="#0060df"/></radialGradient></defs><path fill="#09204d" d="M100.541 69.943l3.663 10.156 5.504 7.427 12.921 2.465 6.182.525 10.553-2.636 4.547-4.359-43.37-13.578z"/><path fill="#09204d" d="M155.226 54.962l-1.293-4.292-3.699-6.982-4.232-4.46-4.492-3.208-3.901-1.531-4.68-1.665-7.705-.491-4.859.877-3.965 1.219-7.035 4.118-4.397 4.906-4.054 6.585-1.595 5.605-.298 8.503 1.52 5.797 3.354 6.6 2.365 3.188 3.271 2.999 4.084 2.764 5.037 2.191 8.43.989 4.401.123 6.514-1.835 5.823-3.196 3.746-3.196 2.904-3.466 4.107-8.04.907-5.5-.258-8.602z"/><path fill="#0e56d7" d="M125.365 36.197l-3.451 3.424 5.629 2.283 4.188-5.194-6.366-.513z"/><path fill="#1053d1" d="M127.543 41.904l10.898-.331-6.71-4.863-4.188 5.194z"/><path fill="#0b4fbf" d="M137.632 36.674l-5.901.036 6.71 4.863 6.206-.405-7.015-4.494z"/><path fill="#0b48b0" d="M144.647 41.168l-3.528-4.866 4.883 2.926-1.355 1.94z"/><path fill="#0c45a7" d="M149.319 44.147l-4.672-2.979 1.355-1.94 3.317 4.919z"/><path fill="#0f46af" d="M144.647 41.168l-.781 3.333 4.273 1.708-3.492-5.041z"/><path fill="#0c47ad" d="M144.647 41.168l4.672 2.979-1.18 2.062-3.492-5.041z"/><path fill="#0e4fc3" d="M138.441 41.573l6.206-.405-.781 3.333-5.425-2.928z"/><path fill="#174dca" d="M138.441 41.573l-4.903 4.439 6.311 3.091-1.408-7.53z"/><path fill="#1650d4" d="M127.543 41.904l10.898-.331-4.903 4.439-5.995-4.108z"/><path fill="#1246b2" d="M143.866 44.501l2.967 5.756 1.306-4.048-4.273-1.708z"/><path fill="#133ea1" d="M146.833 50.257l1.306-4.048 3.109 7.396-4.415-3.348z"/><path fill="#103d98" d="M148.139 46.209l4.738 3.471-1.629 3.925-3.109-7.396z"/><path fill="#0b3785" d="M149.319 44.147l.915-.459 2.643 5.992-3.558-5.533z"/><path fill="#0b3685" d="M152.877 49.68l1.056.99-3.699-6.982 2.643 5.992z"/><path d="M152.877 49.68l-3.558-5.533-1.18 2.062zM146 39.228l3.317 4.919.915-.459z" fill="#0c3b91"/><path fill="#0b3279" d="M154.989 58.317l-1.056-7.647 1.293 4.292-.255 3.355h.018z"/><path fill="#0f388d" d="M152.877 49.68l2.112 8.637-1.056-7.647-1.056-.99z"/><path fill="#0d3481" d="M151.248 53.605l3.741 4.712-2.112-8.637-1.629 3.925z"/><path fill="#0b2e71" d="M154.971 58.317l.255-3.355.258 8.602-.495-5.247h-.018z"/><path fill="#0e2f77" d="M154.362 65.114l1.122-1.55-.495-5.247-.627 6.797z"/><path fill="#0e2969" d="M154.577 69.064l-.897.432 1.804-5.932-.907 5.5z"/><path fill="#0c2a69" d="M153.68 69.496l1.804-5.932-1.122 1.55-.682 4.382z"/><path fill="#123180" d="M154.362 65.114l.627-6.797-1.922 2.267 1.295 4.53z"/><path fill="#112b70" d="M153.68 69.496l.682-4.382-3.707 6.231 3.025-1.849z"/><path fill="#12378c" d="M151.248 53.605l3.741 4.712-1.922 2.267-1.819-6.979z"/><path fill="#122e7b" d="M154.362 65.114l-1.295-4.53-1.955 5.58 3.25-1.05z"/><path fill="#11296c" d="M150.47 77.104l3.21-7.608-3.003 5.546-.207 2.062z"/><path fill="#142a72" d="M150.677 75.042l3.003-5.546-3.025 1.849.022 3.697z"/><path d="M153.68 69.5l-3.21 7.6 4.107-8.04zm-6.114 11.07l2.9-3.466.207-2.062zm-3.746 3.2l3.746-3.2-3.959 1.821z" fill="#112768"/><path fill="#1c226a" d="M121.956 85.992l-3.785.926.116-2.641 3.669 1.715z"/><path fill="#182b7a" d="M100.914 50.038l1.043-.386-2.638 5.991 1.595-5.605z"/><path fill="#1f308d" d="M99.319 55.643l1.997-.372.641-5.619-2.638 5.991z"/><path fill="#1e2b7f" d="M99.438 62.837l-.119-7.194 1.997-.372-1.878 7.566z"/><path d="M143.866 44.5l-4.017 4.6 6.984 1.154zm-35.053-4.72l5.128-3.508-4.576 2.274z" fill="#1346b5"/><path fill="#1244ac" d="M109.365 38.547l7.035-4.118-2.459 1.844-4.576 2.274"/><path fill="#0e4ab6" d="M113.941 36.273l6.424-3.063-3.965 1.219-2.459 1.844z"/><path d="M138.441 41.573l1.408 7.53 4.017-4.6zm-20.588-5.657l5.985-2.393-3.473-.313z" fill="#0e4bba"/><path fill="#0a4ebc" d="M125.224 32.333l-4.859.877 3.472.313 1.387-1.19z"/><path fill="#0c54cc" d="M129.819 33.463l-5.982.06 1.387-1.19"/><path d="M141.119 36.3l-3.487.372 7.015 4.494zm-11.3-2.839l7.79 1.026-4.68-1.665z" fill="#0b4bb4"/><path fill="#0c3889" d="M141.119 36.302l-3.51-1.813 3.901 1.531-.391.282z"/><path d="M100.541 69.943l2.3 1.9-3.406-9zm31.785 17.9l2.024-4.767-7.378 1.982zm2.024-4.767l6.168 1.711.374-4.77z" fill="#202575"/><path fill="#1b2773" d="M143.607 82.391l-2.715-2.374 6.559-4.359-3.844 6.733z"/><path fill="#15276d" d="M147.451 75.658l-3.844 6.733 3.959-1.821 3.111-5.528-3.226.616z"/><path d="M141.51 36.02l-.391.282L146 39.228zm-3.878.654l3.487-.372-3.51-1.813z" fill="#0c409d"/><path d="M125.224 32.333l4.595 1.13 3.11-.639zm12.385 2.156l-7.79-1.026 7.813 3.211z" fill="#0b4cb7"/><path fill="#0b55ce" d="M129.819 33.463l1.912 3.247 5.901-.036-7.813-3.211z"/><path fill="#0a52c5" d="M129.819 33.463l1.912 3.247-6.366-.513 4.454-2.734z"/><path fill="#0951c4" d="M123.837 33.523l1.528 2.674 4.454-2.734-5.982.06z"/><path fill="#0b50c4" d="M117.853 35.916l5.984-2.393 1.528 2.674-7.512-.281z"/><path d="M113.941 36.273l3.912-.357 2.512-2.706zm3.912-.357l4.061 3.705 3.451-3.424z" fill="#0f4dbf"/><path fill="#1546b6" d="M117.853 35.916l-6.61 6.199 2.698-5.842 3.912-.357z"/><path fill="#1549bd" d="M111.243 42.115l4.218.702 2.392-6.901-6.61 6.199z"/><path fill="#144bc3" d="M115.461 42.817l2.392-6.901 4.061 3.705-6.453 3.196z"/><path fill="#173794" d="M104.968 43.453l.257 2.493 3.588-6.165-3.845 3.672z"/><path fill="#192f84" d="M101.957 49.652l3.011-6.199.257 2.493-3.268 3.706z"/><path fill="#1a389b" d="M105.225 45.946l3.588-6.165 2.43 2.334-6.018 3.831z"/><path fill="#1d3089" d="M105.008 51.292l.217-5.346-3.268 3.706 3.051 1.64z"/><path fill="#1e389f" d="M105.008 51.292l.217-5.346 4.241 3.444-4.458 1.902z"/><path fill="#1c40af" d="M109.466 49.39l1.777-7.275-6.018 3.831 4.241 3.444z"/><path fill="#1e41b7" d="M109.466 49.39l1.777-7.275 4.218.702-5.995 6.573z"/><path fill="#192c7d" d="M101.316 55.271l.641-5.619 3.051 1.64-3.692 3.979z"/><path d="M132.326 87.843l5.674-.881 2.521-2.175zm-33.3-23.7l.417-1.309-.119-7.194zm2.3-8.875l-1.878 7.566 3.406 9-1.672-10.424z" fill="#162467"/><path fill="#1a236a" d="M102.844 71.839l2.81.393-1.968-4.593-.842 4.2z"/><path d="M143.607 82.391l-3.089 2.4L138 86.962l5.823-3.2zm-16.526 6.283l4.4.123L138 86.962l-5.671.881zm-21.615-11.613l2.953.568-2.765-5.4z" fill="#132668"/><path d="M118.287 84.277l-5-3.849-2.078 2 6.962 4.492zm-17.746-14.334l3.354 6.6-1.051-4.7zm-1.52-5.8l1.52 5.8-1.1-7.106zm27.951 20.912l-8.685-.781 3.669 1.715-3.785.926-4.556-1.424 5.037 2.191 8.429.989 5.245-.831zm-21.318-12.823l-2.81-.393 2.622 5.222zm-4.472-10.822l1.662 10.429.842-4.2zm7.237 16.219l-2.953-.568-1.571-.518 2.365 3.188 3.271 3 4.084 2.764-2.406-3.068z" fill="#1b2268"/><path fill="#212a81" d="M101.316 55.271l3.965 6.133-.273-10.112-3.692 3.979z"/><path fill="#21267a" d="M101.182 61.41l2.504 6.229 1.595-6.235-4.099.006z"/><path fill="#262781" d="M103.686 67.639l1.595-6.235 1.982 4.927-3.577 1.308z"/><path fill="#272379" d="M105.654 72.232l7.601 4.712-5.992-10.613-1.609 5.901z"/><path d="M103.9 76.543l1.571.518-2.622-5.222zm16.791 2.711l-2.4 5.023 8.685.781zm-15.032-7.022l2.765 5.4 2.79 4.8 2.078-2-.032-3.484z" fill="#1e226d"/><path d="M140.892 80.017l-.374 4.77 3.089-2.4zm-13.292-.684l-.631 5.725 7.378-1.982-.262-6.436z" fill="#222475"/><path d="M101.182 61.41h4.1l-3.965-6.134zm32.906 15.23l.262 6.436 6.542-3.059z" fill="#23277d"/><path fill="#1e2776" d="M134.088 76.64l4.21-3.813 2.594 7.19-6.804-3.377z"/><path fill="#222b86" d="M140.892 80.017l3.183-9.639-5.777 2.449 2.594 7.19z"/><path fill="#192974" d="M147.451 75.658l-6.559 4.359 3.183-9.639 3.376 5.28z"/><path fill="#172a75" d="M150.655 71.345l-6.58-.967 3.376 5.28 3.226-.616-.022-3.697z"/><path fill="#172d7d" d="M151.112 66.164l-7.037 4.214 6.58.967 3.707-6.231-3.25 1.05z"/><path d="M101.957 49.652l3.011-6.2-4.054 6.585zm46.53 7.672l2.625 8.84 1.955-5.58z" fill="#18338a"/><path fill="#153791" d="M153.067 60.584l-1.819-6.979-2.761 3.719 4.58 3.26z"/><path fill="#1b318b" d="M144.075 70.378l7.037-4.214-6.821-3.037-.216 7.251z"/><path fill="#242d8d" d="M144.075 70.378l-6.379-6.446.602 8.895 5.777-2.449z"/><path fill="#2a2b8f" d="M134.088 76.64l-4.897-4.337 9.107.524-4.21 3.813z"/><path d="M105.654 72.232l1.609-5.9-3.577 1.308zm23.537.071l-1.588 7.03 6.485-2.693z" fill="#27267f"/><path fill="#2d2381" d="M119.054 73.741l-4.714-2.396-1.085 5.599 7.431 2.31 6.917.079-8.549-5.592z"/><path fill="#2f2485" d="M127.603 79.333l1.588-7.03-10.137 1.438 8.549 5.592z"/><path fill="#233196" d="M105.281 61.404l2.034-6.491-2.307-3.621.273 10.112z"/><path fill="#293cb7" d="M109.466 49.39l8.924-2.602-4.714 9.631-4.21-7.029z"/><path fill="#25339c" d="M144.075 70.378l-6.379-6.446 6.595-.805-.216 7.251z"/><path fill="#19348f" d="M151.112 66.164l-2.625-8.84-4.196 5.803 6.821 3.037z"/><path fill="#2a309a" d="M138.298 72.827l-7.294-7.054 6.692-1.841.602 8.895z"/><path fill="#302b96" d="M129.191 72.303l9.107.524-7.294-7.054-1.813 6.53z"/><path fill="#3630a7" d="M129.191 72.303l-4.989-4.062 6.802-2.468-1.813 6.53z"/><path d="M108.813 39.781l.552-1.234-4.4 4.906zm38.02 10.476l1.654 7.067 2.761-3.719z" fill="#173da2"/><path fill="#2a36a8" d="M109.466 49.39l4.21 7.029-6.361-1.506 2.151-5.523z"/><path fill="#312e9f" d="M107.315 54.913l6.361 1.506-4.302 6.777-2.059-8.283z"/><path fill="#184dcd" d="M118.39 46.788l3.524-7.167-6.453 3.196 2.929 3.971z"/><path fill="#272986" d="M105.281 61.404l4.093 1.792-2.111 3.135-1.982-4.927z"/><path fill="#2c2584" d="M109.374 63.196l-2.111 3.135 5.992 10.613 1.085-5.599-4.966-8.149z"/><path fill="#32268b" d="M114.34 71.345l.663-9.86-5.629 1.711 4.966 8.149z"/><path fill="#372999" d="M114.34 71.345l9.862-3.104-9.199-6.756-.663 9.86z"/><path fill="#392da5" d="M124.202 68.241l-.961-7.623-8.238.867 9.199 6.756z"/><path fill="#3338bc" d="M123.241 60.618l6.956-2.602.807 7.757-7.763-5.155z"/><path fill="#362896" d="M119.054 73.741l10.137-1.438-4.989-4.062-5.148 5.5z"/><path fill="#35268f" d="M119.054 73.741l-4.714-2.396 9.862-3.104-5.148 5.5z"/><path fill="#2648d3" d="M118.39 46.788l6.041.639-2.517-7.806-3.524 7.167z"/><path fill="#1057dc" d="M127.543 41.904l-5.629-2.283 2.517 7.806 3.112-5.523z"/><path fill="#1653da" d="M127.543 41.904l5.995 4.108-9.107 1.415 3.112-5.523z"/><path fill="#2b46d5" d="M124.431 47.427l8.933 4.738-3.167 5.851-5.766-10.589z"/><path fill="#244ad7" d="M133.364 52.165l.174-6.153-9.107 1.415 8.933 4.738z"/><path fill="#2547cf" d="M133.364 52.165l.174-6.153 6.311 3.091-6.485 3.062z"/><path fill="#333cc5" d="M124.431 47.427l5.766 10.589-10.114-5.066 4.348-5.523z"/><path fill="#3833b6" d="M123.241 60.618l6.956-2.602-10.114-5.066 3.158 7.668z"/><path fill="#2a41c6" d="M130.197 58.016l8.921-1.629-5.754-4.222-3.167 5.851z"/><path fill="#2045c1" d="M139.849 49.103l-.731 7.284-5.754-4.222 6.485-3.062z"/><path fill="#1b43b7" d="M139.849 49.103l4.21 5.718-4.941 1.566.731-7.284z"/><path fill="#1742af" d="M146.833 50.257l-6.984-1.154 4.21 5.718 2.774-4.564z"/><path d="M111.243 42.115l2.7-5.842-5.128 3.508zm35.59 8.142l-2.774 4.564 4.428 2.5z" fill="#1740a9"/><path fill="#1b3ca4" d="M144.291 63.127l4.196-5.803-4.428-2.503.232 8.306z"/><path fill="#1f3dad" d="M144.291 63.127l-.232-8.306-4.941 1.566 5.173 6.74z"/><path d="M109.466 49.389l8.924-2.6-2.929-3.971zm20.734 8.627l7.5 5.916 1.422-7.545z" fill="#2543c3"/><path fill="#2e37b2" d="M131.004 65.773l6.692-1.841-7.499-5.916.807 7.757z"/><path fill="#2d40c7" d="M118.39 46.788l1.693 6.162 4.348-5.523-6.041-.639z"/><path fill="#3537b8" d="M118.39 46.788l-4.714 9.631 6.407-3.469-1.693-6.162z"/><path fill="#3931b0" d="M120.083 52.95l-5.08 8.535 8.238-.867-3.158-7.668z"/><path d="M123.241 60.618l.961 7.623 6.8-2.468zm-8.241.867l5.08-8.535-6.407 3.469z" fill="#3735b8"/><path fill="#342892" d="M109.374 63.196l4.302-6.777 1.327 5.066-5.629 1.711z"/><path d="M113.615 85.494l4.556 1.424-6.962-4.492zm-.328-5.066l5 3.849 2.4-5.023-7.431-2.31zm13.685 4.63l.631-5.725-6.917-.079zm7.378-1.982l-2.024 4.767 8.192-3.056z" fill="#232372"/><path fill="#2a2f96" d="M105.281 61.404l2.034-6.491 2.059 8.283-4.093-1.792z"/><path d="M107.315 54.913l2.151-5.524-4.458 1.9zm31.8 1.474l-1.415 7.545 6.595-.8z" fill="#2636a5"/><path d="M155.611 63.572v-.012l-.257-8.6v-.03l-1.293-4.291v-.016l-3.7-6.981v-.018L146.1 39.14l-.008-.007h-.006l-4.491-3.206h-.01l-.009-.005-3.9-1.53h-.008l-4.696-1.692h-.031l-7.705-.49h-.036l-4.859.877h-.019l-3.961 1.218h-.009l-.01.005-7.042 4.128h-.011v.005l-4.395 4.9v.006l-4.053 6.583v.024l-1.594 5.6v.029l-.3 8.5v.04l1.519 5.794v.025l3.352 6.6.007.011 2.363 3.186.007.007.005.006 3.271 3 .008.006.006.006 4.085 2.763.009.006h.006L118.6 87.8h.026l8.43.99h.011l4.4.123a.107.107 0 0 0 .025 0h.008l6.515-1.835h.018l5.819-3.2.009-.007h.008l3.746-3.2h.005l2.905-3.465.011-.015v-.006l4.107-8.04v-.034l.906-5.5v-.013zm-46 19.059l-.847-.777 1.905 1.492zm12.363 3.229L119 84.468l7.047.634zm1.086-25.35l-7.817.823 4.82-8.1zm-2.729-7.294L129.88 58l-6.568 2.456zm2.8 7.542l.909 7.2-8.7-6.386zm.8 7.437l-9.446 2.973.636-9.443zm-.523-7.317l7.321 4.862-6.414 2.327zm.117-.228l6.569-2.457.761 7.325zm10.093-8.461l6.088-2.875-.687 6.839zm5.193 4.126l-8.369 1.529 2.971-5.49zM130.2 57.75l-5.452-10.013 8.447 4.48zm-.305-.029l-9.612-4.815 4.132-5.249zm-14.843 3.438l-1.224-4.676 5.913-3.2zm-.809 9.777l-4.672-7.666 5.3-1.609zm9.538-2.429l-4.752 5.078-4.351-2.212zm7.037-2.53l-1.695 6.1-4.664-3.8zm-.46-7.674l7.065 5.573-6.3 1.735zm.142-.212l8.461-1.546-1.351 7.155zm8.767-1.884l.679-6.763 3.909 5.31zm4.673-1.214l.216 7.745-4.824-6.285zm-10.44-3.032l.162-5.748 5.9 2.887zm-.255 0l-8.415-4.462 8.579-1.333zm-13.1.717l-1.577-5.739 5.627.6zm-.2.213l-5.969 3.232 4.391-8.972zm-5.096 8.509l-5.184 1.574 3.962-6.24zm-.939 9.485l-6.472-4.585 1.931-2.867zm.523.65l4.349 2.211-5.35 2.955zm9.781-3.121l4.671 3.8-9.492 1.347zm6.855-2.4l6.894 6.667-8.607-.494zm.183-.176l6.328-1.738.568 8.409zm7.938-9.147l4.865 6.338-6.2.757zm5-1.647l4.108 2.322-3.893 5.384zm.043-.268l2.544-4.186 1.517 6.482zm-.187-.182l-3.912-5.314 6.49 1.072zm-10.283-8.614l4.595-4.16 1.319 7.057zm-9.092 1.281l2.915-5.174 5.616 3.848zm-6.086-.58l3.3-6.721 2.361 7.32zm-4.92 9.471l-4.006-6.687 8.49-2.475zm-4.239 6.725l-1.937-7.793 5.984 1.417zm-2.134 3.184l-1.777-4.415 3.669 1.6zM114.2 71.4l-1 5.179-5.542-9.817zm4.777 2.528l1.52 5.133-6.918-2.151zm10.05-1.474l-1.507 6.671-8.113-5.306zm8.961.481l-3.9 3.533-4.538-4.018zm-.14-8.671l6 6.069-5.439 2.306zm.122-.238l6.19-.756-.2 6.806zm10.47-6.419l2.473 8.328-6.426-2.861zm-1.4-7.037l4.033 3.059-2.522 3.4zm-6.94-1.556l3.743-4.288 2.757 5.364zm-.169-.193l-1.31-7.01 5.049 2.726zm-6.4-2.971l-5.591-3.831 10.16-.309zm-9.064 1.261l-2.344-7.269 5.242 2.125zm-6.095-.567l-2.715-3.681 5.981-2.961zm-.189.173l-8.314 2.424 5.586-6.124zm-4.767 9.509l-5.926-1.4 2-5.145zm-4.224 6.75l-3.751-1.642 1.864-5.95zm-2.092 3.281l-3.227 1.18 1.439-5.624zm5.8 10.317l-7.1-4.4 1.5-5.512zm7.229 2.64l-6.716 1.065-.029-3.162zm-.855-5.177l7.895 5.164-6.388-.073zm9.993-1.5l4.584 4.059-6.07 2.521zm8.975.507l2.423 6.715-6.354-3.154zm.216-.151l5.408-2.293-2.979 9.023zm5.955-9.576l6.424 2.86-6.628 3.968zm4.3-5.679l4.2 2.99-1.793 5.118zm-.048-.346l2.525-3.4 1.663 6.383zm-1.685-7.086l1.172-3.635 2.792 6.642zm-.176-.284l-2.671-5.181 3.846 1.538zm-7.915-8.255l5.593-.365-.7 3zm-11.075.1l3.938-4.884 6.311 4.573zm-.233-.117l-2.028-5.311 5.926.477zm-.263.025l-5.18-2.1 3.175-3.151zm-11.637.889l2.227-6.425 3.781 3.45zm-5.975 6.37l1.631-6.675 3.871.644zm-2.421 5.7L105.2 51.35l4.041-1.725zm-.111.3l-1.788 5.707-.24-8.89zm-2.059 6.6l-1.458 5.7-2.289-5.694zm-3.805-.249l.123-5.595 3.613 5.59zm5.764 5.252l-1.449 5.312-1.771-4.135zm5.814 10.332l-4.4.623-2.515-4.908zm.239.223l.029 3.117L108.8 77.7zm7.338 2.328l-2.225 4.66-4.64-3.573zm.259.047l5.885 5.433-8.131-.732zm.289-.08l6.446.073-.588 5.335zm12.953-2.558l.246 6.028-6.312-3.508zm.256.022l6.375 3.165-6.127 2.864zm9.888-6.177l3.165 4.95-6.149 4.086zm.22-.128l6.094.9-2.967 3.994zm.113-.24l6.519-3.9-.424 4.8zm8.609-9.3l1.151 4.027-2.888.933zm-1.531-6.848l3.3 4.158-1.7 2zm-3.089-7.573l4.287 3.14-1.474 3.551zm-4.419-2.159l.691-2.948 3.087 4.458zm-5.467-2.985l-.744-4.5 6.449 4.131zm-.283-.151l-6.146-4.453 5.405-.034zm-12.5-5.186l4.012-2.463 1.722 2.925zm-3.853 3.344l-3.715-3.39 6.872.257zm-6.534 3.228l-3.858-.642 6.046-5.67zm-5.986 6.49l-3.948-3.2 5.6-3.567zm-.168.191l-4.079 1.743.2-4.891zm-4.08 11.6l-3.665-5.669 3.412-3.678zm-1.588 6.7l-.7 3.468-1.372-8.612zm.177.415l1.717 4.009-2.448-.35zm4.455 9.389l-2.589-.5.165-4.234zm4.891 3l-1.839 1.769-2.47-4.246zm.219.142l4.417 3.4-6.252-1.635zm14.413-1.058l6.305 3.5-6.9 1.853zm13.039.688l-.345 4.4-5.688-1.579zm6.326-4.164l-3.5 6.132-2.474-2.17zm3.456-4.334l.019 3.21-2.8.535zm.7-5.468l2.848-.92-3.247 5.453zm1.976-5.645l1.617-1.907-.528 5.719zm-1.814-7.03l1.452-3.5 1.881 7.695zm-3.089-7.41l1.02-1.782 3.074 4.78zm-.177-.2l-3.017-4.356 4.037 2.574zm-10.123-9.209l3.054-.325 3.09 4.261zm-6.2-.179l-1.682-2.859L137 36.55zm-6.393-.563l-1.355-2.372 5.307-.053zm-.269.042l-6.684-.251 5.325-2.129zm-13.509 5.513l2.394-5.182 3.471-.317zm-.43.324l-2.188-2.1 4.618-3.16zm-.164.2l-5.44 3.463L108.842 40zm-6.149 8.989l-2.73-1.468 2.924-3.316zm-.086.242l-3.316 3.559.576-5.047zm-3.747 10.023l-1.4 1.148 1.51-6.083zm.035.3l1.431 8.979-2.932-7.75zm4.431 10.693l-.164 4.22L103.067 72zm2.815 5.4l2.328 4-4.79-4.474zm9.818 6.631l-.1 2.318-6.108-3.941zm.251.1l3.17 1.483-3.27.8zm8.443.738l.1 3.251-4.609-2.427zm7.282-1.944l-1.869 4.4-4.942-2.582zm.293-.038l5.682 1.577-7.548 2.815zM141 80.28l2.408 2.105-2.74 2.125zm6.534-4.508l2.775-.53-6.083 6.323zm3.269-1.227l-.019-3.129 2.56-1.565zm.225-3.576l3.108-5.224-.572 3.674zm3.963-11.282l.363 3.841-.822 1.135zm-1.891-9.622l.71.666.71 5.145zm-3.6-5.865l.668-.335 1.932 4.379zm-4.676-3.065L146 39.452l2.872 4.259zm-.182-.184l-3.058-4.217 4.233 2.536zm-6.887-4.416l-.019-1.833 2.946 1.522zm-.255-.049l-6.733-2.767 6.713.884zm-13.318-3.091l1.072-.92 3.554.874zm-5.854 2.2l2.085-2.245 2.882.259zm-.538.206l-3.156.288 5.182-2.471zm-8.679 3.628l.349-.781 2.9-1.44zm-3.8 6.123L105.1 43.5l3.151-3.009zm-.219.359l-2.613 2.963 2.407-4.956zm-3.892 9.252l-1.667.311 2.2-5zm-.055.269l-1.595 6.429-.1-6.113zm1.411 16l-1.9-1.561-.908-5.851zm2.659 5.407l-1.211-.4-.811-3.627zm5.176 4.992l-4.024-2.191-.646-2.172zm.734.689l1.742 2.221-5.325-4.172zm.652.418l5.539 3.575-3.625-1.134zm10.163 3.184l4.305 2.253-7.484-1.475zm5.166-.856l4.819 2.507-4.721.748zm12.792-.117l-1.957 1.688-4.4.684zm3.616-2.53l.163 1.053-2.529.782zm6.562-6.774l-2.6 4.622-3.31 1.522zm.725-.77l1.742-3.217-1.862 4.413zm3.682-9.916l.657-.909-1.057 3.477zm.633-6.857V58.3l-.009-.067.065-.862.067 2.231zm-.175-1.268l-.658-4.767.815 2.7zm-1.958-7.434l-1.2-2.722 1.681 3.172zm-3.621-5.622l-2.4-3.557 3.059 3.226zm-8.012-7.691l.16-.115 1.844 1.316zm-.242-.138l-1.247-.645 1.386.544zm-10.524-2.718l2.336-.48 3.516 1.25zm-.762-.1l-3.181-.782 5.334.339zm-6.027.058l-2.481-.223 3.472-.626zm-8.756 2.217l1.42-1.064 2.288-.7zm-1.165.556l-1.232.612 1.894-1.108zm-5.167 3.543l-1.461 1.395 1.671-1.863zm-6.842 9.843l-.649.241 2.523-4.1zm-.846.585l.7-.26-1.772 4.027zm-1.745 10.446l.037 2.24-.13.407zm.121 2.812l.64 4.118-.881-3.36zm3.334 8.518l.821 3.675-2.619-5.156zm2.634 5.251l.569 1.916-1.7-2.286zm12.725 9.866l.238.378-2.49-1.083zm.64.54l-.293-.466 5.417 1.067zm13.272.458l-.569.644-2.974-.082zm.395-.063l3.544-.55-4.071 1.147zm8.19-3.06l2.079-.643-3.666 2.012zm3.33-1.38l-.164-1.055 3.038-1.4zm6.579-7.886l-.142 1.417-2 2.384zm3.289-6.045l.513-.248-2.349 4.6zm.683-.612l-.576.278 1.158-3.809z" fill="url(#b)"/><path d="M155.611 63.572v-.012l-.257-8.6v-.03l-1.293-4.291v-.016l-3.7-6.981v-.018L146.1 39.14l-.008-.007h-.006l-4.491-3.206h-.01l-.009-.005-3.9-1.53h-.008l-4.696-1.692h-.031l-7.705-.49h-.036l-4.859.877h-.019l-3.961 1.218h-.009l-.01.005-7.042 4.128h-.011v.005l-4.395 4.9v.006l-4.053 6.583v.024l-1.594 5.6v.029l-.3 8.5v.04l1.519 5.794v.025l3.352 6.6.007.011 2.363 3.186.007.007.005.006 3.271 3 .008.006.006.006 4.085 2.763.009.006h.006L118.6 87.8h.026l8.43.99h.011l4.4.123a.107.107 0 0 0 .025 0h.008l6.515-1.835h.018l5.819-3.2.009-.007h.008l3.746-3.2h.005l2.905-3.465.011-.015v-.006l4.107-8.04v-.034l.906-5.5v-.013zm-46 19.059l-.847-.777 1.905 1.492zm12.363 3.229L119 84.468l7.047.634zm1.086-25.35l-7.817.823 4.82-8.1zm-2.729-7.294L129.88 58l-6.568 2.456zm2.8 7.542l.909 7.2-8.7-6.386zm.8 7.437l-9.446 2.973.636-9.443zm-.523-7.317l7.321 4.862-6.414 2.327zm.117-.228l6.569-2.457.761 7.325zm10.093-8.461l6.088-2.875-.687 6.839zm5.193 4.126l-8.369 1.529 2.971-5.49zM130.2 57.75l-5.452-10.013 8.447 4.48zm-.305-.029l-9.612-4.815 4.132-5.249zm-14.843 3.438l-1.224-4.676 5.913-3.2zm-.809 9.777l-4.672-7.666 5.3-1.609zm9.538-2.429l-4.752 5.078-4.351-2.212zm7.037-2.53l-1.695 6.1-4.664-3.8zm-.46-7.674l7.065 5.573-6.3 1.735zm.142-.212l8.461-1.546-1.351 7.155zm8.767-1.884l.679-6.763 3.909 5.31zm4.673-1.214l.216 7.745-4.824-6.285zm-10.44-3.032l.162-5.748 5.9 2.887zm-.255 0l-8.415-4.462 8.579-1.333zm-13.1.717l-1.577-5.739 5.627.6zm-.2.213l-5.969 3.232 4.391-8.972zm-5.096 8.509l-5.184 1.574 3.962-6.24zm-.939 9.485l-6.472-4.585 1.931-2.867zm.523.65l4.349 2.211-5.35 2.955zm9.781-3.121l4.671 3.8-9.492 1.347zm6.855-2.4l6.894 6.667-8.607-.494zm.183-.176l6.328-1.738.568 8.409zm7.938-9.147l4.865 6.338-6.2.757zm5-1.647l4.108 2.322-3.893 5.384zm.043-.268l2.544-4.186 1.517 6.482zm-.187-.182l-3.912-5.314 6.49 1.072zm-10.283-8.614l4.595-4.16 1.319 7.057zm-9.092 1.281l2.915-5.174 5.616 3.848zm-6.086-.58l3.3-6.721 2.361 7.32zm-4.92 9.471l-4.006-6.687 8.49-2.475zm-4.239 6.725l-1.937-7.793 5.984 1.417zm-2.134 3.184l-1.777-4.415 3.669 1.6zM114.2 71.4l-1 5.179-5.542-9.817zm4.777 2.528l1.52 5.133-6.918-2.151zm10.05-1.474l-1.507 6.671-8.113-5.306zm8.961.481l-3.9 3.533-4.538-4.018zm-.14-8.671l6 6.069-5.439 2.306zm.122-.238l6.19-.756-.2 6.806zm10.47-6.419l2.473 8.328-6.426-2.861zm-1.4-7.037l4.033 3.059-2.522 3.4zm-6.94-1.556l3.743-4.288 2.757 5.364zm-.169-.193l-1.31-7.01 5.049 2.726zm-6.4-2.971l-5.591-3.831 10.16-.309zm-9.064 1.261l-2.344-7.269 5.242 2.125zm-6.095-.567l-2.715-3.681 5.981-2.961zm-.189.173l-8.314 2.424 5.586-6.124zm-4.767 9.509l-5.926-1.4 2-5.145zm-4.224 6.75l-3.751-1.642 1.864-5.95zm-2.092 3.281l-3.227 1.18 1.439-5.624zm5.8 10.317l-7.1-4.4 1.5-5.512zm7.229 2.64l-6.716 1.065-.029-3.162zm-.855-5.177l7.895 5.164-6.388-.073zm9.993-1.5l4.584 4.059-6.07 2.521zm8.975.507l2.423 6.715-6.354-3.154zm.216-.151l5.408-2.293-2.979 9.023zm5.955-9.576l6.424 2.86-6.628 3.968zm4.3-5.679l4.2 2.99-1.793 5.118zm-.048-.346l2.525-3.4 1.663 6.383zm-1.685-7.086l1.172-3.635 2.792 6.642zm-.176-.284l-2.671-5.181 3.846 1.538zm-7.915-8.255l5.593-.365-.7 3zm-11.075.1l3.938-4.884 6.311 4.573zm-.233-.117l-2.028-5.311 5.926.477zm-.263.025l-5.18-2.1 3.175-3.151zm-11.637.889l2.227-6.425 3.781 3.45zm-5.975 6.37l1.631-6.675 3.871.644zm-2.421 5.7L105.2 51.35l4.041-1.725zm-.111.3l-1.788 5.707-.24-8.89zm-2.059 6.6l-1.458 5.7-2.289-5.694zm-3.805-.249l.123-5.595 3.613 5.59zm5.764 5.252l-1.449 5.312-1.771-4.135zm5.814 10.332l-4.4.623-2.515-4.908zm.239.223l.029 3.117L108.8 77.7zm7.338 2.328l-2.225 4.66-4.64-3.573zm.259.047l5.885 5.433-8.131-.732zm.289-.08l6.446.073-.588 5.335zm12.953-2.558l.246 6.028-6.312-3.508zm.256.022l6.375 3.165-6.127 2.864zm9.888-6.177l3.165 4.95-6.149 4.086zm.22-.128l6.094.9-2.967 3.994zm.113-.24l6.519-3.9-.424 4.8zm8.609-9.3l1.151 4.027-2.888.933zm-1.531-6.848l3.3 4.158-1.7 2zm-3.089-7.573l4.287 3.14-1.474 3.551zm-4.419-2.159l.691-2.948 3.087 4.458zm-5.467-2.985l-.744-4.5 6.449 4.131zm-.283-.151l-6.146-4.453 5.405-.034zm-12.5-5.186l4.012-2.463 1.722 2.925zm-3.853 3.344l-3.715-3.39 6.872.257zm-6.534 3.228l-3.858-.642 6.046-5.67zm-5.986 6.49l-3.948-3.2 5.6-3.567zm-.168.191l-4.079 1.743.2-4.891zm-4.08 11.6l-3.665-5.669 3.412-3.678zm-1.588 6.7l-.7 3.468-1.372-8.612zm.177.415l1.717 4.009-2.448-.35zm4.455 9.389l-2.589-.5.165-4.234zm4.891 3l-1.839 1.769-2.47-4.246zm.219.142l4.417 3.4-6.252-1.635zm14.413-1.058l6.305 3.5-6.9 1.853zm13.039.688l-.345 4.4-5.688-1.579zm6.326-4.164l-3.5 6.132-2.474-2.17zm3.456-4.334l.019 3.21-2.8.535zm.7-5.468l2.848-.92-3.247 5.453zm1.976-5.645l1.617-1.907-.528 5.719zm-1.814-7.03l1.452-3.5 1.881 7.695zm-3.089-7.41l1.02-1.782 3.074 4.78zm-.177-.2l-3.017-4.356 4.037 2.574zm-10.123-9.209l3.054-.325 3.09 4.261zm-6.2-.179l-1.682-2.859L137 36.55zm-6.393-.563l-1.355-2.372 5.307-.053zm-.269.042l-6.684-.251 5.325-2.129zm-13.509 5.513l2.394-5.182 3.471-.317zm-.43.324l-2.188-2.1 4.618-3.16zm-.164.2l-5.44 3.463L108.842 40zm-6.149 8.989l-2.73-1.468 2.924-3.316zm-.086.242l-3.316 3.559.576-5.047zm-3.747 10.023l-1.4 1.148 1.51-6.083zm.035.3l1.431 8.979-2.932-7.75zm4.431 10.693l-.164 4.22L103.067 72zm2.815 5.4l2.328 4-4.79-4.474zm9.818 6.631l-.1 2.318-6.108-3.941zm.251.1l3.17 1.483-3.27.8zm8.443.738l.1 3.251-4.609-2.427zm7.282-1.944l-1.869 4.4-4.942-2.582zm.293-.038l5.682 1.577-7.548 2.815zM141 80.28l2.408 2.105-2.74 2.125zm6.534-4.508l2.775-.53-6.083 6.323zm3.269-1.227l-.019-3.129 2.56-1.565zm.225-3.576l3.108-5.224-.572 3.674zm3.963-11.282l.363 3.841-.822 1.135zm-1.891-9.622l.71.666.71 5.145zm-3.6-5.865l.668-.335 1.932 4.379zm-4.676-3.065L146 39.452l2.872 4.259zm-.182-.184l-3.058-4.217 4.233 2.536zm-6.887-4.416l-.019-1.833 2.946 1.522zm-.255-.049l-6.733-2.767 6.713.884zm-13.318-3.091l1.072-.92 3.554.874zm-5.854 2.2l2.085-2.245 2.882.259zm-.538.206l-3.156.288 5.182-2.471zm-8.679 3.628l.349-.781 2.9-1.44zm-3.8 6.123L105.1 43.5l3.151-3.009zm-.219.359l-2.613 2.963 2.407-4.956zm-3.892 9.252l-1.667.311 2.2-5zm-.055.269l-1.595 6.429-.1-6.113zm1.411 16l-1.9-1.561-.908-5.851zm2.659 5.407l-1.211-.4-.811-3.627zm5.176 4.992l-4.024-2.191-.646-2.172zm.734.689l1.742 2.221-5.325-4.172zm.652.418l5.539 3.575-3.625-1.134zm10.163 3.184l4.305 2.253-7.484-1.475zm5.166-.856l4.819 2.507-4.721.748zm12.792-.117l-1.957 1.688-4.4.684zm3.616-2.53l.163 1.053-2.529.782zm6.562-6.774l-2.6 4.622-3.31 1.522zm.725-.77l1.742-3.217-1.862 4.413zm3.682-9.916l.657-.909-1.057 3.477zm.633-6.857V58.3l-.009-.067.065-.862.067 2.231zm-.175-1.268l-.658-4.767.815 2.7zm-1.958-7.434l-1.2-2.722 1.681 3.172zm-3.621-5.622l-2.4-3.557 3.059 3.226zm-8.012-7.691l.16-.115 1.844 1.316zm-.242-.138l-1.247-.645 1.386.544zm-10.524-2.718l2.336-.48 3.516 1.25zm-.762-.1l-3.181-.782 5.334.339zm-6.027.058l-2.481-.223 3.472-.626zm-8.756 2.217l1.42-1.064 2.288-.7zm-1.165.556l-1.232.612 1.894-1.108zm-5.167 3.543l-1.461 1.395 1.671-1.863zm-6.842 9.843l-.649.241 2.523-4.1zm-.846.585l.7-.26-1.772 4.027zm-1.745 10.446l.037 2.24-.13.407zm.121 2.812l.64 4.118-.881-3.36zm3.334 8.518l.821 3.675-2.619-5.156zm2.634 5.251l.569 1.916-1.7-2.286zm12.725 9.866l.238.378-2.49-1.083zm.64.54l-.293-.466 5.417 1.067zm13.272.458l-.569.644-2.974-.082zm.395-.063l3.544-.55-4.071 1.147zm8.19-3.06l2.079-.643-3.666 2.012zm3.33-1.38l-.164-1.055 3.038-1.4zm6.579-7.886l-.142 1.417-2 2.384zm3.289-6.045l.513-.248-2.349 4.6zm.683-.612l-.576.278 1.158-3.809z" fill="url(#c)"/><path d="M180.939 40.248c-2.53-6.078-7.653-12.64-11.676-14.714a60.287 60.287 0 0 1 5.893 17.645c0-.014 0 .012.009.055l.01.063c5.491 14.871 2.5 29.994-1.811 39.235-6.67 14.3-22.818 28.952-48.092 28.237C97.964 110 73.908 89.756 69.417 63.245c-.818-4.18 0-6.3.411-9.7a43.349 43.349 0 0 0-.943 8.022c0 .1-.006.2-.006.3a58.21 58.21 0 0 0 115.57 9.833c.1-.744.178-1.492.265-2.242a59.7 59.7 0 0 0-3.775-29.21z" fill="url(#d)"/><path d="M180.939 40.248c-2.53-6.078-7.653-12.64-11.676-14.714a60.287 60.287 0 0 1 5.893 17.645c0-.014 0 .012.009.055l.01.063c5.491 14.871 2.5 29.994-1.811 39.235-6.67 14.3-22.818 28.952-48.092 28.237C97.964 110 73.908 89.756 69.417 63.245c-.818-4.18 0-6.3.411-9.7a43.349 43.349 0 0 0-.943 8.022c0 .1-.006.2-.006.3a58.21 58.21 0 0 0 115.57 9.833c.1-.744.178-1.492.265-2.242a59.7 59.7 0 0 0-3.775-29.21z" fill="url(#e)"/><path d="M69.417 63.245c4.491 26.511 28.547 46.755 55.855 47.524 25.274.715 41.422-13.94 48.092-28.237 4.311-9.241 7.3-24.364 1.811-39.235v-.007l-.008-.056c-.006-.043-.01-.069-.009-.055s0 .033.012.1c2.064 13.466-4.793 26.512-15.512 35.332l-.032.076c-20.887 16.989-40.874 10.25-44.921 7.492a31.768 31.768 0 0 1-.847-.422c-12.178-5.813-17.208-16.9-16.13-26.4a14.947 14.947 0 0 1-13.79-8.667s9.232-6.575 21.4-.856a29.006 29.006 0 0 0 21.852.856c-.021-.472-10.151-4.5-14.1-8.384-2.11-2.077-3.112-3.078-4-3.829a17.175 17.175 0 0 0-1.507-1.137 78.722 78.722 0 0 0-1.206-.8c-4.245-2.756-12.688-2.6-12.967-2.6h-.027c-2.308-2.919-2.145-12.55-2.013-14.56a10.447 10.447 0 0 0-1.944 1.029 42.389 42.389 0 0 0-5.687 4.868 50.918 50.918 0 0 0-5.439 6.517v.009-.01a49.055 49.055 0 0 0-7.809 17.614c-.026.126-2.091 9.155-1.074 13.838z" fill="url(#f)"/><path d="M147.613 40.305a31.605 31.605 0 0 1 5.4 7.043 11.241 11.241 0 0 1 .874.714c13.2 12.145 6.282 29.323 5.766 30.546 10.719-8.82 17.576-21.866 15.512-35.332-6.579-16.386-17.738-22.994-26.852-37.376a72.636 72.636 0 0 1-1.371-2.227 19.125 19.125 0 0 1-.641-1.2 10.608 10.608 0 0 1-.868-2.3.152.152 0 0 0-.133-.163.211.211 0 0 0-.109 0c-.008 0-.02.013-.029.016s-.029.017-.043.023c-2.25 1.073-15.598 22.185 2.494 40.256z" fill="url(#g)"/><path d="M125.224 32.333l7.7.491 4.68 1.665 3.9 1.531L146 39.228l4.232 4.46 1.47 2.774a27.102 27.102 0 0 1 .951.619c.127.089.243.178.361.267a31.605 31.605 0 0 0-5.4-7.043C129.521 22.234 142.869 1.122 145.12.049l.024-.033c-14.62 8.554-19.58 24.378-20.036 32.294v.045z" fill="url(#h)"/><path d="M106.376 36.543a50.252 50.252 0 0 1 1.206.8 26.9 26.9 0 0 1-.163-14.209 43.091 43.091 0 0 0-14.01 10.815c.279-.011 8.722-.162 12.967 2.594z" fill="url(#i)"/><path d="M100.953 67.124s2.687-10 19.237-10c1.789 0 6.9-4.987 7-6.434a29.006 29.006 0 0 1-21.852-.856c-12.167-5.719-21.4.856-21.4.856a14.947 14.947 0 0 0 13.788 8.664c-1.078 9.5 3.952 20.587 16.13 26.4.272.13.528.272.807.4-7.108-3.673-12.977-10.608-13.71-19.03z" fill="url(#j)"/><path d="M153.89 48.062a11.241 11.241 0 0 0-.874-.714c-.118-.089-.234-.178-.361-.267-3.108-2.18-8.673-4.334-14.034-3.4 20.934 10.455 15.314 46.457-13.694 45.1a25.877 25.877 0 0 1-7.573-1.459q-.855-.319-1.71-.7c-.328-.15-.656-.3-.981-.469.012.009.028.018.04.026 4.047 2.758 24.034 9.5 44.921-7.492l.032-.076c.516-1.226 7.429-18.404-5.766-30.549z" fill="url(#k)"/><path d="M180.934 40.246c-2.53-6.078-7.653-12.641-11.676-14.715a60.327 60.327 0 0 1 5.894 17.646c0 .009 0 .033.011.1-6.581-16.387-17.741-22.995-26.855-37.382a72.575 72.575 0 0 1-1.371-2.226 18.564 18.564 0 0 1-.64-1.2 10.608 10.608 0 0 1-.869-2.3.151.151 0 0 0-.128-.161.191.191 0 0 0-.109 0c-.008 0-.02.012-.029.016a.436.436 0 0 0-.042.023l.023-.033c-14.62 8.554-19.578 24.424-20.033 32.341l.118-.022 7.7.491 4.337 1.543 4.244 1.653L146 39.228l4.227 4.458s1.454 2.731 1.475 2.776c-3.373-2.006-8.275-3.622-13.088-2.786 20.935 10.454 15.314 46.457-13.694 45.1a25.844 25.844 0 0 1-7.573-1.459 29.998 29.998 0 0 1-1.71-.7 21.358 21.358 0 0 1-.981-.468l.04.025q-.423-.2-.847-.421c.272.13.528.271.807.4-7.108-3.669-12.977-10.6-13.71-19.026 0 0 2.687-10 19.237-10 1.79 0 6.905-4.988 7-6.434-.022-.472-10.152-4.5-14.1-8.384-2.11-2.077-3.112-3.079-4-3.83a17.341 17.341 0 0 0-1.508-1.136 26.9 26.9 0 0 1-.163-14.209A43.089 43.089 0 0 0 93.4 33.943h-.027c-2.308-2.92-2.145-12.55-2.013-14.561a10.516 10.516 0 0 0-1.943 1.03 42.365 42.365 0 0 0-5.688 4.867 50.918 50.918 0 0 0-5.429 6.512v.009-.009a49.055 49.055 0 0 0-7.809 17.614c-.028.126-.052.257-.079.384-.109.511-.6 3.109-.671 3.666a67.648 67.648 0 0 0-.858 8.112c0 .1-.006.2-.006.3A58.211 58.211 0 0 0 184.445 71.7c.1-.744.177-1.492.264-2.243a59.7 59.7 0 0 0-3.775-29.211zm-5.774 2.985l.01.063v-.006z" fill="url(#l)"/><path d="M127.189 50.691s-.246.1-.7.259c-1.137 1.922-5.179 5.59-6.725 5.583-16.55-.072-19.28 9.819-19.28 9.819a21.136 21.136 0 0 0 3.242 9.5 21.307 21.307 0 0 1-2.771-8.727s2.687-10 19.237-10c1.789 0 6.9-4.987 7-6.434z" fill="url(#m)"/><path d="M175.175 43.3v-.005l-.008-.057-.008-.055c.002.014 0 .033.011.1-.4-1-.818-1.952-1.25-2.879-.148-.318-.307-.616-.459-.926a53.697 53.697 0 0 0-.885-1.764c-.187-.353-.384-.687-.576-1.03-.281-.5-.56-1.007-.85-1.491-.213-.354-.433-.693-.649-1.038a63.706 63.706 0 0 0-.854-1.339c-.23-.346-.465-.681-.7-1.018a77.928 77.928 0 0 0-.872-1.241 77.382 77.382 0 0 0-.738-.992c-.295-.392-.59-.784-.889-1.168a94.638 94.638 0 0 0-.774-.975 74.963 74.963 0 0 0-.907-1.118q-.4-.482-.8-.959c-.146-.173-.289-.35-.437-.522.063.075.124.152.186.228-5.042-5.95-10.515-11.433-15.4-19.149a68.899 68.899 0 0 1-1.371-2.227 17.67 17.67 0 0 1-.641-1.2 11.913 11.913 0 0 1-.8-2.04l-.035-.123c-.02-.077-.032-.136-.032-.136A.152.152 0 0 0 145.3.01a.211.211 0 0 0-.109 0c-.008 0-.02.013-.029.016s-.029.016-.043.023a1.775 1.775 0 0 0-.353.259l-.084.076a6.141 6.141 0 0 0-.46.487l-.016.017c-3.487 4.1-12.391 21.915 1.96 37.9-13.431-15.817-4.966-32.902-1.284-37.378a12.769 12.769 0 0 0 .717 1.758 17.112 17.112 0 0 0 .64 1.2c.449.77.91 1.5 1.372 2.227 9.113 14.387 20.272 21 26.854 37.381-.008-.064-.011-.087-.011-.1s0 .012.008.055l.008.057v.006c5.491 14.871 2.5 29.994-1.811 39.235a48.246 48.246 0 0 1-9.245 13.257 48.329 48.329 0 0 0 9.948-13.961c4.313-9.234 7.304-24.357 1.813-39.225z" fill="url(#a)"/><path d="M145.12.049l.024-.033c-13.17 7.706-18.5 21.309-19.762 29.719 1.449-7.77 6.429-19.639 17.589-27.132A8.136 8.136 0 0 1 145.12.049z" fill="url(#n)"/><path d="M159.624 78.684l.032-.076c.516-1.223 7.429-18.4-5.766-30.546a11.241 11.241 0 0 0-.874-.714c-.118-.089-.234-.178-.361-.267a20.313 20.313 0 0 0-13.493-3.481h-.012a13.798 13.798 0 0 0-.529.081c20.7 10.337 15.437 45.647-12.723 45.128.077 0 .153.01.23.013 28.546 1.117 34.17-33.893 14.338-44.869a21.051 21.051 0 0 1 11.022 3.184c.13.084.25.168.372.252a11.211 11.211 0 0 1 .9.679c13.66 11.62 7.424 29.055 6.957 30.3l-.03.077" fill="url(#o)"/><path d="M105.493 50.415a29.076 29.076 0 0 0 21.044.517 29.083 29.083 0 0 1-21.2-1.1 22.12 22.12 0 0 0-21.121.673l-.078.05h-.006l-.064.041-.048.032h-.006l-.03.02-.009.006-.021.014h-.008l.027.063v.01l.034.076.007.014.05.108v.009a12.046 12.046 0 0 0 .383.731 14.888 14.888 0 0 0 13.278 7.652c-1.046 9.219 3.657 19.923 15.054 25.862-10.893-6.277-15.47-17.669-14.2-26.73-8.409-.223-12.17-5.264-13.246-7.4a23 23 0 0 1 20.16-.648z" fill="url(#p)"/><path d="M107.573 37.308l-.285-.166.294.2zm-.06-.214a26.943 26.943 0 0 1-.094-13.963 42.436 42.436 0 0 0-13.47 10.218 43.9 43.9 0 0 1 12.283-8.677 27.279 27.279 0 0 0 1.281 12.422z" fill="url(#q)"/><path d="M70.82 69.339l-.046-.167a53.418 53.418 0 0 1-1.357-5.927 25.146 25.146 0 0 1 0-7.5 50.089 50.089 0 0 0-.533 5.822c0 .1-.006.2-.006.3a58.16 58.16 0 0 0 39.059 54.912 58.843 58.843 0 0 1-37.117-47.44z" fill="url(#r)"/><path d="M70.355 63.48c-1.02-4.68 1.045-13.712 1.075-13.838a49.038 49.038 0 0 1 7.81-17.614v.009-.009a50.834 50.834 0 0 1 5.435-6.511 42.386 42.386 0 0 1 5.688-4.868 7.601 7.601 0 0 1 .245-.153c-.02 4.423.231 11.885 2.28 14.332h.027c.28-.014 8.751-.388 13.085 2.256a71.008 71.008 0 0 1 1.231.765 17.166 17.166 0 0 1 1.543 1.1c.911.727 1.943 1.7 4.115 3.723 3.146 2.925 10 5.835 12.966 7.222-2.886-1.454-9.7-4.56-12.766-7.583-2.11-2.077-3.112-3.078-4-3.829a17.175 17.175 0 0 0-1.507-1.137 78.722 78.722 0 0 0-1.206-.8c-4.245-2.756-12.688-2.6-12.967-2.6h-.027c-2.109-2.668-2.155-10.939-2.046-13.878 0-.113.008-.217.013-.315v-.187c0-.063.007-.124.011-.177 0-.008-.01-.011-.023-.01h-.017a.155.155 0 0 0-.037.008l-.032.011-.048.018-.046.02-.057.026-.059.028-.061.03-.072.036-.06.031-.086.046-.049.026a24.657 24.657 0 0 0-1.3.756 42.389 42.389 0 0 0-5.687 4.868 50.918 50.918 0 0 0-5.426 6.512v.009-.01a49.055 49.055 0 0 0-7.809 17.614c-.028.126-2.095 9.155-1.076 13.838 3.822 22.561 21.814 40.578 43.92 45.923-21.674-5.622-39.213-23.447-42.98-45.688z" fill="url(#s)"/><path d="M180.939 40.248c-2.232-5.363-6.483-11.1-10.216-13.8l-.1-.074q-.173-.123-.345-.237l-.131-.086a8.394 8.394 0 0 0-.324-.2l-.125-.076a9.905 9.905 0 0 0-.432-.238 65.931 65.931 0 0 1 .459.923l.278.574a59.62 59.62 0 0 1 5.157 16.148c0 .01 0 .033.011.1 2.064 13.466-4.793 26.512-15.512 35.332l-.032.076C146.3 89.522 133.343 90.7 124.656 89.422c8.656 1.617 22.311.935 36.374-10.5l.032-.075c10.719-8.821 17.576-21.867 15.512-35.333a2.083 2.083 0 0 1-.011-.1 58.38 58.38 0 0 0-4.25-14.163 38.437 38.437 0 0 1 6.365 9.069 57.943 57.943 0 0 1 5.379 28.5c-.045.743-.083 1.482-.14 2.219-3.161 27.217-25.875 49.075-54.617 50.687a59.518 59.518 0 0 1-11.492-.467 58.8 58.8 0 0 0 9.273.737 58.2 58.2 0 0 0 57.368-48.3c.1-.744.178-1.492.265-2.242a59.7 59.7 0 0 0-3.775-29.206zm-5.764 3.052v-.007l-.008-.056z" fill="url(#t)"/><path d="M.5 144.59h16.087v4.349H5.115v5.9h11.472v4.315H5.115v9.488H.5zm21.559-1.68a2.7 2.7 0 0 1-.033 5.4 2.553 2.553 0 0 1-2.67-2.636 2.668 2.668 0 0 1 2.703-2.764zm-2.275 7.939h4.549v17.789h-4.549zm17.735 4.941a3.681 3.681 0 0 0-2.209-.79c-1.846 0-2.9 1.186-2.9 3.788v9.85h-4.517v-17.789h4.319v2.57a4.241 4.241 0 0 1 4.252-2.735 5.4 5.4 0 0 1 3.033.923zm1.879 4.052a9.1 9.1 0 0 1 9.164-9.355 8.757 8.757 0 0 1 9.131 9.059v1.877H43.848a4.659 4.659 0 0 0 4.912 3.723 4.771 4.771 0 0 0 4.417-2.636l3.79 2.273A9.347 9.347 0 0 1 48.628 169c-5.769 0-9.228-3.854-9.228-9.158zm4.516-2.009h9.362a4.486 4.486 0 0 0-4.747-3.525 4.572 4.572 0 0 0-4.615 3.525zm14.9-6.984h3.2v-.889c0-4.843 2.044-6.852 6.527-6.852h1.579v3.92h-1.285c-2.11 0-2.572.725-2.572 2.932v.889h3.857v4.085h-3.758v13.7h-4.351v-13.7h-3.2zm12.164 8.894a9.11 9.11 0 0 1 9.3-9.256 9.257 9.257 0 1 1 0 18.513 8.976 8.976 0 0 1-9.301-9.257zm14.175 0a4.882 4.882 0 1 0-4.879 5.04 4.884 4.884 0 0 0 4.878-5.04zm10.548-.2l-6.428-8.7h5.34l3.791 5.468 3.89-5.468h5.241l-6.527 8.664 6.857 9.125h-5.307l-4.253-5.8-4.12 5.8h-5.308zm40.831-3.327a5.53 5.53 0 0 0 3.23-5.191c0-3.876-3-6.373-7.526-6.373h-10.391v23.982h10.724c4.595 0 7.693-2.562 7.693-6.767a5.761 5.761 0 0 0-3.73-5.651zm-11.923-9.067h7.591c2.963 0 4.795 1.577 4.795 3.876s-1.6 4.008-4.562 4.008h-7.827zm7.927 18.955h-7.927v-8.541h7.791c3.331 0 5.063 1.741 5.063 4.271.002 2.496-1.93 4.266-4.927 4.266zm13.655-11.859v-3.351h-2.631v17.74h2.7v-9.724c0-3.91 1.731-5.618 4.728-5.618a3.984 3.984 0 0 1 2.2.559l1.133-2.562a5.933 5.933 0 0 0-3-.658 4.975 4.975 0 0 0-5.13 3.614zm17.584-3.712a9.232 9.232 0 1 0 9.359 9.231 9.171 9.171 0 0 0-9.359-9.231zm0 15.9a6.687 6.687 0 0 1 0-13.371 6.686 6.686 0 0 1 0 13.371zm31.274-1.577l-5.362-13.962h-2.531l-5.5 14.06-4.529-14.06h-2.864l5.9 17.74h2.664l5.528-14.06 5.528 14.06h2.465l6.227-17.74h-2.831zm17.152-6.472c-2.8-.558-4.962-.92-4.962-2.759 0-1.643 1.132-2.825 3.9-2.825a5.831 5.831 0 0 1 4.929 2.365l2.264-1.511a8.741 8.741 0 0 0-7.193-3.154c-4.263-.033-6.694 2.4-6.694 5.158 0 3.547 3.3 4.369 6.394 4.96 2.631.526 5.095.92 5.095 2.891 0 1.774-1.465 3.088-4.263 3.088a6.671 6.671 0 0 1-5.794-2.891l-2.365 1.577c1.6 2.267 4.163 3.712 8.093 3.712 4.7.033 7.093-2.726 7.093-5.519.002-3.646-3.398-4.5-6.498-5.092zm18.118-7.851a9.16 9.16 0 0 0-9.39 9.3c0 5.19 3.729 9.165 9.49 9.165a9.266 9.266 0 0 0 8.359-4.5l-2.331-1.346a6.964 6.964 0 0 1-12.855-2.365h15.886v-1.216a8.812 8.812 0 0 0-9.159-9.038zm-6.66 7.884a6.655 6.655 0 0 1 6.66-5.486 6.032 6.032 0 0 1 6.361 5.486zm26.844-7.786a4.975 4.975 0 0 0-5.129 3.614v-3.351h-2.631v17.74h2.7v-9.724c0-3.91 1.731-5.618 4.728-5.618a3.984 3.984 0 0 1 2.2.559l1.133-2.562a5.933 5.933 0 0 0-3.004-.658z" fill="#fff"/><path d="M5.41 176.311H1.724v11.081h3.733a5.583 5.583 0 0 0 5.906-5.54c0-3.142-2.328-5.541-5.953-5.541zm-.093 9.078H3.942V178.3h1.313c2.5 0 3.873 1.518 3.873 3.552a3.537 3.537 0 0 1-3.811 3.537zm7.77 2h7.67v-2.034H15.29v-2.52h5.467v-2.019H15.29v-2.486h5.467v-2.019h-7.67zm14.173-2.854l-3.06-8.224h-2.329l4.312 11.081h2.171l4.312-11.081h-2.312zm6.646 2.854h7.671v-2.034H36.11v-2.52h5.467v-2.019H36.11v-2.486h5.467v-2.019h-7.671zm11.8-11.081h-2.219v11.081h7.483v-2.079h-5.265zm11.644-.151a5.694 5.694 0 1 0 5.858 5.692 5.752 5.752 0 0 0-5.859-5.689zm0 9.274a3.59 3.59 0 1 1 3.639-3.582 3.574 3.574 0 0 1-3.64 3.585zm12.066-9.123h-4.5v11.081h2.219v-3.021H69.4a4.038 4.038 0 1 0 .015-8.06zm-.141 6.072h-2.14v-4.11h2.139a2.06 2.06 0 1 1 0 4.113zm6.177 5.009h7.67v-2.034h-5.468v-2.52h5.467v-2.019h-5.467v-2.486h5.467v-2.019h-7.67zm16.393-4.053a3.594 3.594 0 0 0 2-3.278c0-2.11-1.564-3.75-4.188-3.75h-4.624v11.081h2.2V183.9H89.8l1.828 3.491h2.468zm-2.359-1.4h-2.25v-3.658h2.249c1.405 0 2.124.7 2.124 1.791a1.873 1.873 0 0 1-2.124 1.874z" fill="url(#u)"/></svg>