<svg xmlns="http://www.w3.org/2000/svg" xmlns:xlink="http://www.w3.org/1999/xlink" width="80" height="80" viewBox="0 0 80 80"><defs><linearGradient id="g" x1="50.627" y1="-5.344" x2="72.3" y2="59.884" gradientUnits="userSpaceOnUse"><stop offset="0" stop-color="#aaf2ff"/><stop offset=".035" stop-color="#9ef1ff"/><stop offset=".098" stop-color="#7eedff"/><stop offset=".183" stop-color="#4be6ff"/><stop offset=".284" stop-color="#04deff"/><stop offset=".29" stop-color="#0df"/><stop offset=".609" stop-color="#0090ed"/><stop offset=".894" stop-color="#0250bb"/></linearGradient><linearGradient id="h" x1="41.807" y1="-.073" x2="54.786" y2="38.989" gradientUnits="userSpaceOnUse"><stop offset="0" stop-color="#aaf2ff"/><stop offset=".035" stop-color="#9ef1ff"/><stop offset=".098" stop-color="#7eedff"/><stop offset=".183" stop-color="#4be6ff"/><stop offset=".284" stop-color="#04deff"/><stop offset=".29" stop-color="#0df"/><stop offset=".74" stop-color="#0090ed"/><stop offset="1" stop-color="#0250bb"/></linearGradient><linearGradient id="l" x1="70.018" y1="12.052" x2="15.251" y2="66.82" gradientUnits="userSpaceOnUse"><stop offset=".239" stop-color="#80ebff" stop-opacity=".5"/><stop offset=".261" stop-color="#76eaff" stop-opacity=".459"/><stop offset=".359" stop-color="#4ce5ff" stop-opacity=".295"/><stop offset=".455" stop-color="#2be2ff" stop-opacity=".167"/><stop offset=".546" stop-color="#13dfff" stop-opacity=".075"/><stop offset=".631" stop-color="#05deff" stop-opacity=".019"/><stop offset=".704" stop-color="#0df" stop-opacity="0"/></linearGradient><linearGradient id="m" x1="33.227" y1="30.821" x2="25.901" y2="60.844" gradientUnits="userSpaceOnUse"><stop offset="0" stop-color="#bff3ff" stop-opacity=".9"/><stop offset="1" stop-color="#80ebff" stop-opacity=".5"/></linearGradient><linearGradient id="a" x1="62.197" y1="-1.028" x2="57.663" y2="89.327" gradientUnits="userSpaceOnUse"><stop offset="0" stop-color="#bff3ff"/><stop offset="1" stop-color="#0df" stop-opacity="0"/></linearGradient><linearGradient id="n" x1="46.046" y1="-.785" x2="44.589" y2="28.247" gradientUnits="userSpaceOnUse"><stop offset="0" stop-color="#bff3ff"/><stop offset="1" stop-color="#aaf2ff" stop-opacity=".5"/></linearGradient><linearGradient id="o" x1="52.464" y1="28.364" x2="50.275" y2="71.987" xlink:href="#a"/><linearGradient id="p" x1="25.089" y1="27.476" x2="27.618" y2="67.676" gradientUnits="userSpaceOnUse"><stop offset="0" stop-color="#bff3ff" stop-opacity=".8"/><stop offset=".999" stop-color="#80ebff" stop-opacity=".2"/></linearGradient><linearGradient id="q" x1="29.095" y1="13.205" x2="19.986" y2="27.533" gradientUnits="userSpaceOnUse"><stop offset="0" stop-color="#bff3ff" stop-opacity=".8"/><stop offset="1" stop-color="#80ebff" stop-opacity=".2"/></linearGradient><linearGradient id="r" x1="15.405" y1="36.91" x2="12.602" y2="92.778" gradientUnits="userSpaceOnUse"><stop offset="0" stop-color="#0df" stop-opacity=".4"/><stop offset="1" stop-color="#0df" stop-opacity="0"/></linearGradient><linearGradient id="s" x1="20.088" y1="5.528" x2="20.604" y2="71.994" xlink:href="#a"/><linearGradient id="t" x1="58.622" y1="14.993" x2="54.037" y2="106.368" gradientUnits="userSpaceOnUse"><stop offset="0" stop-color="#bff3ff" stop-opacity=".8"/><stop offset="1" stop-color="#0df" stop-opacity="0"/></linearGradient><radialGradient id="b" cx="40.168" cy="40.377" fy="24.911" r="18.928" gradientUnits="userSpaceOnUse"><stop offset="0" stop-color="#0df" stop-opacity=".4"/><stop offset="1" stop-color="#7542e5" stop-opacity=".15"/></radialGradient><radialGradient id="c" cx="39.881" cy="41.379" r="19.233" gradientUnits="userSpaceOnUse"><stop offset=".915" stop-color="#7542e5" stop-opacity="0"/><stop offset=".929" stop-color="#6a51e7" stop-opacity=".037"/><stop offset=".953" stop-color="#4c78ee" stop-opacity=".139"/><stop offset=".984" stop-color="#1db7f9" stop-opacity=".302"/><stop offset="1" stop-color="#0df" stop-opacity=".4"/></radialGradient><radialGradient id="d" cx="67.016" cy="8.881" r="80.795" gradientTransform="translate(.752)" gradientUnits="userSpaceOnUse"><stop offset="0" stop-color="#80ebff"/><stop offset=".082" stop-color="#4de5ff"/><stop offset=".161" stop-color="#23e1ff"/><stop offset=".222" stop-color="#09deff"/><stop offset=".259" stop-color="#0df"/><stop offset=".26" stop-color="#00dcff"/><stop offset=".38" stop-color="#00b3f5"/><stop offset=".473" stop-color="#0099ef"/><stop offset=".53" stop-color="#0090ed"/><stop offset=".86" stop-color="#0060df"/></radialGradient><radialGradient id="e" cx="37.493" cy="41.912" r="80.795" gradientTransform="translate(.752)" gradientUnits="userSpaceOnUse"><stop offset=".3" stop-color="#321c64" stop-opacity=".8"/><stop offset=".371" stop-color="#212f83" stop-opacity=".511"/><stop offset=".475" stop-color="#0a47ac" stop-opacity=".141"/><stop offset=".53" stop-color="#0250bb" stop-opacity="0"/></radialGradient><radialGradient id="f" cx="58.227" cy="-11.979" r="118.079" gradientTransform="translate(.752)" gradientUnits="userSpaceOnUse"><stop offset="0" stop-color="#80ebff"/><stop offset=".008" stop-color="#76e7fe"/><stop offset=".035" stop-color="#57d9fb"/><stop offset=".067" stop-color="#3bcdf9"/><stop offset=".103" stop-color="#25c3f7"/><stop offset=".144" stop-color="#14bcf6"/><stop offset=".196" stop-color="#09b7f5"/><stop offset=".268" stop-color="#02b4f4"/><stop offset=".469" stop-color="#00b3f4"/><stop offset=".687" stop-color="#0080e7"/><stop offset=".844" stop-color="#0060df"/><stop offset=".995" stop-color="#592acb"/></radialGradient><radialGradient id="i" cx="36.473" cy="5.575" r="27.676" gradientTransform="translate(.752)" gradientUnits="userSpaceOnUse"><stop offset="0" stop-color="#0df"/><stop offset=".156" stop-color="#00d6fd"/><stop offset=".382" stop-color="#00c3f9"/><stop offset=".648" stop-color="#00a4f2"/><stop offset=".792" stop-color="#0090ed"/></radialGradient><radialGradient id="j" cx="55.28" cy="20.14" r="80.684" gradientTransform="translate(.752)" gradientUnits="userSpaceOnUse"><stop offset=".286" stop-color="#80ebff"/><stop offset="1" stop-color="#00b3f4"/></radialGradient><radialGradient id="k" cx="35.821" cy="15.825" r="73.718" gradientTransform="translate(.752)" gradientUnits="userSpaceOnUse"><stop offset=".181" stop-color="#aaf2ff"/><stop offset=".427" stop-color="#0df"/><stop offset=".448" stop-color="#00d2fc"/><stop offset=".613" stop-color="#0080e7"/><stop offset=".689" stop-color="#0060df"/></radialGradient></defs><path fill="#09204d" d="M22.361 46.629l2.442 6.77 3.669 4.951 8.614 1.644 4.121.35 7.036-1.758 3.031-2.905-28.913-9.052z"/><path fill="#09204d" d="M58.818 36.642l-.863-2.862-2.466-4.654-2.821-2.974-2.995-2.139-2.6-1.02-3.12-1.11-5.137-.327-3.24.584-2.643.813-4.69 2.745-2.931 3.271-2.703 4.39-1.063 3.736-.199 5.669 1.014 3.865 2.236 4.4 1.576 2.125 2.181 2 2.723 1.842 3.358 1.461 5.619.659 2.935.082 4.342-1.223 3.882-2.131 2.497-2.131 1.937-2.31 2.738-5.36.604-3.667-.171-5.734z"/><path fill="#0e56d7" d="M38.91 24.132l-2.301 2.282 3.753 1.522 2.792-3.463-4.244-.341z"/><path fill="#1053d1" d="M40.362 27.936l7.266-.221-4.474-3.242-2.792 3.463z"/><path fill="#0b4fbf" d="M47.088 24.449l-3.934.024 4.474 3.242 4.137-.27-4.677-2.996z"/><path fill="#0b48b0" d="M51.765 27.445l-2.352-3.243 3.255 1.95-.903 1.293z"/><path fill="#0c45a7" d="M54.879 29.431l-3.114-1.986.903-1.293 2.211 3.279z"/><path fill="#0f46af" d="M51.765 27.445l-.521 2.222 2.848 1.139-2.327-3.361z"/><path fill="#0c47ad" d="M51.765 27.445l3.114 1.986-.787 1.375-2.327-3.361z"/><path fill="#0e4fc3" d="M47.628 27.715l4.137-.27-.521 2.222-3.616-1.952z"/><path fill="#174dca" d="M47.628 27.715l-3.269 2.96 4.207 2.06-.938-5.02z"/><path fill="#1650d4" d="M40.362 27.936l7.266-.221-3.269 2.96-3.997-2.739z"/><path fill="#1246b2" d="M51.244 29.667l1.978 3.838.87-2.699-2.848-1.139z"/><path fill="#133ea1" d="M53.222 33.505l.87-2.699 2.073 4.93-2.943-2.231z"/><path fill="#103d98" d="M54.092 30.806l3.159 2.314-1.086 2.616-2.073-4.93z"/><path fill="#0b3785" d="M54.879 29.431l.61-.305 1.762 3.994-2.372-3.689z"/><path fill="#0b3685" d="M57.251 33.12l.704.66-2.466-4.654 1.762 3.994z"/><path d="M57.251 33.12l-2.372-3.689-.787 1.375zm-4.583-6.968l2.211 3.279.61-.3z" fill="#0c3b91"/><path fill="#0b3279" d="M58.659 38.878l-.704-5.098.863 2.862-.17 2.236h.011z"/><path fill="#0f388d" d="M57.251 33.12l1.408 5.758-.704-5.098-.704-.66z"/><path fill="#0d3481" d="M56.165 35.736l2.494 3.142-1.408-5.758-1.086 2.616z"/><path fill="#0b2e71" d="M58.648 38.878l.17-2.236.171 5.734-.33-3.498h-.011z"/><path fill="#0e2f77" d="M58.241 43.41l.748-1.034-.33-3.498-.418 4.532z"/><path fill="#0e2969" d="M58.385 46.043l-.598.288 1.202-3.955-.604 3.667z"/><path fill="#0c2a69" d="M57.787 46.331l1.202-3.955-.748 1.034-.454 2.921z"/><path fill="#123180" d="M58.241 43.41l.418-4.532-1.281 1.511.863 3.021z"/><path fill="#112b70" d="M57.787 46.331l.454-2.921-2.471 4.153 2.017-1.232z"/><path fill="#12378c" d="M56.165 35.736l2.494 3.142-1.281 1.511-1.213-4.653z"/><path fill="#122e7b" d="M58.241 43.41l-.863-3.021-1.303 3.72 2.166-.699z"/><path fill="#11296c" d="M55.647 51.403l2.14-5.072-2.002 3.697-.138 1.375z"/><path fill="#142a72" d="M55.785 50.028l2.002-3.697-2.017 1.232.015 2.465z"/><path d="M57.787 46.331l-2.14 5.069 2.738-5.36zm-4.076 7.382l1.936-2.31.138-1.375zm-2.5 2.131l2.5-2.131-2.64 1.214z" fill="#112768"/><path fill="#1c226a" d="M36.637 57.328l-2.523.618.077-1.762 2.446 1.144z"/><path fill="#182b7a" d="M22.609 33.359l.696-.258-1.759 3.994 1.063-3.736z"/><path fill="#1f308d" d="M21.546 37.095l1.332-.248.427-3.746-1.759 3.994z"/><path fill="#1e2b7f" d="M21.626 41.892l-.08-4.797 1.332-.248-1.252 5.045z"/><path d="M51.244 29.667l-2.678 3.068 4.656.77zm-23.368-3.146l3.418-2.339-3.051 1.518z" fill="#1346b5"/><path fill="#1244ac" d="M28.243 25.698l4.69-2.745-1.639 1.229-3.051 1.516"/><path fill="#0e4ab6" d="M31.294 24.182l4.282-2.042-2.643.813-1.639 1.229z"/><path d="M47.628 27.715l.938 5.02 2.678-3.068zM33.9 23.944l3.99-1.6-2.316-.208z" fill="#0e4bba"/><path fill="#0a4ebc" d="M38.816 21.556l-3.24.584 2.316.208.924-.792z"/><path fill="#0c54cc" d="M41.88 22.309l-3.988.039.924-.792"/><path d="M49.413 24.2l-2.325.247 4.677 3zm-7.533-1.891l5.193.684-3.12-1.11z" fill="#0b4bb4"/><path fill="#0c3889" d="M49.413 24.202l-2.34-1.209 2.6 1.02-.26.189z"/><path d="M22.361 46.629l1.539 1.263-2.27-6zM43.55 58.562l1.35-3.178-4.919 1.321zm1.35-3.178l4.112 1.141.249-3.18z" fill="#202575"/><path fill="#1b2773" d="M51.071 54.927l-1.81-1.582 4.373-2.906-2.563 4.488z"/><path fill="#15276d" d="M53.634 50.439l-2.563 4.488 2.64-1.214 2.074-3.685-2.151.411z"/><path d="M49.673 24.013l-.26.189 3.255 1.95zm-2.585.436l2.325-.247-2.34-1.209z" fill="#0c409d"/><path d="M38.816 21.556l3.064.753 2.073-.426zm8.257 1.437l-5.193-.684 5.208 2.14z" fill="#0b4cb7"/><path fill="#0b55ce" d="M41.88 22.309l1.274 2.164 3.934-.024-5.208-2.14z"/><path fill="#0a52c5" d="M41.88 22.309l1.274 2.164-4.244-.341 2.97-1.823z"/><path fill="#0951c4" d="M37.892 22.348l1.018 1.784 2.97-1.823-3.988.039z"/><path fill="#0b50c4" d="M33.902 23.944l3.99-1.596 1.018 1.784-5.008-.188z"/><path d="M31.294 24.182l2.608-.238 1.674-1.8zm2.608-.238l2.707 2.47 2.3-2.282z" fill="#0f4dbf"/><path fill="#1546b6" d="M33.902 23.944l-4.407 4.133 1.799-3.895 2.608-.238z"/><path fill="#1549bd" d="M29.495 28.077l2.812.467 1.595-4.6-4.407 4.133z"/><path fill="#144bc3" d="M32.307 28.544l1.595-4.6 2.707 2.47-4.302 2.13z"/><path fill="#173794" d="M25.312 28.969l.171 1.662 2.393-4.11-2.564 2.448z"/><path fill="#192f84" d="M23.305 33.101l2.007-4.132.171 1.662-2.178 2.47z"/><path fill="#1a389b" d="M25.483 30.631l2.393-4.11 1.619 1.556-4.012 2.554z"/><path fill="#1d3089" d="M25.338 34.195l.145-3.564-2.178 2.47 2.033 1.094z"/><path fill="#1e389f" d="M25.338 34.195l.145-3.564 2.827 2.295-2.972 1.269z"/><path fill="#1c40af" d="M28.31 32.926l1.185-4.849-4.012 2.554 2.827 2.295z"/><path fill="#1e41b7" d="M28.31 32.926l1.185-4.849 2.812.467-3.997 4.382z"/><path fill="#192c7d" d="M22.878 36.847l.427-3.746 2.033 1.094-2.46 2.652z"/><path d="M43.55 58.562l3.781-.587 1.681-1.45zm-22.2-15.8l.279-.872-.08-4.8zm1.531-5.917l-1.252 5.045 2.27 6-1.111-6.95z" fill="#162467"/><path fill="#1a236a" d="M23.896 47.892l1.873.263-1.312-3.062-.561 2.799z"/><path d="M51.071 54.927l-2.059 1.6-1.681 1.45 3.882-2.131zm-11.017 4.189l2.935.082 4.342-1.223-3.781.587zm-14.41-7.742l1.968.378-1.843-3.6z" fill="#132668"/><path d="M34.191 56.184l-3.333-2.566-1.385 1.333 4.641 2.995zm-11.83-9.555l2.236 4.4-.7-3.137zm-1.014-3.865l1.014 3.865-.735-4.737zm18.634 13.941l-5.79-.521 2.446 1.144-2.523.618L31.077 57l3.358 1.461 5.619.659 3.5-.554zm-14.212-8.55l-1.869-.263 1.748 3.482zm-2.981-7.215l1.112 6.952.561-2.8zm4.824 10.812l-1.968-.378-1.044-.345 1.576 2.125 2.181 2L31.077 57l-1.6-2.045z" fill="#1b2268"/><path fill="#212a81" d="M22.878 36.847l2.643 4.089-.183-6.741-2.46 2.652z"/><path fill="#21267a" d="M22.788 40.94l1.669 4.153 1.064-4.157-2.733.004z"/><path fill="#262781" d="M24.457 45.093l1.064-4.157 1.321 3.285-2.385.872z"/><path fill="#272379" d="M25.769 48.155l5.068 3.141-3.995-7.075-1.073 3.934z"/><path d="M24.6 51.029l1.047.345-1.747-3.482zm11.194 1.807l-1.6 3.348 5.79.521zm-10.025-4.681l1.843 3.6 1.861 3.2 1.385-1.333-.021-2.322z" fill="#1e226d"/><path d="M49.261 53.345l-.249 3.18 2.059-1.6zm-8.861-.457l-.421 3.817 4.921-1.321-.175-4.291z" fill="#222475"/><path d="M22.788 40.94h2.733l-2.643-4.089zm21.937 10.153l.175 4.291 4.361-2.039z" fill="#23277d"/><path fill="#1e2776" d="M44.725 51.093l2.807-2.542 1.729 4.794-4.536-2.252z"/><path fill="#222b86" d="M49.261 53.345l2.122-6.427-3.851 1.633 1.729 4.794z"/><path fill="#192974" d="M53.634 50.439l-4.373 2.906 2.122-6.427 2.251 3.521z"/><path fill="#172a75" d="M55.77 47.563l-4.387-.645 2.251 3.521 2.151-.411-.015-2.465z"/><path fill="#172d7d" d="M56.075 44.109l-4.692 2.809 4.387.645 2.471-4.154-2.166.7z"/><path d="M23.305 33.1l2.007-4.132-2.7 4.39zm31.02 5.115l1.75 5.893 1.3-3.72z" fill="#18338a"/><path fill="#153791" d="M57.378 40.389l-1.213-4.653-1.84 2.48 3.053 2.173z"/><path fill="#1b318b" d="M51.383 46.918l4.692-2.809-4.547-2.024-.145 4.833z"/><path fill="#242d8d" d="M51.383 46.918l-4.252-4.296.401 5.929 3.851-1.633z"/><path fill="#2a2b8f" d="M44.725 51.093l-3.265-2.891 6.072.349-2.807 2.542z"/><path d="M25.769 48.155l1.073-3.934-2.385.872zm15.691.045l-1.06 4.688 4.323-1.795z" fill="#27267f"/><path fill="#2d2381" d="M34.702 49.161l-3.142-1.598-.723 3.733 4.954 1.54 4.611.052-5.7-3.727z"/><path fill="#2f2485" d="M40.402 52.888l1.058-4.686-6.758.959 5.7 3.727z"/><path fill="#233196" d="M25.521 40.936l1.355-4.328-1.538-2.413.183 6.741z"/><path fill="#293cb7" d="M28.31 32.926l5.95-1.734-3.143 6.421-2.807-4.687z"/><path fill="#25339c" d="M51.383 46.918l-4.252-4.296 4.397-.537-.145 4.833z"/><path fill="#19348f" d="M56.075 44.109l-1.75-5.893-2.797 3.869 4.547 2.024z"/><path fill="#2a309a" d="M47.532 48.551l-4.863-4.702 4.462-1.227.401 5.929z"/><path fill="#302b96" d="M41.46 48.202l6.072.349-4.863-4.702-1.209 4.353z"/><path fill="#3630a7" d="M41.46 48.202l-3.325-2.708 4.534-1.645-1.209 4.353z"/><path d="M27.876 26.521l.367-.823-2.931 3.271zm25.346 6.984l1.1 4.711 1.84-2.48z" fill="#173da2"/><path fill="#2a36a8" d="M28.31 32.926l2.807 4.687-4.241-1.005 1.434-3.682z"/><path fill="#312e9f" d="M26.876 36.608l4.241 1.005-2.868 4.517-1.373-5.522z"/><path fill="#184dcd" d="M34.26 31.192l2.349-4.778-4.302 2.13 1.953 2.648z"/><path fill="#272986" d="M25.521 40.936l2.728 1.194-1.407 2.091-1.321-3.285z"/><path fill="#2c2584" d="M28.249 42.13l-1.407 2.091 3.995 7.075.723-3.733-3.311-5.433z"/><path fill="#32268b" d="M31.56 47.563l.442-6.573-3.753 1.14 3.311 5.433z"/><path fill="#372999" d="M31.56 47.563l6.575-2.069-6.133-4.504-.442 6.573z"/><path fill="#392da5" d="M38.135 45.494l-.641-5.082-5.492.578 6.133 4.504z"/><path fill="#3338bc" d="M37.494 40.412l4.638-1.734.537 5.171-5.175-3.437z"/><path fill="#362896" d="M34.702 49.161l6.758-.959-3.325-2.708-3.433 3.667z"/><path fill="#35268f" d="M34.702 49.161l-3.142-1.598 6.575-2.069-3.433 3.667z"/><path fill="#2648d3" d="M34.26 31.192l4.027.426-1.678-5.204-2.349 4.778z"/><path fill="#1057dc" d="M40.362 27.936l-3.753-1.522 1.678 5.204 2.075-3.682z"/><path fill="#1653da" d="M40.362 27.936l3.997 2.739-6.072.943 2.075-3.682z"/><path fill="#2b46d5" d="M38.287 31.618l5.956 3.159-2.111 3.901-3.845-7.06z"/><path fill="#244ad7" d="M44.243 34.777l.116-4.102-6.072.943 5.956 3.159z"/><path fill="#2547cf" d="M44.243 34.777l.116-4.102 4.207 2.06-4.323 2.042z"/><path fill="#333cc5" d="M38.287 31.618l3.845 7.06-6.743-3.378 2.898-3.682z"/><path fill="#3833b6" d="M37.494 40.412l4.638-1.734-6.743-3.378 2.105 5.112z"/><path fill="#2a41c6" d="M42.132 38.678l5.947-1.087-3.836-2.814-2.111 3.901z"/><path fill="#2045c1" d="M48.566 32.735l-.487 4.856-3.836-2.814 4.323-2.042z"/><path fill="#1b43b7" d="M48.566 32.735l2.807 3.813-3.294 1.043.487-4.856z"/><path fill="#1742af" d="M53.222 33.505l-4.656-.77 2.807 3.813 1.849-3.043z"/><path d="M29.5 28.077l1.8-3.9-3.418 2.339zm23.727 5.428l-1.849 3.043 2.952 1.668z" fill="#1740a9"/><path fill="#1b3ca4" d="M51.528 42.085l2.797-3.869-2.952-1.668.155 5.537z"/><path fill="#1f3dad" d="M51.528 42.085l-.155-5.537-3.294 1.043 3.449 4.494z"/><path d="M28.31 32.926l5.95-1.734-1.953-2.648zm13.822 5.752l5 3.944.948-5.031z" fill="#2543c3"/><path fill="#2e37b2" d="M42.669 43.849l4.462-1.227-4.999-3.944.537 5.171z"/><path fill="#2d40c7" d="M34.26 31.192l1.129 4.108 2.898-3.682-4.027-.426z"/><path fill="#3537b8" d="M34.26 31.192l-3.143 6.421 4.272-2.313-1.129-4.108z"/><path fill="#3931b0" d="M35.389 35.3l-3.387 5.69 5.492-.578-2.105-5.112z"/><path d="M37.494 40.412l.641 5.082 4.534-1.645zM32 40.99l3.387-5.69-4.272 2.313z" fill="#3735b8"/><path fill="#342892" d="M28.249 42.13l2.868-4.517.885 3.377-3.753 1.14z"/><path d="M31.077 57l3.037.95-4.641-2.995zm-.219-3.378l3.333 2.566 1.6-3.348-4.954-1.54zm9.123 3.087l.421-3.817-4.611-.052zm4.919-1.325l-1.35 3.178 5.462-2.037z" fill="#232372"/><path fill="#2a2f96" d="M25.521 40.936l1.355-4.328 1.373 5.522-2.728-1.194z"/><path d="M26.876 36.608l1.434-3.682-2.971 1.274zm21.2.983l-.948 5.031 4.4-.537z" fill="#2636a5"/><path d="M59.074 42.381v-.008l-.174-5.734v-.02l-.862-2.861v-.006l-2.466-4.654-2.842-3.004h-.006l-2.994-2.137h-.012l-2.6-1.02H47.1l-3.12-1.11h-.021l-5.137-.327H38.8l-3.24.585h-.012l-2.641.812h-.017l-4.69 2.728-2.93 3.269-2.7 4.389v.011l-1.064 3.736v.014l-.2 5.669v.027l1.013 3.862v.013l2.235 4.4v.007L26.1 53.2v.005l2.18 2h.006l2.723 1.842h.006l3.358 1.46h.021l5.619.659h.008l2.934.082h.023l4.342-1.224h.015l3.88-2.13.007-.005h.005l2.5-2.13 1.936-2.311.007-.01 2.738-5.36v-.021l.6-3.665v-.009zM28.407 55.087l-.565-.518 1.27.995zm8.242 2.153l-1.985-.928 4.7.423zm.723-16.9l-5.21.548 3.213-5.4zm-1.818-4.863l6.366 3.189-4.379 1.634zm1.866 5.028l.606 4.8-5.8-4.257zm.53 4.958l-6.3 1.982.423-6.3zm-.35-4.878l4.881 3.241-4.276 1.552zm.078-.152l4.38-1.638.507 4.884zm6.729-5.641l4.059-1.916-.458 4.559zm3.462 2.751l-5.58 1.02 1.982-3.663zm-5.739.957l-3.63-6.675 5.631 2.986zm-.2-.019l-6.408-3.21 2.754-3.5zm-9.895 2.292l-.817-3.118 3.943-2.134zm-.54 6.518l-3.116-5.111 3.53-1.073zm6.359-1.619l-3.168 3.384-2.9-1.474zm4.691-1.687l-1.13 4.07-3.115-2.532zm-.306-5.116l4.71 3.715-4.2 1.157zm.094-.142l5.641-1.03-.9 4.771zm5.845-1.255l.452-4.509 2.606 3.54zm3.115-.81l.144 5.163-3.216-4.189zm-6.959-2.021l.108-3.832 3.931 1.925zm-.17 0l-5.61-2.976 5.719-.888zm-8.736.477l-1.051-3.826 3.751.4zm-.137.143l-3.981 2.151 2.928-5.981zM31.9 40.933l-3.455 1.05 2.641-4.161zm-.625 6.323L26.959 44.2l1.287-1.911zm.348.434l2.9 1.474-3.566 1.97zm6.521-2.08l3.114 2.536-6.328.9zm4.57-1.6l4.6 4.444-5.739-.329zm.122-.118l4.218-1.16.379 5.606zm5.292-6.1l3.243 4.225-4.134.5zm3.335-1.1l2.737 1.551-2.6 3.589zm.029-.178l1.7-2.791 1.008 4.324zm-.125-.122l-2.608-3.542 4.327.715zM44.51 30.65l3.063-2.773.879 4.705zm-6.062.854l1.944-3.449 3.744 2.566zm-4.058-.384l2.2-4.48 1.574 4.88zm-3.28 6.315l-2.67-4.458 5.659-1.65zm-2.826 4.483l-1.292-5.195 3.99.945zm-1.423 2.122l-1.184-2.94 2.445 1.07zm4.605 3.56l-.666 3.453-3.7-6.544zm3.185 1.685l1.013 3.422-4.612-1.434zm6.7-.983l-1.005 4.448-5.409-3.538zm5.974.321l-2.6 2.355L41.7 48.3zm-.094-5.781l4 4.046-3.627 1.538zm.082-.158l4.127-.5-.14 4.534zm6.98-4.279l1.648 5.551-4.284-1.906zm-.935-4.692l2.689 2.039-1.681 2.266zm-4.628-1.037l2.5-2.859 1.843 3.576zm-.113-.129l-.873-4.673 3.366 1.817zm-4.265-1.98l-3.728-2.554 6.776-.206zm-6.043.84l-1.563-4.846 3.495 1.417zm-4.064-.378l-1.809-2.454 3.987-1.975zm-.125.116l-5.544 1.616 3.724-4.083zm-3.179 6.339l-3.95-.936 1.336-3.429zm-2.816 4.5l-2.5-1.095 1.243-3.967zm-1.394 2.187l-2.151.787.959-3.75zm3.869 6.878l-4.732-2.933 1-3.674zm4.819 1.76l-4.477.71-.019-2.108zm-.57-3.451l5.264 3.442-4.259-.048zm6.663-1l3.055 2.706-4.046 1.68zm5.988.342l1.615 4.476-4.236-2.1zm.144-.1l3.6-1.528-1.986 6.015zm3.97-6.384l4.283 1.906-4.419 2.646zm2.867-3.786l2.8 1.993-1.2 3.413zm-.031-.231l1.683-2.268 1.109 4.256zm-1.124-4.724l.774-2.425 1.861 4.428zm-.117-.189l-1.786-3.456 2.564 1.025zm-5.277-5.5l3.729-.244-.47 2zm-7.383.065l2.625-3.257 4.208 3.049zm-.155-.078l-1.352-3.541 3.95.318zm-.176.016l-3.453-1.4 2.117-2.1zm-7.758.593l1.485-4.284 2.521 2.3zm-3.983 4.247l1.087-4.451 2.581.429zm-1.614 3.8l-1.394-2.189 2.694-1.15zm-.074.2l-1.192 3.8-.16-5.926zm-1.373 4.4l-.972 3.8-1.525-3.8zm-2.536-.166l.081-3.729 2.409 3.726zm3.842 3.5l-.971 3.537-1.18-2.757zm3.876 6.888l-2.933.415-1.676-3.272zm.16.148l.019 2.078-2.9-1.669zm4.891 1.552l-1.489 3.102-3.094-2.382zm.174.031l3.918 3.618-5.421-.488zm.192-.053l4.3.049-.392 3.557zm8.635-1.7l.164 4.018L40.6 52.9zm.171.015l4.25 2.11-4.086 1.91zm6.592-4.118l2.11 3.3-4.1 2.724zm.147-.086l4.062.6-1.983 2.65zm.075-.16l4.346-2.6-.283 3.2zm5.74-6.2l.767 2.685-1.925.622zm-1.026-4.58l2.2 2.772-1.13 1.334zm-2.06-5.049l2.859 2.094-.983 2.367zm-2.946-1.439l.461-1.965 2.058 2.972zM47.7 27.626l-.5-3 4.3 2.754zm-.189-.1l-4.1-2.969 3.6-.023zm-8.335-3.458l2.675-1.642L43 24.376zM36.607 26.3l-2.477-2.26 4.581.172zm-4.357 2.149l-2.572-.428 4.031-3.78zm-3.99 4.327l-2.632-2.137 3.735-2.378zm-.112.128l-2.719 1.16.132-3.261zm-2.72 7.732l-2.443-3.779 2.274-2.452zM24.369 45.1l-.463 2.312-.915-5.741zm.118.276l1.145 2.673L24 47.821zm2.97 6.259l-1.726-.335.11-2.822zm3.261 2l-1.226 1.179-1.647-2.831zm.146.094L33.809 56l-4.169-1.09zm9.608-.706l4.2 2.332-4.6 1.235zm8.693.459l-.23 2.933-3.791-1.053zm4.218-2.775L51.049 54.8 49.4 53.354zm2.3-2.89l.012 2.14-1.867.357zm.468-3.645l1.9-.614-2.164 3.642zm1.317-3.764l1.078-1.271-.346 3.813zm-1.209-4.686l.968-2.331 1.254 5.129zm-2.059-4.94l.68-1.187 2.049 3.186zm-.118-.135l-2.012-2.9 2.692 1.716zm-6.749-6.139l2.036-.217 2.06 2.841zm-4.135-.12l-1.121-1.905 4.584 1.884zm-4.262-.374l-.9-1.582 3.538-.036zm-.18.027l-4.456-.167 3.551-1.419zm-9 3.676l1.6-3.455 2.314-.211zm-.287.216l-1.458-1.4 3.078-2.106zm-.109.13l-3.627 2.309 2.167-3.715zm-4.1 5.993l-1.82-.979 1.95-2.211zm-.057.161L22.991 36.6l.384-3.365zM22.7 40.9l-.935.764 1.007-4.055zm.023.2l.954 5.986-1.955-5.166zm2.954 7.129l-.109 2.813L24.044 48zm1.877 3.6L29.11 54.5l-3.194-2.984zm6.546 4.42l-.067 1.545-4.072-2.627zm.167.066l2.114.988-2.18.533zm5.629.492l.066 2.167-3.071-1.607zm4.855-1.3l-1.246 2.933-3.294-1.713zm.2-.026l3.789 1.052-5.032 1.877zm4.384-1.965l1.605 1.4-1.829 1.424zm4.356-3.005l1.85-.354-4.056 4.216zm2.179-.818l-.013-2.087 1.707-1.043zm.15-2.385l2.07-3.478-.381 2.449zm2.642-7.52l.242 2.56-.548.757zM57.4 33.377l.473.444.474 3.43zM55 29.465l.445-.224 1.288 2.919zm-3.117-2.044l.782-1.119 1.914 2.839zm-.122-.122l-2.038-2.812 2.822 1.691zm-4.591-2.944l-.013-1.222 1.964 1.014zm-.17-.033l-4.489-1.844 4.476.589zm-8.879-2.061l.715-.613 2.369.583zm-3.9 1.464l1.389-1.5 1.922.173zm-.359.138l-2.1.191 3.455-1.646zm-5.786 2.418l.232-.521 1.931-.959zm-2.535 4.082L25.4 29l2.1-2zm-.146.24l-1.742 1.975 1.605-3.3zM22.8 36.775l-1.112.207 1.469-3.335zm-.037.18L21.7 41.24l-.068-4.075zm.937 10.669l-1.264-1.04-.606-3.9zm1.772 3.6l-.807-.265-.54-2.419zm3.451 3.328L26.245 53.1l-.431-1.448zm.49.46l1.161 1.48-3.55-2.781zm.434.279l3.693 2.383-2.417-.756zm6.775 2.122l2.87 1.5-4.989-.983zm3.445-.571l3.212 1.671-3.147.5zm8.528-.078l-1.3 1.126-2.935.455zm2.41-1.686l.109.7-1.686.521zm4.375-4.516l-1.73 3.086-2.207 1.015zm.484-.514l1.161-2.145-1.241 2.943zm2.454-6.61l.438-.606-.7 2.318zm.422-4.572l-.006-.045.044-.574.044 1.487zm-.117-.845l-.438-3.178.543 1.8zm-1.3-4.956l-.8-1.815 1.12 2.115zm-2.414-3.748l-1.6-2.371 2.04 2.15zM49.567 24.2l.107-.077L50.9 25zm-.162-.093l-.831-.429.924.363zm-7.016-1.817l1.558-.32 2.344.834zm-.508-.068L39.76 21.7l3.556.226zm-4.018.039l-1.654-.149 2.315-.418zm-5.837 1.478l.946-.709 1.526-.47zm-.777.37l-.821.408 1.262-.738zm-3.444 2.362l-.974.93 1.113-1.242zm-4.562 6.563l-.433.16 1.683-2.733zm-.564.389l.467-.173-1.181 2.683zm-1.163 6.963l.024 1.493-.086.272zm.081 1.875l.426 2.745-.587-2.24zm2.223 5.678l.547 2.45-1.747-3.437zm1.755 3.5l.38 1.278-1.131-1.525zm8.484 6.577l.158.253-1.66-.722zm.426.36l-.2-.31 3.611.711zm8.846.3l-.38.43-1.982-.055zm.263-.041l2.363-.367-2.714.764zm5.46-2.041l1.386-.428L48 57.513zm2.22-.919l-.109-.7 2.025-.931zm4.386-5.258l-.095.945-1.332 1.589zm2.193-4.03l.342-.165-1.567 3.078zm.455-.408l-.384.186.772-2.54z" fill="url(#b)"/><path d="M59.074 42.381v-.008l-.174-5.734v-.02l-.862-2.861v-.006l-2.466-4.654-2.842-3.004h-.006l-2.994-2.137h-.012l-2.6-1.02H47.1l-3.12-1.11h-.021l-5.137-.327H38.8l-3.24.585h-.012l-2.641.812h-.017l-4.69 2.728-2.93 3.269-2.7 4.389v.011l-1.064 3.736v.014l-.2 5.669v.027l1.013 3.862v.013l2.235 4.4v.007L26.1 53.2v.005l2.18 2h.006l2.723 1.842h.006l3.358 1.46h.021l5.619.659h.008l2.934.082h.023l4.342-1.224h.015l3.88-2.13.007-.005h.005l2.5-2.13 1.936-2.311.007-.01 2.738-5.36v-.021l.6-3.665v-.009zM28.407 55.087l-.565-.518 1.27.995zm8.242 2.153l-1.985-.928 4.7.423zm.723-16.9l-5.21.548 3.213-5.4zm-1.818-4.863l6.366 3.189-4.379 1.634zm1.866 5.028l.606 4.8-5.8-4.257zm.53 4.958l-6.3 1.982.423-6.3zm-.35-4.878l4.881 3.241-4.276 1.552zm.078-.152l4.38-1.638.507 4.884zm6.729-5.641l4.059-1.916-.458 4.559zm3.462 2.751l-5.58 1.02 1.982-3.663zm-5.739.957l-3.63-6.675 5.631 2.986zm-.2-.019l-6.408-3.21 2.754-3.5zm-9.895 2.292l-.817-3.118 3.943-2.134zm-.54 6.518l-3.116-5.111 3.53-1.073zm6.359-1.619l-3.168 3.384-2.9-1.474zm4.691-1.687l-1.13 4.07-3.115-2.532zm-.306-5.116l4.71 3.715-4.2 1.157zm.094-.142l5.641-1.03-.9 4.771zm5.845-1.255l.452-4.509 2.606 3.54zm3.115-.81l.144 5.163-3.216-4.189zm-6.959-2.021l.108-3.832 3.931 1.925zm-.17 0l-5.61-2.976 5.719-.888zm-8.736.477l-1.051-3.826 3.751.4zm-.137.143l-3.981 2.151 2.928-5.981zM31.9 40.933l-3.455 1.05 2.641-4.161zm-.625 6.323L26.959 44.2l1.287-1.911zm.348.434l2.9 1.474-3.566 1.97zm6.521-2.08l3.114 2.536-6.328.9zm4.57-1.6l4.6 4.444-5.739-.329zm.122-.118l4.218-1.16.379 5.606zm5.292-6.1l3.243 4.225-4.134.5zm3.335-1.1l2.737 1.551-2.6 3.589zm.029-.178l1.7-2.791 1.008 4.324zm-.125-.122l-2.608-3.542 4.327.715zM44.51 30.65l3.063-2.773.879 4.705zm-6.062.854l1.944-3.449 3.744 2.566zm-4.058-.384l2.2-4.48 1.574 4.88zm-3.28 6.315l-2.67-4.458 5.659-1.65zm-2.826 4.483l-1.292-5.195 3.99.945zm-1.423 2.122l-1.184-2.94 2.445 1.07zm4.605 3.56l-.666 3.453-3.7-6.544zm3.185 1.685l1.013 3.422-4.612-1.434zm6.7-.983l-1.005 4.448-5.409-3.538zm5.974.321l-2.6 2.355L41.7 48.3zm-.094-5.781l4 4.046-3.627 1.538zm.082-.158l4.127-.5-.14 4.534zm6.98-4.279l1.648 5.551-4.284-1.906zm-.935-4.692l2.689 2.039-1.681 2.266zm-4.628-1.037l2.5-2.859 1.843 3.576zm-.113-.129l-.873-4.673 3.366 1.817zm-4.265-1.98l-3.728-2.554 6.776-.206zm-6.043.84l-1.563-4.846 3.495 1.417zm-4.064-.378l-1.809-2.454 3.987-1.975zm-.125.116l-5.544 1.616 3.724-4.083zm-3.179 6.339l-3.95-.936 1.336-3.429zm-2.816 4.5l-2.5-1.095 1.243-3.967zm-1.394 2.187l-2.151.787.959-3.75zm3.869 6.878l-4.732-2.933 1-3.674zm4.819 1.76l-4.477.71-.019-2.108zm-.57-3.451l5.264 3.442-4.259-.048zm6.663-1l3.055 2.706-4.046 1.68zm5.988.342l1.615 4.476-4.236-2.1zm.144-.1l3.6-1.528-1.986 6.015zm3.97-6.384l4.283 1.906-4.419 2.646zm2.867-3.786l2.8 1.993-1.2 3.413zm-.031-.231l1.683-2.268 1.109 4.256zm-1.124-4.724l.774-2.425 1.861 4.428zm-.117-.189l-1.786-3.456 2.564 1.025zm-5.277-5.5l3.729-.244-.47 2zm-7.383.065l2.625-3.257 4.208 3.049zm-.155-.078l-1.352-3.541 3.95.318zm-.176.016l-3.453-1.4 2.117-2.1zm-7.758.593l1.485-4.284 2.521 2.3zm-3.983 4.247l1.087-4.451 2.581.429zm-1.614 3.8l-1.394-2.189 2.694-1.15zm-.074.2l-1.192 3.8-.16-5.926zm-1.373 4.4l-.972 3.8-1.525-3.8zm-2.536-.166l.081-3.729 2.409 3.726zm3.842 3.5l-.971 3.537-1.18-2.757zm3.876 6.888l-2.933.415-1.676-3.272zm.16.148l.019 2.078-2.9-1.669zm4.891 1.552l-1.489 3.102-3.094-2.382zm.174.031l3.918 3.618-5.421-.488zm.192-.053l4.3.049-.392 3.557zm8.635-1.7l.164 4.018L40.6 52.9zm.171.015l4.25 2.11-4.086 1.91zm6.592-4.118l2.11 3.3-4.1 2.724zm.147-.086l4.062.6-1.983 2.65zm.075-.16l4.346-2.6-.283 3.2zm5.74-6.2l.767 2.685-1.925.622zm-1.026-4.58l2.2 2.772-1.13 1.334zm-2.06-5.049l2.859 2.094-.983 2.367zm-2.946-1.439l.461-1.965 2.058 2.972zM47.7 27.626l-.5-3 4.3 2.754zm-.189-.1l-4.1-2.969 3.6-.023zm-8.335-3.458l2.675-1.642L43 24.376zM36.607 26.3l-2.477-2.26 4.581.172zm-4.357 2.149l-2.572-.428 4.031-3.78zm-3.99 4.327l-2.632-2.137 3.735-2.378zm-.112.128l-2.719 1.16.132-3.261zm-2.72 7.732l-2.443-3.779 2.274-2.452zM24.369 45.1l-.463 2.312-.915-5.741zm.118.276l1.145 2.673L24 47.821zm2.97 6.259l-1.726-.335.11-2.822zm3.261 2l-1.226 1.179-1.647-2.831zm.146.094L33.809 56l-4.169-1.09zm9.608-.706l4.2 2.332-4.6 1.235zm8.693.459l-.23 2.933-3.791-1.053zm4.218-2.775L51.049 54.8 49.4 53.354zm2.3-2.89l.012 2.14-1.867.357zm.468-3.645l1.9-.614-2.164 3.642zm1.317-3.764l1.078-1.271-.346 3.813zm-1.209-4.686l.968-2.331 1.254 5.129zm-2.059-4.94l.68-1.187 2.049 3.186zm-.118-.135l-2.012-2.9 2.692 1.716zm-6.749-6.139l2.036-.217 2.06 2.841zm-4.135-.12l-1.121-1.905 4.584 1.884zm-4.262-.374l-.9-1.582 3.538-.036zm-.18.027l-4.456-.167 3.551-1.419zm-9 3.676l1.6-3.455 2.314-.211zm-.287.216l-1.458-1.4 3.078-2.106zm-.109.13l-3.627 2.309 2.167-3.715zm-4.1 5.993l-1.82-.979 1.95-2.211zm-.057.161L22.991 36.6l.384-3.365zM22.7 40.9l-.935.764 1.007-4.055zm.023.2l.954 5.986-1.955-5.166zm2.954 7.129l-.109 2.813L24.044 48zm1.877 3.6L29.11 54.5l-3.194-2.984zm6.546 4.42l-.067 1.545-4.072-2.627zm.167.066l2.114.988-2.18.533zm5.629.492l.066 2.167-3.071-1.607zm4.855-1.3l-1.246 2.933-3.294-1.713zm.2-.026l3.789 1.052-5.032 1.877zm4.384-1.965l1.605 1.4-1.829 1.424zm4.356-3.005l1.85-.354-4.056 4.216zm2.179-.818l-.013-2.087 1.707-1.043zm.15-2.385l2.07-3.478-.381 2.449zm2.642-7.52l.242 2.56-.548.757zM57.4 33.377l.473.444.474 3.43zM55 29.465l.445-.224 1.288 2.919zm-3.117-2.044l.782-1.119 1.914 2.839zm-.122-.122l-2.038-2.812 2.822 1.691zm-4.591-2.944l-.013-1.222 1.964 1.014zm-.17-.033l-4.489-1.844 4.476.589zm-8.879-2.061l.715-.613 2.369.583zm-3.9 1.464l1.389-1.5 1.922.173zm-.359.138l-2.1.191 3.455-1.646zm-5.786 2.418l.232-.521 1.931-.959zm-2.535 4.082L25.4 29l2.1-2zm-.146.24l-1.742 1.975 1.605-3.3zM22.8 36.775l-1.112.207 1.469-3.335zm-.037.18L21.7 41.24l-.068-4.075zm.937 10.669l-1.264-1.04-.606-3.9zm1.772 3.6l-.807-.265-.54-2.419zm3.451 3.328L26.245 53.1l-.431-1.448zm.49.46l1.161 1.48-3.55-2.781zm.434.279l3.693 2.383-2.417-.756zm6.775 2.122l2.87 1.5-4.989-.983zm3.445-.571l3.212 1.671-3.147.5zm8.528-.078l-1.3 1.126-2.935.455zm2.41-1.686l.109.7-1.686.521zm4.375-4.516l-1.73 3.086-2.207 1.015zm.484-.514l1.161-2.145-1.241 2.943zm2.454-6.61l.438-.606-.7 2.318zm.422-4.572l-.006-.045.044-.574.044 1.487zm-.117-.845l-.438-3.178.543 1.8zm-1.3-4.956l-.8-1.815 1.12 2.115zm-2.414-3.748l-1.6-2.371 2.04 2.15zM49.567 24.2l.107-.077L50.9 25zm-.162-.093l-.831-.429.924.363zm-7.016-1.817l1.558-.32 2.344.834zm-.508-.068L39.76 21.7l3.556.226zm-4.018.039l-1.654-.149 2.315-.418zm-5.837 1.478l.946-.709 1.526-.47zm-.777.37l-.821.408 1.262-.738zm-3.444 2.362l-.974.93 1.113-1.242zm-4.562 6.563l-.433.16 1.683-2.733zm-.564.389l.467-.173-1.181 2.683zm-1.163 6.963l.024 1.493-.086.272zm.081 1.875l.426 2.745-.587-2.24zm2.223 5.678l.547 2.45-1.747-3.437zm1.755 3.5l.38 1.278-1.131-1.525zm8.484 6.577l.158.253-1.66-.722zm.426.36l-.2-.31 3.611.711zm8.846.3l-.38.43-1.982-.055zm.263-.041l2.363-.367-2.714.764zm5.46-2.041l1.386-.428L48 57.513zm2.22-.919l-.109-.7 2.025-.931zm4.386-5.258l-.095.945-1.332 1.589zm2.193-4.03l.342-.165-1.567 3.078zm.455-.408l-.384.186.772-2.54z" fill="url(#c)"/><path d="M75.959 26.832c-1.686-4.052-5.1-8.427-7.784-9.809A40.165 40.165 0 0 1 72.1 28.786c0-.009 0 .008.006.037l.007.041a35.053 35.053 0 0 1-1.208 26.157c-4.446 9.532-15.211 19.3-32.061 18.825-18.202-.515-34.239-14.009-37.233-31.682-.545-2.787 0-4.2.274-6.465a28.874 28.874 0 0 0-.628 5.347v.2A38.808 38.808 0 0 0 78.3 47.8c.065-.5.118-.995.176-1.495a39.8 39.8 0 0 0-2.517-19.473z" fill="url(#d)"/><path d="M75.959 26.832c-1.686-4.052-5.1-8.427-7.784-9.809A40.165 40.165 0 0 1 72.1 28.786c0-.009 0 .008.006.037l.007.041a35.053 35.053 0 0 1-1.208 26.157c-4.446 9.532-15.211 19.3-32.061 18.825-18.202-.515-34.239-14.009-37.233-31.682-.545-2.787 0-4.2.274-6.465a28.874 28.874 0 0 0-.628 5.347v.2A38.808 38.808 0 0 0 78.3 47.8c.065-.5.118-.995.176-1.495a39.8 39.8 0 0 0-2.517-19.473z" fill="url(#e)"/><path d="M1.611 42.164c2.994 17.673 19.031 31.167 37.237 31.682 16.85.476 27.615-9.293 32.061-18.825a35.053 35.053 0 0 0 1.208-26.157v-.037c0-.029-.006-.046-.006-.037l.008.065c1.376 8.977-3.195 17.674-10.341 23.555l-.022.05C47.824 63.782 34.5 59.289 31.8 57.451a24.76 24.76 0 0 1-.565-.282c-8.118-3.875-11.472-11.264-10.753-17.6a9.964 9.964 0 0 1-9.192-5.776 14.651 14.651 0 0 1 14.266-.571 19.337 19.337 0 0 0 14.568.572c-.014-.315-6.767-3-9.4-5.59-1.407-1.385-2.075-2.052-2.666-2.553a11.762 11.762 0 0 0-1-.758c-.231-.157-.49-.327-.8-.531-2.83-1.838-8.458-1.736-8.644-1.732h-.018c-1.539-1.947-1.43-8.367-1.342-9.707a6.954 6.954 0 0 0-1.3.686 28.275 28.275 0 0 0-3.792 3.245A34 34 0 0 0 7.535 21.2v.006-.006a32.689 32.689 0 0 0-5.207 11.738c-.018.084-1.396 6.104-.717 9.226z" fill="url(#f)"/><path d="M53.742 26.87a21.061 21.061 0 0 1 3.6 4.7 7.876 7.876 0 0 1 .583.476c8.8 8.1 4.187 19.549 3.844 20.365 7.146-5.881 11.717-14.578 10.341-23.555-4.388-10.925-11.827-15.33-17.9-24.921a47.894 47.894 0 0 1-.914-1.485 11.747 11.747 0 0 1-.427-.8 7.032 7.032 0 0 1-.58-1.539.1.1 0 0 0-.088-.1.129.129 0 0 0-.073 0l-.019.01-.029.012c-1.5.715-10.399 14.79 1.662 26.837z" fill="url(#g)"/><path d="M38.816 21.556l5.137.327 3.12 1.11 2.6 1.02 2.995 2.139 2.821 2.974.98 1.849a23.46 23.46 0 0 1 .634.413c.085.059.162.118.241.177a21.061 21.061 0 0 0-3.6-4.695C41.681 14.823 50.58.748 52.08.033l.02-.022c-9.747 5.7-13.054 16.251-13.357 21.529v.03z" fill="url(#h)"/><path d="M26.25 24.362a22.816 22.816 0 0 1 .8.531 17.927 17.927 0 0 1-.109-9.472 28.736 28.736 0 0 0-9.34 7.209c.191-.004 5.819-.106 8.649 1.732z" fill="url(#i)"/><path d="M22.635 44.75s1.791-6.667 12.825-6.667c1.193 0 4.6-3.325 4.666-4.289a19.337 19.337 0 0 1-14.568-.572 14.651 14.651 0 0 0-14.266.571 9.964 9.964 0 0 0 9.192 5.776c-.719 6.336 2.635 13.725 10.753 17.6.182.087.352.182.538.265-4.738-2.447-8.651-7.07-9.14-12.684z" fill="url(#j)"/><path d="M57.927 32.041a7.876 7.876 0 0 0-.583-.476c-.079-.059-.156-.118-.241-.177a13.406 13.406 0 0 0-9.356-2.269c13.957 6.97 10.21 30.971-9.129 30.065a17.241 17.241 0 0 1-5.049-.973 22.74 22.74 0 0 1-1.14-.465c-.218-.1-.437-.2-.654-.312l.027.017c2.7 1.838 16.022 6.331 29.947-4.995l.022-.05c.343-.816 4.952-12.268-3.844-20.365z" fill="url(#k)"/><path d="M75.956 26.831c-1.686-4.053-5.1-8.427-7.784-9.81A40.19 40.19 0 0 1 72.1 28.785l.008.064C67.721 17.925 60.281 13.52 54.206 3.928a45.312 45.312 0 0 1-.914-1.484 12.796 12.796 0 0 1-.428-.8 7.053 7.053 0 0 1-.578-1.535.1.1 0 0 0-.088-.1.138.138 0 0 0-.073 0c-.006 0-.014.009-.02.011s-.019.011-.028.015l.016-.022c-9.747 5.7-13.052 16.283-13.356 21.561l.079-.014 5.137.327 2.891 1.028 2.829 1.1 2.995 2.139 2.818 2.972s.97 1.82.983 1.851a13.279 13.279 0 0 0-8.725-1.858c13.956 6.97 10.21 30.971-9.129 30.065a17.272 17.272 0 0 1-5.049-.972Q33 58 32.426 57.744a14.44 14.44 0 0 1-.654-.312l.027.017a22.816 22.816 0 0 1-.565-.281c.181.086.352.181.538.264-4.738-2.446-8.651-7.07-9.14-12.684 0 0 1.791-6.667 12.825-6.667 1.193 0 4.6-3.325 4.666-4.289-.014-.315-6.768-3-9.4-5.59-1.407-1.384-2.075-2.052-2.667-2.553a11.4 11.4 0 0 0-1.005-.757 17.943 17.943 0 0 1-.109-9.473 28.745 28.745 0 0 0-9.34 7.21h-.018c-1.538-1.946-1.429-8.366-1.342-9.707a7.042 7.042 0 0 0-1.3.686 28.222 28.222 0 0 0-3.792 3.246 33.908 33.908 0 0 0-3.624 4.34 32.711 32.711 0 0 0-5.201 11.743c-.019.084-.034.171-.052.255-.073.342-.4 2.073-.448 2.445 0 .028 0-.029 0 0a45.091 45.091 0 0 0-.572 5.408v.2A38.807 38.807 0 0 0 78.3 47.8c.066-.5.119-1 .177-1.5a39.807 39.807 0 0 0-2.521-19.469zm-3.849 1.99l.006.042z" fill="url(#l)"/><path d="M40.126 33.794s-.164.068-.468.172c-.758 1.281-3.453 3.727-4.483 3.722-11.034-.048-12.854 6.546-12.854 6.546a14.093 14.093 0 0 0 2.162 6.333 14.194 14.194 0 0 1-1.848-5.817s1.791-6.667 12.825-6.667c1.193 0 4.6-3.325 4.666-4.289z" fill="url(#m)"/><path d="M72.117 28.864v-.037c0-.029-.006-.046 0-.037s0 .022.007.065a38.737 38.737 0 0 0-.834-1.92c-.1-.212-.2-.41-.305-.617-.195-.4-.388-.8-.59-1.176-.125-.235-.256-.458-.384-.686-.188-.335-.374-.672-.567-1-.142-.236-.288-.462-.432-.692-.189-.3-.377-.6-.57-.892-.153-.231-.31-.454-.465-.679-.193-.278-.385-.556-.582-.827-.162-.224-.327-.443-.492-.662-.2-.261-.393-.522-.592-.778a67.045 67.045 0 0 0-.516-.651c-.2-.249-.4-.5-.605-.745q-.265-.321-.533-.639c-.1-.115-.193-.233-.291-.348l.124.152c-3.374-3.966-7.023-7.621-10.281-12.765a47.165 47.165 0 0 1-.914-1.485 11.747 11.747 0 0 1-.427-.8 7.949 7.949 0 0 1-.534-1.362C52.327.258 52.315.22 52.311.2a4.52 4.52 0 0 1-.022-.09.1.1 0 0 0-.088-.1.129.129 0 0 0-.073 0l-.019.011a.27.27 0 0 0-.029.015 1.138 1.138 0 0 0-.235.173 1.26 1.26 0 0 0-.056.05 3.722 3.722 0 0 0-.307.325l-.011.011C49.15 3.323 43.213 15.2 52.78 25.854c-8.957-10.54-3.312-21.93-.859-24.914a8.61 8.61 0 0 0 .479 1.172 11.488 11.488 0 0 0 .427.8c.3.513.607 1 .914 1.484 6.076 9.592 13.516 14 17.9 24.921 0-.042-.007-.058-.007-.064s0 .008.005.037l.006.037a35.054 35.054 0 0 1-1.204 26.163 32.153 32.153 0 0 1-6.164 8.838 32.214 32.214 0 0 0 6.632-9.307 35.058 35.058 0 0 0 1.208-26.157z" fill="url(#a)"/><path d="M52.08.033l.02-.022c-8.78 5.137-12.334 14.206-13.174 19.812A28.672 28.672 0 0 1 50.647 1.735 5.436 5.436 0 0 1 52.08.033z" fill="url(#n)"/><path d="M61.749 52.456l.022-.05c.343-.816 4.952-12.268-3.844-20.365a7.876 7.876 0 0 0-.583-.476c-.079-.059-.156-.118-.241-.177a13.543 13.543 0 0 0-9-2.325H48.1a8.612 8.612 0 0 0-.353.055C61.546 36.01 58.039 59.55 39.266 59.2l.153.009C58.45 59.957 62.2 36.618 48.977 29.3a14.05 14.05 0 0 1 7.349 2.122 8.183 8.183 0 0 1 .247.169 7.4 7.4 0 0 1 .6.452c9.107 7.747 4.95 19.37 4.638 20.2l-.02.052" fill="url(#o)"/><path d="M25.662 33.61a19.385 19.385 0 0 0 14.029.345 19.388 19.388 0 0 1-14.133-.733 14.743 14.743 0 0 0-14.081.45l-.051.033h-.005l-.042.028-.032.022-.02.014h-.006l-.014.01h-.005l.018.043v.006l.022.05v.01l.033.072v.006a8 8 0 0 0 .255.487 9.925 9.925 0 0 0 8.852 5.1c-.7 6.146 2.438 13.282 10.036 17.242-7.262-4.185-10.313-11.78-9.465-17.821-5.607-.148-8.114-3.509-8.831-4.934a15.333 15.333 0 0 1 13.44-.43z" fill="url(#p)"/><path d="M27.049 24.872l-.19-.111.2.132zm-.04-.142a17.957 17.957 0 0 1-.063-9.309 28.285 28.285 0 0 0-8.98 6.811 29.292 29.292 0 0 1 8.189-5.784 18.179 18.179 0 0 0 .854 8.282z" fill="url(#q)"/><path d="M2.547 46.226l-.031-.111a35.886 35.886 0 0 1-.9-3.951 16.765 16.765 0 0 1 0-5 32.988 32.988 0 0 0-.355 3.88v.2a38.774 38.774 0 0 0 26.04 36.608A39.224 39.224 0 0 1 2.547 46.226z" fill="url(#r)"/><path d="M2.236 42.32c-.679-3.122.7-9.141.717-9.226A32.689 32.689 0 0 1 8.16 21.352v.006-.006a34 34 0 0 1 3.623-4.341 28.275 28.275 0 0 1 3.792-3.245 3.338 3.338 0 0 1 .164-.1c-.014 2.948.154 7.923 1.519 9.554h.018c.187-.01 5.835-.259 8.724 1.5.321.2.585.359.821.51a11.927 11.927 0 0 1 1.029.731c.606.486 1.294 1.135 2.743 2.482 2.1 1.951 6.669 3.891 8.644 4.815-1.924-.969-6.464-3.04-8.511-5.055-1.407-1.385-2.075-2.052-2.666-2.553a11.762 11.762 0 0 0-1-.758c-.231-.157-.49-.327-.8-.531-2.83-1.838-8.458-1.736-8.644-1.732h-.018c-1.406-1.779-1.436-7.293-1.364-9.252 0-.076 0-.145.008-.21v-.127c0-.042 0-.083.007-.118 0 0-.007-.007-.016-.007h-.035l-.022.008-.032.012-.031.013-.037.017-.04.019-.04.02-.049.024-.039.021-.058.03-.033.018a19.292 19.292 0 0 0-.864.5 28.275 28.275 0 0 0-3.792 3.245A34 34 0 0 0 7.535 21.2v.006-.006a32.689 32.689 0 0 0-5.207 11.738c-.018.084-1.4 6.1-.717 9.226C4.159 57.2 16.154 69.215 30.892 72.778 16.441 69.031 4.748 57.147 2.236 42.32z" fill="url(#s)"/><path d="M75.959 26.832a23.765 23.765 0 0 0-6.81-9.2l-.069-.049a13.613 13.613 0 0 0-.23-.158q-.043-.03-.087-.057-.11-.07-.216-.135l-.084-.05a7.863 7.863 0 0 0-.288-.159 35.137 35.137 0 0 1 .306.615 33.589 33.589 0 0 1 .186.383A39.735 39.735 0 0 1 72.1 28.786l.008.065c1.376 8.977-3.195 17.674-10.341 23.555l-.022.05c-8.883 7.225-17.52 8.013-23.312 7.159 5.771 1.078 14.874.623 24.25-7l.021-.05c7.146-5.881 11.718-14.578 10.342-23.555l-.008-.065a38.939 38.939 0 0 0-2.829-9.445 25.662 25.662 0 0 1 4.243 6.047 38.616 38.616 0 0 1 3.586 19c-.03.495-.055.989-.093 1.48A38.63 38.63 0 0 1 41.533 79.82a39.649 39.649 0 0 1-7.661-.312A38.837 38.837 0 0 0 78.3 47.8c.065-.5.118-.995.176-1.495a39.8 39.8 0 0 0-2.517-19.473zm-3.842 2.032v-.037z" fill="url(#t)"/></svg>