<svg xmlns="http://www.w3.org/2000/svg" xmlns:xlink="http://www.w3.org/1999/xlink" width="136" height="236" viewBox="0 0 136 236"><defs><linearGradient id="g" x1="74.996" y1="-8.016" x2="107.507" y2="89.826" gradientUnits="userSpaceOnUse"><stop offset="0" stop-color="#aaf2ff"/><stop offset=".035" stop-color="#9ef1ff"/><stop offset=".098" stop-color="#7eedff"/><stop offset=".183" stop-color="#4be6ff"/><stop offset=".284" stop-color="#04deff"/><stop offset=".29" stop-color="#0df"/><stop offset=".609" stop-color="#0090ed"/><stop offset=".894" stop-color="#0250bb"/></linearGradient><linearGradient id="h" x1="61.766" y1="-.11" x2="81.236" y2="58.484" gradientUnits="userSpaceOnUse"><stop offset="0" stop-color="#aaf2ff"/><stop offset=".035" stop-color="#9ef1ff"/><stop offset=".098" stop-color="#7eedff"/><stop offset=".183" stop-color="#4be6ff"/><stop offset=".284" stop-color="#04deff"/><stop offset=".29" stop-color="#0df"/><stop offset=".74" stop-color="#0090ed"/><stop offset="1" stop-color="#0250bb"/></linearGradient><linearGradient id="l" x1="104.084" y1="18.078" x2="21.932" y2="100.23" gradientUnits="userSpaceOnUse"><stop offset=".239" stop-color="#80ebff" stop-opacity=".5"/><stop offset=".261" stop-color="#76eaff" stop-opacity=".459"/><stop offset=".359" stop-color="#4ce5ff" stop-opacity=".295"/><stop offset=".455" stop-color="#2be2ff" stop-opacity=".167"/><stop offset=".546" stop-color="#13dfff" stop-opacity=".075"/><stop offset=".631" stop-color="#05deff" stop-opacity=".019"/><stop offset=".704" stop-color="#0df" stop-opacity="0"/></linearGradient><linearGradient id="m" x1="48.897" y1="46.232" x2="37.907" y2="91.266" gradientUnits="userSpaceOnUse"><stop offset="0" stop-color="#bff3ff" stop-opacity=".9"/><stop offset="1" stop-color="#80ebff" stop-opacity=".5"/></linearGradient><linearGradient id="a" x1="92.352" y1="-1.542" x2="85.551" y2="133.991" gradientUnits="userSpaceOnUse"><stop offset="0" stop-color="#bff3ff"/><stop offset="1" stop-color="#0df" stop-opacity="0"/></linearGradient><linearGradient id="n" x1="68.125" y1="-1.178" x2="65.94" y2="42.37" gradientUnits="userSpaceOnUse"><stop offset="0" stop-color="#bff3ff"/><stop offset="1" stop-color="#aaf2ff" stop-opacity=".5"/></linearGradient><linearGradient id="o" x1="77.753" y1="42.546" x2="74.469" y2="107.981" xlink:href="#a"/><linearGradient id="p" x1="36.69" y1="41.214" x2="40.483" y2="101.514" gradientUnits="userSpaceOnUse"><stop offset="0" stop-color="#bff3ff" stop-opacity=".8"/><stop offset=".999" stop-color="#80ebff" stop-opacity=".2"/></linearGradient><linearGradient id="q" x1="42.698" y1="19.807" x2="29.036" y2="41.3" gradientUnits="userSpaceOnUse"><stop offset="0" stop-color="#bff3ff" stop-opacity=".8"/><stop offset="1" stop-color="#80ebff" stop-opacity=".2"/></linearGradient><linearGradient id="r" x1="22.164" y1="55.364" x2="17.959" y2="139.166" gradientUnits="userSpaceOnUse"><stop offset="0" stop-color="#0df" stop-opacity=".4"/><stop offset="1" stop-color="#0df" stop-opacity="0"/></linearGradient><linearGradient id="s" x1="29.188" y1="8.292" x2="29.962" y2="107.992" xlink:href="#a"/><linearGradient id="t" x1="86.99" y1="22.489" x2="80.112" y2="159.552" gradientUnits="userSpaceOnUse"><stop offset="0" stop-color="#bff3ff" stop-opacity=".8"/><stop offset="1" stop-color="#0df" stop-opacity="0"/></linearGradient><linearGradient id="u" x1="2" y1="222" x2="94.369" y2="222" gradientUnits="userSpaceOnUse"><stop offset="0" stop-color="#0250bb"/><stop offset=".123" stop-color="#024eb6"/><stop offset="1" stop-color="#054096"/></linearGradient><radialGradient id="b" cx="-7934.832" cy="-8599.623" fy="-8615.089" r="18.928" gradientTransform="matrix(1.5 0 0 1.5 11961.512 12960)" gradientUnits="userSpaceOnUse"><stop offset="0" stop-color="#0df" stop-opacity=".4"/><stop offset="1" stop-color="#7542e5" stop-opacity=".15"/></radialGradient><radialGradient id="c" cx="-7935.119" cy="-8598.621" r="19.233" gradientTransform="matrix(1.5 0 0 1.5 11961.512 12960)" gradientUnits="userSpaceOnUse"><stop offset=".915" stop-color="#7542e5" stop-opacity="0"/><stop offset=".929" stop-color="#6a51e7" stop-opacity=".037"/><stop offset=".953" stop-color="#4c78ee" stop-opacity=".139"/><stop offset=".984" stop-color="#1db7f9" stop-opacity=".302"/><stop offset="1" stop-color="#0df" stop-opacity=".4"/></radialGradient><radialGradient id="d" cx="-7897.514" cy="-8631.119" r="80.795" gradientTransform="matrix(1.502 0 0 1.5 11961.044 12960)" gradientUnits="userSpaceOnUse"><stop offset="0" stop-color="#80ebff"/><stop offset=".082" stop-color="#4de5ff"/><stop offset=".161" stop-color="#23e1ff"/><stop offset=".222" stop-color="#09deff"/><stop offset=".259" stop-color="#0df"/><stop offset=".26" stop-color="#00dcff"/><stop offset=".38" stop-color="#00b3f5"/><stop offset=".473" stop-color="#0099ef"/><stop offset=".53" stop-color="#0090ed"/><stop offset=".86" stop-color="#0060df"/></radialGradient><radialGradient id="e" cx="-7927.038" cy="-8598.088" r="80.795" gradientTransform="matrix(1.502 0 0 1.5 11961.044 12960)" gradientUnits="userSpaceOnUse"><stop offset=".3" stop-color="#321c64" stop-opacity=".8"/><stop offset=".371" stop-color="#212f83" stop-opacity=".511"/><stop offset=".475" stop-color="#0a47ac" stop-opacity=".141"/><stop offset=".53" stop-color="#0250bb" stop-opacity="0"/></radialGradient><radialGradient id="f" cx="-7906.303" cy="-8651.979" r="118.079" gradientTransform="matrix(1.502 0 0 1.5 11961.044 12960)" gradientUnits="userSpaceOnUse"><stop offset="0" stop-color="#80ebff"/><stop offset=".008" stop-color="#76e7fe"/><stop offset=".035" stop-color="#57d9fb"/><stop offset=".067" stop-color="#3bcdf9"/><stop offset=".103" stop-color="#25c3f7"/><stop offset=".144" stop-color="#14bcf6"/><stop offset=".196" stop-color="#09b7f5"/><stop offset=".268" stop-color="#02b4f4"/><stop offset=".469" stop-color="#00b3f4"/><stop offset=".687" stop-color="#0080e7"/><stop offset=".844" stop-color="#0060df"/><stop offset=".995" stop-color="#592acb"/></radialGradient><radialGradient id="i" cx="-7928.057" cy="-8634.425" r="27.676" gradientTransform="matrix(1.502 0 0 1.5 11961.044 12960)" gradientUnits="userSpaceOnUse"><stop offset="0" stop-color="#0df"/><stop offset=".156" stop-color="#00d6fd"/><stop offset=".382" stop-color="#00c3f9"/><stop offset=".648" stop-color="#00a4f2"/><stop offset=".792" stop-color="#0090ed"/></radialGradient><radialGradient id="j" cx="-7909.25" cy="-8619.86" r="80.684" gradientTransform="matrix(1.502 0 0 1.5 11961.044 12960)" gradientUnits="userSpaceOnUse"><stop offset=".286" stop-color="#80ebff"/><stop offset="1" stop-color="#00b3f4"/></radialGradient><radialGradient id="k" cx="-7928.71" cy="-8624.175" r="73.718" gradientTransform="matrix(1.502 0 0 1.5 11961.044 12960)" gradientUnits="userSpaceOnUse"><stop offset=".181" stop-color="#aaf2ff"/><stop offset=".427" stop-color="#0df"/><stop offset=".448" stop-color="#00d2fc"/><stop offset=".613" stop-color="#0080e7"/><stop offset=".689" stop-color="#0060df"/></radialGradient></defs><path fill="#09204d" d="M32.598 69.943l3.662 10.156 5.504 7.427 12.922 2.465 6.181.525 10.554-2.636 4.546-4.359-43.369-13.578z"/><path fill="#09204d" d="M87.283 54.962l-1.294-4.292-3.699-6.982-4.232-4.46-4.492-3.208-3.9-1.531-4.68-1.665-7.706-.491-4.859.877-3.965 1.219-7.035 4.118-4.397 4.906-4.054 6.585-1.595 5.605-.298 8.503 1.521 5.797 3.353 6.6 2.365 3.188 3.271 2.999 4.085 2.764 5.036 2.191 8.43.989 4.401.123 6.514-1.835 5.823-3.196 3.746-3.196 2.905-3.466 4.106-8.04.907-5.5-.257-8.602z"/><path fill="#0e56d7" d="M57.421 36.197l-3.451 3.424 5.629 2.283 4.188-5.194-6.366-.513z"/><path fill="#1053d1" d="M59.599 41.904l10.899-.331-6.711-4.863-4.188 5.194z"/><path fill="#0b4fbf" d="M69.688 36.674l-5.901.036 6.711 4.863 6.205-.405-7.015-4.494z"/><path fill="#0b48b0" d="M76.703 41.168l-3.528-4.866 4.883 2.926-1.355 1.94z"/><path fill="#0c45a7" d="M81.375 44.147l-4.672-2.979 1.355-1.94 3.317 4.919z"/><path fill="#0f46af" d="M76.703 41.168l-.781 3.333 4.273 1.708-3.492-5.041z"/><path fill="#0c47ad" d="M76.703 41.168l4.672 2.979-1.18 2.062-3.492-5.041z"/><path fill="#0e4fc3" d="M70.498 41.573l6.205-.405-.781 3.333-5.424-2.928z"/><path fill="#174dca" d="M70.498 41.573l-4.903 4.439 6.31 3.091-1.407-7.53z"/><path fill="#1650d4" d="M59.599 41.904l10.899-.331-4.903 4.439-5.996-4.108z"/><path fill="#1246b2" d="M75.922 44.501l2.967 5.756 1.306-4.048-4.273-1.708z"/><path fill="#133ea1" d="M78.889 50.257l1.306-4.048 3.109 7.396-4.415-3.348z"/><path fill="#103d98" d="M80.195 46.209l4.738 3.471-1.629 3.925-3.109-7.396z"/><path fill="#0b3785" d="M81.375 44.147l.915-.459 2.643 5.992-3.558-5.533z"/><path fill="#0b3685" d="M84.933 49.68l1.056.99-3.699-6.982 2.643 5.992z"/><path d="M84.933 49.68l-3.558-5.533-1.18 2.062zm-6.875-10.452l3.317 4.919.915-.459z" fill="#0c3b91"/><path fill="#0b3279" d="M87.045 58.317l-1.056-7.647 1.294 4.292-.255 3.355h.017z"/><path fill="#0f388d" d="M84.933 49.68l2.112 8.637-1.056-7.647-1.056-.99z"/><path fill="#0d3481" d="M83.304 53.605l3.741 4.712-2.112-8.637-1.629 3.925z"/><path fill="#0b2e71" d="M87.028 58.317l.255-3.355.257 8.602-.495-5.247h-.017z"/><path fill="#0e2f77" d="M86.418 65.114l1.122-1.55-.495-5.247-.627 6.797z"/><path fill="#0e2969" d="M86.633 69.064l-.897.432 1.804-5.932-.907 5.5z"/><path fill="#0c2a69" d="M85.736 69.496l1.804-5.932-1.122 1.55-.682 4.382z"/><path fill="#123180" d="M86.418 65.114l.627-6.797-1.922 2.267 1.295 4.53z"/><path fill="#112b70" d="M85.736 69.496l.682-4.382-3.707 6.231 3.025-1.849z"/><path fill="#12378c" d="M83.304 53.605l3.741 4.712-1.922 2.267-1.819-6.979z"/><path fill="#122e7b" d="M86.418 65.114l-1.295-4.53-1.954 5.58 3.249-1.05z"/><path fill="#11296c" d="M82.527 77.104l3.209-7.608-3.003 5.546-.206 2.062z"/><path fill="#142a72" d="M82.733 75.042l3.003-5.546-3.025 1.849.022 3.697z"/><path d="M85.736 69.5l-3.209 7.6 4.106-8.04zm-6.114 11.07l2.905-3.47.206-2.062zm-3.746 3.2l3.746-3.2-3.959 1.821z" fill="#112768"/><path fill="#1c226a" d="M54.012 85.992l-3.784.926.115-2.641 3.669 1.715z"/><path fill="#182b7a" d="M32.97 50.038l1.044-.386-2.639 5.991 1.595-5.605z"/><path fill="#1f308d" d="M31.375 55.643l1.998-.372.641-5.619-2.639 5.991z"/><path fill="#1e2b7f" d="M31.495 62.837l-.12-7.194 1.998-.372-1.878 7.566z"/><path d="M75.922 44.5l-4.017 4.6 6.984 1.154zM40.87 39.781L46 36.273l-4.576 2.274z" fill="#1346b5"/><path fill="#1244ac" d="M41.421 38.547l7.035-4.118-2.459 1.844-4.576 2.274"/><path fill="#0e4ab6" d="M45.997 36.273l6.424-3.063-3.965 1.219-2.459 1.844z"/><path d="M70.5 41.573l1.407 7.53 4.017-4.6zm-20.591-5.657l5.985-2.393-3.473-.313z" fill="#0e4bba"/><path fill="#0a4ebc" d="M57.28 32.333l-4.859.877 3.473.313 1.386-1.19z"/><path fill="#0c54cc" d="M61.875 33.463l-5.981.06 1.386-1.19"/><path d="M73.175 36.3l-3.487.372 7.012 4.496zm-11.3-2.839l7.791 1.026-4.68-1.665z" fill="#0b4bb4"/><path fill="#0c3889" d="M73.175 36.302l-3.509-1.813 3.9 1.531-.391.282z"/><path d="M32.6 69.943l2.3 1.9-3.4-9zm31.784 17.9l2.024-4.767-7.378 1.982zm2.024-4.767l6.168 1.711.374-4.77z" fill="#202575"/><path fill="#1b2773" d="M75.663 82.391l-2.715-2.374 6.559-4.359-3.844 6.733z"/><path fill="#15276d" d="M79.507 75.658l-3.844 6.733 3.959-1.821 3.111-5.528-3.226.616z"/><path d="M73.566 36.02l-.391.282 4.883 2.926zm-3.878.654l3.487-.372-3.509-1.813z" fill="#0c409d"/><path d="M57.28 32.333l4.595 1.13 3.111-.639zm12.386 2.156l-7.791-1.026 7.813 3.211z" fill="#0b4cb7"/><path fill="#0b55ce" d="M61.875 33.463l1.912 3.247 5.901-.036-7.813-3.211z"/><path fill="#0a52c5" d="M61.875 33.463l1.912 3.247-6.366-.513 4.454-2.734z"/><path fill="#0951c4" d="M55.894 33.523l1.527 2.674 4.454-2.734-5.981.06z"/><path fill="#0b50c4" d="M49.909 35.916l5.985-2.393 1.527 2.674-7.512-.281z"/><path d="M46 36.273l3.912-.357 2.512-2.706zm3.912-.357l4.061 3.705 3.448-3.421z" fill="#0f4dbf"/><path fill="#1546b6" d="M49.909 35.916l-6.61 6.199 2.698-5.842 3.912-.357z"/><path fill="#1549bd" d="M43.299 42.115l4.218.702 2.392-6.901-6.61 6.199z"/><path fill="#144bc3" d="M47.517 42.817l2.392-6.901 4.061 3.705-6.453 3.196z"/><path fill="#173794" d="M37.024 43.453l.257 2.493 3.589-6.165-3.846 3.672z"/><path fill="#192f84" d="M34.014 49.652l3.01-6.199.257 2.493-3.267 3.706z"/><path fill="#1a389b" d="M37.281 45.946l3.589-6.165 2.429 2.334-6.018 3.831z"/><path fill="#1d3089" d="M37.064 51.292l.217-5.346-3.267 3.706 3.05 1.64z"/><path fill="#1e389f" d="M37.064 51.292l.217-5.346 4.241 3.444-4.458 1.902z"/><path fill="#1c40af" d="M41.522 49.39l1.777-7.275-6.018 3.831 4.241 3.444z"/><path fill="#1e41b7" d="M41.522 49.39l1.777-7.275 4.218.702-5.995 6.573z"/><path fill="#192c7d" d="M33.373 55.271l.641-5.619 3.05 1.64-3.691 3.979z"/><path d="M64.382 87.843l5.671-.881 2.521-2.175zm-33.305-23.7l.418-1.309-.12-7.194zm2.3-8.875L31.5 62.837l3.4 9-1.662-10.427z" fill="#162467"/><path fill="#1a236a" d="M34.9 71.839l2.81.393-1.968-4.593-.842 4.2z"/><path d="M75.663 82.391l-3.089 2.4-2.521 2.175 5.823-3.2zm-16.525 6.283l4.4.123 6.514-1.835-5.671.881zM37.522 77.061l2.953.568-2.765-5.4z" fill="#132668"/><path d="M50.343 84.277l-5-3.849-2.078 2 6.963 4.492zM32.6 69.943l3.353 6.6-1.051-4.7zm-1.521-5.8l1.521 5.8-1.1-7.106zm27.949 20.915l-8.685-.781 3.669 1.715-3.784.926-4.556-1.424 5.036 2.191 8.43.989 5.244-.831zM37.71 72.232l-2.81-.393 2.622 5.222zM33.238 61.41L34.9 71.839l.842-4.2zm7.237 16.219l-2.953-.568-1.571-.518 2.365 3.188 3.271 3 4.085 2.764-2.407-3.068z" fill="#1b2268"/><path fill="#212a81" d="M33.373 55.271l3.964 6.133-.273-10.112-3.691 3.979z"/><path fill="#21267a" d="M33.238 61.41l2.504 6.229 1.595-6.235-4.099.006z"/><path fill="#262781" d="M35.742 67.639l1.595-6.235 1.983 4.927-3.578 1.308z"/><path fill="#272379" d="M37.71 72.232l7.601 4.712-5.991-10.613-1.61 5.901z"/><path d="M35.951 76.543l1.571.518-2.622-5.222zm16.791 2.711l-2.4 5.023 8.685.781zM37.71 72.232l2.765 5.4 2.79 4.8 2.078-2-.032-3.484z" fill="#1e226d"/><path d="M72.948 80.017l-.374 4.77 3.089-2.4zm-13.289-.684l-.631 5.725 7.378-1.982-.262-6.436z" fill="#222475"/><path d="M33.238 61.41h4.1l-3.964-6.134zm32.906 15.23l.262 6.436 6.542-3.059z" fill="#23277d"/><path fill="#1e2776" d="M66.144 76.64l4.21-3.813 2.594 7.19-6.804-3.377z"/><path fill="#222b86" d="M72.948 80.017l3.183-9.639-5.777 2.449 2.594 7.19z"/><path fill="#192974" d="M79.507 75.658l-6.559 4.359 3.183-9.639 3.376 5.28z"/><path fill="#172a75" d="M82.711 71.345l-6.58-.967 3.376 5.28 3.226-.616-.022-3.697z"/><path fill="#172d7d" d="M83.169 66.164l-7.038 4.214 6.58.967 3.707-6.231-3.249 1.05z"/><path d="M34.014 49.652l3.01-6.2-4.054 6.586zm46.53 7.672l2.625 8.84 1.954-5.58z" fill="#18338a"/><path fill="#153791" d="M85.123 60.584l-1.819-6.979-2.76 3.719 4.579 3.26z"/><path fill="#1b318b" d="M76.131 70.378l7.038-4.214-6.822-3.037-.216 7.251z"/><path fill="#242d8d" d="M76.131 70.378l-6.378-6.446.601 8.895 5.777-2.449z"/><path fill="#2a2b8f" d="M66.144 76.64l-4.897-4.337 9.107.524-4.21 3.813z"/><path d="M37.71 72.232l1.61-5.9-3.578 1.308zm23.537.071l-1.588 7.03 6.485-2.693z" fill="#27267f"/><path fill="#2d2381" d="M51.11 73.741l-4.714-2.396-1.085 5.599 7.431 2.31 6.917.079-8.549-5.592z"/><path fill="#2f2485" d="M59.659 79.333l1.588-7.03-10.137 1.438 8.549 5.592z"/><path fill="#233196" d="M37.337 61.404l2.034-6.491-2.307-3.621.273 10.112z"/><path fill="#293cb7" d="M41.522 49.39l8.924-2.602-4.714 9.631-4.21-7.029z"/><path fill="#25339c" d="M76.131 70.378l-6.378-6.446 6.594-.805-.216 7.251z"/><path fill="#19348f" d="M83.169 66.164l-2.625-8.84-4.197 5.803 6.822 3.037z"/><path fill="#2a309a" d="M70.354 72.827l-7.294-7.054 6.693-1.841.601 8.895z"/><path fill="#302b96" d="M61.247 72.303l9.107.524-7.294-7.054-1.813 6.53z"/><path fill="#3630a7" d="M61.247 72.303l-4.989-4.062 6.802-2.468-1.813 6.53z"/><path d="M40.87 39.781l.551-1.234-4.4 4.906zm38.019 10.476l1.655 7.067 2.76-3.719z" fill="#173da2"/><path fill="#2a36a8" d="M41.522 49.39l4.21 7.029-6.361-1.506 2.151-5.523z"/><path fill="#312e9f" d="M39.371 54.913l6.361 1.506-4.302 6.777-2.059-8.283z"/><path fill="#184dcd" d="M50.446 46.788l3.524-7.167-6.453 3.196 2.929 3.971z"/><path fill="#272986" d="M37.337 61.404l4.093 1.792-2.11 3.135-1.983-4.927z"/><path fill="#2c2584" d="M41.43 63.196l-2.11 3.135 5.991 10.613 1.085-5.599-4.966-8.149z"/><path fill="#32268b" d="M46.396 71.345l.664-9.86-5.63 1.711 4.966 8.149z"/><path fill="#372999" d="M46.396 71.345l9.862-3.104-9.198-6.756-.664 9.86z"/><path fill="#392da5" d="M56.258 68.241l-.961-7.623-8.237.867 9.198 6.756z"/><path fill="#3338bc" d="M55.297 60.618l6.957-2.602.806 7.757-7.763-5.155z"/><path fill="#362896" d="M51.11 73.741l10.137-1.438-4.989-4.062-5.148 5.5z"/><path fill="#35268f" d="M51.11 73.741l-4.714-2.396 9.862-3.104-5.148 5.5z"/><path fill="#2648d3" d="M50.446 46.788l6.041.639-2.517-7.806-3.524 7.167z"/><path fill="#1057dc" d="M59.599 41.904l-5.629-2.283 2.517 7.806 3.112-5.523z"/><path fill="#1653da" d="M59.599 41.904l5.996 4.108-9.108 1.415 3.112-5.523z"/><path fill="#2b46d5" d="M56.487 47.427l8.934 4.738-3.167 5.851-5.767-10.589z"/><path fill="#244ad7" d="M65.421 52.165l.174-6.153-9.108 1.415 8.934 4.738z"/><path fill="#2547cf" d="M65.421 52.165l.174-6.153 6.31 3.091-6.484 3.062z"/><path fill="#333cc5" d="M56.487 47.427l5.767 10.589L52.14 52.95l4.347-5.523z"/><path fill="#3833b6" d="M55.297 60.618l6.957-2.602L52.14 52.95l3.157 7.668z"/><path fill="#2a41c6" d="M62.254 58.016l8.92-1.629-5.753-4.222-3.167 5.851z"/><path fill="#2045c1" d="M71.905 49.103l-.731 7.284-5.753-4.222 6.484-3.062z"/><path fill="#1b43b7" d="M71.905 49.103l4.21 5.718-4.941 1.566.731-7.284z"/><path fill="#1742af" d="M78.889 50.257l-6.984-1.154 4.21 5.718 2.774-4.564z"/><path d="M43.3 42.115l2.7-5.842-5.13 3.508zm35.59 8.142l-2.774 4.564 4.429 2.5z" fill="#1740a9"/><path fill="#1b3ca4" d="M76.347 63.127l4.197-5.803-4.429-2.503.232 8.306z"/><path fill="#1f3dad" d="M76.347 63.127l-.232-8.306-4.941 1.566 5.173 6.74z"/><path d="M41.522 49.389l8.924-2.6-2.929-3.971zm20.732 8.627l7.5 5.916 1.421-7.545z" fill="#2543c3"/><path fill="#2e37b2" d="M63.06 65.773l6.693-1.841-7.499-5.916.806 7.757z"/><path fill="#2d40c7" d="M50.446 46.788l1.694 6.162 4.347-5.523-6.041-.639z"/><path fill="#3537b8" d="M50.446 46.788l-4.714 9.631 6.408-3.469-1.694-6.162z"/><path fill="#3931b0" d="M52.14 52.95l-5.08 8.535 8.237-.867-3.157-7.668z"/><path d="M55.3 60.618l.961 7.623 6.8-2.468zm-8.237.867l5.08-8.535-6.408 3.469z" fill="#3735b8"/><path fill="#342892" d="M41.43 63.196l4.302-6.777 1.328 5.066-5.63 1.711z"/><path d="M45.672 85.494l4.556 1.424-6.963-4.492zm-.329-5.066l5 3.849 2.4-5.023-7.431-2.31zm13.685 4.63l.631-5.725-6.917-.079zm7.378-1.982l-2.024 4.767 8.192-3.056z" fill="#232372"/><path fill="#2a2f96" d="M37.337 61.404l2.034-6.491 2.059 8.283-4.093-1.792z"/><path d="M39.371 54.913l2.151-5.524-4.458 1.9zm31.8 1.474l-1.421 7.545 6.594-.8z" fill="#2636a5"/><path d="M87.667 63.572v-.012l-.257-8.6v-.03l-1.293-4.291v-.016l-3.7-6.981v-.018l-4.266-4.484-.008-.007h-.006l-4.497-3.216h-.009l-.01-.005-3.9-1.53h-.008L65.028 32.7h-.03l-7.706-.49h-.031l-4.859.877h-.019l-3.96 1.218h-.008l-.011.005h-.005l-7.035 4.118h-.011l-.005.005-4.395 4.9v.006l-4.052 6.583v.024l-1.595 5.6v.027l-.3 8.5v.04l1.519 5.794v.019l3.353 6.6.007.011 2.363 3.186.007.007v.006l3.271 3 .008.006.006.006L45.6 85.6l.01.006h.005l5.042 2.194h.037l8.429.99h.011l4.4.123h.005a.1.1 0 0 0 .025 0h.009l6.514-1.835h.013l5.819-3.2.009-.007h.008l3.746-3.2h.005l2.9-3.465.01-.015v-.006l4.107-8.04v-.034l.906-5.5v-.013zm-46 19.059l-.847-.777 1.9 1.492zm12.362 3.229l-2.977-1.392 7.048.632zm1.086-25.35l-7.816.823 4.82-8.1zm-2.728-7.294L61.936 58l-6.568 2.456zm2.8 7.542l.908 7.2-8.7-6.386zm.794 7.437l-9.446 2.973.636-9.443zm-.523-7.317l7.322 4.862-6.415 2.327zm.117-.228l6.569-2.457.761 7.325zm10.093-8.461l6.088-2.875-.686 6.839zm5.193 4.126l-8.369 1.529 2.971-5.49zm-8.608 1.435L56.8 47.737l8.447 4.48zm-.3-.029l-9.612-4.815 4.132-5.249zm-14.847 3.438l-1.225-4.676 5.913-3.2zm-.81 9.777l-4.672-7.666 5.3-1.609zm9.539-2.429l-4.753 5.078-4.351-2.212zm7.036-2.53l-1.7 6.1-4.663-3.8zm-.46-7.674l7.066 5.573-6.306 1.735zm.142-.212l8.462-1.546-1.349 7.155zm8.767-1.884l.68-6.763 3.909 5.31zm4.673-1.214l.216 7.745-4.824-6.285zm-10.439-3.032l.162-5.748 5.9 2.887zm-.255 0l-8.414-4.462 8.578-1.333zm-13.1.717l-1.577-5.739 5.627.6zm-.2.213l-5.969 3.232 4.392-8.972zM46.905 61.4l-5.183 1.574 3.961-6.24zm-.938 9.485L39.495 66.3l1.93-2.867zm.522.65l4.349 2.211-5.35 2.954zm9.781-3.121l4.671 3.8-9.492 1.347zm6.855-2.4l6.894 6.667-8.607-.494zm.183-.176l6.328-1.738.569 8.409zm7.938-9.147l4.865 6.338-6.2.757zm5-1.647l4.108 2.322-3.893 5.384zm.043-.268l2.544-4.186 1.518 6.482zm-.187-.182L72.19 49.28l6.49 1.072zM65.819 45.98l4.595-4.16 1.319 7.057zm-9.092 1.281l2.915-5.174 5.616 3.848zm-6.086-.58l3.305-6.721 2.36 7.32zm-4.92 9.471l-4-6.687 8.489-2.475zm-4.239 6.725l-1.937-7.793 5.984 1.416zm-2.134 3.184l-1.776-4.415 3.668 1.6zm6.907 5.34l-1 5.179-5.545-9.817zm4.778 2.528l1.519 5.133-6.918-2.151zm10.049-1.474l-1.507 6.671-8.113-5.306zm8.962.481l-3.9 3.533-4.537-4.018zm-.144-8.671l6 6.069-5.431 2.306zm.122-.238l6.191-.756-.2 6.806zM80.5 57.608l2.473 8.328-6.426-2.861zm-1.4-7.037l4.033 3.059-2.522 3.4zm-6.943-1.557l3.743-4.288 2.76 5.364zm-.169-.193l-1.31-7.01 5.049 2.726zm-6.4-2.971l-5.592-3.831 10.164-.309zm-9.065 1.261l-2.344-7.269 5.243 2.125zm-6.095-.567l-2.718-3.681 5.98-2.963zm-.188.173l-8.315 2.424 5.586-6.124zm-4.768 9.509l-5.925-1.4 2-5.145zm-4.224 6.75l-3.751-1.642 1.864-5.95zm-2.091 3.281l-3.227 1.18 1.438-5.624zm5.8 10.317l-7.1-4.4 1.5-5.512zm7.228 2.64l-6.716 1.065-.029-3.162zm-.855-5.177l7.9 5.164-6.387-.073zm9.994-1.5l4.583 4.063-6.069 2.521zm8.975.507l2.422 6.715-6.354-3.154zm.215-.151l5.408-2.293-2.979 9.023zm5.955-9.576l6.424 2.86-6.628 3.968zm4.3-5.679l4.2 2.99-1.79 5.122zm-.048-.346l2.525-3.4 1.663 6.383zm-1.683-7.082l1.173-3.635L83 53.217zm-.176-.284l-2.671-5.181 3.846 1.538zm-7.915-8.255l5.593-.365-.7 3zm-11.075.1l3.938-4.884 6.311 4.573zm-.233-.117l-2.027-5.314 5.925.477zm-.263.025l-5.18-2.1 3.176-3.151zm-11.637.889l2.227-6.425 3.781 3.45zm-5.975 6.37L43.4 42.26l3.871.644zm-2.421 5.7l-2.091-3.288 4.041-1.725zm-.111.3l-1.788 5.707-.24-8.89zm-2.059 6.6l-1.458 5.7-2.288-5.694zm-3.8-.249l.122-5.595 3.613 5.59zm5.763 5.252l-1.449 5.312-1.771-4.135zm5.814 10.332l-4.4.623-2.515-4.908zm.239.223l.029 3.117-4.356-2.5zm7.338 2.328L50.3 84.08l-4.641-3.573zm.26.047l5.88 5.429-8.13-.732zm.288-.08l6.446.073-.588 5.335zm12.953-2.558l.246 6.028-6.319-3.506zm.256.022l6.376 3.165-6.13 2.866zm9.888-6.177l3.165 4.95-6.148 4.086zm.22-.128l6.094.9-2.967 3.994zm.114-.24l6.518-3.9-.424 4.79zM85.111 61l1.151 4.027-2.889.933zm-1.532-6.848l3.3 4.158-1.7 2zm-3.089-7.569l4.287 3.14-1.477 3.551zm-4.419-2.159l.691-2.948 3.088 4.458zm-5.466-2.985l-.745-4.5 6.449 4.131zm-.283-.151l-6.146-4.453 5.4-.034zM57.819 36.1l4.012-2.463 1.722 2.925zm-3.853 3.344l-3.715-3.39 6.872.257zm-6.534 3.228l-3.858-.642 6.046-5.67zm-5.986 6.49l-3.948-3.2 5.6-3.567zm-.168.191L37.2 51.1l.2-4.891zm-4.08 11.6l-3.665-5.669 3.412-3.678zm-1.588 6.7l-.7 3.468-1.373-8.612zm.177.415l1.713 4.007-2.452-.344zm4.455 9.389l-2.589-.5.165-4.234zm4.891 3l-1.839 1.769-2.47-4.246zm.22.142L49.769 84l-6.252-1.64zm14.412-1.058l6.3 3.5-6.895 1.853zm13.039.688l-.345 4.4-5.687-1.579zm6.327-4.164l-3.5 6.132-2.473-2.162zm3.455-4.334l.019 3.21-2.8.535zm.7-5.468l2.848-.92-3.247 5.457zm1.976-5.645l1.617-1.907-.527 5.719zm-1.814-7.03l1.452-3.5 1.881 7.695zm-3.088-7.41l1.02-1.782 3.074 4.78zm-.177-.2l-3.017-4.356 4.037 2.574zm-10.122-9.216l3.055-.325 3.089 4.263zm-6.2-.179l-1.682-2.859 6.877 2.826zm-6.393-.563l-1.354-2.372 5.306-.053zm-.269.042l-6.684-.251 5.325-2.129zm-13.511 5.513l2.394-5.182 3.471-.317zm-.43.324l-2.187-2.1 4.617-3.16zm-.164.2l-5.439 3.463 3.245-5.577zm-6.149 8.989l-2.73-1.468 2.925-3.32zm-.086.242l-3.316 3.57.576-5.047zm-3.747 10.019L31.71 62.5l1.51-6.083zm.036.3l1.43 8.979-2.932-7.75zm4.43 10.693l-.164 4.22L35.123 72zm2.816 5.4l2.327 4-4.79-4.474zm9.817 6.631l-.1 2.318L44 82.75zm.251.1l3.17 1.483-3.27.8zm8.443.738l.1 3.251L54.4 86.05zm7.282-1.944l-1.869 4.4-4.941-2.567zm.293-.038l5.683 1.577-7.548 2.814zm6.575-2.948l2.408 2.105-2.74 2.125zm6.534-4.508l2.776-.53-6.084 6.323zm3.269-1.227l-.019-3.129 2.56-1.565zm.225-3.576l3.108-5.224-.572 3.674zm3.963-11.282l.363 3.841-.822 1.135zm-1.887-9.622l.71.666.71 5.145zm-3.6-5.868l.668-.335 1.932 4.379zm-4.676-3.065l1.174-1.68 2.871 4.259zm-.182-.184l-3.058-4.217 4.233 2.536zm-6.887-4.416L69.8 34.7l2.946 1.522zm-.255-.049l-6.733-2.767 6.713.884zm-13.318-3.092l1.072-.92 3.554.874zm-5.853 2.2l2.084-2.245 2.882.259zm-.539.206l-3.156.288 5.182-2.471zm-8.679 3.624l.349-.781 2.9-1.44zm-3.8 6.123l-.213-2.045 3.151-3.009zm-.219.359l-2.613 2.963 2.407-4.956zm-3.892 9.259l-1.668.311 2.2-5zm-.056.269l-1.595 6.429-.1-6.113zm1.411 16l-1.9-1.561-.908-5.851zm2.659 5.407l-1.211-.4-.81-3.627zm5.176 4.992l-4.024-2.191-.645-2.172zm.734.689l1.742 2.221-5.325-4.167zm.652.418l5.539 3.575-3.625-1.134zM54 86.127l4.3 2.253-7.484-1.475zm5.166-.856l4.819 2.507-4.72.748zm12.792-.117L70 86.842l-4.4.684zm3.616-2.53l.163 1.053-2.529.782zm6.562-6.774l-2.6 4.622-3.31 1.522zm.726-.77l1.738-3.217-1.862 4.413zm3.681-9.916l.658-.909-1.061 3.477zm.633-6.857V58.3l-.009-.067.065-.862.067 2.231zM87 57.039l-.658-4.767.815 2.7zm-1.958-7.434l-1.2-2.722 1.681 3.172zm-3.621-5.622l-2.4-3.557 3.06 3.226zm-8.012-7.691l.161-.115 1.843 1.316zm-.242-.138l-1.246-.645 1.385.544zM62.64 33.436l2.336-.48 3.516 1.25zm-.762-.1l-3.178-.785 5.334.339zm-6.027.058l-2.481-.223 3.472-.626zM47.1 35.608l1.42-1.064 2.289-.7zm-1.165.556l-1.231.612 1.893-1.108zm-5.167 3.543L39.3 41.1l1.67-1.863zm-6.847 9.843l-.649.241 2.523-4.1zm-.846.585l.7-.26L32 53.9zM31.33 60.579l.037 2.24-.13.407zm.122 2.812l.639 4.118-.881-3.36zm3.334 8.518l.82 3.675-2.619-5.156zm2.633 5.251l.57 1.916-1.7-2.286zm12.726 9.866l.237.378-2.49-1.083zm.639.54l-.292-.466 5.416 1.067zm13.268.458l-.569.644-2.974-.082zm.395-.063l3.545-.55-4.072 1.147zm8.19-3.06l2.079-.643-3.666 2.012zm3.33-1.38l-.167-1.055 3.037-1.4zm6.579-7.886l-.146 1.417-2 2.384zm3.289-6.045l.513-.248-2.348 4.6zm.683-.612l-.576.278 1.158-3.809z" fill="url(#b)"/><path d="M87.667 63.572v-.012l-.257-8.6v-.03l-1.293-4.291v-.016l-3.7-6.981v-.018l-4.266-4.484-.008-.007h-.006l-4.497-3.216h-.009l-.01-.005-3.9-1.53h-.008L65.028 32.7h-.03l-7.706-.49h-.031l-4.859.877h-.019l-3.96 1.218h-.008l-.011.005h-.005l-7.035 4.118h-.011l-.005.005-4.395 4.9v.006l-4.052 6.583v.024l-1.595 5.6v.027l-.3 8.5v.04l1.519 5.794v.019l3.353 6.6.007.011 2.363 3.186.007.007v.006l3.271 3 .008.006.006.006L45.6 85.6l.01.006h.005l5.042 2.194h.037l8.429.99h.011l4.4.123h.005a.1.1 0 0 0 .025 0h.009l6.514-1.835h.013l5.819-3.2.009-.007h.008l3.746-3.2h.005l2.9-3.465.01-.015v-.006l4.107-8.04v-.034l.906-5.5v-.013zm-46 19.059l-.847-.777 1.9 1.492zm12.362 3.229l-2.977-1.392 7.048.632zm1.086-25.35l-7.816.823 4.82-8.1zm-2.728-7.294L61.936 58l-6.568 2.456zm2.8 7.542l.908 7.2-8.7-6.386zm.794 7.437l-9.446 2.973.636-9.443zm-.523-7.317l7.322 4.862-6.415 2.327zm.117-.228l6.569-2.457.761 7.325zm10.093-8.461l6.088-2.875-.686 6.839zm5.193 4.126l-8.369 1.529 2.971-5.49zm-8.608 1.435L56.8 47.737l8.447 4.48zm-.3-.029l-9.612-4.815 4.132-5.249zm-14.847 3.438l-1.225-4.676 5.913-3.2zm-.81 9.777l-4.672-7.666 5.3-1.609zm9.539-2.429l-4.753 5.078-4.351-2.212zm7.036-2.53l-1.7 6.1-4.663-3.8zm-.46-7.674l7.066 5.573-6.306 1.735zm.142-.212l8.462-1.546-1.349 7.155zm8.767-1.884l.68-6.763 3.909 5.31zm4.673-1.214l.216 7.745-4.824-6.285zm-10.439-3.032l.162-5.748 5.9 2.887zm-.255 0l-8.414-4.462 8.578-1.333zm-13.1.717l-1.577-5.739 5.627.6zm-.2.213l-5.969 3.232 4.392-8.972zM46.905 61.4l-5.183 1.574 3.961-6.24zm-.938 9.485L39.495 66.3l1.93-2.867zm.522.65l4.349 2.211-5.35 2.954zm9.781-3.121l4.671 3.8-9.492 1.347zm6.855-2.4l6.894 6.667-8.607-.494zm.183-.176l6.328-1.738.569 8.409zm7.938-9.147l4.865 6.338-6.2.757zm5-1.647l4.108 2.322-3.893 5.384zm.043-.268l2.544-4.186 1.518 6.482zm-.187-.182L72.19 49.28l6.49 1.072zM65.819 45.98l4.595-4.16 1.319 7.057zm-9.092 1.281l2.915-5.174 5.616 3.848zm-6.086-.58l3.305-6.721 2.36 7.32zm-4.92 9.471l-4-6.687 8.489-2.475zm-4.239 6.725l-1.937-7.793 5.984 1.416zm-2.134 3.184l-1.776-4.415 3.668 1.6zm6.907 5.34l-1 5.179-5.545-9.817zm4.778 2.528l1.519 5.133-6.918-2.151zm10.049-1.474l-1.507 6.671-8.113-5.306zm8.962.481l-3.9 3.533-4.537-4.018zm-.144-8.671l6 6.069-5.431 2.306zm.122-.238l6.191-.756-.2 6.806zM80.5 57.608l2.473 8.328-6.426-2.861zm-1.4-7.037l4.033 3.059-2.522 3.4zm-6.943-1.557l3.743-4.288 2.76 5.364zm-.169-.193l-1.31-7.01 5.049 2.726zm-6.4-2.971l-5.592-3.831 10.164-.309zm-9.065 1.261l-2.344-7.269 5.243 2.125zm-6.095-.567l-2.718-3.681 5.98-2.963zm-.188.173l-8.315 2.424 5.586-6.124zm-4.768 9.509l-5.925-1.4 2-5.145zm-4.224 6.75l-3.751-1.642 1.864-5.95zm-2.091 3.281l-3.227 1.18 1.438-5.624zm5.8 10.317l-7.1-4.4 1.5-5.512zm7.228 2.64l-6.716 1.065-.029-3.162zm-.855-5.177l7.9 5.164-6.387-.073zm9.994-1.5l4.583 4.063-6.069 2.521zm8.975.507l2.422 6.715-6.354-3.154zm.215-.151l5.408-2.293-2.979 9.023zm5.955-9.576l6.424 2.86-6.628 3.968zm4.3-5.679l4.2 2.99-1.79 5.122zm-.048-.346l2.525-3.4 1.663 6.383zm-1.683-7.082l1.173-3.635L83 53.217zm-.176-.284l-2.671-5.181 3.846 1.538zm-7.915-8.255l5.593-.365-.7 3zm-11.075.1l3.938-4.884 6.311 4.573zm-.233-.117l-2.027-5.314 5.925.477zm-.263.025l-5.18-2.1 3.176-3.151zm-11.637.889l2.227-6.425 3.781 3.45zm-5.975 6.37L43.4 42.26l3.871.644zm-2.421 5.7l-2.091-3.288 4.041-1.725zm-.111.3l-1.788 5.707-.24-8.89zm-2.059 6.6l-1.458 5.7-2.288-5.694zm-3.8-.249l.122-5.595 3.613 5.59zm5.763 5.252l-1.449 5.312-1.771-4.135zm5.814 10.332l-4.4.623-2.515-4.908zm.239.223l.029 3.117-4.356-2.5zm7.338 2.328L50.3 84.08l-4.641-3.573zm.26.047l5.88 5.429-8.13-.732zm.288-.08l6.446.073-.588 5.335zm12.953-2.558l.246 6.028-6.319-3.506zm.256.022l6.376 3.165-6.13 2.866zm9.888-6.177l3.165 4.95-6.148 4.086zm.22-.128l6.094.9-2.967 3.994zm.114-.24l6.518-3.9-.424 4.79zM85.111 61l1.151 4.027-2.889.933zm-1.532-6.848l3.3 4.158-1.7 2zm-3.089-7.569l4.287 3.14-1.477 3.551zm-4.419-2.159l.691-2.948 3.088 4.458zm-5.466-2.985l-.745-4.5 6.449 4.131zm-.283-.151l-6.146-4.453 5.4-.034zM57.819 36.1l4.012-2.463 1.722 2.925zm-3.853 3.344l-3.715-3.39 6.872.257zm-6.534 3.228l-3.858-.642 6.046-5.67zm-5.986 6.49l-3.948-3.2 5.6-3.567zm-.168.191L37.2 51.1l.2-4.891zm-4.08 11.6l-3.665-5.669 3.412-3.678zm-1.588 6.7l-.7 3.468-1.373-8.612zm.177.415l1.713 4.007-2.452-.344zm4.455 9.389l-2.589-.5.165-4.234zm4.891 3l-1.839 1.769-2.47-4.246zm.22.142L49.769 84l-6.252-1.64zm14.412-1.058l6.3 3.5-6.895 1.853zm13.039.688l-.345 4.4-5.687-1.579zm6.327-4.164l-3.5 6.132-2.473-2.162zm3.455-4.334l.019 3.21-2.8.535zm.7-5.468l2.848-.92-3.247 5.457zm1.976-5.645l1.617-1.907-.527 5.719zm-1.814-7.03l1.452-3.5 1.881 7.695zm-3.088-7.41l1.02-1.782 3.074 4.78zm-.177-.2l-3.017-4.356 4.037 2.574zm-10.122-9.216l3.055-.325 3.089 4.263zm-6.2-.179l-1.682-2.859 6.877 2.826zm-6.393-.563l-1.354-2.372 5.306-.053zm-.269.042l-6.684-.251 5.325-2.129zm-13.511 5.513l2.394-5.182 3.471-.317zm-.43.324l-2.187-2.1 4.617-3.16zm-.164.2l-5.439 3.463 3.245-5.577zm-6.149 8.989l-2.73-1.468 2.925-3.32zm-.086.242l-3.316 3.57.576-5.047zm-3.747 10.019L31.71 62.5l1.51-6.083zm.036.3l1.43 8.979-2.932-7.75zm4.43 10.693l-.164 4.22L35.123 72zm2.816 5.4l2.327 4-4.79-4.474zm9.817 6.631l-.1 2.318L44 82.75zm.251.1l3.17 1.483-3.27.8zm8.443.738l.1 3.251L54.4 86.05zm7.282-1.944l-1.869 4.4-4.941-2.567zm.293-.038l5.683 1.577-7.548 2.814zm6.575-2.948l2.408 2.105-2.74 2.125zm6.534-4.508l2.776-.53-6.084 6.323zm3.269-1.227l-.019-3.129 2.56-1.565zm.225-3.576l3.108-5.224-.572 3.674zm3.963-11.282l.363 3.841-.822 1.135zm-1.887-9.622l.71.666.71 5.145zm-3.6-5.868l.668-.335 1.932 4.379zm-4.676-3.065l1.174-1.68 2.871 4.259zm-.182-.184l-3.058-4.217 4.233 2.536zm-6.887-4.416L69.8 34.7l2.946 1.522zm-.255-.049l-6.733-2.767 6.713.884zm-13.318-3.092l1.072-.92 3.554.874zm-5.853 2.2l2.084-2.245 2.882.259zm-.539.206l-3.156.288 5.182-2.471zm-8.679 3.624l.349-.781 2.9-1.44zm-3.8 6.123l-.213-2.045 3.151-3.009zm-.219.359l-2.613 2.963 2.407-4.956zm-3.892 9.259l-1.668.311 2.2-5zm-.056.269l-1.595 6.429-.1-6.113zm1.411 16l-1.9-1.561-.908-5.851zm2.659 5.407l-1.211-.4-.81-3.627zm5.176 4.992l-4.024-2.191-.645-2.172zm.734.689l1.742 2.221-5.325-4.167zm.652.418l5.539 3.575-3.625-1.134zM54 86.127l4.3 2.253-7.484-1.475zm5.166-.856l4.819 2.507-4.72.748zm12.792-.117L70 86.842l-4.4.684zm3.616-2.53l.163 1.053-2.529.782zm6.562-6.774l-2.6 4.622-3.31 1.522zm.726-.77l1.738-3.217-1.862 4.413zm3.681-9.916l.658-.909-1.061 3.477zm.633-6.857V58.3l-.009-.067.065-.862.067 2.231zM87 57.039l-.658-4.767.815 2.7zm-1.958-7.434l-1.2-2.722 1.681 3.172zm-3.621-5.622l-2.4-3.557 3.06 3.226zm-8.012-7.691l.161-.115 1.843 1.316zm-.242-.138l-1.246-.645 1.385.544zM62.64 33.436l2.336-.48 3.516 1.25zm-.762-.1l-3.178-.785 5.334.339zm-6.027.058l-2.481-.223 3.472-.626zM47.1 35.608l1.42-1.064 2.289-.7zm-1.165.556l-1.231.612 1.893-1.108zm-5.167 3.543L39.3 41.1l1.67-1.863zm-6.847 9.843l-.649.241 2.523-4.1zm-.846.585l.7-.26L32 53.9zM31.33 60.579l.037 2.24-.13.407zm.122 2.812l.639 4.118-.881-3.36zm3.334 8.518l.82 3.675-2.619-5.156zm2.633 5.251l.57 1.916-1.7-2.286zm12.726 9.866l.237.378-2.49-1.083zm.639.54l-.292-.466 5.416 1.067zm13.268.458l-.569.644-2.974-.082zm.395-.063l3.545-.55-4.072 1.147zm8.19-3.06l2.079-.643-3.666 2.012zm3.33-1.38l-.167-1.055 3.037-1.4zm6.579-7.886l-.146 1.417-2 2.384zm3.289-6.045l.513-.248-2.348 4.6zm.683-.612l-.576.278 1.158-3.809z" fill="url(#c)"/><path d="M113 40.248c-2.529-6.078-7.653-12.64-11.676-14.714a60.322 60.322 0 0 1 5.894 17.645.323.323 0 0 1 .008.055l.01.063c5.491 14.871 2.5 29.994-1.811 39.235-6.67 14.3-22.817 28.952-48.092 28.237C30.02 110 5.964 89.756 1.473 63.245c-.818-4.18 0-6.3.412-9.7a43.241 43.241 0 0 0-.944 8.025c0 .1-.006.2-.006.3a58.211 58.211 0 0 0 115.571 9.83c.1-.744.177-1.492.264-2.242a59.7 59.7 0 0 0-3.77-29.21z" fill="url(#d)"/><path d="M113 40.248c-2.529-6.078-7.653-12.64-11.676-14.714a60.322 60.322 0 0 1 5.894 17.645.323.323 0 0 1 .008.055l.01.063c5.491 14.871 2.5 29.994-1.811 39.235-6.67 14.3-22.817 28.952-48.092 28.237C30.02 110 5.964 89.756 1.473 63.245c-.818-4.18 0-6.3.412-9.7a43.241 43.241 0 0 0-.944 8.025c0 .1-.006.2-.006.3a58.211 58.211 0 0 0 115.571 9.83c.1-.744.177-1.492.264-2.242a59.7 59.7 0 0 0-3.77-29.21z" fill="url(#e)"/><path d="M1.473 63.245C5.964 89.756 30.02 110 57.328 110.769c25.275.715 41.422-13.94 48.092-28.237 4.311-9.241 7.3-24.364 1.811-39.235v-.007l-.008-.056a.323.323 0 0 0-.008-.055c0 .01 0 .033.011.1 2.064 13.466-4.793 26.512-15.512 35.332l-.032.076c-20.887 16.989-40.874 10.25-44.921 7.492a33.35 33.35 0 0 1-.847-.422c-12.177-5.813-17.208-16.9-16.13-26.4a14.947 14.947 0 0 1-13.79-8.667s9.232-6.575 21.4-.856a29.009 29.009 0 0 0 21.853.856c-.022-.472-10.152-4.5-14.1-8.384-2.11-2.077-3.112-3.078-4-3.829a17.346 17.346 0 0 0-1.508-1.137 78.722 78.722 0 0 0-1.206-.8c-4.245-2.756-12.688-2.6-12.967-2.6h-.027c-2.308-2.919-2.145-12.55-2.013-14.56a10.443 10.443 0 0 0-1.943 1.029 42.386 42.386 0 0 0-5.688 4.868 50.918 50.918 0 0 0-5.436 6.511v.009-.01a49.055 49.055 0 0 0-7.81 17.62c-.028.126-2.095 9.155-1.076 13.838z" fill="url(#f)"/><path d="M79.669 40.305a31.641 31.641 0 0 1 5.4 7.043 11.407 11.407 0 0 1 .873.714c13.2 12.145 6.282 29.323 5.766 30.546 10.719-8.82 17.576-21.866 15.512-35.332C100.643 26.89 89.483 20.282 80.369 5.9c-.46-.728-.921-1.457-1.371-2.227a18.564 18.564 0 0 1-.64-1.2 10.54 10.54 0 0 1-.868-2.3.152.152 0 0 0-.133-.163.211.211 0 0 0-.109 0c-.008 0-.02.013-.029.016s-.029.017-.042.023c-2.252 1.073-15.6 22.185 2.492 40.256z" fill="url(#g)"/><path d="M57.28 32.333l7.706.491 4.68 1.665 3.9 1.531 4.492 3.208 4.232 4.46 1.47 2.774a27.102 27.102 0 0 1 .951.619c.127.089.243.178.362.267a31.641 31.641 0 0 0-5.4-7.043C61.577 22.234 74.925 1.122 77.177.049L77.2.016C62.58 8.57 57.62 24.394 57.164 32.31v.045z" fill="url(#h)"/><path d="M38.432 36.543a50.252 50.252 0 0 1 1.206.8 26.9 26.9 0 0 1-.163-14.209 43.091 43.091 0 0 0-14.01 10.815c.279-.011 8.722-.162 12.967 2.594z" fill="url(#i)"/><path d="M33.009 67.124s2.687-10 19.237-10c1.79 0 6.905-4.987 7-6.434a29.009 29.009 0 0 1-21.853-.856c-12.167-5.719-21.4.856-21.4.856a14.947 14.947 0 0 0 13.788 8.664c-1.078 9.5 3.953 20.587 16.13 26.4.272.13.528.272.807.4-7.107-3.673-12.975-10.608-13.709-19.03z" fill="url(#j)"/><path d="M85.946 48.062a11.407 11.407 0 0 0-.873-.714c-.119-.089-.235-.178-.362-.267-3.108-2.18-8.672-4.334-14.034-3.4 20.935 10.455 15.315 46.457-13.694 45.1a25.877 25.877 0 0 1-7.573-1.459q-.855-.319-1.71-.7c-.328-.15-.656-.3-.981-.469.012.009.028.018.04.026 4.047 2.758 24.034 9.5 44.921-7.492l.032-.076c.516-1.226 7.429-18.404-5.766-30.549z" fill="url(#k)"/><path d="M112.99 40.246c-2.529-6.078-7.653-12.641-11.676-14.715a60.267 60.267 0 0 1 5.894 17.646c0 .009 0 .033.011.1-6.581-16.39-17.741-22.998-26.854-37.385a70.66 70.66 0 0 1-1.371-2.226 18.13 18.13 0 0 1-.641-1.2 10.561 10.561 0 0 1-.868-2.3.152.152 0 0 0-.133-.156.191.191 0 0 0-.109 0c-.008 0-.02.012-.029.016l-.042.023.023-.033c-14.62 8.552-19.577 24.422-20.033 32.339l.118-.022 7.706.491 4.336 1.543 4.244 1.653 4.492 3.208 4.227 4.458s1.454 2.731 1.475 2.776c-3.373-2.006-8.275-3.622-13.087-2.786 20.934 10.454 15.314 46.457-13.695 45.1a25.844 25.844 0 0 1-7.573-1.459 30.273 30.273 0 0 1-1.709-.7 20.406 20.406 0 0 1-.981-.468l.039.025q-.423-.2-.847-.421c.272.13.528.271.808.4C39.607 82.479 33.738 75.543 33 67.122c0 0 2.687-10 19.237-10 1.79 0 6.905-4.988 7-6.434-.022-.472-10.152-4.5-14.1-8.384-2.11-2.077-3.112-3.079-4-3.83a17.341 17.341 0 0 0-1.508-1.136 26.915 26.915 0 0 1-.163-14.209A43.1 43.1 0 0 0 25.46 33.943h-.027c-2.307-2.92-2.145-12.55-2.013-14.561a10.516 10.516 0 0 0-1.943 1.03 42.365 42.365 0 0 0-5.688 4.867 50.918 50.918 0 0 0-5.436 6.511v.009-.009a49.055 49.055 0 0 0-7.809 17.615c-.028.126-.051.257-.079.384-.109.511-.6 3.109-.67 3.666-.006.043.005-.042 0 0a67.645 67.645 0 0 0-.859 8.112c0 .1-.006.2-.006.3A58.211 58.211 0 0 0 116.5 71.7c.1-.744.177-1.492.264-2.243a59.7 59.7 0 0 0-3.774-29.211zm-5.774 2.985l.01.063v-.006z" fill="url(#l)"/><path d="M59.245 50.691s-.247.1-.7.259c-1.136 1.922-5.179 5.59-6.724 5.583-16.551-.072-19.281 9.819-19.281 9.819a21.148 21.148 0 0 0 3.242 9.5 21.307 21.307 0 0 1-2.771-8.727s2.687-10 19.237-10c1.79 0 6.905-4.987 7-6.434z" fill="url(#m)"/><path d="M107.231 43.3v-.005l-.008-.057a.323.323 0 0 0-.008-.055c0 .01 0 .033.011.1-.4-1-.818-1.952-1.25-2.879-.148-.318-.307-.616-.459-.926a51.783 51.783 0 0 0-.885-1.764c-.187-.353-.384-.687-.576-1.03-.281-.5-.56-1.007-.85-1.491-.213-.354-.432-.693-.648-1.038a68.08 68.08 0 0 0-.855-1.339c-.229-.346-.465-.681-.7-1.018-.289-.417-.577-.834-.872-1.241a77.382 77.382 0 0 0-.738-.992 89.41 89.41 0 0 0-.888-1.168 94.71 94.71 0 0 0-.775-.975 74.963 74.963 0 0 0-.907-1.118q-.4-.482-.8-.959c-.146-.173-.289-.35-.436-.522.063.075.123.152.186.228C90.73 19.094 85.257 13.611 80.37 5.9a68.899 68.899 0 0 1-1.371-2.227 18.13 18.13 0 0 1-.641-1.2 12 12 0 0 1-.8-2.04C77.547.387 77.529.33 77.522.3 77.5.225 77.49.166 77.49.166a.152.152 0 0 0-.133-.156.211.211 0 0 0-.109 0c-.008 0-.02.013-.029.016s-.029.016-.043.023a1.8 1.8 0 0 0-.353.259l-.084.076a6.141 6.141 0 0 0-.46.487l-.016.017c-3.487 4.1-12.392 21.915 1.959 37.9C64.791 22.971 73.258 5.886 76.938 1.41a12.9 12.9 0 0 0 .717 1.758 16.742 16.742 0 0 0 .641 1.2 67.824 67.824 0 0 0 1.371 2.227c9.113 14.387 20.272 21 26.854 37.381l-.011-.1c-.001-.013 0 .012.008.055l.008.057v.006c5.491 14.871 2.5 29.994-1.811 39.235a48.246 48.246 0 0 1-9.245 13.257 48.329 48.329 0 0 0 9.948-13.961c4.313-9.234 7.304-24.357 1.813-39.225z" fill="url(#a)"/><path d="M77.177.049L77.2.016C64.03 7.722 58.7 21.325 57.439 29.735 58.887 21.965 63.867 10.1 75.027 2.6a8.134 8.134 0 0 1 2.15-2.551z" fill="url(#n)"/><path d="M91.68 78.684l.032-.076c.516-1.223 7.429-18.4-5.766-30.546a11.407 11.407 0 0 0-.873-.714c-.119-.089-.235-.178-.362-.267A20.312 20.312 0 0 0 71.219 43.6h-.013a13.798 13.798 0 0 0-.529.081c20.7 10.337 15.437 45.647-12.722 45.128.076 0 .153.01.229.013C86.73 89.936 92.355 54.926 72.522 43.95a21.051 21.051 0 0 1 11.022 3.184c.131.084.25.168.372.252a11.211 11.211 0 0 1 .9.679c13.66 11.62 7.424 29.055 6.957 30.3l-.029.077" fill="url(#o)"/><path d="M37.549 50.415a29.076 29.076 0 0 0 21.044.517 29.083 29.083 0 0 1-21.2-1.1 22.12 22.12 0 0 0-21.121.673l-.078.05h-.006l-.064.041-.048.032h-.006l-.03.02-.009.006-.031.03h-.008l.027.063v.01l.034.076.007.014.05.108v.009a11.38 11.38 0 0 0 .382.731 14.888 14.888 0 0 0 13.278 7.652c-1.046 9.219 3.657 19.923 15.055 25.862-10.894-6.277-15.471-17.669-14.2-26.73-8.41-.223-12.171-5.264-13.246-7.4a23 23 0 0 1 20.17-.664z" fill="url(#p)"/><path d="M39.629 37.308l-.284-.166.293.2zm-.06-.214a26.943 26.943 0 0 1-.094-13.963 42.436 42.436 0 0 0-13.47 10.218 43.9 43.9 0 0 1 12.283-8.677 27.293 27.293 0 0 0 1.281 12.422z" fill="url(#q)"/><path d="M2.877 69.339c-.017-.056-.031-.111-.047-.167a53.644 53.644 0 0 1-1.357-5.927 25.146 25.146 0 0 1 0-7.5 50.089 50.089 0 0 0-.532 5.825c0 .1-.006.2-.006.3a58.16 58.16 0 0 0 39.059 54.912A58.84 58.84 0 0 1 2.877 69.339z" fill="url(#r)"/><path d="M2.411 63.48c-1.02-4.68 1.047-13.712 1.075-13.838A49.038 49.038 0 0 1 11.3 32.028v.009-.009a50.916 50.916 0 0 1 5.435-6.511 42.386 42.386 0 0 1 5.688-4.868 6.91 6.91 0 0 1 .246-.153c-.02 4.423.23 11.885 2.279 14.332h.027c.281-.014 8.751-.388 13.085 2.256a71.475 71.475 0 0 1 1.232.765 17.457 17.457 0 0 1 1.543 1.1c.91.727 1.942 1.7 4.115 3.723 3.145 2.925 10 5.835 12.965 7.222-2.886-1.454-9.695-4.56-12.766-7.583-2.11-2.077-3.112-3.078-4-3.829a17.346 17.346 0 0 0-1.508-1.137 78.722 78.722 0 0 0-1.206-.8c-4.245-2.756-12.688-2.6-12.967-2.6h-.027c-2.109-2.668-2.154-10.939-2.046-13.878 0-.113.008-.217.013-.315v-.187c0-.063.007-.124.011-.177 0-.008-.01-.011-.023-.01h-.017a.155.155 0 0 0-.037.008l-.032.011-.048.018-.046.02-.057.026-.059.028-.06.03-.073.036-.059.031-.087.046-.049.026a25.093 25.093 0 0 0-1.3.756 42.386 42.386 0 0 0-5.688 4.868 50.918 50.918 0 0 0-5.436 6.511v.009-.01a49.055 49.055 0 0 0-7.799 17.615c-.028.126-2.095 9.155-1.076 13.838 3.827 22.561 21.814 40.578 43.921 45.923C23.717 103.546 6.178 85.721 2.411 63.48z" fill="url(#s)"/><path d="M113 40.248c-2.232-5.363-6.483-11.1-10.216-13.8l-.1-.074a13.37 13.37 0 0 0-.346-.237l-.131-.086a7.1 7.1 0 0 0-.324-.2l-.125-.076a9.354 9.354 0 0 0-.432-.238 65.931 65.931 0 0 1 .459.923q.141.288.278.574a59.585 59.585 0 0 1 5.157 16.148c0 .01 0 .033.011.1 2.064 13.466-4.793 26.512-15.512 35.332l-.032.076C78.356 89.522 65.4 90.7 56.712 89.422c8.656 1.617 22.311.935 36.374-10.5l.032-.075c10.719-8.821 17.576-21.867 15.512-35.333a2.083 2.083 0 0 1-.011-.1 58.38 58.38 0 0 0-4.25-14.163 38.47 38.47 0 0 1 6.366 9.069 57.953 57.953 0 0 1 5.378 28.5c-.045.743-.083 1.482-.14 2.219-3.161 27.221-25.873 49.079-54.617 50.691a59.507 59.507 0 0 1-11.491-.467 58.79 58.79 0 0 0 9.272.737 58.2 58.2 0 0 0 57.369-48.3c.1-.744.177-1.492.264-2.242a59.7 59.7 0 0 0-3.77-29.21zm-5.769 3.052v-.007l-.008-.056z" fill="url(#t)"/><path d="M2 143.978h16.09v4.35H6.616v5.9H18.09v4.316H6.616v9.49H2zm21.563-1.68a2.7 2.7 0 0 1-.033 5.4 2.554 2.554 0 0 1-2.671-2.636 2.669 2.669 0 0 1 2.704-2.762zm-2.275 7.941h4.55v17.792h-4.55zm17.738 4.942a3.682 3.682 0 0 0-2.209-.791c-1.847 0-2.9 1.186-2.9 3.789v9.852H29.4v-17.792h4.319v2.57a4.244 4.244 0 0 1 4.254-2.735A5.4 5.4 0 0 1 41 151zm1.879 4.052a9.1 9.1 0 0 1 9.166-9.357 8.759 8.759 0 0 1 9.133 9.061v1.878H45.356a4.661 4.661 0 0 0 4.913 3.723 4.772 4.772 0 0 0 4.418-2.636l3.791 2.274a9.354 9.354 0 0 1-8.341 4.217c-5.77 0-9.232-3.855-9.232-9.16zm4.517-2.009h9.364a4.486 4.486 0 0 0-4.748-3.526 4.573 4.573 0 0 0-4.616 3.526zm14.9-6.985h3.2v-.89c0-4.843 2.044-6.853 6.528-6.853h1.582v3.921h-1.284c-2.111 0-2.572.724-2.572 2.932v.89h3.857v4.085h-3.758v13.707h-4.352v-13.707h-3.2zm12.166 8.9a9.113 9.113 0 0 1 9.3-9.259 9.259 9.259 0 1 1 0 18.517 8.977 8.977 0 0 1-9.297-9.262zm14.177 0a4.882 4.882 0 1 0-4.88 5.041 4.885 4.885 0 0 0 4.883-5.045zm10.55-.2l-6.429-8.7h5.344l3.792 5.469 3.89-5.469h5.243l-6.528 8.665 6.857 9.127h-5.308l-4.253-5.8-4.121 5.8h-5.308zm-80.461 32.617A5.555 5.555 0 0 0 20 186.342c0-3.893-3.011-6.4-7.561-6.4H2v24.09h10.772c4.617 0 7.728-2.573 7.728-6.8a5.785 5.785 0 0 0-3.746-5.676zm-11.977-9.107h7.628c2.976 0 4.817 1.583 4.817 3.893s-1.606 4.026-4.583 4.026H4.777zm7.962 19.041H4.777v-8.581h7.828c3.345 0 5.085 1.749 5.085 4.291 0 2.507-1.94 4.29-4.951 4.29zm13.718-11.914v-3.366h-2.644v17.82h2.71v-9.768c0-3.927 1.74-5.643 4.75-5.643a4 4 0 0 1 2.208.561l1.138-2.573a5.957 5.957 0 0 0-3.01-.661 5 5 0 0 0-5.152 3.63zm17.663-3.729a9.274 9.274 0 1 0 9.4 9.274 9.213 9.213 0 0 0-9.4-9.274zm0 15.972a6.717 6.717 0 0 1 0-13.431 6.716 6.716 0 0 1 0 13.431zm31.416-1.584l-5.387-14.025h-2.542l-5.52 14.124-4.549-14.124h-2.877l5.921 17.82h2.676l5.553-14.123 5.553 14.123h2.476l6.26-17.82h-2.847zm17.23-6.5c-2.81-.561-4.985-.924-4.985-2.771 0-1.651 1.138-2.839 3.914-2.839a5.858 5.858 0 0 1 4.952 2.376l2.275-1.518a8.785 8.785 0 0 0-7.227-3.168c-4.282-.033-6.724 2.409-6.724 5.182 0 3.563 3.312 4.388 6.424 4.982 2.642.528 5.117.924 5.117 2.9 0 1.782-1.471 3.1-4.282 3.1a6.7 6.7 0 0 1-5.82-2.9l-2.375 1.584c1.605 2.277 4.181 3.729 8.128 3.729 4.718.033 7.126-2.739 7.126-5.544 0-3.661-3.412-4.52-6.523-5.114zm18.2-7.887a9.2 9.2 0 0 0-9.433 9.34c0 5.214 3.746 9.206 9.533 9.206a9.309 9.309 0 0 0 8.4-4.521l-2.341-1.353a6.995 6.995 0 0 1-12.913-2.375h15.957v-1.222a8.852 8.852 0 0 0-9.203-9.076zm-6.69 7.92a6.685 6.685 0 0 1 6.69-5.511 6.06 6.06 0 0 1 6.39 5.511zm26.965-7.821a5 5 0 0 0-5.152 3.63v-3.367h-2.643v17.82h2.71v-9.768c0-3.927 1.739-5.643 4.75-5.643a4.007 4.007 0 0 1 2.208.561l1.138-2.573a5.962 5.962 0 0 0-3.011-.661z" fill="#20123a"/><path d="M5.686 216.459H2v11.081h3.733a5.583 5.583 0 0 0 5.906-5.54c0-3.142-2.328-5.541-5.953-5.541zm-.093 9.078H4.218v-7.089h1.313c2.5 0 3.873 1.518 3.873 3.552a3.537 3.537 0 0 1-3.811 3.537zm7.77 2h7.67v-2.034h-5.467v-2.52h5.467v-2.019h-5.467v-2.489h5.467v-2.019h-7.67zm14.173-2.854l-3.061-8.227h-2.328l4.312 11.081h2.171l4.312-11.081H30.63zm6.646 2.854h7.671v-2.034h-5.467v-2.52h5.467v-2.019h-5.467v-2.489h5.467v-2.019h-7.671zm11.8-11.081h-2.219v11.084h7.483v-2.079h-5.265zm11.644-.151A5.694 5.694 0 1 0 63.483 222a5.752 5.752 0 0 0-5.858-5.692zm0 9.274A3.59 3.59 0 1 1 61.264 222a3.574 3.574 0 0 1-3.639 3.582zm12.066-9.123h-4.5v11.084h2.219v-3.021h2.265a4.038 4.038 0 1 0 .015-8.06zm-.141 6.072h-2.14v-4.113h2.139a2.06 2.06 0 1 1 0 4.113zm6.177 5.009H83.4v-2.034h-5.47v-2.52h5.47v-2.019h-5.47v-2.489h5.47v-2.019h-7.67zm16.393-4.053a3.594 3.594 0 0 0 2-3.278c0-2.11-1.564-3.75-4.188-3.75h-4.624v11.084h2.2v-3.491h2.561l1.83 3.491h2.468zm-2.359-1.4h-2.25v-3.658h2.249c1.405 0 2.124.7 2.124 1.791a1.873 1.873 0 0 1-2.124 1.874z" fill="url(#u)"/></svg>