<svg width="80" height="80" viewBox="0 0 80 80" xmlns="http://www.w3.org/2000/svg"><defs><radialGradient id="c" cx="428.463" cy="55.06" r="501.009" gradientUnits="userSpaceOnUse" gradientTransform="matrix(.15936 0 0 .15936 -2.55 .001)"><stop offset=".129" stop-color="#ffbd4f"/><stop offset=".186" stop-color="#ffac31"/><stop offset=".247" stop-color="#ff9d17"/><stop offset=".283" stop-color="#ff980e"/><stop offset=".403" stop-color="#ff563b"/><stop offset=".467" stop-color="#ff3750"/><stop offset=".71" stop-color="#f5156c"/><stop offset=".782" stop-color="#eb0878"/><stop offset=".86" stop-color="#e50080"/></radialGradient><radialGradient id="d" cx="245.389" cy="259.884" r="501.009" gradientUnits="userSpaceOnUse" gradientTransform="matrix(.15936 0 0 .15936 -2.55 .001)"><stop offset=".3" stop-color="#960e18"/><stop offset=".351" stop-color="#b11927" stop-opacity=".74"/><stop offset=".435" stop-color="#db293d" stop-opacity=".343"/><stop offset=".497" stop-color="#f5334b" stop-opacity=".094"/><stop offset=".53" stop-color="#ff3750" stop-opacity="0"/></radialGradient><radialGradient id="e" cx="305.796" cy="-58.641" r="362.962" gradientUnits="userSpaceOnUse" gradientTransform="matrix(.15936 0 0 .15936 -2.55 .001)"><stop offset=".132" stop-color="#fff44f"/><stop offset=".252" stop-color="#ffdc3e"/><stop offset=".506" stop-color="#ff9d12"/><stop offset=".526" stop-color="#ff980e"/></radialGradient><radialGradient id="f" cx="189.976" cy="390.752" r="238.553" gradientUnits="userSpaceOnUse" gradientTransform="matrix(.15936 0 0 .15936 -2.55 .001)"><stop offset=".353" stop-color="#3a8ee6"/><stop offset=".472" stop-color="#5c79f0"/><stop offset=".669" stop-color="#9059ff"/><stop offset="1" stop-color="#c139e6"/></radialGradient><radialGradient id="g" cx="252.158" cy="201.245" r="126.477" gradientTransform="matrix(.1549 -.03745 .04383 .18135 -10.256 5.01)" gradientUnits="userSpaceOnUse"><stop offset=".206" stop-color="#9059ff" stop-opacity="0"/><stop offset=".278" stop-color="#8c4ff3" stop-opacity=".064"/><stop offset=".747" stop-color="#7716a8" stop-opacity=".45"/><stop offset=".975" stop-color="#6e008b" stop-opacity=".6"/></radialGradient><radialGradient id="h" cx="239.064" cy="34.558" r="171.616" gradientUnits="userSpaceOnUse" gradientTransform="matrix(.15936 0 0 .15936 -2.55 .001)"><stop offset="0" stop-color="#ffe226"/><stop offset=".121" stop-color="#ffdb27"/><stop offset=".295" stop-color="#ffc82a"/><stop offset=".502" stop-color="#ffa930"/><stop offset=".732" stop-color="#ff7e37"/><stop offset=".792" stop-color="#ff7139"/></radialGradient><radialGradient id="i" cx="373.961" cy="-74.293" r="732.206" gradientUnits="userSpaceOnUse" gradientTransform="matrix(.15936 0 0 .15936 -2.55 .001)"><stop offset=".113" stop-color="#fff44f"/><stop offset=".456" stop-color="#ff980e"/><stop offset=".622" stop-color="#ff5634"/><stop offset=".716" stop-color="#ff3647"/><stop offset=".904" stop-color="#e31587"/></radialGradient><radialGradient id="j" cx="304.586" cy="7.072" r="536.368" gradientTransform="matrix(.01673 .15857 -.10406 .011 41.645 -47.222)" gradientUnits="userSpaceOnUse"><stop offset="0" stop-color="#fff44f"/><stop offset=".06" stop-color="#ffe847"/><stop offset=".168" stop-color="#ffc830"/><stop offset=".304" stop-color="#ff980e"/><stop offset=".356" stop-color="#ff8b16"/><stop offset=".455" stop-color="#ff672a"/><stop offset=".57" stop-color="#ff3647"/><stop offset=".737" stop-color="#e31587"/></radialGradient><radialGradient id="k" cx="235.021" cy="98.121" r="457.125" gradientUnits="userSpaceOnUse" gradientTransform="matrix(.15936 0 0 .15936 -2.55 .001)"><stop offset=".137" stop-color="#fff44f"/><stop offset=".48" stop-color="#ff980e"/><stop offset=".592" stop-color="#ff5634"/><stop offset=".655" stop-color="#ff3647"/><stop offset=".904" stop-color="#e31587"/></radialGradient><radialGradient id="l" cx="355.691" cy="124.878" r="500.321" gradientUnits="userSpaceOnUse" gradientTransform="matrix(.15936 0 0 .15936 -2.55 .001)"><stop offset=".094" stop-color="#fff44f"/><stop offset=".231" stop-color="#ffe141"/><stop offset=".509" stop-color="#ffaf1e"/><stop offset=".626" stop-color="#ff980e"/></radialGradient><linearGradient id="a" x1="444.856" y1="453.42" x2="380.018" y2="392.035" gradientUnits="userSpaceOnUse" gradientTransform="matrix(.15936 0 0 .15936 -2.55 .001)"><stop offset="0" stop-color="#054096" stop-opacity=".5"/><stop offset=".054" stop-color="#0f3d9c" stop-opacity=".441"/><stop offset=".261" stop-color="#2f35b1" stop-opacity=".249"/><stop offset=".466" stop-color="#462fbf" stop-opacity=".111"/><stop offset=".669" stop-color="#542bc8" stop-opacity=".028"/><stop offset=".864" stop-color="#592acb" stop-opacity="0"/></linearGradient><linearGradient id="b" x1="446.898" y1="76.848" x2="47.941" y2="461.768" gradientUnits="userSpaceOnUse" gradientTransform="matrix(.15936 0 0 .15936 -2.55 .001)"><stop offset=".048" stop-color="#fff44f"/><stop offset=".111" stop-color="#ffe847"/><stop offset=".225" stop-color="#ffc830"/><stop offset=".368" stop-color="#ff980e"/><stop offset=".401" stop-color="#ff8b16"/><stop offset=".462" stop-color="#ff672a"/><stop offset=".534" stop-color="#ff3647"/><stop offset=".705" stop-color="#e31587"/></linearGradient><linearGradient id="m" x1="442.104" y1="74.788" x2="102.635" y2="414.257" gradientUnits="userSpaceOnUse" gradientTransform="matrix(.15936 0 0 .15936 -2.55 .001)"><stop offset=".167" stop-color="#fff44f" stop-opacity=".8"/><stop offset=".266" stop-color="#fff44f" stop-opacity=".634"/><stop offset=".489" stop-color="#fff44f" stop-opacity=".217"/><stop offset=".6" stop-color="#fff44f" stop-opacity="0"/></linearGradient><linearGradient id="o" x1="268.129" y1="393.122" x2="502.196" y2="492.162" gradientUnits="userSpaceOnUse" gradientTransform="matrix(.15936 0 0 .15936 -2.55 .001)"><stop offset=".001" stop-color="#54ffbd"/><stop offset="1" stop-color="#0df"/></linearGradient><filter x="-5.1%" y="-11.5%" width="110.2%" height="120%" filterUnits="objectBoundingBox" id="n"><feOffset dy="-2" in="SourceAlpha" result="shadowOffsetOuter1"/><feGaussianBlur stdDeviation="4" in="shadowOffsetOuter1" result="shadowBlurOuter1"/><feColorMatrix values="0 0 0 0 0.0352941176 0 0 0 0 0.125490196 0 0 0 0 0.301960784 0 0 0 0.24 0" in="shadowBlurOuter1"/></filter></defs><path d="M69.132 53.931H39.28c-.879 0-1.592.713-1.592 1.592v4.776c0 7.035 5.702 12.737 12.737 12.737h16.518c5.275 0 9.552-4.277 9.552-9.552v-4.18c0-2.388-2.388-5.373-7.363-5.373z" fill="#008787"/><path d="M69.132 53.931H39.28c-.879 0-1.592.713-1.592 1.592v4.776c0 7.035 5.702 12.737 12.737 12.737h16.518c5.275 0 9.552-4.277 9.552-9.552v-4.18c0-2.388-2.388-5.373-7.363-5.373z" fill="url(#a)" opacity=".9"/><path d="M73.74 26.515c-1.665-4.004-5.036-8.327-7.684-9.694 2.155 4.225 3.402 8.463 3.879 11.625l.007.064c-4.331-10.796-11.674-15.149-17.67-24.627-.303-.479-.607-.96-.902-1.467a11.558 11.558 0 0 1-.422-.792 7.02 7.02 0 0 1-.573-1.515.1.1 0 0 0-.087-.103.146.146 0 0 0-.072 0l-.019.011c-.008.003-.019.011-.028.016l.016-.022c-9.621 5.635-12.884 16.06-13.184 21.275a19.167 19.167 0 0 0-10.541 4.062 11.66 11.66 0 0 0-.992-.749 17.743 17.743 0 0 1-.107-9.361c-3.935 1.792-6.995 4.624-9.219 7.125h-.018c-1.518-1.923-1.411-8.268-1.325-9.593-.018-.082-1.132.579-1.278.678a27.976 27.976 0 0 0-3.743 3.207 33.58 33.58 0 0 0-3.577 4.29l-.001.006.001-.006a32.34 32.34 0 0 0-5.138 11.604c-.019.083-.034.169-.052.253a62.058 62.058 0 0 0-.377 2.392c-.004.028-.005.055-.008.083a36.39 36.39 0 0 0-.622 5.285c0 .065-.004.13-.004.195 0 21.152 17.147 38.299 38.299 38.299 18.942 0 34.671-13.753 37.75-31.818.065-.49.117-.983.174-1.478.762-6.568-.084-13.472-2.483-19.245zm-44.143 29.98c.179.086.347.179.531.261l.026.017a24.07 24.07 0 0 1-.557-.278zm8.773-23.099zm31.575-4.877l-.005-.037.006.042z" fill="url(#b)"/><path d="M73.74 26.515c-1.665-4.004-5.036-8.327-7.684-9.694 2.155 4.225 3.402 8.463 3.879 11.625 0-.009.001.008.005.036l.007.042c3.613 9.797 1.645 19.761-1.192 25.848-4.389 9.419-15.015 19.074-31.646 18.603C19.14 72.466 3.31 59.131.355 41.666c-.539-2.754 0-4.153.271-6.389-.33 1.724-.456 2.222-.622 5.285 0 .065-.004.13-.004.195 0 21.152 17.148 38.299 38.299 38.299 18.943 0 34.671-13.753 37.75-31.818.065-.49.117-.983.174-1.478.762-6.568-.084-13.472-2.483-19.245z" fill="url(#c)"/><path d="M73.74 26.515c-1.665-4.004-5.036-8.327-7.684-9.694 2.155 4.225 3.402 8.463 3.879 11.625 0-.009.001.008.005.036l.007.042c3.613 9.797 1.645 19.761-1.192 25.848-4.389 9.419-15.015 19.074-31.646 18.603C19.14 72.466 3.31 59.131.355 41.666c-.539-2.754 0-4.153.271-6.389-.33 1.724-.456 2.222-.622 5.285 0 .065-.004.13-.004.195 0 21.152 17.148 38.299 38.299 38.299 18.943 0 34.671-13.753 37.75-31.818.065-.49.117-.983.174-1.478.762-6.568-.084-13.472-2.483-19.245z" fill="url(#d)"/><path d="M55.128 31.017c.083.059.159.117.238.175a20.814 20.814 0 0 0-3.556-4.64C39.905 14.647 48.689.738 50.17.032a.256.256 0 0 1 .016-.022c-9.621 5.636-12.885 16.06-13.185 21.275.447-.031.892-.068 1.346-.068 7.179 0 13.432 3.948 16.781 9.8z" fill="url(#e)"/><path d="M38.371 33.394c-.063.953-3.429 4.24-4.606 4.24-10.89 0-12.658 6.588-12.658 6.588.482 5.548 4.344 10.117 9.021 12.534.214.11.43.21.646.309.37.164.745.317 1.125.46 1.604.567 3.283.891 4.983.961 19.089.895 22.787-22.823 9.011-29.711 3.528-.614 7.19.805 9.235 2.242-3.349-5.851-9.602-9.799-16.781-9.799-.454 0-.899.037-1.345.068a19.167 19.167 0 0 0-10.541 4.062c.584.495 1.243 1.155 2.632 2.523 2.598 2.561 9.264 5.212 9.278 5.523z" fill="url(#f)"/><path d="M38.371 33.394c-.063.953-3.429 4.24-4.606 4.24-10.89 0-12.658 6.588-12.658 6.588.482 5.548 4.344 10.117 9.021 12.534.214.11.43.21.646.309.37.164.745.317 1.125.46 1.604.567 3.283.891 4.983.961 19.089.895 22.787-22.823 9.011-29.711 3.528-.614 7.19.805 9.235 2.242-3.349-5.851-9.602-9.799-16.781-9.799-.454 0-.899.037-1.345.068a19.167 19.167 0 0 0-10.541 4.062c.584.495 1.243 1.155 2.632 2.523 2.598 2.561 9.264 5.212 9.278 5.523z" fill="url(#g)"/><path d="M24.675 24.074c.266.172.531.347.793.526a17.754 17.754 0 0 1-.107-9.361c-3.934 1.791-6.994 4.624-9.219 7.125.184-.006 5.739-.106 8.533 1.71z" fill="url(#h)"/><path d="M.355 41.666c2.955 17.465 18.785 30.8 36.754 31.309 16.631.47 27.257-9.184 31.646-18.603 2.836-6.088 4.805-16.051 1.192-25.849l-.002-.004-.005-.037-.005-.036.007.064c1.358 8.871-3.154 17.466-10.207 23.277l-.021.05c-13.745 11.192-26.897 6.753-29.56 4.936a28.969 28.969 0 0 1-.558-.278c-8.013-3.83-11.323-11.131-10.613-17.393-6.766 0-9.073-5.708-9.073-5.708s6.075-4.331 14.081-.564c7.415 3.49 14.379.565 14.38.564-.014-.311-6.68-2.963-9.279-5.523-1.388-1.369-2.048-2.028-2.631-2.523a11.122 11.122 0 0 0-.993-.749 41.86 41.86 0 0 0-.793-.526c-2.794-1.816-8.349-1.716-8.533-1.711h-.018c-1.518-1.923-1.411-8.268-1.324-9.593-.019-.082-1.133.579-1.279.679a27.896 27.896 0 0 0-3.743 3.206 33.659 33.659 0 0 0-3.577 4.291l-.001.006.001-.006a32.34 32.34 0 0 0-5.138 11.604c-.019.083-1.379 6.032-.708 9.117z" fill="url(#i)"/><path d="M51.81 26.553a20.769 20.769 0 0 1 3.556 4.64c.211.158.408.316.575.47 8.682 8.001 4.133 19.318 3.794 20.124C66.788 45.976 71.3 37.381 69.942 28.51c-4.331-10.796-11.674-15.149-17.67-24.627-.303-.479-.607-.96-.902-1.467a11.558 11.558 0 0 1-.422-.792 7.02 7.02 0 0 1-.573-1.515.1.1 0 0 0-.087-.103.146.146 0 0 0-.072 0l-.019.011c-.008.003-.019.011-.028.016-1.48.705-10.264 14.614 1.641 26.52z" fill="url(#j)"/><path d="M55.941 31.663a7.423 7.423 0 0 0-.575-.47 9.824 9.824 0 0 0-.238-.176c-2.045-1.437-5.707-2.856-9.235-2.242 13.776 6.888 10.078 30.606-9.011 29.711-1.7-.07-3.38-.394-4.983-.961-.38-.143-.755-.296-1.125-.46a15.85 15.85 0 0 1-.646-.309l.026.017c2.663 1.817 15.815 6.257 29.56-4.936l.021-.05c.339-.806 4.888-12.123-3.794-20.124z" fill="url(#k)"/><path d="M21.107 44.221s1.767-6.588 12.658-6.588c1.177 0 4.543-3.286 4.606-4.239.062-.953-6.965 2.926-14.38-.564-8.006-3.768-14.081.564-14.081.564s2.307 5.708 9.073 5.708c-.709 6.261 2.601 13.563 10.614 17.392.179.086.347.179.531.262-4.677-2.418-8.539-6.986-9.021-12.535z" fill="url(#l)"/><path d="M73.74 26.515c-1.665-4.004-5.036-8.327-7.684-9.694 2.155 4.225 3.402 8.463 3.879 11.625l.007.064c-4.331-10.796-11.674-15.149-17.67-24.627-.303-.479-.607-.96-.902-1.467a11.558 11.558 0 0 1-.422-.792 7.02 7.02 0 0 1-.573-1.515.1.1 0 0 0-.087-.103.146.146 0 0 0-.072 0l-.019.011c-.008.003-.019.011-.028.016l.016-.022c-9.621 5.635-12.884 16.06-13.184 21.275.446-.031.891-.069 1.345-.069 7.18 0 13.433 3.948 16.781 9.8-2.045-1.437-5.707-2.856-9.235-2.242 13.776 6.888 10.078 30.606-9.011 29.711-1.7-.07-3.379-.394-4.983-.962a21.546 21.546 0 0 1-1.125-.459 15.85 15.85 0 0 1-.646-.309c.008.005.019.011.026.017-.187-.09-.373-.183-.557-.278.179.086.347.179.531.261-4.677-2.417-8.539-6.986-9.022-12.534 0 0 1.768-6.589 12.659-6.589 1.177 0 4.543-3.285 4.605-4.239-.014-.311-6.68-2.963-9.278-5.523-1.389-1.368-2.048-2.028-2.632-2.523a11.254 11.254 0 0 0-.992-.749 17.743 17.743 0 0 1-.107-9.361c-3.935 1.792-6.995 4.624-9.22 7.125h-.017c-1.518-1.924-1.411-8.268-1.325-9.593-.018-.082-1.132.579-1.278.678a27.914 27.914 0 0 0-3.743 3.207 33.573 33.573 0 0 0-3.576 4.29l-.001.006.001-.006a32.34 32.34 0 0 0-5.138 11.604c-.019.083-.034.169-.052.253-.072.337-.396 2.049-.442 2.416-.003.028.004-.028 0 0a44.556 44.556 0 0 0-.564 5.344c0 .065-.004.13-.004.195 0 21.152 17.147 38.299 38.298 38.299 18.943 0 34.671-13.753 37.751-31.818.065-.49.116-.983.174-1.478.761-6.568-.085-13.472-2.484-19.245zm-3.8 1.967l.007.042-.002-.005-.005-.037z" fill="url(#m)"/><path d="M74.903 60.896H47.459c-6.495 0-11.761 5.266-11.761 11.761v5.752c0 .88.713 1.592 1.592 1.592h27.444c6.495 0 11.761-5.265 11.761-11.761v-8.936c0 .88-.713 1.592-1.592 1.592z" fill="#20123a" filter="url(#n)"/><path d="M74.903 60.896H47.459c-6.495 0-11.761 5.266-11.761 11.761v5.752c0 .88.713 1.592 1.592 1.592h27.444c6.495 0 11.761-5.265 11.761-11.761v-8.936c0 .88-.713 1.592-1.592 1.592z" fill="url(#o)"/><path d="M42.766 66.497h3.296c1.769 0 2.762.797 2.762 2.227a1.758 1.758 0 0 1-.917 1.615c.666.339 1.037.939 1.037 1.769 0 1.572-1.092 2.358-2.86 2.358h-3.318zm1.517 1.365v1.844h1.834c.819 0 1.168-.403 1.168-.949 0-.557-.383-.895-1.19-.895zm0 3.231v1.986h1.823c.841 0 1.277-.382 1.277-1.004 0-.621-.37-.982-1.342-.982zm6.134-4.596h5.359v1.452h-3.82v1.79h3.82v1.452h-3.82v1.812h3.82v1.463h-5.359zm8.896 1.419h-2.216v-1.418h5.927v1.418H60.83v6.55h-1.518zm6.319-1.419h1.517l3.012 7.969h-1.582l-.524-1.452h-3.329l-.524 1.452h-1.583zm-.393 5.12h2.303l-1.146-3.166z" fill="#20123a"/></svg>