<svg viewBox="0 0 280 80" width="280" height="80" xmlns="http://www.w3.org/2000/svg"><path d="M104.382 35.545c-5.12 0-8.309 3.805-8.309 10.393 0 6.057 2.797 10.715 8.225 10.715 5.204 0 8.617-4.196 8.617-10.869 0-7.064-3.805-10.239-8.533-10.239zM241.609 53.156c0 2.252 1.091 4.043 4.112 4.043 3.567 0 7.372-2.56 7.61-8.379-1.623-.238-3.413-.462-5.05-.462-3.567-.014-6.672.993-6.672 4.798z" fill="#fff"/><path d="M0 0v80h279.769V0H0zm81.399 63.564H66.725v-19.71c0-6.057-2.014-8.379-5.973-8.379-4.812 0-6.757 3.413-6.757 8.309v12.17h4.659v7.61h-14.66v-19.71c0-6.057-2.015-8.379-5.973-8.379-4.812 0-6.757 3.413-6.757 8.309v12.17h6.673v7.61H16.604v-7.61h4.658V36.16h-4.658v-7.61h14.66v5.274c2.098-3.721 5.749-5.973 10.631-5.973 5.05 0 9.694 2.406 11.415 7.526 1.944-4.658 5.903-7.526 11.415-7.526 6.28 0 12.03 3.805 12.03 12.1v16.003h4.658v7.61zm22.591.769c-10.785 0-18.241-6.589-18.241-17.765 0-10.24 6.211-18.703 18.787-18.703 12.575 0 18.702 8.449 18.702 18.227 0 11.177-8.071 18.241-19.248 18.241zm56.444-.769h-30.579l-1.007-5.274 19.248-22.116h-10.939l-1.553 5.428-7.218-.784 1.245-12.268h30.733l.783 5.274-19.416 22.13h11.331l1.636-5.428 7.918.77-2.182 12.268zm19.975 0h-10.477V50.988h10.477v12.576zm0-22.438h-10.477V28.55h10.477v12.576zm6.547 22.438l15.135-53.394h9.862l-15.135 53.394h-9.862zm20.339 0l15.121-53.394h9.862l-15.135 53.394h-9.848zm53.716.769c-4.658 0-7.218-2.714-7.68-6.98-2.014 3.567-5.581 6.98-11.247 6.98-5.05 0-10.785-2.714-10.785-10.016 0-8.617 8.309-10.631 16.297-10.631 1.944 0 3.958.084 5.749.308v-1.161c0-3.567-.084-7.834-5.749-7.834-2.099 0-3.721.154-5.358 1.007l-1.133 3.945-7.987-.853 1.371-8.058c6.126-2.49 9.232-3.175 14.981-3.175 7.526 0 13.891 3.875 13.891 11.876v15.206c0 2.014.783 2.713 2.406 2.713.461 0 .937-.084 1.469-.237l.083 5.273c-1.888 1.021-4.14 1.637-6.308 1.637z" fill="#fff"/></svg>