<svg viewBox="0 0 80 80" width="80" height="80" xmlns="http://www.w3.org/2000/svg"><path d="M0 0v80h80V0H0zm72.706 57.647H58.235V38.118c0-6-2-8.236-5.882-8.236-4.706 0-6.588 3.412-6.588 8.118v12h4.588v7.529H35.882V38.118c0-6-2-8.236-5.882-8.236-4.706 0-6.588 3.412-6.588 8.118v12H30v7.529H8.824V50h4.588V30.588H8.824v-7.529h14.47v5.176c2.118-3.647 5.647-5.882 10.471-5.882 4.941 0 9.529 2.353 11.176 7.412 1.883-4.589 5.765-7.412 11.177-7.412C62.353 22.353 68 26.118 68 34.235v15.883h4.706v7.529z"/></svg>