<svg xmlns="http://www.w3.org/2000/svg" width="136" height="232" viewBox="0 0 136 232"><defs><linearGradient id="a" x1="111.26" y1="30.815" x2="10.67" y2="94.179" gradientUnits="userSpaceOnUse"><stop offset="0" stop-color="#3fe1b0"/><stop offset=".406" stop-color="#00b3f4"/><stop offset=".421" stop-color="#03b0f4"/><stop offset=".818" stop-color="#5561e9"/><stop offset="1" stop-color="#7542e5"/></linearGradient><radialGradient id="b" cx="-8783.187" cy="-8653.787" r="80.797" gradientTransform="matrix(1.5 0 0 1.5 13275.507 12994)" gradientUnits="userSpaceOnUse"><stop offset=".108" stop-color="#3fe1b0"/><stop offset=".122" stop-color="#3bdcb3"/><stop offset=".254" stop-color="#1bb3d3"/><stop offset=".358" stop-color="#0799e6"/><stop offset=".42" stop-color="#0090ed"/><stop offset=".487" stop-color="#2482f1"/><stop offset=".64" stop-color="#7165fb"/><stop offset=".71" stop-color="#9059ff"/><stop offset=".795" stop-color="#7d49ed"/><stop offset=".86" stop-color="#7542e5"/></radialGradient><radialGradient id="c" cx="-8812.711" cy="-8620.756" r="80.797" gradientTransform="matrix(1.5 0 0 1.5 13275.507 12994)" gradientUnits="userSpaceOnUse"><stop offset=".3" stop-color="#45278d"/><stop offset=".341" stop-color="#562896" stop-opacity=".787"/><stop offset=".43" stop-color="#782aa9" stop-opacity=".364"/><stop offset=".495" stop-color="#8d2bb5" stop-opacity=".1"/><stop offset=".53" stop-color="#952bb9" stop-opacity="0"/></radialGradient><radialGradient id="d" cx="-8802.97" cy="-8672.124" r="58.534" gradientTransform="matrix(1.5 0 0 1.5 13275.507 12994)" gradientUnits="userSpaceOnUse"><stop offset=".132" stop-color="#3fe1b0"/><stop offset=".289" stop-color="#28d0c8"/><stop offset=".526" stop-color="#00b3f4"/></radialGradient><radialGradient id="e" cx="-8821.648" cy="-8599.651" r="38.471" gradientTransform="matrix(1.5 0 0 1.5 13275.507 12994)" gradientUnits="userSpaceOnUse"><stop offset=".287" stop-color="#0060df"/><stop offset=".417" stop-color="#2357e1"/><stop offset=".604" stop-color="#4f4ce3"/><stop offset=".748" stop-color="#6b45e4"/><stop offset=".833" stop-color="#7542e5"/></radialGradient><radialGradient id="f" cx="-8811.62" cy="-8630.212" r="20.397" gradientTransform="matrix(1.458 -.353 .413 1.708 16470.393 11678.517)" gradientUnits="userSpaceOnUse"><stop offset=".206" stop-color="#45278d" stop-opacity="0"/><stop offset=".251" stop-color="#44268a" stop-opacity=".055"/><stop offset=".725" stop-color="#371f6f" stop-opacity=".591"/><stop offset=".956" stop-color="#321c64" stop-opacity=".8"/></radialGradient><radialGradient id="g" cx="-8819.645" cy="-8605.188" r=".626" gradientTransform="matrix(1.5 0 0 1.5 13275.507 12994)" gradientUnits="userSpaceOnUse"><stop offset=".353" stop-color="#3a8ee6"/><stop offset=".472" stop-color="#5c79f0"/><stop offset=".669" stop-color="#9059ff"/><stop offset="1" stop-color="#c139e6"/></radialGradient><radialGradient id="h" cx="-8819.48" cy="-8605.416" r=".224" gradientTransform="matrix(1.458 -.353 .413 1.708 16459.818 11670.594)" gradientUnits="userSpaceOnUse"><stop offset=".206" stop-color="#9059ff" stop-opacity="0"/><stop offset=".278" stop-color="#8c4ff3" stop-opacity=".064"/><stop offset=".747" stop-color="#7716a8" stop-opacity=".45"/><stop offset=".975" stop-color="#6e008b" stop-opacity=".6"/></radialGradient><radialGradient id="i" cx="-8813.731" cy="-8657.094" r="27.676" gradientTransform="matrix(1.5 0 0 1.5 13275.507 12994)" gradientUnits="userSpaceOnUse"><stop offset="0" stop-color="#0df"/><stop offset=".235" stop-color="#00d6fd"/><stop offset=".572" stop-color="#00c3f8"/><stop offset=".792" stop-color="#00b3f4"/></radialGradient><radialGradient id="j" cx="-8791.977" cy="-8674.648" r="118.081" gradientTransform="matrix(1.5 0 0 1.5 13275.507 12994)" gradientUnits="userSpaceOnUse"><stop offset=".126" stop-color="#3fe1b0"/><stop offset=".429" stop-color="#0df"/><stop offset=".479" stop-color="#1ec1ff"/><stop offset=".624" stop-color="#7077ff"/><stop offset=".69" stop-color="#9059ff"/><stop offset=".904" stop-color="#b833e1"/></radialGradient><radialGradient id="k" cx="-8803.165" cy="-8661.526" r="86.499" gradientTransform="matrix(.157 1.492 -.979 .103 -7025.1 14026.354)" gradientUnits="userSpaceOnUse"><stop offset="0" stop-color="#54ffbd"/><stop offset=".095" stop-color="#4cf3b8"/><stop offset=".197" stop-color="#3fe1b0"/><stop offset=".257" stop-color="#33d8bd"/><stop offset=".369" stop-color="#12c0e1"/><stop offset=".423" stop-color="#00b3f4"/><stop offset=".737" stop-color="#0060df"/></radialGradient><radialGradient id="l" cx="-8814.383" cy="-8646.843" r="73.72" gradientTransform="matrix(1.5 0 0 1.5 13275.507 12994)" gradientUnits="userSpaceOnUse"><stop offset=".137" stop-color="#3fe1b0"/><stop offset=".435" stop-color="#0df"/><stop offset=".484" stop-color="#1ec1ff"/><stop offset=".622" stop-color="#7077ff"/><stop offset=".685" stop-color="#9059ff"/></radialGradient><radialGradient id="m" cx="-8794.923" cy="-8642.528" r="80.686" gradientTransform="matrix(1.5 0 0 1.5 13275.507 12994)" gradientUnits="userSpaceOnUse"><stop offset=".094" stop-color="#54ffbd"/><stop offset=".242" stop-color="#41f7cc"/><stop offset=".543" stop-color="#0fe3f3"/><stop offset=".626" stop-color="#0df"/></radialGradient><linearGradient id="n" x1="104.075" y1="18.091" x2="21.957" y2="100.209" gradientUnits="userSpaceOnUse"><stop offset=".167" stop-color="#54ffbd" stop-opacity=".8"/><stop offset=".236" stop-color="#43f8ca" stop-opacity=".639"/><stop offset=".361" stop-color="#27ede1" stop-opacity=".368"/><stop offset=".466" stop-color="#12e4f1" stop-opacity=".169"/><stop offset=".545" stop-color="#05dffb" stop-opacity=".046"/><stop offset=".589" stop-color="#0df" stop-opacity="0"/></linearGradient><linearGradient id="o" x1="-3.118" y1="218" x2="98.25" y2="218" gradientUnits="userSpaceOnUse"><stop offset="0" stop-color="#54ffbd"/><stop offset=".389" stop-color="#0df"/><stop offset=".638" stop-color="#58c2ff"/><stop offset=".887" stop-color="#aba8ff"/><stop offset="1" stop-color="#cb9eff"/></linearGradient></defs><path d="M112.93 40.247c-2.527-6.079-7.644-12.641-11.662-14.715a60.331 60.331 0 0 1 5.886 17.646l.012.1c-6.574-16.39-17.721-22.998-26.824-37.386a71.37 71.37 0 0 1-1.369-2.226 18.564 18.564 0 0 1-.64-1.2 10.582 10.582 0 0 1-.867-2.3.152.152 0 0 0-.132-.156.191.191 0 0 0-.109 0 .269.269 0 0 0-.025.014c-.013.005-.029.016-.043.023l.024-.033c-14.6 8.554-19.558 24.378-20.013 32.295a29.084 29.084 0 0 0-16 6.166 17.355 17.355 0 0 0-1.506-1.137 26.939 26.939 0 0 1-.163-14.209A43.074 43.074 0 0 0 25.5 33.944h-.027c-2.3-2.919-2.142-12.55-2.01-14.56a10.434 10.434 0 0 0-1.941 1.029 42.342 42.342 0 0 0-5.682 4.868 50.99 50.99 0 0 0-5.429 6.511v.009-.009a49.084 49.084 0 0 0-7.8 17.614c-.028.126-.051.257-.079.384-.109.512-.5 3.073-.572 3.63-.005.043-.007.084-.013.127a55.469 55.469 0 0 0-.942 8.021c0 .1-.006.2-.006.3A58.138 58.138 0 0 0 116.437 71.7c.1-.744.177-1.492.264-2.242a59.772 59.772 0 0 0-3.771-29.211zM45.925 85.753c.272.13.527.272.806.4l.04.025a37.153 37.153 0 0 1-.846-.425zM59.242 50.69zm47.929-7.4l-.008-.057.01.063z" fill="url(#a)"/><path d="M107.173 43.3l-.01-.063.008.057z" fill="none"/><path d="M112.93 40.247c-2.527-6.079-7.644-12.641-11.662-14.715a60.331 60.331 0 0 1 5.886 17.646c0-.014 0 .011.009.054l.01.063c5.485 14.872 2.5 30-1.809 39.236-6.662 14.3-22.791 28.952-48.036 28.238C30.051 110 6.023 89.755 1.538 63.244c-.818-4.18 0-6.3.41-9.7a43.356 43.356 0 0 0-.942 8.021c0 .1-.006.2-.006.3A58.138 58.138 0 0 0 116.437 71.7c.1-.744.177-1.492.264-2.242a59.772 59.772 0 0 0-3.771-29.211z" fill="url(#b)"/><path d="M112.93 40.247c-2.527-6.079-7.644-12.641-11.662-14.715a60.331 60.331 0 0 1 5.886 17.646c0-.014 0 .011.009.054l.01.063c5.485 14.872 2.5 30-1.809 39.236-6.662 14.3-22.791 28.952-48.036 28.238C30.051 110 6.023 89.755 1.538 63.244c-.818-4.18 0-6.3.41-9.7a43.356 43.356 0 0 0-.942 8.021c0 .1-.006.2-.006.3A58.138 58.138 0 0 0 116.437 71.7c.1-.744.177-1.492.264-2.242a59.772 59.772 0 0 0-3.771-29.211z" fill="url(#c)"/><path d="M84.679 47.08c.127.089.243.178.361.267a31.612 31.612 0 0 0-5.4-7.044C61.572 22.232 74.905 1.119 77.153.047l.024-.033c-14.6 8.554-19.558 24.378-20.013 32.295.677-.047 1.352-.1 2.042-.1A29.34 29.34 0 0 1 84.679 47.08z" fill="url(#d)"/><path d="M59.243 50.689c-.095 1.446-5.2 6.434-6.991 6.434-16.532 0-19.215 10-19.215 10 .732 8.422 6.595 15.357 13.694 19.027.324.167.652.318.98.468.57.251 1.139.486 1.708.7a25.786 25.786 0 0 0 7.564 1.459c28.975 1.36 34.589-34.643 13.678-45.1 5.355-.932 10.914 1.222 14.018 3.4a29.34 29.34 0 0 0-25.473-14.872c-.69 0-1.365.057-2.042.1a29.084 29.084 0 0 0-16 6.166c.886.751 1.887 1.753 3.995 3.829 3.941 3.891 14.062 7.917 14.084 8.389z" fill="url(#e)"/><path d="M59.243 50.689c-.095 1.446-5.2 6.434-6.991 6.434-16.532 0-19.215 10-19.215 10 .732 8.422 6.595 15.357 13.694 19.027.324.167.652.318.98.468.57.251 1.139.486 1.708.7a25.786 25.786 0 0 0 7.564 1.459c28.975 1.36 34.589-34.643 13.678-45.1 5.355-.932 10.914 1.222 14.018 3.4a29.34 29.34 0 0 0-25.473-14.872c-.69 0-1.365.057-2.042.1a29.084 29.084 0 0 0-16 6.166c.886.751 1.887 1.753 3.995 3.829 3.941 3.891 14.062 7.917 14.084 8.389z" fill="url(#f)"/><path d="M45.925 85.753c.282.145.564.287.846.422l-.04-.025c-.279-.125-.531-.267-.806-.397z" fill="url(#g)"/><path d="M45.925 85.753c.282.145.564.287.846.422l-.04-.025c-.279-.125-.531-.267-.806-.397z" fill="url(#h)"/><path d="M29.177 29.438c.038.002.023.001 0 0z" fill="#296ff6"/><path d="M38.453 36.541c.472.306.86.562 1.2.8a26.939 26.939 0 0 1-.163-14.209A43.074 43.074 0 0 0 25.5 33.944c.281-.007 8.713-.159 12.953 2.597z" fill="url(#i)"/><path d="M1.538 63.244C6.023 89.755 30.051 110 57.328 110.769c25.245.714 41.374-13.941 48.036-28.238 4.306-9.241 7.294-24.364 1.809-39.236v-.006l-.008-.057c-.006-.043-.01-.068-.009-.054l.012.1c2.062 13.467-4.787 26.513-15.494 35.333l-.032.076c-20.863 16.99-40.827 10.251-44.869 7.492a33.295 33.295 0 0 1-.846-.422c-12.163-5.813-17.188-16.9-16.111-26.4a14.931 14.931 0 0 1-13.772-8.663s9.221-6.576 21.374-.857a28.945 28.945 0 0 0 21.827.857c-.022-.472-10.14-4.5-14.084-8.385-2.108-2.076-3.109-3.078-3.995-3.829a17.355 17.355 0 0 0-1.506-1.137c-.345-.235-.733-.491-1.2-.8-4.24-2.756-12.672-2.6-12.952-2.6h-.027c-2.3-2.919-2.142-12.55-2.01-14.56a10.434 10.434 0 0 0-1.941 1.029 42.342 42.342 0 0 0-5.682 4.868 50.99 50.99 0 0 0-5.429 6.511v.009-.009a49.084 49.084 0 0 0-7.8 17.614c-.035.127-2.1 9.156-1.081 13.839z" fill="url(#j)"/><path fill="#ff4aa2" d="M59.243 50.689l-.001.001.001-.001z"/><path d="M79.643 40.3a31.612 31.612 0 0 1 5.4 7.044c.32.24.619.48.873.714 13.179 12.145 6.274 29.323 5.759 30.546 10.707-8.82 17.556-21.866 15.494-35.333-6.577-16.383-17.724-22.991-26.827-37.379a71.37 71.37 0 0 1-1.369-2.226 18.564 18.564 0 0 1-.64-1.2 10.582 10.582 0 0 1-.867-2.3.152.152 0 0 0-.132-.156.191.191 0 0 0-.109 0 .269.269 0 0 0-.025.014c-.013.005-.029.016-.043.023-2.252 1.072-15.585 22.185 2.486 40.253z" fill="url(#k)"/><path d="M85.913 48.061a11.407 11.407 0 0 0-.873-.714c-.118-.089-.234-.178-.361-.267-3.1-2.181-8.663-4.335-14.018-3.4 20.911 10.455 15.3 46.458-13.678 45.1a25.786 25.786 0 0 1-7.564-1.459 30.245 30.245 0 0 1-1.708-.7c-.328-.15-.656-.3-.98-.468l.04.025c4.042 2.759 24.006 9.5 44.869-7.492l.032-.076c.515-1.226 7.42-18.404-5.759-30.549z" fill="url(#l)"/><path d="M33.037 67.123s2.683-10 19.215-10c1.787 0 6.9-4.988 6.991-6.434a28.945 28.945 0 0 1-21.827-.857c-12.153-5.719-21.374.857-21.374.857a14.931 14.931 0 0 0 13.772 8.663c-1.077 9.505 3.948 20.588 16.111 26.4.272.13.527.272.806.4-7.099-3.672-12.962-10.607-13.694-19.029z" fill="url(#m)"/><path d="M43.177 36.438c.038.002.023.001 0 0z" fill="#296ff6"/><path fill="#ff4aa2" d="M73.243 57.689h-.001.001z"/><path d="M112.93 40.247c-2.527-6.079-7.644-12.641-11.662-14.715a60.331 60.331 0 0 1 5.886 17.646l.012.1c-6.574-16.39-17.721-22.998-26.824-37.386a71.37 71.37 0 0 1-1.369-2.226 18.564 18.564 0 0 1-.64-1.2 10.582 10.582 0 0 1-.867-2.3.152.152 0 0 0-.132-.156.191.191 0 0 0-.109 0 .269.269 0 0 0-.025.014c-.013.005-.029.016-.043.023l.024-.033c-14.6 8.554-19.558 24.378-20.013 32.295.677-.047 1.352-.1 2.042-.1A29.34 29.34 0 0 1 84.679 47.08c-3.1-2.181-8.663-4.335-14.018-3.4 20.911 10.455 15.3 46.458-13.678 45.1a25.786 25.786 0 0 1-7.564-1.459 30.245 30.245 0 0 1-1.708-.7c-.328-.15-.656-.3-.98-.468l.04.025a33.295 33.295 0 0 1-.846-.422c.272.13.527.272.806.4-7.1-3.67-12.962-10.605-13.694-19.027 0 0 2.683-10 19.215-10 1.787 0 6.9-4.988 6.991-6.434-.022-.472-10.14-4.5-14.084-8.385-2.108-2.076-3.109-3.078-3.995-3.829a17.355 17.355 0 0 0-1.506-1.137 26.939 26.939 0 0 1-.163-14.209A43.074 43.074 0 0 0 25.5 33.944h-.027c-2.3-2.919-2.142-12.55-2.01-14.56a10.434 10.434 0 0 0-1.941 1.029 42.342 42.342 0 0 0-5.682 4.868 50.99 50.99 0 0 0-5.429 6.511v.009-.009a49.084 49.084 0 0 0-7.8 17.614c-.028.126-.051.257-.079.384-.109.512-.6 3.109-.67 3.666a67.878 67.878 0 0 0-.857 8.112c0 .1-.006.2-.006.3A58.138 58.138 0 0 0 116.437 71.7c.1-.744.177-1.492.264-2.242a59.772 59.772 0 0 0-3.771-29.211zm-5.767 2.985l.01.063v-.006z" fill="url(#n)"/><path d="M2 143.978h16.09v4.35H6.616v5.9H18.09v4.316H6.616v9.49H2zm21.563-1.68a2.7 2.7 0 0 1-.033 5.4 2.554 2.554 0 0 1-2.671-2.636 2.669 2.669 0 0 1 2.704-2.762zm-2.275 7.941h4.55v17.792h-4.55zm17.738 4.942a3.682 3.682 0 0 0-2.209-.791c-1.847 0-2.9 1.186-2.9 3.789v9.852H29.4v-17.792h4.319v2.57a4.244 4.244 0 0 1 4.254-2.735A5.4 5.4 0 0 1 41 151zm1.879 4.052a9.1 9.1 0 0 1 9.166-9.357 8.759 8.759 0 0 1 9.133 9.061v1.878H45.356a4.661 4.661 0 0 0 4.913 3.723 4.772 4.772 0 0 0 4.418-2.636l3.791 2.274a9.354 9.354 0 0 1-8.341 4.217c-5.77 0-9.232-3.855-9.232-9.16zm4.517-2.009h9.364a4.486 4.486 0 0 0-4.748-3.526 4.573 4.573 0 0 0-4.616 3.526zm14.9-6.985h3.2v-.89c0-4.843 2.044-6.853 6.528-6.853h1.582v3.921h-1.284c-2.111 0-2.572.724-2.572 2.932v.89h3.857v4.085h-3.758v13.707h-4.352v-13.707h-3.2zm12.166 8.9a9.113 9.113 0 0 1 9.3-9.259 9.259 9.259 0 1 1 0 18.517 8.977 8.977 0 0 1-9.297-9.262zm14.177 0a4.882 4.882 0 1 0-4.88 5.041 4.885 4.885 0 0 0 4.883-5.045zm10.55-.2l-6.429-8.7h5.344l3.792 5.469 3.89-5.469h5.243l-6.528 8.665 6.857 9.127h-5.308l-4.253-5.8-4.121 5.8h-5.308zM16.754 191.556A5.555 5.555 0 0 0 20 186.342c0-3.893-3.011-6.4-7.561-6.4H2v24.09h10.772c4.617 0 7.728-2.573 7.728-6.8a5.785 5.785 0 0 0-3.746-5.676zm-11.977-9.107h7.628c2.976 0 4.817 1.583 4.817 3.893s-1.606 4.026-4.583 4.026H4.777zm7.962 19.041H4.777v-8.581h7.828c3.345 0 5.085 1.749 5.085 4.291 0 2.507-1.94 4.29-4.951 4.29zm13.718-11.914v-3.366h-2.644v17.82h2.71v-9.768c0-3.927 1.74-5.643 4.75-5.643a4 4 0 0 1 2.208.561l1.138-2.573a5.957 5.957 0 0 0-3.01-.661 5 5 0 0 0-5.152 3.63zm17.663-3.729a9.274 9.274 0 1 0 9.4 9.274 9.213 9.213 0 0 0-9.4-9.274zm0 15.972a6.717 6.717 0 0 1 0-13.431 6.716 6.716 0 0 1 0 13.431zm31.416-1.584l-5.387-14.025h-2.542l-5.52 14.124-4.549-14.124h-2.877l5.921 17.82h2.676l5.553-14.123 5.553 14.123h2.476l6.26-17.82h-2.847zm17.23-6.5c-2.81-.561-4.985-.924-4.985-2.771 0-1.651 1.138-2.839 3.914-2.839a5.858 5.858 0 0 1 4.952 2.376l2.275-1.518a8.785 8.785 0 0 0-7.227-3.168c-4.282-.033-6.724 2.409-6.724 5.182 0 3.563 3.312 4.388 6.424 4.982 2.642.528 5.117.924 5.117 2.9 0 1.782-1.471 3.1-4.282 3.1a6.7 6.7 0 0 1-5.82-2.9l-2.375 1.584c1.605 2.277 4.181 3.729 8.128 3.729 4.718.033 7.126-2.739 7.126-5.544 0-3.661-3.412-4.52-6.523-5.114zm18.2-7.887a9.2 9.2 0 0 0-9.433 9.34c0 5.214 3.746 9.206 9.533 9.206a9.309 9.309 0 0 0 8.4-4.521l-2.341-1.353a6.995 6.995 0 0 1-12.913-2.375h15.957v-1.222a8.852 8.852 0 0 0-9.203-9.076zm-6.69 7.92a6.685 6.685 0 0 1 6.69-5.511 6.06 6.06 0 0 1 6.39 5.511zm26.965-7.821a5 5 0 0 0-5.152 3.63v-3.367h-2.643v17.82h2.71v-9.768c0-3.927 1.739-5.643 4.75-5.643a4.007 4.007 0 0 1 2.208.561l1.138-2.573a5.962 5.962 0 0 0-3.011-.661z" fill="#fff"/><path d="M9.756 220.112l-5.27-7.952H2v11.68h2.256v-8.208l5.434 8.208H12v-11.68H9.756zm4.888 3.728H17v-11.68h-2.356zm10.506-4.54h3.82a3.282 3.282 0 0 1-3.425 2.528 3.759 3.759 0 0 1-3.92-3.828 3.815 3.815 0 0 1 3.887-3.856 3.662 3.662 0 0 1 3.178 1.616l1.959-1.328A6.21 6.21 0 0 0 25.512 212a6 6 0 1 0 .066 12 5.715 5.715 0 0 0 5.9-5.84v-.976H25.15zm15.723-2.432h-4.858v-4.7h-2.338v11.68h2.338v-4.768h4.858v4.768H43.2V212.16h-2.327zm4.527-2.628h3.343v9.6h2.289v-9.6h3.309v-2.08H45.4zm13.484-2.08h-2.338v11.68h7.887v-2.192h-5.549zm12.58 0l-2.717 4.64-2.718-4.64h-2.552l4.084 6.752v4.928H69.9v-4.88l4.1-6.8z" fill="url(#o)"/></svg>