<svg xmlns="http://www.w3.org/2000/svg" width="254" height="192" viewBox="0 0 254 192"><defs><linearGradient id="a" x1="179.204" y1="30.815" x2="78.614" y2="94.179" gradientUnits="userSpaceOnUse"><stop offset="0" stop-color="#3fe1b0"/><stop offset=".406" stop-color="#00b3f4"/><stop offset=".421" stop-color="#03b0f4"/><stop offset=".818" stop-color="#5561e9"/><stop offset="1" stop-color="#7542e5"/></linearGradient><radialGradient id="b" cx="-8063.187" cy="-8620.454" r="80.797" gradientTransform="matrix(1.5 0 0 1.5 12263.454 12944)" gradientUnits="userSpaceOnUse"><stop offset=".108" stop-color="#3fe1b0"/><stop offset=".122" stop-color="#3bdcb3"/><stop offset=".254" stop-color="#1bb3d3"/><stop offset=".358" stop-color="#0799e6"/><stop offset=".42" stop-color="#0090ed"/><stop offset=".487" stop-color="#2482f1"/><stop offset=".64" stop-color="#7165fb"/><stop offset=".71" stop-color="#9059ff"/><stop offset=".795" stop-color="#7d49ed"/><stop offset=".86" stop-color="#7542e5"/></radialGradient><radialGradient id="c" cx="-8092.711" cy="-8587.422" r="80.797" gradientTransform="matrix(1.5 0 0 1.5 12263.454 12944)" gradientUnits="userSpaceOnUse"><stop offset=".3" stop-color="#45278d"/><stop offset=".341" stop-color="#562896" stop-opacity=".787"/><stop offset=".43" stop-color="#782aa9" stop-opacity=".364"/><stop offset=".495" stop-color="#8d2bb5" stop-opacity=".1"/><stop offset=".53" stop-color="#952bb9" stop-opacity="0"/></radialGradient><radialGradient id="d" cx="-8082.97" cy="-8638.79" r="58.534" gradientTransform="matrix(1.5 0 0 1.5 12263.454 12944)" gradientUnits="userSpaceOnUse"><stop offset=".132" stop-color="#3fe1b0"/><stop offset=".289" stop-color="#28d0c8"/><stop offset=".526" stop-color="#00b3f4"/></radialGradient><radialGradient id="e" cx="-8101.648" cy="-8566.318" r="38.471" gradientTransform="matrix(1.5 0 0 1.5 12263.454 12944)" gradientUnits="userSpaceOnUse"><stop offset=".287" stop-color="#0060df"/><stop offset=".417" stop-color="#2357e1"/><stop offset=".604" stop-color="#4f4ce3"/><stop offset=".748" stop-color="#6b45e4"/><stop offset=".833" stop-color="#7542e5"/></radialGradient><radialGradient id="f" cx="-8091.62" cy="-8596.879" r="20.397" gradientTransform="matrix(1.458 -.353 .413 1.708 15474.852 11875.551)" gradientUnits="userSpaceOnUse"><stop offset=".206" stop-color="#45278d" stop-opacity="0"/><stop offset=".251" stop-color="#44268a" stop-opacity=".055"/><stop offset=".725" stop-color="#371f6f" stop-opacity=".591"/><stop offset=".956" stop-color="#321c64" stop-opacity=".8"/></radialGradient><radialGradient id="g" cx="-8099.645" cy="-8571.855" r=".626" gradientTransform="matrix(1.5 0 0 1.5 12263.454 12944)" gradientUnits="userSpaceOnUse"><stop offset=".353" stop-color="#3a8ee6"/><stop offset=".472" stop-color="#5c79f0"/><stop offset=".669" stop-color="#9059ff"/><stop offset="1" stop-color="#c139e6"/></radialGradient><radialGradient id="h" cx="-8099.48" cy="-8572.083" r=".224" gradientTransform="matrix(1.458 -.353 .413 1.708 15464.277 11867.628)" gradientUnits="userSpaceOnUse"><stop offset=".206" stop-color="#9059ff" stop-opacity="0"/><stop offset=".278" stop-color="#8c4ff3" stop-opacity=".064"/><stop offset=".747" stop-color="#7716a8" stop-opacity=".45"/><stop offset=".975" stop-color="#6e008b" stop-opacity=".6"/></radialGradient><radialGradient id="i" cx="-8093.731" cy="-8623.76" r="27.676" gradientTransform="matrix(1.5 0 0 1.5 12263.454 12944)" gradientUnits="userSpaceOnUse"><stop offset="0" stop-color="#0df"/><stop offset=".235" stop-color="#00d6fd"/><stop offset=".572" stop-color="#00c3f8"/><stop offset=".792" stop-color="#00b3f4"/></radialGradient><radialGradient id="j" cx="-8071.977" cy="-8641.314" r="118.081" gradientTransform="matrix(1.5 0 0 1.5 12263.454 12944)" gradientUnits="userSpaceOnUse"><stop offset=".126" stop-color="#3fe1b0"/><stop offset=".429" stop-color="#0df"/><stop offset=".479" stop-color="#1ec1ff"/><stop offset=".624" stop-color="#7077ff"/><stop offset=".69" stop-color="#9059ff"/><stop offset=".904" stop-color="#b833e1"/></radialGradient><radialGradient id="k" cx="-8083.165" cy="-8628.193" r="86.499" gradientTransform="matrix(.157 1.492 -.979 .103 -7037.588 12948.853)" gradientUnits="userSpaceOnUse"><stop offset="0" stop-color="#54ffbd"/><stop offset=".095" stop-color="#4cf3b8"/><stop offset=".197" stop-color="#3fe1b0"/><stop offset=".257" stop-color="#33d8bd"/><stop offset=".369" stop-color="#12c0e1"/><stop offset=".423" stop-color="#00b3f4"/><stop offset=".737" stop-color="#0060df"/></radialGradient><radialGradient id="l" cx="-8094.383" cy="-8613.51" r="73.72" gradientTransform="matrix(1.5 0 0 1.5 12263.454 12944)" gradientUnits="userSpaceOnUse"><stop offset=".137" stop-color="#3fe1b0"/><stop offset=".435" stop-color="#0df"/><stop offset=".484" stop-color="#1ec1ff"/><stop offset=".622" stop-color="#7077ff"/><stop offset=".685" stop-color="#9059ff"/></radialGradient><radialGradient id="m" cx="-8074.923" cy="-8609.195" r="80.686" gradientTransform="matrix(1.5 0 0 1.5 12263.454 12944)" gradientUnits="userSpaceOnUse"><stop offset=".094" stop-color="#54ffbd"/><stop offset=".242" stop-color="#41f7cc"/><stop offset=".543" stop-color="#0fe3f3"/><stop offset=".626" stop-color="#0df"/></radialGradient><linearGradient id="n" x1="172.019" y1="18.091" x2="89.901" y2="100.209" gradientUnits="userSpaceOnUse"><stop offset=".167" stop-color="#54ffbd" stop-opacity=".8"/><stop offset=".236" stop-color="#43f8ca" stop-opacity=".639"/><stop offset=".361" stop-color="#27ede1" stop-opacity=".368"/><stop offset=".466" stop-color="#12e4f1" stop-opacity=".169"/><stop offset=".545" stop-color="#05dffb" stop-opacity=".046"/><stop offset=".589" stop-color="#0df" stop-opacity="0"/></linearGradient><linearGradient id="o" x1="-14.262" y1="182" x2="81.41" y2="182" gradientUnits="userSpaceOnUse"><stop offset=".002" stop-color="#005e5e"/><stop offset=".478" stop-color="#0250bb"/><stop offset=".735" stop-color="#253ba3"/><stop offset="1" stop-color="#45278d"/></linearGradient></defs><path d="M180.874 40.247c-2.527-6.079-7.644-12.641-11.663-14.715a60.307 60.307 0 0 1 5.889 17.646c0 .009 0 .033.012.1-6.574-16.386-17.721-22.994-26.824-37.382a71.37 71.37 0 0 1-1.369-2.226 18.564 18.564 0 0 1-.64-1.2 10.582 10.582 0 0 1-.867-2.3.152.152 0 0 0-.132-.156.2.2 0 0 0-.11 0c-.008 0-.02.012-.029.016l-.042.023.024-.033c-14.6 8.554-19.558 24.378-20.013 32.295a29.084 29.084 0 0 0-16 6.166 17.51 17.51 0 0 0-1.506-1.137 26.939 26.939 0 0 1-.163-14.209 43.074 43.074 0 0 0-13.996 10.809h-.027c-2.305-2.919-2.142-12.55-2.01-14.56a10.4 10.4 0 0 0-1.941 1.029 42.342 42.342 0 0 0-5.682 4.868 50.907 50.907 0 0 0-5.429 6.511v.009-.009a49.067 49.067 0 0 0-7.8 17.614c-.028.126-.052.257-.079.384-.109.512-.5 3.073-.572 3.63 0 .043-.008.084-.013.127a55.33 55.33 0 0 0-.942 8.021c0 .1-.006.2-.006.3A58.137 58.137 0 0 0 184.38 71.7c.1-.744.178-1.492.265-2.242a59.784 59.784 0 0 0-3.771-29.211zm-67 45.506c.272.13.527.272.806.4l.04.025a29.325 29.325 0 0 1-.851-.425zm13.312-35.063zm47.928-7.4l-.007-.057.01.063z" fill="url(#a)"/><path d="M175.117 43.3l-.01-.063.007.057z" fill="none"/><path d="M180.874 40.247c-2.527-6.079-7.644-12.641-11.663-14.715a60.307 60.307 0 0 1 5.889 17.646c0-.014 0 .011.009.054l.01.063c5.485 14.872 2.5 30-1.81 39.236-6.661 14.3-22.79 28.952-48.035 28.238C98 110 73.967 89.755 69.481 63.244c-.817-4.18 0-6.3.411-9.7a43.268 43.268 0 0 0-.942 8.021c0 .1-.006.2-.006.3A58.137 58.137 0 0 0 184.38 71.7c.1-.744.178-1.492.265-2.242a59.784 59.784 0 0 0-3.771-29.211z" fill="url(#b)"/><path d="M180.874 40.247c-2.527-6.079-7.644-12.641-11.663-14.715a60.307 60.307 0 0 1 5.889 17.646c0-.014 0 .011.009.054l.01.063c5.485 14.872 2.5 30-1.81 39.236-6.661 14.3-22.79 28.952-48.035 28.238C98 110 73.967 89.755 69.481 63.244c-.817-4.18 0-6.3.411-9.7a43.268 43.268 0 0 0-.942 8.021c0 .1-.006.2-.006.3A58.137 58.137 0 0 0 184.38 71.7c.1-.744.178-1.492.265-2.242a59.784 59.784 0 0 0-3.771-29.211z" fill="url(#c)"/><path d="M152.623 47.08c.126.089.242.178.361.267a31.612 31.612 0 0 0-5.4-7.044C129.516 22.232 142.848 1.119 145.1.047l.024-.033c-14.6 8.554-19.558 24.378-20.013 32.295.677-.047 1.352-.1 2.042-.1a29.34 29.34 0 0 1 25.47 14.871z" fill="url(#d)"/><path d="M127.187 50.689c-.095 1.446-5.2 6.434-6.991 6.434-16.532 0-19.215 10-19.215 10 .732 8.422 6.594 15.357 13.694 19.027.324.167.652.318.98.468a33.52 33.52 0 0 0 1.707.7 25.793 25.793 0 0 0 7.565 1.459c28.975 1.36 34.588-34.643 13.678-45.1 5.355-.932 10.914 1.222 14.018 3.4a29.34 29.34 0 0 0-25.473-14.872c-.69 0-1.365.057-2.042.1a29.084 29.084 0 0 0-16 6.166c.886.751 1.887 1.753 3.995 3.829 3.944 3.891 14.062 7.917 14.084 8.389z" fill="url(#e)"/><path d="M127.187 50.689c-.095 1.446-5.2 6.434-6.991 6.434-16.532 0-19.215 10-19.215 10 .732 8.422 6.594 15.357 13.694 19.027.324.167.652.318.98.468a33.52 33.52 0 0 0 1.707.7 25.793 25.793 0 0 0 7.565 1.459c28.975 1.36 34.588-34.643 13.678-45.1 5.355-.932 10.914 1.222 14.018 3.4a29.34 29.34 0 0 0-25.473-14.872c-.69 0-1.365.057-2.042.1a29.084 29.084 0 0 0-16 6.166c.886.751 1.887 1.753 3.995 3.829 3.944 3.891 14.062 7.917 14.084 8.389z" fill="url(#f)"/><path d="M113.869 85.753c.282.145.564.287.846.422l-.04-.025c-.275-.125-.534-.267-.806-.397z" fill="url(#g)"/><path d="M113.869 85.753c.282.145.564.287.846.422l-.04-.025c-.275-.125-.534-.267-.806-.397z" fill="url(#h)"/><path d="M97.121 29.438c.038.002.019.001 0 0z" fill="#296ff6"/><path d="M106.4 36.541c.471.306.86.562 1.2.8a26.939 26.939 0 0 1-.163-14.209 43.074 43.074 0 0 0-13.992 10.812c.279-.007 8.712-.159 12.955 2.597z" fill="url(#i)"/><path d="M69.481 63.244C73.967 89.755 98 110 125.272 110.769c25.245.714 41.374-13.941 48.035-28.238 4.306-9.241 7.3-24.364 1.81-39.236v-.006l-.007-.057c-.006-.043-.01-.068-.009-.054s0 .033.012.1c2.061 13.467-4.788 26.513-15.5 35.333l-.032.076c-20.862 16.99-40.826 10.251-44.868 7.492a33.295 33.295 0 0 1-.846-.422c-12.164-5.813-17.188-16.9-16.111-26.4a14.933 14.933 0 0 1-13.773-8.663s9.222-6.576 21.374-.857a28.947 28.947 0 0 0 21.828.857c-.022-.472-10.14-4.5-14.084-8.385-2.108-2.076-3.109-3.078-3.995-3.829a17.51 17.51 0 0 0-1.506-1.137c-.345-.235-.734-.491-1.2-.8-4.24-2.756-12.673-2.6-12.952-2.6h-.027c-2.305-2.919-2.142-12.55-2.01-14.56a10.4 10.4 0 0 0-1.941 1.029 42.342 42.342 0 0 0-5.682 4.868 50.907 50.907 0 0 0-5.429 6.511v.009-.009a49.067 49.067 0 0 0-7.8 17.614c-.031.127-2.096 9.156-1.078 13.839z" fill="url(#j)"/><path fill="#ff4aa2" d="M127.187 50.689l-.001.001.001-.001z"/><path d="M147.587 40.3a31.612 31.612 0 0 1 5.4 7.044c.32.24.619.48.873.714 13.179 12.145 6.274 29.323 5.758 30.546 10.707-8.82 17.556-21.866 15.5-35.333-6.574-16.386-17.721-22.994-26.824-37.382a71.37 71.37 0 0 1-1.369-2.226 18.564 18.564 0 0 1-.64-1.2 10.582 10.582 0 0 1-.867-2.3.152.152 0 0 0-.132-.156.2.2 0 0 0-.11 0c-.008 0-.02.012-.029.016l-.042.023c-2.257 1.073-15.589 22.186 2.482 40.254z" fill="url(#k)"/><path d="M153.857 48.061a11.407 11.407 0 0 0-.873-.714c-.119-.089-.235-.178-.361-.267-3.1-2.181-8.663-4.335-14.018-3.4 20.91 10.455 15.3 46.458-13.678 45.1a25.793 25.793 0 0 1-7.565-1.459 30.218 30.218 0 0 1-1.707-.7c-.328-.15-.656-.3-.98-.468l.04.025c4.042 2.759 24.006 9.5 44.868-7.492l.032-.076c.516-1.226 7.421-18.404-5.758-30.549z" fill="url(#l)"/><path d="M100.981 67.123s2.683-10 19.215-10c1.787 0 6.9-4.988 6.991-6.434a28.947 28.947 0 0 1-21.828-.857c-12.152-5.719-21.374.857-21.374.857a14.933 14.933 0 0 0 13.773 8.663c-1.077 9.505 3.947 20.588 16.111 26.4.272.13.527.272.806.4-7.1-3.672-12.962-10.607-13.694-19.029z" fill="url(#m)"/><path d="M111.121 36.438c.038.002.019.001 0 0z" fill="#296ff6"/><path fill="#ff4aa2" d="M141.187 57.689h-.001.001z"/><path d="M180.874 40.247c-2.527-6.079-7.644-12.641-11.663-14.715a60.307 60.307 0 0 1 5.889 17.646c0 .009 0 .033.012.1-6.574-16.386-17.721-22.994-26.824-37.382a71.37 71.37 0 0 1-1.369-2.226 18.564 18.564 0 0 1-.64-1.2 10.582 10.582 0 0 1-.867-2.3.152.152 0 0 0-.132-.156.2.2 0 0 0-.11 0c-.008 0-.02.012-.029.016l-.042.023.024-.033c-14.6 8.554-19.558 24.378-20.013 32.295.677-.047 1.352-.1 2.042-.1a29.34 29.34 0 0 1 25.471 14.865c-3.1-2.181-8.663-4.335-14.018-3.4 20.91 10.455 15.3 46.458-13.678 45.1a25.793 25.793 0 0 1-7.565-1.459 30.218 30.218 0 0 1-1.707-.7c-.328-.15-.656-.3-.98-.468l.04.025a33.295 33.295 0 0 1-.846-.422c.272.13.527.272.806.4-7.1-3.67-12.962-10.605-13.694-19.027 0 0 2.683-10 19.215-10 1.787 0 6.9-4.988 6.991-6.434-.022-.472-10.14-4.5-14.084-8.385-2.108-2.076-3.109-3.078-3.995-3.829a17.51 17.51 0 0 0-1.506-1.137 26.939 26.939 0 0 1-.163-14.209 43.074 43.074 0 0 0-13.994 10.809h-.027c-2.305-2.919-2.142-12.55-2.01-14.56a10.4 10.4 0 0 0-1.941 1.029 42.342 42.342 0 0 0-5.682 4.868 50.907 50.907 0 0 0-5.429 6.511v.009-.009a49.067 49.067 0 0 0-7.8 17.614c-.028.126-.052.257-.079.384-.109.512-.6 3.109-.67 3.666a67.673 67.673 0 0 0-.857 8.112c0 .1-.006.2-.006.3A58.137 58.137 0 0 0 184.38 71.7c.1-.744.178-1.492.265-2.242a59.784 59.784 0 0 0-3.771-29.211zm-5.767 2.985l.01.063v-.006z" fill="url(#n)"/><path d="M1.206 144.581H17.3v4.352H5.822v5.9H17.3v4.319H5.822v9.5H1.206zm21.566-1.681a2.7 2.7 0 0 1-.033 5.407 2.554 2.554 0 0 1-2.671-2.637 2.67 2.67 0 0 1 2.704-2.77zm-2.272 7.945h4.551v17.8H20.5zm17.741 4.945a3.68 3.68 0 0 0-2.212-.79c-1.847 0-2.9 1.187-2.9 3.792v9.858h-4.52v-17.8h4.32v2.572a4.242 4.242 0 0 1 4.254-2.737 5.4 5.4 0 0 1 3.034.923zm1.88 4.056a9.108 9.108 0 0 1 9.167-9.364 8.763 8.763 0 0 1 9.135 9.067v1.879H44.57a4.661 4.661 0 0 0 4.913 3.726 4.772 4.772 0 0 0 4.419-2.638l3.792 2.275a9.35 9.35 0 0 1-8.343 4.22c-5.771 0-9.233-3.857-9.233-9.165zm4.518-2.012H54a4.487 4.487 0 0 0-4.749-3.527 4.574 4.574 0 0 0-4.615 3.527zm14.9-6.989h3.2v-.89c0-4.847 2.044-6.858 6.529-6.858h1.583v3.923h-1.285c-2.111 0-2.572.726-2.572 2.935v.89h3.858v4.088h-3.759v13.716H62.74v-13.716h-3.2zm12.168 8.9a9.116 9.116 0 0 1 9.3-9.265 9.265 9.265 0 1 1 0 18.529 8.981 8.981 0 0 1-9.298-9.262zm14.18 0a4.883 4.883 0 1 0-4.88 5.044 4.887 4.887 0 0 0 4.882-5.042zm10.553-.2l-6.431-8.7h5.342l3.793 5.473 3.891-5.473h5.243l-6.529 8.671 6.859 9.133H103.3l-4.254-5.8-4.122 5.8h-5.31zM134.921 156.218a5.566 5.566 0 0 0 3.2-5.218c0-3.9-2.973-6.406-7.464-6.406h-10.301V168.7h10.635c4.557 0 7.629-2.576 7.629-6.8a5.79 5.79 0 0 0-3.699-5.682zM123.1 147.1h7.531c2.939 0 4.755 1.584 4.755 3.9s-1.585 4.029-4.524 4.029H123.1zm7.861 19.052H123.1v-8.586h7.729c3.3 0 5.02 1.751 5.02 4.294-.003 2.514-1.919 4.297-4.891 4.297zm13.539-11.916v-3.368h-2.61V168.7h2.676v-9.774c0-3.93 1.716-5.647 4.689-5.647a3.909 3.909 0 0 1 2.18.561l1.123-2.575a5.82 5.82 0 0 0-2.972-.661 4.938 4.938 0 0 0-5.086 3.632zm17.438-3.731a9.279 9.279 0 1 0 9.281 9.279 9.156 9.156 0 0 0-9.28-9.279zm0 15.982a6.723 6.723 0 0 1 0-13.439 6.722 6.722 0 0 1 0 13.439zm31.015-1.585l-5.318-14.034h-2.51L179.677 165l-4.491-14.133h-2.841l5.846 17.832h2.642l5.482-14.133L191.8 168.7h2.444l6.176-17.832h-2.807zm17.011-6.5c-2.775-.561-4.922-.925-4.922-2.773 0-1.652 1.123-2.84 3.865-2.84a5.755 5.755 0 0 1 4.888 2.377l2.246-1.519a8.625 8.625 0 0 0-7.134-3.17c-4.228-.033-6.638 2.411-6.638 5.185 0 3.566 3.269 4.391 6.341 4.985 2.609.529 5.052.925 5.052 2.906 0 1.784-1.453 3.1-4.227 3.1a6.588 6.588 0 0 1-5.747-2.906l-2.344 1.586c1.585 2.278 4.128 3.731 8.025 3.731 4.657.033 7.035-2.741 7.035-5.548.001-3.666-3.368-4.524-6.439-5.116zm17.968-7.892a9.146 9.146 0 0 0-9.313 9.345c0 5.218 3.7 9.213 9.412 9.213a9.163 9.163 0 0 0 8.29-4.524l-2.312-1.354a6.376 6.376 0 0 1-5.978 3.434 6.449 6.449 0 0 1-6.77-5.811h15.754v-1.222a8.8 8.8 0 0 0-9.082-9.086zm-6.6 7.925a6.623 6.623 0 0 1 6.6-5.514 6.009 6.009 0 0 1 6.308 5.514zm26.618-7.835a4.939 4.939 0 0 0-5.087 3.632v-3.368h-2.609V168.7h2.675v-9.774c0-3.93 1.717-5.647 4.69-5.647a3.912 3.912 0 0 1 2.18.561l1.122-2.575a5.818 5.818 0 0 0-2.971-.665z" fill="#20123a"/><path d="M9.48 184.112l-5.27-7.952H1.724v11.68H3.98v-8.208l5.434 8.208h2.3v-11.68H9.48zm4.888 3.728h2.355v-11.68h-2.355zm10.506-4.54h3.82a3.282 3.282 0 0 1-3.425 2.528 3.759 3.759 0 0 1-3.92-3.828 3.815 3.815 0 0 1 3.887-3.856 3.662 3.662 0 0 1 3.178 1.616l1.959-1.328A6.21 6.21 0 0 0 25.236 176a6 6 0 1 0 .066 12 5.715 5.715 0 0 0 5.9-5.84v-.976h-6.328zm15.726-2.436h-4.861v-4.7H33.4v11.68h2.338v-4.768H40.6v4.768h2.322V176.16H40.6zm4.527-2.624h3.343v9.6h2.289v-9.6h3.309v-2.08h-8.944zm13.484-2.08H56.27v11.68h7.887v-2.192h-5.549zm12.58 0l-2.717 4.64-2.718-4.64H63.2l4.084 6.752v4.928h2.338v-4.88l4.1-6.8z" fill="url(#o)"/></svg>