<svg xmlns="http://www.w3.org/2000/svg" width="230" height="96" viewBox="0 0 230 96"><defs><linearGradient id="a" x1="74.803" y1="20.543" x2="7.742" y2="62.786" gradientUnits="userSpaceOnUse"><stop offset="0" stop-color="#3fe1b0"/><stop offset=".406" stop-color="#00b3f4"/><stop offset=".421" stop-color="#03b0f4"/><stop offset=".818" stop-color="#5561e9"/><stop offset="1" stop-color="#7542e5"/></linearGradient><radialGradient id="b" cx="-9237.187" cy="-8515.121" r="80.797" gradientTransform="translate(9305 8524)" gradientUnits="userSpaceOnUse"><stop offset=".108" stop-color="#3fe1b0"/><stop offset=".122" stop-color="#3bdcb3"/><stop offset=".254" stop-color="#1bb3d3"/><stop offset=".358" stop-color="#0799e6"/><stop offset=".42" stop-color="#0090ed"/><stop offset=".487" stop-color="#2482f1"/><stop offset=".64" stop-color="#7165fb"/><stop offset=".71" stop-color="#9059ff"/><stop offset=".795" stop-color="#7d49ed"/><stop offset=".86" stop-color="#7542e5"/></radialGradient><radialGradient id="c" cx="-9266.711" cy="-8482.089" r="80.797" gradientTransform="translate(9305 8524)" gradientUnits="userSpaceOnUse"><stop offset=".3" stop-color="#45278d"/><stop offset=".341" stop-color="#562896" stop-opacity=".787"/><stop offset=".43" stop-color="#782aa9" stop-opacity=".364"/><stop offset=".495" stop-color="#8d2bb5" stop-opacity=".1"/><stop offset=".53" stop-color="#952bb9" stop-opacity="0"/></radialGradient><radialGradient id="d" cx="-9256.97" cy="-8533.457" r="58.534" gradientTransform="translate(9305 8524)" gradientUnits="userSpaceOnUse"><stop offset=".132" stop-color="#3fe1b0"/><stop offset=".289" stop-color="#28d0c8"/><stop offset=".526" stop-color="#00b3f4"/></radialGradient><radialGradient id="e" cx="-9275.648" cy="-8460.984" r="38.471" gradientTransform="translate(9305 8524)" gradientUnits="userSpaceOnUse"><stop offset=".287" stop-color="#0060df"/><stop offset=".417" stop-color="#2357e1"/><stop offset=".604" stop-color="#4f4ce3"/><stop offset=".748" stop-color="#6b45e4"/><stop offset=".833" stop-color="#7542e5"/></radialGradient><radialGradient id="f" cx="-9265.62" cy="-8491.546" r="20.397" gradientTransform="matrix(.972 -.235 .275 1.138 11384.01 7521.054)" gradientUnits="userSpaceOnUse"><stop offset=".206" stop-color="#45278d" stop-opacity="0"/><stop offset=".251" stop-color="#44268a" stop-opacity=".055"/><stop offset=".725" stop-color="#371f6f" stop-opacity=".591"/><stop offset=".956" stop-color="#321c64" stop-opacity=".8"/></radialGradient><radialGradient id="g" cx="-9273.645" cy="-8466.522" r=".626" gradientTransform="translate(9305 8524)" gradientUnits="userSpaceOnUse"><stop offset=".353" stop-color="#3a8ee6"/><stop offset=".472" stop-color="#5c79f0"/><stop offset=".669" stop-color="#9059ff"/><stop offset="1" stop-color="#c139e6"/></radialGradient><radialGradient id="h" cx="-9273.48" cy="-8466.749" r=".224" gradientTransform="matrix(.972 -.235 .275 1.138 11376.96 7515.772)" gradientUnits="userSpaceOnUse"><stop offset=".206" stop-color="#9059ff" stop-opacity="0"/><stop offset=".278" stop-color="#8c4ff3" stop-opacity=".064"/><stop offset=".747" stop-color="#7716a8" stop-opacity=".45"/><stop offset=".975" stop-color="#6e008b" stop-opacity=".6"/></radialGradient><radialGradient id="i" cx="-9267.731" cy="-8518.427" r="27.676" gradientTransform="translate(9305 8524)" gradientUnits="userSpaceOnUse"><stop offset="0" stop-color="#0df"/><stop offset=".235" stop-color="#00d6fd"/><stop offset=".572" stop-color="#00c3f8"/><stop offset=".792" stop-color="#00b3f4"/></radialGradient><radialGradient id="j" cx="-9245.977" cy="-8535.981" r="118.081" gradientTransform="translate(9305 8524)" gradientUnits="userSpaceOnUse"><stop offset=".126" stop-color="#3fe1b0"/><stop offset=".429" stop-color="#0df"/><stop offset=".479" stop-color="#1ec1ff"/><stop offset=".624" stop-color="#7077ff"/><stop offset=".69" stop-color="#9059ff"/><stop offset=".904" stop-color="#b833e1"/></radialGradient><radialGradient id="k" cx="-9257.165" cy="-8522.859" r="86.499" gradientTransform="matrix(.105 .995 -.653 .069 -4544.773 9792.883)" gradientUnits="userSpaceOnUse"><stop offset="0" stop-color="#54ffbd"/><stop offset=".095" stop-color="#4cf3b8"/><stop offset=".197" stop-color="#3fe1b0"/><stop offset=".257" stop-color="#33d8bd"/><stop offset=".369" stop-color="#12c0e1"/><stop offset=".423" stop-color="#00b3f4"/><stop offset=".737" stop-color="#0060df"/></radialGradient><radialGradient id="l" cx="-9268.383" cy="-8508.176" r="73.72" gradientTransform="translate(9305 8524)" gradientUnits="userSpaceOnUse"><stop offset=".137" stop-color="#3fe1b0"/><stop offset=".435" stop-color="#0df"/><stop offset=".484" stop-color="#1ec1ff"/><stop offset=".622" stop-color="#7077ff"/><stop offset=".685" stop-color="#9059ff"/></radialGradient><radialGradient id="m" cx="-9248.923" cy="-8503.861" r="80.686" gradientTransform="translate(9305 8524)" gradientUnits="userSpaceOnUse"><stop offset=".094" stop-color="#54ffbd"/><stop offset=".242" stop-color="#41f7cc"/><stop offset=".543" stop-color="#0fe3f3"/><stop offset=".626" stop-color="#0df"/></radialGradient><linearGradient id="n" x1="70.013" y1="12.061" x2="15.267" y2="66.806" gradientUnits="userSpaceOnUse"><stop offset=".167" stop-color="#54ffbd" stop-opacity=".8"/><stop offset=".236" stop-color="#43f8ca" stop-opacity=".639"/><stop offset=".361" stop-color="#27ede1" stop-opacity=".368"/><stop offset=".466" stop-color="#12e4f1" stop-opacity=".169"/><stop offset=".545" stop-color="#05dffb" stop-opacity=".046"/><stop offset=".589" stop-color="#0df" stop-opacity="0"/></linearGradient><linearGradient id="o" x1="90.882" y1="82" x2="192.25" y2="82" gradientUnits="userSpaceOnUse"><stop offset="0" stop-color="#54ffbd"/><stop offset=".389" stop-color="#0df"/><stop offset=".638" stop-color="#58c2ff"/><stop offset=".887" stop-color="#aba8ff"/><stop offset="1" stop-color="#cb9eff"/></linearGradient></defs><path d="M75.916 26.831c-1.684-4.052-5.1-8.427-7.775-9.81a40.266 40.266 0 0 1 3.925 11.764l.007.065C67.691 17.925 60.26 13.52 54.191 3.928a47.099 47.099 0 0 1-.913-1.484 12.24 12.24 0 0 1-.427-.8 7.053 7.053 0 0 1-.578-1.535.1.1 0 0 0-.088-.1.138.138 0 0 0-.073 0c-.005 0-.013.009-.019.011s-.019.011-.028.015l.015-.026c-9.735 5.7-13.038 16.252-13.342 21.53a19.387 19.387 0 0 0-10.666 4.111 11.587 11.587 0 0 0-1-.758 17.968 17.968 0 0 1-.109-9.473 28.705 28.705 0 0 0-9.329 7.21h-.018c-1.536-1.947-1.428-8.367-1.34-9.708a6.928 6.928 0 0 0-1.294.687 28.225 28.225 0 0 0-3.788 3.245A33.845 33.845 0 0 0 7.571 21.2v.006-.007a32.733 32.733 0 0 0-5.2 11.743l-.052.256a61.89 61.89 0 0 0-.381 2.42c0 .029-.006.056-.009.085a36.937 36.937 0 0 0-.629 5.343v.2A38.759 38.759 0 0 0 78.254 47.8c.065-.5.118-.995.176-1.5a39.857 39.857 0 0 0-2.514-19.469zm-44.67 30.338c.181.087.351.181.537.264l.027.017q-.282-.135-.564-.281zm8.878-23.376zm31.952-4.934v-.037l.007.041z" fill="url(#a)"/><path d="M72.078 28.863l-.007-.041v.037z" fill="none"/><path d="M75.916 26.831c-1.684-4.052-5.1-8.427-7.775-9.81a40.266 40.266 0 0 1 3.925 11.764v.037l.007.041a35.1 35.1 0 0 1-1.206 26.158c-4.442 9.531-15.194 19.3-32.024 18.825-18.185-.515-34.2-14.009-37.194-31.683-.545-2.787 0-4.2.274-6.465a28.876 28.876 0 0 0-.623 5.348v.2A38.759 38.759 0 0 0 78.254 47.8c.065-.5.118-.995.176-1.5a39.857 39.857 0 0 0-2.514-19.469z" fill="url(#b)"/><path d="M75.916 26.831c-1.684-4.052-5.1-8.427-7.775-9.81a40.266 40.266 0 0 1 3.925 11.764v.037l.007.041a35.1 35.1 0 0 1-1.206 26.158c-4.442 9.531-15.194 19.3-32.024 18.825-18.185-.515-34.2-14.009-37.194-31.683-.545-2.787 0-4.2.274-6.465a28.876 28.876 0 0 0-.623 5.348v.2A38.759 38.759 0 0 0 78.254 47.8c.065-.5.118-.995.176-1.5a39.857 39.857 0 0 0-2.514-19.469z" fill="url(#c)"/><path d="M57.082 31.387c.084.059.162.118.241.177a21.1 21.1 0 0 0-3.6-4.695C41.677 14.821 50.566.746 52.065.031l.015-.022c-9.735 5.7-13.038 16.252-13.342 21.53.452-.031.9-.069 1.362-.069a19.56 19.56 0 0 1 16.982 9.917z" fill="url(#d)"/><path d="M40.125 33.793c-.064.964-3.47 4.289-4.661 4.289-11.021 0-12.81 6.667-12.81 6.667.488 5.614 4.4 10.238 9.129 12.684.216.112.435.213.654.312q.569.252 1.138.466a17.235 17.235 0 0 0 5.043.973c19.317.906 23.059-23.1 9.119-30.066a13.38 13.38 0 0 1 9.345 2.269A19.56 19.56 0 0 0 40.1 21.47c-.46 0-.91.038-1.362.069a19.387 19.387 0 0 0-10.666 4.111c.591.5 1.258 1.168 2.663 2.553 2.63 2.591 9.375 5.275 9.39 5.59z" fill="url(#e)"/><path d="M40.125 33.793c-.064.964-3.47 4.289-4.661 4.289-11.021 0-12.81 6.667-12.81 6.667.488 5.614 4.4 10.238 9.129 12.684.216.112.435.213.654.312q.569.252 1.138.466a17.235 17.235 0 0 0 5.043.973c19.317.906 23.059-23.1 9.119-30.066a13.38 13.38 0 0 1 9.345 2.269A19.56 19.56 0 0 0 40.1 21.47c-.46 0-.91.038-1.362.069a19.387 19.387 0 0 0-10.666 4.111c.591.5 1.258 1.168 2.663 2.553 2.63 2.591 9.375 5.275 9.39 5.59z" fill="url(#f)"/><path d="M31.246 57.169q.282.145.564.281l-.027-.017c-.183-.083-.356-.177-.537-.264z" fill="url(#g)"/><path d="M31.246 57.169q.282.145.564.281l-.027-.017c-.183-.083-.356-.177-.537-.264z" fill="url(#h)"/><path d="M26.265 24.361c.314.2.573.374.8.531a17.968 17.968 0 0 1-.109-9.473 28.705 28.705 0 0 0-9.329 7.21c.189-.005 5.811-.106 8.638 1.732z" fill="url(#i)"/><path d="M1.654 42.163c2.991 17.674 19.009 31.168 37.194 31.683 16.83.476 27.582-9.294 32.024-18.825a35.1 35.1 0 0 0 1.206-26.158v-.037c0-.029-.006-.046 0-.037l.007.065c1.375 8.977-3.191 17.674-10.329 23.555l-.022.05c-13.908 11.327-27.218 6.834-29.912 5q-.282-.135-.564-.281c-8.109-3.876-11.459-11.264-10.741-17.6a9.953 9.953 0 0 1-9.181-5.775 14.618 14.618 0 0 1 14.249-.572 19.3 19.3 0 0 0 14.552.572c-.015-.315-6.76-3-9.39-5.59-1.405-1.385-2.072-2.052-2.663-2.553a11.587 11.587 0 0 0-1-.758c-.23-.157-.489-.327-.8-.531-2.827-1.838-8.449-1.737-8.635-1.732h-.018c-1.536-1.947-1.428-8.367-1.34-9.708a6.928 6.928 0 0 0-1.294.687 28.225 28.225 0 0 0-3.788 3.245A33.845 33.845 0 0 0 7.571 21.2v.006-.007a32.733 32.733 0 0 0-5.2 11.743c-.019.079-1.396 6.099-.717 9.221z" fill="url(#j)"/><path fill="#ff4aa2" d="M40.125 33.793h-.001.001z"/><path d="M53.725 26.869a21.1 21.1 0 0 1 3.6 4.7c.213.161.412.321.581.476 8.787 8.1 4.183 19.55 3.84 20.365 7.138-5.881 11.7-14.578 10.329-23.555C67.691 17.925 60.26 13.52 54.191 3.928a47.099 47.099 0 0 1-.913-1.484 12.24 12.24 0 0 1-.427-.8 7.053 7.053 0 0 1-.578-1.535.1.1 0 0 0-.088-.1.138.138 0 0 0-.073 0c-.005 0-.013.009-.019.011s-.019.011-.028.015c-1.499.711-10.388 14.786 1.66 26.834z" fill="url(#k)"/><path d="M57.9 32.04a8.083 8.083 0 0 0-.581-.476c-.079-.059-.157-.118-.241-.177a13.38 13.38 0 0 0-9.345-2.269c13.94 6.97 10.2 30.972-9.119 30.066a17.235 17.235 0 0 1-5.043-.973q-.569-.213-1.138-.466c-.219-.1-.438-.2-.654-.312l.027.017c2.694 1.839 16 6.332 29.912-5l.022-.05c.347-.81 4.951-12.263-3.84-20.36z" fill="url(#l)"/><path d="M22.654 44.749s1.789-6.667 12.81-6.667c1.191 0 4.6-3.325 4.661-4.289a19.3 19.3 0 0 1-14.552-.572 14.618 14.618 0 0 0-14.249.572 9.953 9.953 0 0 0 9.181 5.775c-.718 6.337 2.632 13.725 10.741 17.6.181.087.351.181.537.264-4.733-2.445-8.641-7.069-9.129-12.683z" fill="url(#m)"/><path fill="#ff4aa2" d="M49.458 38.459l-.001.001.001-.001z"/><path d="M75.916 26.831c-1.684-4.052-5.1-8.427-7.775-9.81a40.266 40.266 0 0 1 3.925 11.764l.007.065C67.691 17.925 60.26 13.52 54.191 3.928a47.099 47.099 0 0 1-.913-1.484 12.24 12.24 0 0 1-.427-.8 7.053 7.053 0 0 1-.578-1.535.1.1 0 0 0-.088-.1.138.138 0 0 0-.073 0c-.005 0-.013.009-.019.011s-.019.011-.028.015l.015-.026c-9.735 5.7-13.038 16.252-13.342 21.53.452-.031.9-.069 1.362-.069a19.56 19.56 0 0 1 16.982 9.917 13.38 13.38 0 0 0-9.345-2.269c13.94 6.97 10.2 30.972-9.119 30.066a17.235 17.235 0 0 1-5.043-.973q-.569-.213-1.138-.466c-.219-.1-.438-.2-.654-.312l.027.017q-.282-.135-.564-.281c.181.087.351.181.537.264-4.733-2.446-8.641-7.07-9.129-12.684 0 0 1.789-6.667 12.81-6.667 1.191 0 4.6-3.325 4.661-4.289-.015-.315-6.76-3-9.39-5.59-1.405-1.385-2.072-2.052-2.663-2.553a11.587 11.587 0 0 0-1-.758 17.968 17.968 0 0 1-.109-9.473 28.705 28.705 0 0 0-9.329 7.21h-.018c-1.536-1.947-1.428-8.367-1.34-9.708a6.928 6.928 0 0 0-1.294.687 28.225 28.225 0 0 0-3.788 3.245A33.845 33.845 0 0 0 7.571 21.2v.006-.007a32.733 32.733 0 0 0-5.2 11.743l-.052.256c-.073.341-.4 2.073-.447 2.445 0 .028 0-.029 0 0a45.094 45.094 0 0 0-.572 5.403v.2A38.759 38.759 0 0 0 78.254 47.8c.065-.5.118-.995.176-1.5a39.857 39.857 0 0 0-2.514-19.469zm-3.845 1.991l.007.041z" fill="url(#n)"/><path d="M96 11.978h16.09v4.35h-11.474v5.9h11.474v4.316h-11.474v9.49H96zm21.563-1.68a2.588 2.588 0 0 1 2.67 2.7 2.687 2.687 0 0 1-5.374.066 2.669 2.669 0 0 1 2.704-2.764zm-2.275 7.941h4.55v17.792h-4.55zm17.738 4.942a3.682 3.682 0 0 0-2.209-.791c-1.847 0-2.9 1.186-2.9 3.789v9.852H123.4V18.239h4.319v2.57a4.244 4.244 0 0 1 4.254-2.735A5.4 5.4 0 0 1 135 19zm1.879 4.052a9.1 9.1 0 0 1 9.166-9.357 8.759 8.759 0 0 1 9.133 9.061v1.878h-13.848a4.661 4.661 0 0 0 4.913 3.723 4.772 4.772 0 0 0 4.418-2.636l3.791 2.274a9.354 9.354 0 0 1-8.341 4.217c-5.77 0-9.232-3.855-9.232-9.16zm4.517-2.009h9.364a4.486 4.486 0 0 0-4.748-3.526 4.573 4.573 0 0 0-4.616 3.526zm14.9-6.985h3.2v-.89c0-4.843 2.044-6.853 6.528-6.853h1.582v3.921h-1.285c-2.111 0-2.572.724-2.572 2.932v.89h3.857v4.085h-3.758v13.707h-4.352V22.324h-3.2zm12.166 8.9a9.113 9.113 0 0 1 9.3-9.259 9.259 9.259 0 1 1 0 18.517 8.977 8.977 0 0 1-9.297-9.262zm14.177 0a4.882 4.882 0 1 0-9.759 0 4.882 4.882 0 1 0 9.759 0zm10.55-.2l-6.429-8.7h5.341l3.792 5.469 3.89-5.469h5.243l-6.525 8.661 6.857 9.127h-5.308l-4.253-5.8-4.121 5.8h-5.308zM110.754 55.556A5.555 5.555 0 0 0 114 50.342c0-3.893-3.011-6.4-7.561-6.4H96V68.03h10.773c4.616 0 7.727-2.573 7.727-6.8a5.785 5.785 0 0 0-3.746-5.674zm-11.977-9.107h7.628c2.977 0 4.817 1.583 4.817 3.893s-1.606 4.026-4.583 4.026h-7.862zm7.962 19.041h-7.962v-8.581h7.828c3.346 0 5.086 1.749 5.086 4.291 0 2.507-1.941 4.29-4.952 4.29zm13.718-11.914V50.21h-2.643v17.82h2.71v-9.768c0-3.927 1.739-5.643 4.75-5.643a4.009 4.009 0 0 1 2.208.561l1.137-2.573a5.957 5.957 0 0 0-3.01-.661 5 5 0 0 0-5.152 3.63zm17.664-3.729a9.274 9.274 0 1 0 9.4 9.274 9.213 9.213 0 0 0-9.4-9.274zm0 15.972a6.717 6.717 0 0 1 0-13.431 6.716 6.716 0 0 1 0 13.431zm31.415-1.584l-5.387-14.025h-2.542l-5.519 14.124-4.55-14.124h-2.877l5.921 17.82h2.676l5.553-14.123 5.554 14.123h2.476l6.259-17.82h-2.844zm17.23-6.5c-2.81-.561-4.985-.924-4.985-2.771 0-1.651 1.138-2.839 3.915-2.839a5.856 5.856 0 0 1 4.951 2.376l2.275-1.518a8.783 8.783 0 0 0-7.226-3.168c-4.282-.033-6.724 2.409-6.724 5.182 0 3.563 3.312 4.388 6.423 4.982 2.642.528 5.118.924 5.118 2.9 0 1.782-1.472 3.1-4.282 3.1a6.7 6.7 0 0 1-5.821-2.9l-2.375 1.584c1.6 2.277 4.182 3.729 8.129 3.729 4.717.033 7.126-2.739 7.126-5.544 0-3.661-3.413-4.52-6.524-5.114zm18.2-7.887a9.2 9.2 0 0 0-9.433 9.34c0 5.214 3.747 9.206 9.534 9.206a9.311 9.311 0 0 0 8.4-4.521l-2.342-1.353a6.995 6.995 0 0 1-12.913-2.375h15.957v-1.223a8.852 8.852 0 0 0-9.203-9.075zm-6.69 7.92a6.685 6.685 0 0 1 6.69-5.511 6.06 6.06 0 0 1 6.39 5.511zm26.966-7.821a5 5 0 0 0-5.152 3.63V50.21h-2.644v17.82h2.71v-9.768c0-3.927 1.74-5.643 4.75-5.643a4 4 0 0 1 2.208.561l1.138-2.573a5.957 5.957 0 0 0-3.01-.661z" fill="#fff"/><path d="M103.756 84.112l-5.27-7.952H96v11.68h2.256v-8.208l5.434 8.208H106V76.16h-2.239zm4.888 3.728H111V76.16h-2.355zm10.506-4.54h3.82a3.282 3.282 0 0 1-3.425 2.528 3.759 3.759 0 0 1-3.92-3.828 3.815 3.815 0 0 1 3.887-3.856 3.662 3.662 0 0 1 3.178 1.616l1.959-1.328A6.21 6.21 0 0 0 119.512 76a6 6 0 1 0 .066 12 5.715 5.715 0 0 0 5.895-5.84v-.976h-6.323zm15.723-2.432h-4.858v-4.7h-2.338V87.84h2.338v-4.768h4.858v4.768h2.327V76.16h-2.322zm4.527-2.628h3.343v9.6h2.289v-9.6h3.309v-2.08H139.4zm13.484-2.08h-2.338v11.68h7.887v-2.192h-5.549zm12.58 0l-2.717 4.64-2.718-4.64h-2.552l4.084 6.752v4.928h2.339v-4.88l4.1-6.8z" fill="url(#o)"/></svg>