<svg height="80" width="366" viewBox="0 0 366 80" xmlns="http://www.w3.org/2000/svg"><linearGradient id="a" gradientUnits="userSpaceOnUse" x1="57.082" x2="18.997" y1="5.474" y2="71.439"><stop offset="0" stop-color="#ff9640"/><stop offset=".6" stop-color="#fc4055"/><stop offset="1" stop-color="#e31587"/></linearGradient><linearGradient id="b" gradientUnits="userSpaceOnUse" x1="57.082" x2="18.997" y1="5.474" y2="71.439"><stop offset="0" stop-color="#fff36e" stop-opacity=".8"/><stop offset=".094" stop-color="#fff36e" stop-opacity=".699"/><stop offset=".752" stop-color="#fff36e" stop-opacity="0"/></linearGradient><linearGradient id="c" gradientUnits="userSpaceOnUse" x1="48.99" x2="66.606" y1="47.048" y2="16.537"><stop offset="0" stop-color="#0090ed"/><stop offset=".386" stop-color="#5b6df8"/><stop offset=".629" stop-color="#9059ff"/><stop offset="1" stop-color="#b833e1"/></linearGradient><linearGradient id="d" gradientUnits="userSpaceOnUse" x1="48.305" x2="75.234" y1="37.697" y2="44.176"><stop offset="0" stop-color="#054096" stop-opacity=".5"/><stop offset=".054" stop-color="#0f3d9c" stop-opacity=".441"/><stop offset=".261" stop-color="#2f35b1" stop-opacity=".249"/><stop offset=".466" stop-color="#462fbf" stop-opacity=".111"/><stop offset=".669" stop-color="#542bc8" stop-opacity=".028"/><stop offset=".864" stop-color="#592acb" stop-opacity="0"/></linearGradient><linearGradient id="e" gradientUnits="userSpaceOnUse" x1="66.607" x2="58.343" y1="16.536" y2="30.85"><stop offset="0" stop-color="#722291" stop-opacity=".5"/><stop offset=".5" stop-color="#722291" stop-opacity="0"/></linearGradient><path d="M0 0h80v80H0z" fill="none"/><path d="M40 0A40.136 40.136 0 0 0 0 39.562 4.4 4.4 0 0 0 4.4 44H36v21.284l-10.174-10.16a4 4 0 1 0-5.652 5.661l17 16.977a4 4 0 0 0 5.652 0l17-16.977a4 4 0 1 0-5.652-5.661L44 65.284V44h31.6a4.4 4.4 0 0 0 4.4-4.447A40.133 40.133 0 0 0 40 0zM8.248 36a32 32 0 0 1 63.505 0z" fill="url(#a)"/><path d="M40 0A40.136 40.136 0 0 0 0 39.562 4.4 4.4 0 0 0 4.4 44H36v21.284l-10.174-10.16a4 4 0 1 0-5.652 5.661l17 16.977a4 4 0 0 0 5.652 0l17-16.977a4 4 0 1 0-5.652-5.661L44 65.284V44h31.6a4.4 4.4 0 0 0 4.4-4.447A40.133 40.133 0 0 0 40 0zM8.248 36a32 32 0 0 1 63.505 0z" fill="url(#b)"/><path d="M44 8.259A32.157 32.157 0 0 1 71.753 36H52a8 8 0 0 0-8 8h31.6a4.428 4.428 0 0 0 3.124-1.3A4.48 4.48 0 0 0 80 39.553c0-22.196-24.462-30.11-36-31.294z" fill="url(#c)"/><path d="M52 36a8 8 0 0 0-8 8h31.6a4.416 4.416 0 0 0 2.973-1.179L71.753 36z" fill="url(#d)" opacity=".9"/><path d="M80 39.553c0-22.2-24.443-30.124-36-31.294A32.157 32.157 0 0 1 71.753 36l6.821 6.821c.048-.044.105-.078.151-.124A4.48 4.48 0 0 0 80 39.553z" fill="url(#e)"/><g fill="#fff"><path d="M97 24h21.419v5.79h-15.274v7.851h15.274v5.746h-15.274v12.634H97zm28.705-2.237a3.444 3.444 0 0 1 3.555 3.6 3.577 3.577 0 0 1-7.154.088 3.553 3.553 0 0 1 3.599-3.686zm-3.028 10.571h6.057v23.687h-6.057zm23.613 6.579a4.9 4.9 0 0 0-2.94-1.053c-2.458 0-3.863 1.579-3.863 5.044v13.117h-6.013V32.336h5.75v3.421a5.647 5.647 0 0 1 5.662-3.641 7.194 7.194 0 0 1 4.038 1.228zm2.5 5.4a12.121 12.121 0 0 1 12.2-12.457c7.11 0 12.158 5.044 12.158 12.062v2.5h-18.431c.659 2.983 2.985 4.957 6.54 4.957a6.354 6.354 0 0 0 5.882-3.509l5.047 3.026c-2.5 3.685-6.057 5.614-11.1 5.614-7.686-.006-12.294-5.134-12.294-12.196zm6.013-2.676h12.467c-.658-3.026-3.116-4.693-6.32-4.693a6.088 6.088 0 0 0-6.145 4.69zm19.839-9.3h4.258v-1.186c0-6.448 2.721-9.123 8.69-9.123h2.11v5.22h-1.712c-2.809 0-3.423.964-3.423 3.9v1.185h5.135v5.438h-5v18.25h-5.8V37.774h-4.258zm16.2 11.842a12.131 12.131 0 0 1 12.378-12.325 12.325 12.325 0 1 1 0 24.65 11.951 11.951 0 0 1-12.38-12.326zm18.874 0a6.5 6.5 0 1 0-12.992 0 6.5 6.5 0 1 0 12.992 0zm14.045-.263l-8.561-11.58h7.11l5.048 7.281 5.179-7.281h6.979l-8.691 11.535 9.13 12.15h-7.067l-5.662-7.72-5.486 7.72h-7.067zM270.056 37.863c-4.7-1.006-8.514-1.618-8.514-5.468 0-3.193 2.217-5.467 7.14-5.467a10.2 10.2 0 0 1 9.134 4.68l3.015-2.318a14.638 14.638 0 0 0-12.149-5.643c-6.563 0-10.909 3.937-10.909 8.836 0 6.124 5.277 7.435 10.332 8.442 4.878 1.05 9.445 1.838 9.445 6.08 0 3.543-2.7 6.036-7.672 6.036a11.912 11.912 0 0 1-10.686-5.73L256 49.805c3.015 4.023 7.4 6.648 13.967 6.648 7.006 0 11.352-4.462 11.352-9.491 0-6.562-6.119-8.049-11.263-9.099zm27.449-5.949A12.2 12.2 0 0 0 285 44.293c0 6.912 4.965 12.2 12.637 12.2a12.339 12.339 0 0 0 11.131-5.993l-3.1-1.793a8.581 8.581 0 0 1-8.026 4.549c-5.055 0-8.559-3.193-9.091-7.7H309.7v-1.613c0-6.999-5.188-12.029-12.195-12.029zm-8.868 10.5a8.862 8.862 0 0 1 8.868-7.3c4.657 0 7.894 2.843 8.47 7.305zm37.3-10.5a9.607 9.607 0 0 0-8.337 4.418V32.4h-3.548v23.616h3.637V42.894a7.419 7.419 0 0 1 7.538-7.743c4.656 0 7.228 2.974 7.228 7.567v13.3h3.68V42.543c-.005-6.604-3.951-10.629-10.203-10.629zM361.409 21.5v15a10.924 10.924 0 0 0-8.958-4.593 12 12 0 0 0-12.194 12.292A11.948 11.948 0 0 0 352.451 56.5a10.892 10.892 0 0 0 8.958-4.68v4.2H365V21.5zm-8.648 31.626a8.684 8.684 0 0 1-8.824-8.967 8.763 8.763 0 0 1 8.824-8.967 8.967 8.967 0 0 1 0 17.934z"/></g></svg>
