<svg height="172" width="204" viewBox="0 0 204 172" xmlns="http://www.w3.org/2000/svg"><linearGradient id="a" gradientUnits="userSpaceOnUse" x1="127.623" x2="70.496" y1="8.211" y2="107.158"><stop offset="0" stop-color="#ff9640"/><stop offset=".6" stop-color="#fc4055"/><stop offset="1" stop-color="#e31587"/></linearGradient><linearGradient id="b" gradientUnits="userSpaceOnUse" x1="127.623" x2="70.496" y1="8.211" y2="107.158"><stop offset="0" stop-color="#fff36e" stop-opacity=".8"/><stop offset=".094" stop-color="#fff36e" stop-opacity=".699"/><stop offset=".752" stop-color="#fff36e" stop-opacity="0"/></linearGradient><linearGradient id="c" gradientUnits="userSpaceOnUse" x1="115.485" x2="141.908" y1="70.573" y2="24.806"><stop offset="0" stop-color="#0090ed"/><stop offset=".386" stop-color="#5b6df8"/><stop offset=".629" stop-color="#9059ff"/><stop offset="1" stop-color="#b833e1"/></linearGradient><linearGradient id="d" gradientUnits="userSpaceOnUse" x1="114.457" x2="154.85" y1="56.546" y2="66.264"><stop offset="0" stop-color="#054096" stop-opacity=".5"/><stop offset=".054" stop-color="#0f3d9c" stop-opacity=".441"/><stop offset=".261" stop-color="#2f35b1" stop-opacity=".249"/><stop offset=".466" stop-color="#462fbf" stop-opacity=".111"/><stop offset=".669" stop-color="#542bc8" stop-opacity=".028"/><stop offset=".864" stop-color="#592acb" stop-opacity="0"/></linearGradient><linearGradient id="e" gradientUnits="userSpaceOnUse" x1="141.91" x2="129.513" y1="24.803" y2="46.274"><stop offset="0" stop-color="#722291" stop-opacity=".5"/><stop offset=".5" stop-color="#722291" stop-opacity="0"/></linearGradient><path d="M42 0h120v120H42z" fill="none"/><path d="M102 0a60.2 60.2 0 0 0-60 59.342A6.6 6.6 0 0 0 48.6 66H96v31.926L80.739 82.685a6 6 0 0 0-8.478 8.492l25.5 25.466a6 6 0 0 0 8.478 0l25.5-25.466a6 6 0 0 0-8.478-8.492L108 97.926V66h47.4a6.6 6.6 0 0 0 6.6-6.67A60.2 60.2 0 0 0 102 0zM54.372 54a48.006 48.006 0 0 1 95.257 0z" fill="url(#a)"/><path d="M102 0a60.2 60.2 0 0 0-60 59.342A6.6 6.6 0 0 0 48.6 66H96v31.926L80.739 82.685a6 6 0 0 0-8.478 8.492l25.5 25.466a6 6 0 0 0 8.478 0l25.5-25.466a6 6 0 0 0-8.478-8.492L108 97.926V66h47.4a6.6 6.6 0 0 0 6.6-6.67A60.2 60.2 0 0 0 102 0zM54.372 54a48.006 48.006 0 0 1 95.257 0z" fill="url(#b)"/><path d="M108 12.388A48.236 48.236 0 0 1 149.629 54H120a12 12 0 0 0-12 12h47.4a6.642 6.642 0 0 0 4.686-1.955A6.719 6.719 0 0 0 162 59.33c0-33.294-36.693-45.165-54-46.942z" fill="url(#c)"/><path d="M120 54a12 12 0 0 0-12 12h47.4a6.629 6.629 0 0 0 4.46-1.768L149.629 54z" fill="url(#d)" opacity=".9"/><path d="M162 59.33c0-33.294-36.664-45.186-54-46.942A48.236 48.236 0 0 1 149.629 54l10.232 10.232c.072-.067.157-.117.226-.187A6.719 6.719 0 0 0 162 59.33z" fill="url(#e)"/><g fill="#fff"><path d="M1.362 144.59h16.087v4.349H5.977v5.9h11.472v4.315H5.977v9.488H1.362zm21.559-1.68a2.7 2.7 0 0 1-.033 5.4 2.553 2.553 0 0 1-2.671-2.636 2.669 2.669 0 0 1 2.704-2.764zm-2.275 7.939H25.2v17.789h-4.554zm17.735 4.941a3.681 3.681 0 0 0-2.209-.79c-1.846 0-2.9 1.186-2.9 3.788v9.85h-4.517v-17.789h4.318v2.57a4.242 4.242 0 0 1 4.253-2.735 5.4 5.4 0 0 1 3.032.923zm1.878 4.052a9.1 9.1 0 0 1 9.164-9.355 8.756 8.756 0 0 1 9.131 9.059v1.877H44.71a4.659 4.659 0 0 0 4.911 3.723 4.77 4.77 0 0 0 4.417-2.636l3.791 2.273a9.35 9.35 0 0 1-8.34 4.217c-5.768 0-9.23-3.854-9.23-9.158zm4.517-2.009h9.361a4.484 4.484 0 0 0-4.747-3.525 4.571 4.571 0 0 0-4.614 3.525zm14.9-6.984h3.2v-.889c0-4.843 2.043-6.852 6.527-6.852h1.582v3.92H69.7c-2.109 0-2.571.725-2.571 2.932v.889h3.857v4.085h-3.762v13.7h-4.351v-13.7h-3.2zm12.164 8.894a9.11 9.11 0 0 1 9.3-9.256 9.257 9.257 0 1 1 0 18.513 8.976 8.976 0 0 1-9.301-9.257zm14.174 0a4.881 4.881 0 1 0-4.878 5.04 4.883 4.883 0 0 0 4.877-5.04zm10.549-.2l-6.428-8.7h5.34l3.791 5.468 3.889-5.468h5.245l-6.527 8.664 6.856 9.125h-5.307l-4.252-5.8-4.121 5.8h-5.311zM131.332 155c-3.53-.755-6.394-1.215-6.394-4.106 0-2.4 1.665-4.106 5.362-4.106a7.655 7.655 0 0 1 6.86 3.515l2.265-1.741a11 11 0 0 0-9.125-4.238c-4.929 0-8.192 2.957-8.192 6.636 0 4.6 3.963 5.584 7.759 6.34 3.664.789 7.094 1.38 7.094 4.567 0 2.66-2.032 4.533-5.762 4.533a8.946 8.946 0 0 1-8.026-4.3l-2.4 1.873a12.287 12.287 0 0 0 10.489 4.993c5.262 0 8.526-3.351 8.526-7.128.003-4.932-4.588-6.049-8.456-6.838zm20.615-4.467a9.16 9.16 0 0 0-9.39 9.3c0 5.19 3.729 9.165 9.491 9.165a9.266 9.266 0 0 0 8.358-4.5l-2.331-1.346a6.963 6.963 0 0 1-12.854-2.365h15.885v-1.216a8.812 8.812 0 0 0-9.159-9.038zm-6.66 7.884a6.655 6.655 0 0 1 6.66-5.486 6.031 6.031 0 0 1 6.361 5.486zm28.01-7.884a7.213 7.213 0 0 0-6.261 3.318v-2.957h-2.665v17.74h2.729v-9.855a5.572 5.572 0 0 1 5.661-5.815c3.5 0 5.429 2.233 5.429 5.683v9.987h2.764v-10.119c.002-4.96-2.962-7.982-7.654-7.982zm26.644-7.819v11.268a8.2 8.2 0 0 0-6.728-3.449 9.231 9.231 0 0 0 0 18.462 8.18 8.18 0 0 0 6.728-3.515v3.154h2.7v-25.92zm-6.5 23.752a6.735 6.735 0 0 1 0-13.469 6.735 6.735 0 0 1 0 13.469z"/></g></svg>
