<svg height="80" width="208" viewBox="0 0 208 80" xmlns="http://www.w3.org/2000/svg"><linearGradient id="a" gradientUnits="userSpaceOnUse" x1="57.082" x2="18.997" y1="5.474" y2="71.439"><stop offset="0" stop-color="#ff9640"/><stop offset=".6" stop-color="#fc4055"/><stop offset="1" stop-color="#e31587"/></linearGradient><linearGradient id="b" gradientUnits="userSpaceOnUse" x1="57.082" x2="18.997" y1="5.474" y2="71.439"><stop offset="0" stop-color="#fff36e" stop-opacity=".8"/><stop offset=".094" stop-color="#fff36e" stop-opacity=".699"/><stop offset=".752" stop-color="#fff36e" stop-opacity="0"/></linearGradient><linearGradient id="c" gradientUnits="userSpaceOnUse" x1="48.99" x2="66.606" y1="47.048" y2="16.537"><stop offset="0" stop-color="#0090ed"/><stop offset=".386" stop-color="#5b6df8"/><stop offset=".629" stop-color="#9059ff"/><stop offset="1" stop-color="#b833e1"/></linearGradient><linearGradient id="d" gradientUnits="userSpaceOnUse" x1="48.305" x2="75.234" y1="37.697" y2="44.176"><stop offset="0" stop-color="#054096" stop-opacity=".5"/><stop offset=".054" stop-color="#0f3d9c" stop-opacity=".441"/><stop offset=".261" stop-color="#2f35b1" stop-opacity=".249"/><stop offset=".466" stop-color="#462fbf" stop-opacity=".111"/><stop offset=".669" stop-color="#542bc8" stop-opacity=".028"/><stop offset=".864" stop-color="#592acb" stop-opacity="0"/></linearGradient><linearGradient id="e" gradientUnits="userSpaceOnUse" x1="66.607" x2="58.343" y1="16.536" y2="30.85"><stop offset="0" stop-color="#722291" stop-opacity=".5"/><stop offset=".5" stop-color="#722291" stop-opacity="0"/></linearGradient><path d="M0 0h80v80H0z" fill="none"/><path d="M40 0A40.136 40.136 0 0 0 0 39.562 4.4 4.4 0 0 0 4.4 44H36v21.284l-10.174-10.16a4 4 0 1 0-5.652 5.661l17 16.977a4 4 0 0 0 5.652 0l17-16.977a4 4 0 1 0-5.652-5.661L44 65.284V44h31.6a4.4 4.4 0 0 0 4.4-4.447A40.133 40.133 0 0 0 40 0zM8.248 36a32 32 0 0 1 63.505 0z" fill="url(#a)"/><path d="M40 0A40.136 40.136 0 0 0 0 39.562 4.4 4.4 0 0 0 4.4 44H36v21.284l-10.174-10.16a4 4 0 1 0-5.652 5.661l17 16.977a4 4 0 0 0 5.652 0l17-16.977a4 4 0 1 0-5.652-5.661L44 65.284V44h31.6a4.4 4.4 0 0 0 4.4-4.447A40.133 40.133 0 0 0 40 0zM8.248 36a32 32 0 0 1 63.505 0z" fill="url(#b)"/><path d="M44 8.259A32.157 32.157 0 0 1 71.753 36H52a8 8 0 0 0-8 8h31.6a4.428 4.428 0 0 0 3.124-1.3A4.48 4.48 0 0 0 80 39.553c0-22.196-24.462-30.11-36-31.294z" fill="url(#c)"/><path d="M52 36a8 8 0 0 0-8 8h31.6a4.416 4.416 0 0 0 2.973-1.179L71.753 36z" fill="url(#d)" opacity=".9"/><path d="M80 39.553c0-22.2-24.443-30.124-36-31.294A32.157 32.157 0 0 1 71.753 36l6.821 6.821c.048-.044.105-.078.151-.124A4.48 4.48 0 0 0 80 39.553z" fill="url(#e)"/><g fill="#20123a"><path d="M96 11.978h16.09v4.35h-11.474v5.9h11.474v4.316h-11.474v9.49H96zm21.563-1.68a2.588 2.588 0 0 1 2.67 2.7 2.687 2.687 0 0 1-5.374.066 2.669 2.669 0 0 1 2.704-2.764zm-2.275 7.941h4.55v17.792h-4.55zm17.738 4.942a3.682 3.682 0 0 0-2.209-.791c-1.847 0-2.9 1.186-2.9 3.789v9.852H123.4V18.239h4.319v2.57a4.244 4.244 0 0 1 4.254-2.735A5.4 5.4 0 0 1 135 19zm1.879 4.052a9.1 9.1 0 0 1 9.166-9.357 8.759 8.759 0 0 1 9.133 9.061v1.878h-13.848a4.661 4.661 0 0 0 4.913 3.723 4.772 4.772 0 0 0 4.418-2.636l3.791 2.274a9.354 9.354 0 0 1-8.341 4.217c-5.77 0-9.232-3.855-9.232-9.16zm4.517-2.009h9.364a4.486 4.486 0 0 0-4.748-3.526 4.573 4.573 0 0 0-4.616 3.526zm14.9-6.985h3.2v-.89c0-4.843 2.044-6.853 6.528-6.853h1.582v3.921h-1.285c-2.111 0-2.572.724-2.572 2.932v.89h3.857v4.085h-3.758v13.707h-4.352V22.324h-3.2zm12.166 8.9a9.113 9.113 0 0 1 9.3-9.259 9.259 9.259 0 1 1 0 18.517 8.977 8.977 0 0 1-9.297-9.262zm14.177 0a4.882 4.882 0 1 0-9.759 0 4.882 4.882 0 1 0 9.759 0zm10.55-.2l-6.429-8.7h5.341l3.792 5.469 3.89-5.469h5.243l-6.525 8.661 6.857 9.127h-5.308l-4.253-5.8-4.121 5.8h-5.308zM106.6 54.335c-3.546-.759-6.423-1.221-6.423-4.125 0-2.409 1.673-4.125 5.387-4.125a7.69 7.69 0 0 1 6.891 3.532l2.275-1.75a11.045 11.045 0 0 0-9.166-4.257c-4.952 0-8.23 2.97-8.23 6.666 0 4.621 3.981 5.61 7.794 6.369 3.681.792 7.126 1.387 7.126 4.588 0 2.672-2.04 4.553-5.788 4.553a8.987 8.987 0 0 1-8.062-4.323L96 63.345a12.346 12.346 0 0 0 10.537 5.015c5.286 0 8.564-3.366 8.564-7.16-.001-4.951-4.616-6.073-8.501-6.865zm20.709-4.488a9.2 9.2 0 0 0-9.433 9.34c0 5.214 3.746 9.206 9.534 9.206a9.309 9.309 0 0 0 8.4-4.521l-2.341-1.353a6.995 6.995 0 0 1-12.913-2.375h15.957v-1.222a8.852 8.852 0 0 0-9.2-9.075zm-6.69 7.92a6.685 6.685 0 0 1 6.69-5.511 6.06 6.06 0 0 1 6.39 5.511zm28.136-7.92a7.245 7.245 0 0 0-6.289 3.333v-2.97h-2.677v17.82h2.744v-9.9a5.6 5.6 0 0 1 5.686-5.842c3.513 0 5.453 2.244 5.453 5.709V68.03h2.777V57.866c.004-4.982-2.973-8.019-7.69-8.019zm26.765-7.854v11.319a8.24 8.24 0 0 0-6.758-3.465 9.273 9.273 0 0 0 0 18.546 8.215 8.215 0 0 0 6.758-3.531v3.168h2.709V41.993zM169 65.852a6.766 6.766 0 0 1 0-13.53 6.765 6.765 0 0 1 0 13.53z"/></g></svg>
