<svg height="172" width="204" viewBox="0 0 204 172" xmlns="http://www.w3.org/2000/svg"><linearGradient id="a" gradientUnits="userSpaceOnUse" x1="127.623" x2="70.496" y1="8.211" y2="107.158"><stop offset="0" stop-color="#ff9640"/><stop offset=".6" stop-color="#fc4055"/><stop offset="1" stop-color="#e31587"/></linearGradient><linearGradient id="b" gradientUnits="userSpaceOnUse" x1="127.623" x2="70.496" y1="8.211" y2="107.158"><stop offset="0" stop-color="#fff36e" stop-opacity=".8"/><stop offset=".094" stop-color="#fff36e" stop-opacity=".699"/><stop offset=".752" stop-color="#fff36e" stop-opacity="0"/></linearGradient><linearGradient id="c" gradientUnits="userSpaceOnUse" x1="115.485" x2="141.908" y1="70.573" y2="24.806"><stop offset="0" stop-color="#0090ed"/><stop offset=".386" stop-color="#5b6df8"/><stop offset=".629" stop-color="#9059ff"/><stop offset="1" stop-color="#b833e1"/></linearGradient><linearGradient id="d" gradientUnits="userSpaceOnUse" x1="114.457" x2="154.85" y1="56.546" y2="66.264"><stop offset="0" stop-color="#054096" stop-opacity=".5"/><stop offset=".054" stop-color="#0f3d9c" stop-opacity=".441"/><stop offset=".261" stop-color="#2f35b1" stop-opacity=".249"/><stop offset=".466" stop-color="#462fbf" stop-opacity=".111"/><stop offset=".669" stop-color="#542bc8" stop-opacity=".028"/><stop offset=".864" stop-color="#592acb" stop-opacity="0"/></linearGradient><linearGradient id="e" gradientUnits="userSpaceOnUse" x1="141.91" x2="129.513" y1="24.803" y2="46.274"><stop offset="0" stop-color="#722291" stop-opacity=".5"/><stop offset=".5" stop-color="#722291" stop-opacity="0"/></linearGradient><path d="M42 0h120v120H42z" fill="none"/><path d="M102 0a60.2 60.2 0 0 0-60 59.342A6.6 6.6 0 0 0 48.6 66H96v31.926L80.739 82.685a6 6 0 0 0-8.478 8.492l25.5 25.466a6 6 0 0 0 8.478 0l25.5-25.466a6 6 0 0 0-8.478-8.492L108 97.926V66h47.4a6.6 6.6 0 0 0 6.6-6.67A60.2 60.2 0 0 0 102 0zM54.372 54a48.006 48.006 0 0 1 95.257 0z" fill="url(#a)"/><path d="M102 0a60.2 60.2 0 0 0-60 59.342A6.6 6.6 0 0 0 48.6 66H96v31.926L80.739 82.685a6 6 0 0 0-8.478 8.492l25.5 25.466a6 6 0 0 0 8.478 0l25.5-25.466a6 6 0 0 0-8.478-8.492L108 97.926V66h47.4a6.6 6.6 0 0 0 6.6-6.67A60.2 60.2 0 0 0 102 0zM54.372 54a48.006 48.006 0 0 1 95.257 0z" fill="url(#b)"/><path d="M108 12.388A48.236 48.236 0 0 1 149.629 54H120a12 12 0 0 0-12 12h47.4a6.642 6.642 0 0 0 4.686-1.955A6.719 6.719 0 0 0 162 59.33c0-33.294-36.693-45.165-54-46.942z" fill="url(#c)"/><path d="M120 54a12 12 0 0 0-12 12h47.4a6.629 6.629 0 0 0 4.46-1.768L149.629 54z" fill="url(#d)" opacity=".9"/><path d="M162 59.33c0-33.294-36.664-45.186-54-46.942A48.236 48.236 0 0 1 149.629 54l10.232 10.232c.072-.067.157-.117.226-.187A6.719 6.719 0 0 0 162 59.33z" fill="url(#e)"/><g fill="#20123a"><path d="M1.713 144.59H17.8v4.349H6.328v5.9H17.8v4.315H6.328v9.488H1.713zm21.558-1.68a2.7 2.7 0 0 1-.033 5.4 2.553 2.553 0 0 1-2.67-2.636 2.669 2.669 0 0 1 2.703-2.764zM21 150.849h4.549v17.789H21zm17.734 4.941a3.676 3.676 0 0 0-2.208-.79c-1.846 0-2.9 1.186-2.9 3.788v9.85h-4.52v-17.789h4.318v2.57a4.242 4.242 0 0 1 4.252-2.735 5.4 5.4 0 0 1 3.033.923zm1.879 4.052a9.1 9.1 0 0 1 9.164-9.355 8.757 8.757 0 0 1 9.131 9.059v1.877H45.06a4.661 4.661 0 0 0 4.912 3.723 4.77 4.77 0 0 0 4.417-2.636l3.791 2.273A9.35 9.35 0 0 1 49.84 169c-5.768 0-9.23-3.854-9.23-9.158zm4.516-2.009h9.362a4.484 4.484 0 0 0-4.747-3.525 4.573 4.573 0 0 0-4.618 3.525zm14.9-6.984h3.2v-.889c0-4.843 2.044-6.852 6.527-6.852h1.583v3.92h-1.292c-2.11 0-2.571.725-2.571 2.932v.889h3.857v4.085h-3.758v13.7h-4.352v-13.7h-3.2zm12.164 8.894a9.11 9.11 0 0 1 9.3-9.256 9.257 9.257 0 1 1 0 18.513 8.976 8.976 0 0 1-9.303-9.257zm14.174 0a4.881 4.881 0 1 0-4.879 5.04 4.884 4.884 0 0 0 4.876-5.04zm10.549-.2l-6.428-8.7h5.34l3.791 5.468 3.889-5.468h5.242l-6.527 8.664 6.856 9.125h-5.307l-4.252-5.8-4.121 5.8h-5.31zM130.981 155c-3.53-.755-6.394-1.215-6.394-4.106 0-2.4 1.666-4.106 5.362-4.106a7.654 7.654 0 0 1 6.86 3.515l2.265-1.741a10.993 10.993 0 0 0-9.125-4.238c-4.929 0-8.192 2.957-8.192 6.636 0 4.6 3.963 5.584 7.759 6.34 3.664.789 7.094 1.38 7.094 4.567 0 2.66-2.032 4.533-5.762 4.533a8.943 8.943 0 0 1-8.025-4.3l-2.4 1.873a12.287 12.287 0 0 0 10.49 4.993c5.261 0 8.525-3.351 8.525-7.128.002-4.932-4.593-6.049-8.457-6.838zm20.616-4.467a9.161 9.161 0 0 0-9.391 9.3c0 5.19 3.729 9.165 9.491 9.165a9.266 9.266 0 0 0 8.358-4.5l-2.331-1.346a6.963 6.963 0 0 1-12.854-2.365h15.885v-1.216a8.811 8.811 0 0 0-9.155-9.038zm-6.661 7.884a6.656 6.656 0 0 1 6.661-5.486 6.031 6.031 0 0 1 6.36 5.486zm28.01-7.884a7.213 7.213 0 0 0-6.261 3.318v-2.957h-2.665v17.74h2.731v-9.855a5.572 5.572 0 0 1 5.662-5.815c3.5 0 5.428 2.233 5.428 5.683v9.987h2.764v-10.119c0-4.96-2.964-7.982-7.659-7.982zm26.644-7.819v11.268a8.2 8.2 0 0 0-6.728-3.449 9.231 9.231 0 0 0 0 18.462 8.18 8.18 0 0 0 6.728-3.515v3.154h2.7v-25.92zm-6.5 23.752a6.735 6.735 0 0 1 0-13.469 6.735 6.735 0 0 1 0 13.469z"/></g></svg>
