<svg height="208" width="128" viewBox="0 0 128 208" xmlns="http://www.w3.org/2000/svg"><linearGradient id="a" gradientUnits="userSpaceOnUse" x1="89.623" x2="32.496" y1="8.211" y2="107.158"><stop offset="0" stop-color="#ff9640"/><stop offset=".6" stop-color="#fc4055"/><stop offset="1" stop-color="#e31587"/></linearGradient><linearGradient id="b" gradientUnits="userSpaceOnUse" x1="89.623" x2="32.496" y1="8.211" y2="107.158"><stop offset="0" stop-color="#fff36e" stop-opacity=".8"/><stop offset=".094" stop-color="#fff36e" stop-opacity=".699"/><stop offset=".752" stop-color="#fff36e" stop-opacity="0"/></linearGradient><linearGradient id="c" gradientUnits="userSpaceOnUse" x1="77.485" x2="103.908" y1="70.573" y2="24.806"><stop offset="0" stop-color="#0090ed"/><stop offset=".386" stop-color="#5b6df8"/><stop offset=".629" stop-color="#9059ff"/><stop offset="1" stop-color="#b833e1"/></linearGradient><linearGradient id="d" gradientUnits="userSpaceOnUse" x1="76.457" x2="116.85" y1="56.546" y2="66.264"><stop offset="0" stop-color="#054096" stop-opacity=".5"/><stop offset=".054" stop-color="#0f3d9c" stop-opacity=".441"/><stop offset=".261" stop-color="#2f35b1" stop-opacity=".249"/><stop offset=".466" stop-color="#462fbf" stop-opacity=".111"/><stop offset=".669" stop-color="#542bc8" stop-opacity=".028"/><stop offset=".864" stop-color="#592acb" stop-opacity="0"/></linearGradient><linearGradient id="e" gradientUnits="userSpaceOnUse" x1="103.91" x2="91.513" y1="24.803" y2="46.274"><stop offset="0" stop-color="#722291" stop-opacity=".5"/><stop offset=".5" stop-color="#722291" stop-opacity="0"/></linearGradient><path d="M4 0h120v120H4z" fill="none"/><path d="M64 0A60.2 60.2 0 0 0 4 59.342 6.6 6.6 0 0 0 10.6 66H58v31.926L42.739 82.685a6 6 0 0 0-8.478 8.492l25.5 25.466a6 6 0 0 0 8.478 0l25.5-25.466a6 6 0 0 0-8.478-8.492L70 97.926V66h47.4a6.6 6.6 0 0 0 6.6-6.67A60.2 60.2 0 0 0 64 0zM16.372 54a48.006 48.006 0 0 1 95.257 0z" fill="url(#a)"/><path d="M64 0A60.2 60.2 0 0 0 4 59.342 6.6 6.6 0 0 0 10.6 66H58v31.926L42.739 82.685a6 6 0 0 0-8.478 8.492l25.5 25.466a6 6 0 0 0 8.478 0l25.5-25.466a6 6 0 0 0-8.478-8.492L70 97.926V66h47.4a6.6 6.6 0 0 0 6.6-6.67A60.2 60.2 0 0 0 64 0zM16.372 54a48.006 48.006 0 0 1 95.257 0z" fill="url(#b)"/><path d="M70 12.388A48.236 48.236 0 0 1 111.629 54H82a12 12 0 0 0-12 12h47.4a6.642 6.642 0 0 0 4.686-1.955A6.719 6.719 0 0 0 124 59.33c0-33.294-36.693-45.165-54-46.942z" fill="url(#c)"/><path d="M82 54a12 12 0 0 0-12 12h47.4a6.629 6.629 0 0 0 4.46-1.768L111.629 54z" fill="url(#d)" opacity=".9"/><path d="M124 59.33c0-33.294-36.664-45.186-54-46.942A48.236 48.236 0 0 1 111.629 54l10.232 10.232c.072-.067.157-.117.226-.187A6.719 6.719 0 0 0 124 59.33z" fill="url(#e)"/><g fill="#20123a"><path d="M10.308 143.978H26.4v4.35H14.924v5.9H26.4v4.316H14.924v9.49h-4.616zM31.87 142.3a2.7 2.7 0 0 1-.033 5.4 2.553 2.553 0 0 1-2.67-2.636 2.669 2.669 0 0 1 2.703-2.764zm-2.27 7.939h4.55v17.792H29.6zm17.738 4.942a3.677 3.677 0 0 0-2.209-.791c-1.846 0-2.9 1.186-2.9 3.789v9.852h-4.523v-17.792h4.319v2.57a4.242 4.242 0 0 1 4.253-2.735 5.4 5.4 0 0 1 3.034.922zm1.88 4.052a9.1 9.1 0 0 1 9.166-9.357 8.758 8.758 0 0 1 9.132 9.061v1.878H53.664a4.66 4.66 0 0 0 4.912 3.723 4.771 4.771 0 0 0 4.418-2.636l3.792 2.274a9.354 9.354 0 0 1-8.342 4.217c-5.769 0-9.231-3.855-9.231-9.16zm4.517-2.009h9.363a4.485 4.485 0 0 0-4.747-3.526 4.573 4.573 0 0 0-4.621 3.526zm14.9-6.985h3.2v-.89c0-4.843 2.045-6.853 6.529-6.853h1.582v3.921h-1.291c-2.11 0-2.571.724-2.571 2.932v.89h3.857v4.085h-3.758v13.707H71.83v-13.707h-3.2zm12.166 8.9a9.113 9.113 0 0 1 9.3-9.259 9.259 9.259 0 1 1 0 18.517 8.978 8.978 0 0 1-9.301-9.262zm14.178 0a4.883 4.883 0 1 0-4.88 5.041 4.885 4.885 0 0 0 4.877-5.045zm10.55-.2l-6.429-8.7h5.341l3.792 5.469 3.89-5.469h5.243l-6.529 8.665 6.858 9.127h-5.308l-4.253-5.8-4.121 5.8H98.7zM33.487 190.335c-3.545-.759-6.423-1.221-6.423-4.125 0-2.409 1.673-4.125 5.387-4.125a7.69 7.69 0 0 1 6.891 3.532l2.275-1.75a11.045 11.045 0 0 0-9.166-4.257c-4.951 0-8.23 2.97-8.23 6.666 0 4.621 3.981 5.61 7.795 6.369 3.68.792 7.126 1.387 7.126 4.588 0 2.672-2.041 4.553-5.788 4.553a8.985 8.985 0 0 1-8.062-4.323l-2.409 1.882a12.347 12.347 0 0 0 10.538 5.015c5.285 0 8.564-3.366 8.564-7.16 0-4.951-4.617-6.073-8.498-6.865zm20.713-4.488a9.2 9.2 0 0 0-9.433 9.34c0 5.214 3.746 9.206 9.534 9.206a9.311 9.311 0 0 0 8.4-4.521l-2.342-1.353a6.473 6.473 0 0 1-6.055 3.432 6.5 6.5 0 0 1-6.858-5.807H63.4v-1.222a8.852 8.852 0 0 0-9.2-9.075zm-6.69 7.92a6.685 6.685 0 0 1 6.69-5.511 6.06 6.06 0 0 1 6.39 5.511zm28.136-7.92a7.246 7.246 0 0 0-6.289 3.333v-2.97h-2.681v17.82h2.744v-9.9a5.6 5.6 0 0 1 5.687-5.842c3.512 0 5.453 2.244 5.453 5.709v10.033h2.776v-10.164c0-4.982-2.977-8.019-7.694-8.019zm26.765-7.854v11.319a8.24 8.24 0 0 0-6.758-3.465 9.273 9.273 0 0 0 0 18.546 8.215 8.215 0 0 0 6.758-3.531v3.168h2.71v-26.037zm-6.524 23.859a6.766 6.766 0 0 1 0-13.53 6.765 6.765 0 0 1 0 13.53z"/></g></svg>
